<svg width="2970" height="1988" viewBox="0 0 2970 1988" fill="none" xmlns="http://www.w3.org/2000/svg" xmlns:xlink="http://www.w3.org/1999/xlink">
<path d="M1051.498,1230.634C1129.138,1230.634 1192.078,1206.699 1192.078,1177.174C1192.078,1147.649 1129.138,1123.714 1051.498,1123.714C973.858,1123.714 910.918,1147.649 910.918,1177.174C910.918,1206.699 973.858,1230.634 1051.498,1230.634Z" fill="url(#pf_0_1_1923)"/>
<path d="M1051.498,1317.754C1081.023,1317.754 1104.958,1254.814 1104.958,1177.174C1104.958,1099.534 1081.023,1036.594 1051.498,1036.594C1021.973,1036.594 998.038,1099.534 998.038,1177.174C998.038,1254.814 1021.973,1317.754 1051.498,1317.754Z" fill="url(#pf_0_1_1925)"/>
<path d="M1037.242,1930.365C1086.888,1930.365 1127.134,1915.118 1127.134,1896.309C1127.134,1877.501 1086.888,1862.253 1037.242,1862.253C987.596,1862.253 947.35,1877.501 947.35,1896.309C947.35,1915.118 987.596,1930.365 1037.242,1930.365Z" fill="url(#pf_0_1_1928)"/>
<path d="M1037.242,1986.201C1056.05,1986.201 1071.298,1945.955 1071.298,1896.309C1071.298,1846.663 1056.05,1806.417 1037.242,1806.417C1018.433,1806.417 1003.186,1846.663 1003.186,1896.309C1003.186,1945.955 1018.433,1986.201 1037.242,1986.201Z" fill="url(#pf_0_1_1930)"/>
<path d="M2131.39,150.345C2181.036,150.345 2221.282,135.098 2221.282,116.289C2221.282,97.481 2181.036,82.233 2131.39,82.233C2081.744,82.233 2041.497,97.481 2041.497,116.289C2041.497,135.098 2081.744,150.345 2131.39,150.345Z" fill="url(#pf_0_1_1933)"/>
<path d="M2131.39,206.181C2150.198,206.181 2165.446,165.935 2165.446,116.289C2165.446,66.643 2150.198,26.397 2131.39,26.397C2112.581,26.397 2097.334,66.643 2097.334,116.289C2097.334,165.935 2112.581,206.181 2131.39,206.181Z" fill="url(#pf_0_1_1935)"/>
<path d="M2824.786,1869.778C2847.358,1903.042 2876.662,1922.446 2890.126,1912.942C2903.986,1903.834 2896.858,1869.382 2874.286,1836.118C2851.714,1802.854 2822.41,1783.45 2808.946,1792.954C2795.086,1802.458 2802.214,1836.514 2824.786,1869.778Z" fill="url(#pf_0_1_1937)"/>
<g opacity="0.6">
<path d="M2832.705,1828.198C2799.442,1850.77 2780.037,1880.074 2789.541,1893.538C2798.649,1907.398 2833.101,1900.27 2866.365,1877.698C2899.629,1855.126 2919.034,1825.822 2909.53,1812.358C2900.026,1798.894 2865.969,1805.626 2832.705,1828.198Z" fill="url(#pf_0_1_1938)"/>
</g>
<path d="M1921.114,1216.378C1943.686,1249.642 1972.99,1269.046 1986.454,1259.542C2000.314,1250.434 1993.186,1215.982 1970.614,1182.718C1948.042,1149.454 1918.738,1130.05 1905.274,1139.554C1891.81,1149.058 1898.938,1183.51 1921.114,1216.378Z" fill="url(#pf_0_1_1940)"/>
<g opacity="0.6">
<path d="M1929.43,1174.798C1896.166,1197.37 1876.762,1226.674 1886.266,1240.138C1895.374,1253.998 1929.826,1246.87 1963.09,1224.298C1996.354,1201.726 2015.758,1172.422 2006.254,1158.958C1996.75,1145.494 1962.298,1152.622 1929.43,1174.798Z" fill="url(#pf_0_1_1941)"/>
</g>
<path d="M1066.942,336.069C1089.514,369.333 1118.818,388.737 1132.282,379.233C1146.142,370.125 1139.014,335.673 1116.442,302.409C1093.87,269.145 1064.566,249.741 1051.102,259.245C1037.242,268.353 1044.37,302.805 1066.942,336.069Z" fill="url(#pf_0_1_1943)"/>
<g opacity="0.6">
<path d="M1074.861,294.489C1041.598,317.061 1022.194,346.365 1031.698,359.829C1040.806,373.689 1075.257,366.561 1108.521,343.989C1141.785,321.417 1161.19,292.113 1151.686,278.649C1142.578,264.789 1108.125,271.917 1074.861,294.489Z" fill="url(#pf_0_1_1944)"/>
</g>
<defs>
<radialGradient id="pf_0_1_1923" cx="0" cy="0" r="1" gradientUnits="userSpaceOnUse" gradientTransform="matrix(-41.354479 0 0 -41.590199 525.756 588.524)">
<stop stop-color="#FA316D"/>
<stop offset="0.048" stop-color="#D92B65" stop-opacity="0.951"/>
<stop offset="0.119" stop-color="#B0235C" stop-opacity="0.881"/>
<stop offset="0.195" stop-color="#8B1C53" stop-opacity="0.804"/>
<stop offset="0.277" stop-color="#6C174C" stop-opacity="0.722"/>
<stop offset="0.366" stop-color="#531246" stop-opacity="0.632"/>
<stop offset="0.466" stop-color="#400E42" stop-opacity="0.533"/>
<stop offset="0.581" stop-color="#320C3E" stop-opacity="0.417"/>
<stop offset="0.726" stop-color="#2A0A3D" stop-opacity="0.272"/>
<stop offset="0.997" stop-color="#280A3C" stop-opacity="0"/>
</radialGradient>
<radialGradient id="pf_0_1_1925" cx="0" cy="0" r="1" gradientUnits="userSpaceOnUse" gradientTransform="matrix(0 -41.354479 41.590199 0 525.78 588.529)">
<stop stop-color="#FA316D"/>
<stop offset="0.048" stop-color="#D92B65" stop-opacity="0.951"/>
<stop offset="0.119" stop-color="#B0235C" stop-opacity="0.881"/>
<stop offset="0.195" stop-color="#8B1C53" stop-opacity="0.804"/>
<stop offset="0.277" stop-color="#6C174C" stop-opacity="0.722"/>
<stop offset="0.366" stop-color="#531246" stop-opacity="0.632"/>
<stop offset="0.466" stop-color="#400E42" stop-opacity="0.533"/>
<stop offset="0.581" stop-color="#320C3E" stop-opacity="0.417"/>
<stop offset="0.726" stop-color="#2A0A3D" stop-opacity="0.272"/>
<stop offset="0.997" stop-color="#280A3C" stop-opacity="0"/>
</radialGradient>
<radialGradient id="pf_0_1_1928" cx="0" cy="0" r="1" gradientUnits="userSpaceOnUse" gradientTransform="matrix(-26.397141 0 0 -26.547644 518.704 948.122)">
<stop stop-color="#FFC66A"/>
<stop offset="0.066" stop-color="#D09E60" stop-opacity="0.934"/>
<stop offset="0.135" stop-color="#A77C57" stop-opacity="0.865"/>
<stop offset="0.211" stop-color="#825D4F" stop-opacity="0.789"/>
<stop offset="0.291" stop-color="#634348" stop-opacity="0.709"/>
<stop offset="0.379" stop-color="#4A2E42" stop-opacity="0.621"/>
<stop offset="0.477" stop-color="#371E3E" stop-opacity="0.523"/>
<stop offset="0.591" stop-color="#29133B" stop-opacity="0.409"/>
<stop offset="0.733" stop-color="#210C3A" stop-opacity="0.267"/>
<stop offset="1" stop-color="#1F0A39" stop-opacity="0"/>
</radialGradient>
<radialGradient id="pf_0_1_1930" cx="0" cy="0" r="1" gradientUnits="userSpaceOnUse" gradientTransform="matrix(0 -26.397141 26.547644 0 518.736 948.125)">
<stop stop-color="#FFC66A"/>
<stop offset="0.066" stop-color="#D09E60" stop-opacity="0.934"/>
<stop offset="0.135" stop-color="#A77C57" stop-opacity="0.865"/>
<stop offset="0.211" stop-color="#825D4F" stop-opacity="0.789"/>
<stop offset="0.291" stop-color="#634348" stop-opacity="0.709"/>
<stop offset="0.379" stop-color="#4A2E42" stop-opacity="0.621"/>
<stop offset="0.477" stop-color="#371E3E" stop-opacity="0.523"/>
<stop offset="0.591" stop-color="#29133B" stop-opacity="0.409"/>
<stop offset="0.733" stop-color="#210C3A" stop-opacity="0.267"/>
<stop offset="1" stop-color="#1F0A39" stop-opacity="0"/>
</radialGradient>
<radialGradient id="pf_0_1_1933" cx="0" cy="0" r="1" gradientUnits="userSpaceOnUse" gradientTransform="matrix(-26.397176 0 0 -26.54762 1065.757 58.219)">
<stop stop-color="#FA316D"/>
<stop offset="0.048" stop-color="#D92B65" stop-opacity="0.951"/>
<stop offset="0.119" stop-color="#B0235C" stop-opacity="0.881"/>
<stop offset="0.195" stop-color="#8B1C53" stop-opacity="0.804"/>
<stop offset="0.277" stop-color="#6C174C" stop-opacity="0.722"/>
<stop offset="0.366" stop-color="#531246" stop-opacity="0.632"/>
<stop offset="0.466" stop-color="#400E42" stop-opacity="0.533"/>
<stop offset="0.581" stop-color="#320C3E" stop-opacity="0.417"/>
<stop offset="0.726" stop-color="#2A0A3D" stop-opacity="0.272"/>
<stop offset="0.997" stop-color="#280A3C" stop-opacity="0"/>
</radialGradient>
<radialGradient id="pf_0_1_1935" cx="0" cy="0" r="1" gradientUnits="userSpaceOnUse" gradientTransform="matrix(0 -26.397167 26.547552 0 1065.771 58.234)">
<stop stop-color="#FA316D"/>
<stop offset="0.048" stop-color="#D92B65" stop-opacity="0.951"/>
<stop offset="0.119" stop-color="#B0235C" stop-opacity="0.881"/>
<stop offset="0.195" stop-color="#8B1C53" stop-opacity="0.804"/>
<stop offset="0.277" stop-color="#6C174C" stop-opacity="0.722"/>
<stop offset="0.366" stop-color="#531246" stop-opacity="0.632"/>
<stop offset="0.466" stop-color="#400E42" stop-opacity="0.533"/>
<stop offset="0.581" stop-color="#320C3E" stop-opacity="0.417"/>
<stop offset="0.726" stop-color="#2A0A3D" stop-opacity="0.272"/>
<stop offset="0.997" stop-color="#280A3C" stop-opacity="0"/>
</radialGradient>
<radialGradient id="pf_0_1_1937" cx="0" cy="0" r="1" gradientUnits="userSpaceOnUse" gradientTransform="matrix(-12.408456 8.395552 -20.314633 -30.026061 1424.706 926.529)">
<stop stop-color="#FFC66A"/>
<stop offset="0.117" stop-color="#FFDA81" stop-opacity="0.883"/>
<stop offset="0.256" stop-color="#FFEA94" stop-opacity="0.744"/>
<stop offset="0.417" stop-color="#FFF6A2" stop-opacity="0.583"/>
<stop offset="0.62" stop-color="#FFFDAA" stop-opacity="0.38"/>
<stop offset="1" stop-color="#FFFFAC" stop-opacity="0"/>
</radialGradient>
<radialGradient id="pf_0_1_1938" cx="0" cy="0" r="1" gradientUnits="userSpaceOnUse" gradientTransform="matrix(-8.395613 -12.408523 30.026278 -20.314743 1424.706 926.529)">
<stop stop-color="#FFC66A"/>
<stop offset="0.117" stop-color="#FFDA81" stop-opacity="0.883"/>
<stop offset="0.256" stop-color="#FFEA94" stop-opacity="0.744"/>
<stop offset="0.417" stop-color="#FFF6A2" stop-opacity="0.583"/>
<stop offset="0.62" stop-color="#FFFDAA" stop-opacity="0.38"/>
<stop offset="1" stop-color="#FFFFAC" stop-opacity="0"/>
</radialGradient>
<radialGradient id="pf_0_1_1940" cx="0" cy="0" r="1" gradientUnits="userSpaceOnUse" gradientTransform="matrix(-12.408457 8.395552 -20.314634 -30.02606 973.052 599.884)">
<stop stop-color="#FFC66A"/>
<stop offset="0.117" stop-color="#FFDA81" stop-opacity="0.883"/>
<stop offset="0.256" stop-color="#FFEA94" stop-opacity="0.744"/>
<stop offset="0.417" stop-color="#FFF6A2" stop-opacity="0.583"/>
<stop offset="0.62" stop-color="#FFFDAA" stop-opacity="0.38"/>
<stop offset="1" stop-color="#FFFFAC" stop-opacity="0"/>
</radialGradient>
<radialGradient id="pf_0_1_1941" cx="0" cy="0" r="1" gradientUnits="userSpaceOnUse" gradientTransform="matrix(-8.395613 -12.408524 30.026278 -20.314744 973.052 599.884)">
<stop stop-color="#FFC66A"/>
<stop offset="0.117" stop-color="#FFDA81" stop-opacity="0.883"/>
<stop offset="0.256" stop-color="#FFEA94" stop-opacity="0.744"/>
<stop offset="0.417" stop-color="#FFF6A2" stop-opacity="0.583"/>
<stop offset="0.62" stop-color="#FFFDAA" stop-opacity="0.38"/>
<stop offset="1" stop-color="#FFFFAC" stop-opacity="0"/>
</radialGradient>
<radialGradient id="pf_0_1_1943" cx="0" cy="0" r="1" gradientUnits="userSpaceOnUse" gradientTransform="matrix(-12.408456 8.395555 -20.314633 -30.026073 545.819 159.56)">
<stop stop-color="#FFC66A"/>
<stop offset="0.066" stop-color="#D09E60" stop-opacity="0.934"/>
<stop offset="0.135" stop-color="#A77C57" stop-opacity="0.865"/>
<stop offset="0.211" stop-color="#825D4F" stop-opacity="0.789"/>
<stop offset="0.291" stop-color="#634348" stop-opacity="0.709"/>
<stop offset="0.379" stop-color="#4A2E42" stop-opacity="0.621"/>
<stop offset="0.477" stop-color="#371E3E" stop-opacity="0.523"/>
<stop offset="0.591" stop-color="#29133B" stop-opacity="0.409"/>
<stop offset="0.733" stop-color="#210C3A" stop-opacity="0.267"/>
<stop offset="1" stop-color="#1F0A39" stop-opacity="0"/>
</radialGradient>
<radialGradient id="pf_0_1_1944" cx="0" cy="0" r="1" gradientUnits="userSpaceOnUse" gradientTransform="matrix(-8.395598 -12.408524 30.026223 -20.314743 545.819 159.56)">
<stop stop-color="#FFC66A"/>
<stop offset="0.066" stop-color="#D09E60" stop-opacity="0.934"/>
<stop offset="0.135" stop-color="#A77C57" stop-opacity="0.865"/>
<stop offset="0.211" stop-color="#825D4F" stop-opacity="0.789"/>
<stop offset="0.291" stop-color="#634348" stop-opacity="0.709"/>
<stop offset="0.379" stop-color="#4A2E42" stop-opacity="0.621"/>
<stop offset="0.477" stop-color="#371E3E" stop-opacity="0.523"/>
<stop offset="0.591" stop-color="#29133B" stop-opacity="0.409"/>
<stop offset="0.733" stop-color="#210C3A" stop-opacity="0.267"/>
<stop offset="1" stop-color="#1F0A39" stop-opacity="0"/>
</radialGradient>
</defs>
</svg>
