<svg width="2970" height="1988" viewBox="0 0 2970 1988" fill="none" xmlns="http://www.w3.org/2000/svg" xmlns:xlink="http://www.w3.org/1999/xlink">
<g opacity="0.8">
</g>
<path d="M1051.498,1230.633C1129.138,1230.633 1192.078,1206.698 1192.078,1177.173C1192.078,1147.648 1129.138,1123.713 1051.498,1123.713C973.857,1123.713 910.918,1147.648 910.918,1177.173C910.918,1206.698 973.857,1230.633 1051.498,1230.633Z" fill="url(#pf_0_1_1309)"/>
<path d="M1051.498,1317.753C1081.023,1317.753 1104.958,1254.813 1104.958,1177.173C1104.958,1099.533 1081.023,1036.593 1051.498,1036.593C1021.972,1036.593 998.038,1099.533 998.038,1177.173C998.038,1254.813 1021.972,1317.753 1051.498,1317.753Z" fill="url(#pf_0_1_1311)"/>
<path d="M1037.242,1930.365C1086.888,1930.365 1127.134,1915.118 1127.134,1896.309C1127.134,1877.5 1086.888,1862.253 1037.242,1862.253C987.596,1862.253 947.35,1877.5 947.35,1896.309C947.35,1915.118 987.596,1930.365 1037.242,1930.365Z" fill="url(#pf_0_1_1314)"/>
<path d="M1037.242,1986.201C1056.05,1986.201 1071.298,1945.955 1071.298,1896.309C1071.298,1846.663 1056.05,1806.417 1037.242,1806.417C1018.433,1806.417 1003.186,1846.663 1003.186,1896.309C1003.186,1945.955 1018.433,1986.201 1037.242,1986.201Z" fill="url(#pf_0_1_1316)"/>
<path d="M2131.39,150.345C2181.036,150.345 2221.282,135.098 2221.282,116.289C2221.282,97.48 2181.036,82.233 2131.39,82.233C2081.744,82.233 2041.497,97.48 2041.497,116.289C2041.497,135.098 2081.744,150.345 2131.39,150.345Z" fill="url(#pf_0_1_1319)"/>
<path d="M2131.39,206.181C2150.198,206.181 2165.446,165.935 2165.446,116.289C2165.446,66.643 2150.198,26.397 2131.39,26.397C2112.581,26.397 2097.334,66.643 2097.334,116.289C2097.334,165.935 2112.581,206.181 2131.39,206.181Z" fill="url(#pf_0_1_1321)"/>
<path d="M2824.786,1869.777C2847.358,1903.041 2876.662,1922.445 2890.126,1912.941C2903.986,1903.833 2896.858,1869.381 2874.286,1836.117C2851.714,1802.853 2822.41,1783.449 2808.946,1792.953C2795.086,1802.457 2802.214,1836.513 2824.786,1869.777Z" fill="url(#pf_0_1_1323)"/>
<g opacity="0.6">
<path d="M2832.705,1828.197C2799.442,1850.769 2780.037,1880.073 2789.541,1893.537C2798.649,1907.397 2833.101,1900.269 2866.365,1877.697C2899.629,1855.125 2919.034,1825.821 2909.53,1812.357C2900.026,1798.893 2865.969,1805.625 2832.705,1828.197Z" fill="url(#pf_0_1_1324)"/>
</g>
<path d="M1921.114,1216.377C1943.686,1249.641 1972.99,1269.045 1986.454,1259.541C2000.314,1250.433 1993.186,1215.981 1970.614,1182.717C1948.042,1149.453 1918.738,1130.049 1905.274,1139.553C1891.81,1149.057 1898.938,1183.509 1921.114,1216.377Z" fill="url(#pf_0_1_1326)"/>
<g opacity="0.6">
<path d="M1929.43,1174.797C1896.166,1197.369 1876.762,1226.673 1886.266,1240.137C1895.374,1253.997 1929.826,1246.869 1963.09,1224.297C1996.354,1201.725 2015.758,1172.421 2006.254,1158.957C1996.75,1145.493 1962.298,1152.621 1929.43,1174.797Z" fill="url(#pf_0_1_1327)"/>
</g>
<path d="M1066.942,336.069C1089.514,369.333 1118.818,388.737 1132.282,379.233C1146.142,370.125 1139.014,335.673 1116.442,302.409C1093.87,269.145 1064.566,249.741 1051.102,259.245C1037.242,268.353 1044.37,302.805 1066.942,336.069Z" fill="url(#pf_0_1_1329)"/>
<g opacity="0.6">
<path d="M1074.861,294.489C1041.597,317.061 1022.194,346.365 1031.698,359.829C1040.806,373.689 1075.257,366.561 1108.521,343.989C1141.785,321.417 1161.19,292.113 1151.686,278.649C1142.578,264.789 1108.125,271.917 1074.861,294.489Z" fill="url(#pf_0_1_1330)"/>
</g>
<defs>
<radialGradient id="pf_0_1_1309" cx="0" cy="0" r="1" gradientUnits="userSpaceOnUse" gradientTransform="matrix(-41.354479 0 0 -41.590199 525.756 588.524)">
<stop stop-color="#FA316D"/>
<stop offset="0.048" stop-color="#D92B65" stop-opacity="0.951"/>
<stop offset="0.119" stop-color="#B0235C" stop-opacity="0.881"/>
<stop offset="0.195" stop-color="#8B1C53" stop-opacity="0.804"/>
<stop offset="0.277" stop-color="#6C174C" stop-opacity="0.722"/>
<stop offset="0.366" stop-color="#531246" stop-opacity="0.632"/>
<stop offset="0.466" stop-color="#400E42" stop-opacity="0.533"/>
<stop offset="0.581" stop-color="#320C3E" stop-opacity="0.417"/>
<stop offset="0.726" stop-color="#2A0A3D" stop-opacity="0.272"/>
<stop offset="0.997" stop-color="#280A3C" stop-opacity="0"/>
</radialGradient>
<radialGradient id="pf_0_1_1311" cx="0" cy="0" r="1" gradientUnits="userSpaceOnUse" gradientTransform="matrix(0 -41.354479 41.590199 0 525.78 588.528)">
<stop stop-color="#FA316D"/>
<stop offset="0.048" stop-color="#D92B65" stop-opacity="0.951"/>
<stop offset="0.119" stop-color="#B0235C" stop-opacity="0.881"/>
<stop offset="0.195" stop-color="#8B1C53" stop-opacity="0.804"/>
<stop offset="0.277" stop-color="#6C174C" stop-opacity="0.722"/>
<stop offset="0.366" stop-color="#531246" stop-opacity="0.632"/>
<stop offset="0.466" stop-color="#400E42" stop-opacity="0.533"/>
<stop offset="0.581" stop-color="#320C3E" stop-opacity="0.417"/>
<stop offset="0.726" stop-color="#2A0A3D" stop-opacity="0.272"/>
<stop offset="0.997" stop-color="#280A3C" stop-opacity="0"/>
</radialGradient>
<radialGradient id="pf_0_1_1314" cx="0" cy="0" r="1" gradientUnits="userSpaceOnUse" gradientTransform="matrix(-26.397141 0 0 -26.547644 518.704 948.121)">
<stop stop-color="#FFC66A"/>
<stop offset="0.066" stop-color="#D09E60" stop-opacity="0.934"/>
<stop offset="0.135" stop-color="#A77C57" stop-opacity="0.865"/>
<stop offset="0.211" stop-color="#825D4F" stop-opacity="0.789"/>
<stop offset="0.291" stop-color="#634348" stop-opacity="0.709"/>
<stop offset="0.379" stop-color="#4A2E42" stop-opacity="0.621"/>
<stop offset="0.477" stop-color="#371E3E" stop-opacity="0.523"/>
<stop offset="0.591" stop-color="#29133B" stop-opacity="0.409"/>
<stop offset="0.733" stop-color="#210C3A" stop-opacity="0.267"/>
<stop offset="1" stop-color="#1F0A39" stop-opacity="0"/>
</radialGradient>
<radialGradient id="pf_0_1_1316" cx="0" cy="0" r="1" gradientUnits="userSpaceOnUse" gradientTransform="matrix(0 -26.397141 26.547644 0 518.736 948.125)">
<stop stop-color="#FFC66A"/>
<stop offset="0.066" stop-color="#D09E60" stop-opacity="0.934"/>
<stop offset="0.135" stop-color="#A77C57" stop-opacity="0.865"/>
<stop offset="0.211" stop-color="#825D4F" stop-opacity="0.789"/>
<stop offset="0.291" stop-color="#634348" stop-opacity="0.709"/>
<stop offset="0.379" stop-color="#4A2E42" stop-opacity="0.621"/>
<stop offset="0.477" stop-color="#371E3E" stop-opacity="0.523"/>
<stop offset="0.591" stop-color="#29133B" stop-opacity="0.409"/>
<stop offset="0.733" stop-color="#210C3A" stop-opacity="0.267"/>
<stop offset="1" stop-color="#1F0A39" stop-opacity="0"/>
</radialGradient>
<radialGradient id="pf_0_1_1319" cx="0" cy="0" r="1" gradientUnits="userSpaceOnUse" gradientTransform="matrix(-26.397176 0 0 -26.54762 1065.757 58.219)">
<stop stop-color="#FA316D"/>
<stop offset="0.048" stop-color="#D92B65" stop-opacity="0.951"/>
<stop offset="0.119" stop-color="#B0235C" stop-opacity="0.881"/>
<stop offset="0.195" stop-color="#8B1C53" stop-opacity="0.804"/>
<stop offset="0.277" stop-color="#6C174C" stop-opacity="0.722"/>
<stop offset="0.366" stop-color="#531246" stop-opacity="0.632"/>
<stop offset="0.466" stop-color="#400E42" stop-opacity="0.533"/>
<stop offset="0.581" stop-color="#320C3E" stop-opacity="0.417"/>
<stop offset="0.726" stop-color="#2A0A3D" stop-opacity="0.272"/>
<stop offset="0.997" stop-color="#280A3C" stop-opacity="0"/>
</radialGradient>
<radialGradient id="pf_0_1_1321" cx="0" cy="0" r="1" gradientUnits="userSpaceOnUse" gradientTransform="matrix(0 -26.397167 26.547552 0 1065.771 58.234)">
<stop stop-color="#FA316D"/>
<stop offset="0.048" stop-color="#D92B65" stop-opacity="0.951"/>
<stop offset="0.119" stop-color="#B0235C" stop-opacity="0.881"/>
<stop offset="0.195" stop-color="#8B1C53" stop-opacity="0.804"/>
<stop offset="0.277" stop-color="#6C174C" stop-opacity="0.722"/>
<stop offset="0.366" stop-color="#531246" stop-opacity="0.632"/>
<stop offset="0.466" stop-color="#400E42" stop-opacity="0.533"/>
<stop offset="0.581" stop-color="#320C3E" stop-opacity="0.417"/>
<stop offset="0.726" stop-color="#2A0A3D" stop-opacity="0.272"/>
<stop offset="0.997" stop-color="#280A3C" stop-opacity="0"/>
</radialGradient>
<radialGradient id="pf_0_1_1323" cx="0" cy="0" r="1" gradientUnits="userSpaceOnUse" gradientTransform="matrix(-12.408456 8.395552 -20.314633 -30.026061 1424.706 926.529)">
<stop stop-color="#FFC66A"/>
<stop offset="0.117" stop-color="#FFDA81" stop-opacity="0.883"/>
<stop offset="0.256" stop-color="#FFEA94" stop-opacity="0.744"/>
<stop offset="0.417" stop-color="#FFF6A2" stop-opacity="0.583"/>
<stop offset="0.62" stop-color="#FFFDAA" stop-opacity="0.38"/>
<stop offset="1" stop-color="#FFFFAC" stop-opacity="0"/>
</radialGradient>
<radialGradient id="pf_0_1_1324" cx="0" cy="0" r="1" gradientUnits="userSpaceOnUse" gradientTransform="matrix(-8.395613 -12.408523 30.026278 -20.314743 1424.706 926.529)">
<stop stop-color="#FFC66A"/>
<stop offset="0.117" stop-color="#FFDA81" stop-opacity="0.883"/>
<stop offset="0.256" stop-color="#FFEA94" stop-opacity="0.744"/>
<stop offset="0.417" stop-color="#FFF6A2" stop-opacity="0.583"/>
<stop offset="0.62" stop-color="#FFFDAA" stop-opacity="0.38"/>
<stop offset="1" stop-color="#FFFFAC" stop-opacity="0"/>
</radialGradient>
<radialGradient id="pf_0_1_1326" cx="0" cy="0" r="1" gradientUnits="userSpaceOnUse" gradientTransform="matrix(-12.408457 8.395552 -20.314634 -30.02606 973.052 599.884)">
<stop stop-color="#FFC66A"/>
<stop offset="0.117" stop-color="#FFDA81" stop-opacity="0.883"/>
<stop offset="0.256" stop-color="#FFEA94" stop-opacity="0.744"/>
<stop offset="0.417" stop-color="#FFF6A2" stop-opacity="0.583"/>
<stop offset="0.62" stop-color="#FFFDAA" stop-opacity="0.38"/>
<stop offset="1" stop-color="#FFFFAC" stop-opacity="0"/>
</radialGradient>
<radialGradient id="pf_0_1_1327" cx="0" cy="0" r="1" gradientUnits="userSpaceOnUse" gradientTransform="matrix(-8.395613 -12.408524 30.026278 -20.314744 973.052 599.884)">
<stop stop-color="#FFC66A"/>
<stop offset="0.117" stop-color="#FFDA81" stop-opacity="0.883"/>
<stop offset="0.256" stop-color="#FFEA94" stop-opacity="0.744"/>
<stop offset="0.417" stop-color="#FFF6A2" stop-opacity="0.583"/>
<stop offset="0.62" stop-color="#FFFDAA" stop-opacity="0.38"/>
<stop offset="1" stop-color="#FFFFAC" stop-opacity="0"/>
</radialGradient>
<radialGradient id="pf_0_1_1329" cx="0" cy="0" r="1" gradientUnits="userSpaceOnUse" gradientTransform="matrix(-12.408456 8.395555 -20.314633 -30.026073 545.819 159.56)">
<stop stop-color="#FFC66A"/>
<stop offset="0.066" stop-color="#D09E60" stop-opacity="0.934"/>
<stop offset="0.135" stop-color="#A77C57" stop-opacity="0.865"/>
<stop offset="0.211" stop-color="#825D4F" stop-opacity="0.789"/>
<stop offset="0.291" stop-color="#634348" stop-opacity="0.709"/>
<stop offset="0.379" stop-color="#4A2E42" stop-opacity="0.621"/>
<stop offset="0.477" stop-color="#371E3E" stop-opacity="0.523"/>
<stop offset="0.591" stop-color="#29133B" stop-opacity="0.409"/>
<stop offset="0.733" stop-color="#210C3A" stop-opacity="0.267"/>
<stop offset="1" stop-color="#1F0A39" stop-opacity="0"/>
</radialGradient>
<radialGradient id="pf_0_1_1330" cx="0" cy="0" r="1" gradientUnits="userSpaceOnUse" gradientTransform="matrix(-8.395598 -12.408524 30.026223 -20.314743 545.819 159.56)">
<stop stop-color="#FFC66A"/>
<stop offset="0.066" stop-color="#D09E60" stop-opacity="0.934"/>
<stop offset="0.135" stop-color="#A77C57" stop-opacity="0.865"/>
<stop offset="0.211" stop-color="#825D4F" stop-opacity="0.789"/>
<stop offset="0.291" stop-color="#634348" stop-opacity="0.709"/>
<stop offset="0.379" stop-color="#4A2E42" stop-opacity="0.621"/>
<stop offset="0.477" stop-color="#371E3E" stop-opacity="0.523"/>
<stop offset="0.591" stop-color="#29133B" stop-opacity="0.409"/>
<stop offset="0.733" stop-color="#210C3A" stop-opacity="0.267"/>
<stop offset="1" stop-color="#1F0A39" stop-opacity="0"/>
</radialGradient>
</defs>
</svg>
