<svg width="3368" height="2246" viewBox="0 0 3368 2246" fill="none" xmlns="http://www.w3.org/2000/svg" xmlns:xlink="http://www.w3.org/1999/xlink">
<g opacity="0.3">
</g>
<path d="M1325.778,150.734C1328.011,150.734 1329.82,148.924 1329.82,146.692C1329.82,144.46 1328.011,142.65 1325.778,142.65C1323.546,142.65 1321.737,144.46 1321.737,146.692C1321.737,148.924 1323.546,150.734 1325.778,150.734Z" fill="#FFFFFF"/>
<path d="M1717.814,810.412C1717.814,808.167 1716.017,806.371 1713.772,806.371C1711.527,806.371 1709.73,808.167 1709.73,810.412C1709.73,812.658 1711.527,814.454 1713.772,814.454C1716.017,814.454 1717.814,812.658 1717.814,810.412Z" fill="#FFFFFF"/>
<path d="M1519.775,154.326C1519.775,150.734 1517.081,148.039 1513.488,148.039C1509.896,148.039 1507.201,150.734 1507.201,154.326C1507.201,157.919 1509.896,160.613 1513.488,160.613C1517.081,160.613 1519.775,157.919 1519.775,154.326Z" fill="#FFFFFF"/>
<path d="M2350.997,569.713C2354.469,569.713 2357.284,566.898 2357.284,563.426C2357.284,559.953 2354.469,557.139 2350.997,557.139C2347.525,557.139 2344.711,559.953 2344.711,563.426C2344.711,566.898 2347.525,569.713 2350.997,569.713Z" fill="#FFFFFF"/>
<path d="M1992.642,460.589C1992.642,456.548 1989.05,452.955 1985.008,452.955C1980.966,452.955 1977.374,456.548 1977.374,460.589C1977.374,464.631 1980.966,468.224 1985.008,468.224C1989.499,468.673 1992.642,465.08 1992.642,460.589Z" fill="#FFFFFF"/>
<path d="M681.368,56.429C681.368,52.388 678.224,49.244 674.183,49.244C670.141,49.244 666.998,52.388 666.998,56.429C666.998,60.471 670.141,63.615 674.183,63.615C678.224,63.615 681.368,60.022 681.368,56.429Z" fill="#FFFFFF"/>
<path d="M2532.869,354.61C2532.869,350.568 2529.726,347.425 2525.684,347.425C2521.643,347.425 2518.499,350.568 2518.499,354.61C2518.499,358.651 2521.643,361.795 2525.684,361.795C2529.726,361.795 2532.869,358.651 2532.869,354.61Z" fill="#FFFFFF"/>
<path d="M1886.663,321.828C1886.663,317.786 1883.519,314.643 1879.477,314.643C1875.436,314.643 1872.292,317.786 1872.292,321.828C1872.292,325.869 1875.436,329.013 1879.477,329.013C1883.519,329.013 1886.663,325.869 1886.663,321.828Z" fill="#FFFFFF"/>
<path d="M1999.827,1040.784C1999.827,1036.742 1996.684,1033.599 1992.642,1033.599C1988.601,1033.599 1985.458,1036.742 1985.458,1040.784C1985.458,1044.825 1988.601,1047.969 1992.642,1047.969C1996.684,1047.969 1999.827,1044.376 1999.827,1040.784Z" fill="#FFFFFF"/>
<path d="M923.414,2109.114C923.414,2104.623 919.822,2101.479 915.78,2101.479C911.29,2101.479 908.146,2105.072 908.146,2109.114C908.146,2113.604 911.739,2116.748 915.78,2116.748C919.822,2116.748 923.414,2113.604 923.414,2109.114Z" fill="#FFFFFF"/>
<path d="M190.987,1709.893C190.987,1707.648 189.19,1705.852 186.945,1705.852C184.7,1705.852 182.904,1707.648 182.904,1709.893C182.904,1712.138 184.7,1713.935 186.945,1713.935C189.19,1713.935 190.987,1712.138 190.987,1709.893Z" fill="#FFFFFF"/>
<path d="M2322.706,401.313C2322.706,394.577 2317.317,388.739 2310.132,388.739C2303.396,388.739 2297.559,394.128 2297.559,401.313C2297.559,408.049 2302.947,413.886 2310.132,413.886C2317.317,413.886 2322.706,408.049 2322.706,401.313Z" fill="#FFFFFF"/>
<path d="M383.636,1743.573C383.636,1740.879 381.391,1738.633 378.697,1738.633C376.002,1738.633 373.757,1740.879 373.757,1743.573C373.757,1746.267 376.002,1748.513 378.697,1748.513C381.391,1748.513 383.636,1746.267 383.636,1743.573Z" fill="#FFFFFF"/>
<path d="M1538.636,639.318C1541.612,639.318 1544.025,636.905 1544.025,633.929C1544.025,630.953 1541.612,628.541 1538.636,628.541C1535.66,628.541 1533.247,630.953 1533.247,633.929C1533.247,636.905 1535.66,639.318 1538.636,639.318Z" fill="#FFFFFF"/>
<path d="M1040.621,126.035C1046.573,126.035 1051.399,121.209 1051.399,115.257C1051.399,109.305 1046.573,104.479 1040.621,104.479C1034.669,104.479 1029.843,109.305 1029.843,115.257C1029.843,121.209 1034.669,126.035 1040.621,126.035Z" fill="#FFFFFF"/>
<path d="M126.321,2066.901C126.321,2063.758 124.076,2061.512 120.932,2061.512C117.789,2061.512 115.544,2063.758 115.544,2066.901C115.544,2070.045 117.789,2072.29 120.932,2072.29C124.076,2072.29 126.321,2070.045 126.321,2066.901Z" fill="#FFFFFF"/>
<path d="M491.412,67.207C491.412,62.716 487.82,59.124 483.329,59.124C478.839,59.124 475.246,62.716 475.246,67.207C475.246,71.698 478.839,75.29 483.329,75.29C487.82,75.29 491.412,71.698 491.412,67.207Z" fill="#FFFFFF"/>
<path d="M843.481,1325.941C843.481,1321.45 839.888,1317.858 835.397,1317.858C830.907,1317.858 827.314,1321.45 827.314,1325.941C827.314,1330.432 830.907,1334.024 835.397,1334.024C839.888,1334.024 843.481,1330.432 843.481,1325.941Z" fill="#FFFFFF"/>
<path d="M1423.675,1460.661C1423.675,1454.823 1419.184,1450.333 1413.346,1450.333C1407.509,1450.333 1403.018,1454.823 1403.018,1460.661C1403.018,1466.499 1407.509,1470.99 1413.346,1470.99C1418.735,1470.99 1423.675,1466.499 1423.675,1460.661Z" fill="#FFFFFF"/>
<circle cx="1485.646" cy="1498.832" r="6.736" fill="#FFFFFF"/>
<path d="M1009.635,1114.88C1009.635,1110.838 1006.043,1107.245 1002.001,1107.245C997.96,1107.245 994.367,1110.838 994.367,1114.88C994.367,1118.921 997.96,1122.514 1002.001,1122.514C1006.043,1122.963 1009.635,1119.37 1009.635,1114.88Z" fill="#FFFFFF"/>
<path d="M3207.368,1409.917C3214.064,1409.917 3219.492,1404.488 3219.492,1397.792C3219.492,1391.096 3214.064,1385.667 3207.368,1385.667C3200.671,1385.667 3195.242,1391.096 3195.242,1397.792C3195.242,1404.488 3200.671,1409.917 3207.368,1409.917Z" fill="#FFFFFF"/>
<path d="M1896.542,85.619C1896.542,81.128 1892.949,77.086 1888.01,77.086C1883.07,77.086 1879.477,80.679 1879.477,85.619C1879.477,90.558 1883.07,94.151 1888.01,94.151C1892.949,94.151 1896.542,90.558 1896.542,85.619Z" fill="#FFFFFF"/>
<path d="M1603.302,422.419C1608.014,422.419 1611.834,418.599 1611.834,413.886C1611.834,409.174 1608.014,405.354 1603.302,405.354C1598.589,405.354 1594.769,409.174 1594.769,413.886C1594.769,418.599 1598.589,422.419 1603.302,422.419Z" fill="#FFFFFF"/>
<path d="M2377.941,735.867C2377.941,731.377 2374.349,727.335 2369.41,727.335C2364.47,727.335 2360.877,730.927 2360.877,735.867C2360.877,740.807 2364.47,744.399 2369.41,744.399C2374.349,744.399 2377.941,740.807 2377.941,735.867Z" fill="#FFFFFF"/>
<path d="M952.604,1460.661C957.316,1460.661 961.136,1456.841 961.136,1452.129C961.136,1447.417 957.316,1443.597 952.604,1443.597C947.892,1443.597 944.072,1447.417 944.072,1452.129C944.072,1456.841 947.892,1460.661 952.604,1460.661Z" fill="#FFFFFF"/>
<path d="M2621.336,1524.877C2625.8,1524.877 2629.419,1521.259 2629.419,1516.794C2629.419,1512.33 2625.8,1508.711 2621.336,1508.711C2616.872,1508.711 2613.252,1512.33 2613.252,1516.794C2613.252,1521.259 2616.872,1524.877 2621.336,1524.877Z" fill="#FFFFFF"/>
<path d="M3244.191,1878.293C3251.135,1878.293 3256.765,1872.664 3256.765,1865.719C3256.765,1858.775 3251.135,1853.146 3244.191,1853.146C3237.246,1853.146 3231.617,1858.775 3231.617,1865.719C3231.617,1872.664 3237.246,1878.293 3244.191,1878.293Z" fill="#FFFFFF"/>
<path d="M3302.121,1356.029C3305.593,1356.029 3308.408,1353.214 3308.408,1349.741C3308.408,1346.269 3305.593,1343.455 3302.121,1343.455C3298.648,1343.455 3295.833,1346.269 3295.833,1349.741C3295.833,1353.214 3298.648,1356.029 3302.121,1356.029Z" fill="#FFFFFF"/>
<path d="M3291.343,1584.154C3291.343,1580.113 3288.199,1576.969 3284.158,1576.969C3280.116,1576.969 3276.973,1580.113 3276.973,1584.154C3276.973,1588.196 3280.116,1591.339 3284.158,1591.339C3288.199,1591.339 3291.343,1588.196 3291.343,1584.154Z" fill="#FFFFFF"/>
<path d="M3295.833,1501.077C3295.833,1493.892 3289.996,1488.503 3283.26,1488.503C3276.075,1488.503 3270.686,1494.341 3270.686,1501.077C3270.686,1508.262 3276.524,1513.651 3283.26,1513.651C3289.996,1513.651 3295.833,1508.262 3295.833,1501.077Z" fill="#FFFFFF"/>
<path d="M691.696,1024.617C691.696,1019.677 687.655,1015.636 682.715,1015.636C677.775,1015.636 673.734,1019.677 673.734,1024.617C673.734,1029.557 677.775,1033.598 682.715,1033.598C687.655,1033.598 691.696,1029.557 691.696,1024.617Z" fill="#FFFFFF"/>
<path d="M564.61,225.278C564.61,220.339 560.569,216.297 555.629,216.297C550.689,216.297 546.648,220.339 546.648,225.278C546.648,230.218 550.689,234.26 555.629,234.26C560.569,234.26 564.61,230.218 564.61,225.278Z" fill="#FFFFFF"/>
<path d="M2300.702,257.162C2300.702,254.917 2298.906,253.121 2296.66,253.121C2294.415,253.121 2292.619,254.917 2292.619,257.162C2292.619,259.408 2294.415,261.204 2296.66,261.204C2298.906,261.204 2300.702,259.408 2300.702,257.162Z" fill="#FFFFFF"/>
<path d="M780.162,1029.557C780.162,1027.312 778.366,1025.515 776.121,1025.515C773.875,1025.515 772.079,1027.312 772.079,1029.557C772.079,1031.802 773.875,1033.599 776.121,1033.599C778.366,1033.149 780.162,1031.353 780.162,1029.557Z" fill="#FFFFFF"/>
<path d="M2558.915,298.476C2558.915,296.231 2557.119,294.435 2554.874,294.435C2552.628,294.435 2550.832,296.231 2550.832,298.476C2550.832,300.722 2552.628,302.518 2554.874,302.518C2557.119,302.518 2558.915,300.722 2558.915,298.476Z" fill="#FFFFFF"/>
<path d="M1927.528,286.801C1927.528,284.555 1925.731,282.759 1923.486,282.759C1921.241,282.759 1919.444,284.555 1919.444,286.801C1919.444,289.046 1921.241,290.842 1923.486,290.842C1925.731,290.842 1927.528,289.046 1927.528,286.801Z" fill="#FFFFFF"/>
<path d="M2735.399,1509.61C2735.399,1505.119 2731.806,1501.526 2727.315,1501.526C2722.825,1501.526 2719.232,1505.119 2719.232,1509.61C2719.232,1514.1 2722.825,1517.693 2727.315,1517.693C2731.806,1517.693 2735.399,1514.1 2735.399,1509.61Z" fill="#FFFFFF"/>
<path d="M2557.119,792.899C2557.119,789.306 2554.425,786.612 2550.832,786.612C2547.24,786.612 2544.546,789.306 2544.546,792.899C2544.546,796.491 2547.24,799.186 2550.832,799.186C2554.425,799.186 2557.119,796.491 2557.119,792.899Z" fill="#FFFFFF"/>
<path d="M1702.994,152.53C1705.226,152.53 1707.036,150.72 1707.036,148.488C1707.036,146.256 1705.226,144.447 1702.994,144.447C1700.762,144.447 1698.953,146.256 1698.953,148.488C1698.953,150.72 1700.762,152.53 1702.994,152.53Z" fill="#FFFFFF"/>
<path d="M2126.464,763.71C2126.464,760.566 2123.77,758.321 2121.075,758.321C2117.932,758.321 2115.687,761.015 2115.687,763.71C2115.687,766.853 2118.381,769.098 2121.075,769.098C2123.77,769.098 2126.464,766.853 2126.464,763.71Z" fill="#FFFFFF"/>
<path d="M2047.428,686.021C2049.66,686.021 2051.47,684.211 2051.47,681.979C2051.47,679.747 2049.66,677.938 2047.428,677.938C2045.196,677.938 2043.387,679.747 2043.387,681.979C2043.387,684.211 2045.196,686.021 2047.428,686.021Z" fill="#FFFFFF"/>
<path d="M1453.313,126.035C1453.313,122.891 1450.619,120.197 1447.475,120.197C1444.332,120.197 1441.638,122.891 1441.638,126.035C1441.638,129.178 1444.332,131.873 1447.475,131.873C1450.619,131.873 1453.313,129.627 1453.313,126.035Z" fill="#FFFFFF"/>
<path d="M1053.644,799.186C1053.644,792.899 1048.704,787.959 1042.417,787.959C1036.13,787.959 1031.19,792.899 1031.19,799.186C1031.19,805.473 1036.13,810.412 1042.417,810.412C1048.704,810.412 1053.644,805.473 1053.644,799.186Z" fill="#FFFFFF"/>
<path d="M1410.203,548.607C1410.203,542.32 1405.263,537.38 1398.976,537.38C1392.689,537.38 1387.75,542.32 1387.75,548.607C1387.75,554.893 1392.689,559.833 1398.976,559.833C1405.263,559.384 1410.203,554.444 1410.203,548.607Z" fill="#FFFFFF"/>
<path d="M1809.423,613.721C1809.423,607.434 1804.483,602.495 1798.196,602.495C1791.909,602.495 1786.97,607.434 1786.97,613.721C1786.97,620.008 1791.909,624.948 1798.196,624.948C1804.483,624.948 1809.423,620.008 1809.423,613.721Z" fill="#FFFFFF"/>
<path d="M2724.172,1168.319C2725.969,1170.115 2728.214,1170.115 2730.01,1168.319C2731.806,1166.523 2731.806,1164.277 2730.01,1162.481C2728.214,1160.685 2725.969,1160.685 2724.172,1162.481C2722.376,1164.277 2722.825,1166.523 2724.172,1168.319Z" fill="#FFFFFF"/>
<path d="M2584.512,1297.201C2586.757,1299.446 2590.799,1299.446 2593.044,1297.201C2595.29,1294.955 2595.29,1290.914 2593.044,1288.668C2590.799,1286.423 2586.757,1286.423 2584.512,1288.668C2582.267,1290.914 2582.267,1294.506 2584.512,1297.201Z" fill="#FFFFFF"/>
<path d="M1702.994,1599.872C1705.24,1602.117 1709.281,1602.117 1711.527,1599.872C1713.772,1597.627 1713.772,1593.585 1711.527,1591.34C1709.281,1589.094 1705.24,1589.094 1702.994,1591.34C1700.749,1593.585 1700.749,1597.178 1702.994,1599.872Z" fill="#FFFFFF"/>
<path d="M1955.819,1492.096C1958.962,1495.239 1963.902,1495.239 1966.596,1492.096C1969.291,1488.953 1969.74,1484.013 1966.596,1481.318C1963.453,1478.624 1958.513,1478.175 1955.819,1481.318C1952.675,1484.462 1952.675,1489.402 1955.819,1492.096Z" fill="#FFFFFF"/>
<path d="M2129.159,1515.447C2131.853,1518.142 2136.344,1518.142 2139.038,1515.447C2141.733,1512.753 2141.733,1508.262 2139.038,1505.568C2136.344,1502.873 2131.853,1502.873 2129.159,1505.568C2126.465,1508.262 2126.465,1512.753 2129.159,1515.447Z" fill="#FFFFFF"/>
<path d="M1999.827,1706.75C2006.772,1706.75 2012.401,1701.12 2012.401,1694.176C2012.401,1687.232 2006.772,1681.602 1999.827,1681.602C1992.883,1681.602 1987.253,1687.232 1987.253,1694.176C1987.253,1701.12 1992.883,1706.75 1999.827,1706.75Z" fill="#FFFFFF"/>
<circle cx="170.779" cy="1972.597" r="12.574" fill="#FFFFFF"/>
<path d="M69.29,1854.043C74.229,1858.983 81.864,1858.983 86.803,1854.043C91.743,1849.104 91.743,1841.47 86.803,1836.53C81.864,1831.59 74.229,1831.59 69.29,1836.53C64.799,1841.021 64.799,1849.104 69.29,1854.043Z" fill="#FFFFFF"/>
<path d="M1414.694,2118.095C1419.633,2123.034 1427.267,2123.034 1432.207,2118.095C1437.147,2113.155 1437.147,2105.521 1432.207,2100.581C1427.267,2095.641 1419.633,2095.641 1414.694,2100.581C1410.203,2105.071 1410.203,2113.155 1414.694,2118.095Z" fill="#FFFFFF"/>
<path d="M2198.315,2156.265C2203.255,2161.205 2210.889,2161.205 2215.829,2156.265C2220.768,2151.326 2220.768,2143.691 2215.829,2138.752C2210.889,2133.812 2203.255,2133.812 2198.315,2138.752C2193.375,2143.691 2193.375,2151.326 2198.315,2156.265Z" fill="#FFFFFF"/>
<path d="M2232.444,976.567C2235.42,976.567 2237.833,974.154 2237.833,971.178C2237.833,968.202 2235.42,965.789 2232.444,965.789C2229.468,965.789 2227.055,968.202 2227.055,971.178C2227.055,974.154 2229.468,976.567 2232.444,976.567Z" fill="#FFFFFF"/>
<path d="M2373.002,1614.691C2377.714,1614.691 2381.534,1610.871 2381.534,1606.159C2381.534,1601.446 2377.714,1597.626 2373.002,1597.626C2368.29,1597.626 2364.469,1601.446 2364.469,1606.159C2364.469,1610.871 2368.29,1614.691 2373.002,1614.691Z" fill="#FFFFFF"/>
<path d="M2342.016,1181.341C2346.728,1181.341 2350.548,1177.521 2350.548,1172.809C2350.548,1168.097 2346.728,1164.277 2342.016,1164.277C2337.304,1164.277 2333.484,1168.097 2333.484,1172.809C2333.484,1177.521 2337.304,1181.341 2342.016,1181.341Z" fill="#FFFFFF"/>
<path d="M1723.202,1887.274C1727.915,1887.274 1731.735,1883.454 1731.735,1878.742C1731.735,1874.03 1727.915,1870.21 1723.202,1870.21C1718.49,1870.21 1714.67,1874.03 1714.67,1878.742C1714.67,1883.454 1718.49,1887.274 1723.202,1887.274Z" fill="#FFFFFF"/>
<path d="M1962.555,1777.702C1964.787,1777.702 1966.596,1775.892 1966.596,1773.66C1966.596,1771.428 1964.787,1769.619 1962.555,1769.619C1960.322,1769.619 1958.513,1771.428 1958.513,1773.66C1958.513,1775.892 1960.322,1777.702 1962.555,1777.702Z" fill="#FFFFFF"/>
<path d="M2125.117,1568.886C2126.465,1570.233 2129.159,1570.233 2130.506,1568.886C2131.853,1567.539 2131.853,1564.844 2130.506,1563.497C2129.159,1562.15 2126.465,1562.15 2125.117,1563.497C2123.77,1565.293 2123.77,1567.539 2125.117,1568.886Z" fill="#FFFFFF"/>
<path d="M2456.079,1434.166C2457.876,1435.962 2460.57,1435.962 2461.917,1434.166C2463.265,1432.37 2463.714,1429.675 2461.917,1428.328C2460.121,1426.532 2457.426,1426.532 2456.079,1428.328C2454.732,1429.675 2454.732,1432.37 2456.079,1434.166Z" fill="#FFFFFF"/>
<path d="M1360.356,1226.697C1362.602,1228.943 1366.194,1228.943 1368.44,1226.697C1370.685,1224.452 1370.685,1220.86 1368.44,1218.614C1366.194,1216.369 1362.602,1216.369 1360.356,1218.614C1358.111,1220.86 1358.111,1224.452 1360.356,1226.697Z" fill="#FFFFFF"/>
<path d="M1810.771,1438.208C1812.118,1439.555 1814.812,1439.555 1816.159,1438.208C1817.506,1436.861 1817.506,1434.166 1816.159,1432.819C1814.812,1431.472 1812.118,1431.472 1810.771,1432.819C1809.423,1434.166 1809.423,1436.412 1810.771,1438.208Z" fill="#FFFFFF"/>
<path d="M2655.465,1271.604C2658.689,1271.604 2661.303,1268.99 2661.303,1265.766C2661.303,1262.542 2658.689,1259.928 2655.465,1259.928C2652.241,1259.928 2649.627,1262.542 2649.627,1265.766C2649.627,1268.99 2652.241,1271.604 2655.465,1271.604Z" fill="#FFFFFF"/>
<circle cx="2391.413" cy="933.007" r="11.227" fill="#FFFFFF"/>
<circle cx="2062.697" cy="1169.217" r="11.227" fill="#FFFFFF"/>
<circle cx="1269.645" cy="941.091" r="11.227" fill="#FFFFFF"/>
<path d="M1106.634,793.797C1106.634,790.653 1103.939,788.408 1101.245,788.408C1098.102,788.408 1095.856,791.102 1095.856,793.797C1095.856,796.491 1098.551,799.186 1101.245,799.186C1103.939,799.186 1106.634,796.94 1106.634,793.797Z" fill="#FFFFFF"/>
<line x1="635.114" y1="139.507" x2="662.058" y2="139.507" fill="#FFFFFF"/>
<path d="M796.778,752.034C796.778,747.543 793.185,744.4 789.144,744.4C785.102,744.4 781.51,747.992 781.51,752.034C781.51,756.525 785.102,759.668 789.144,759.668C793.185,759.668 796.778,756.525 796.778,752.034Z" fill="#FFFFFF"/>
<path d="M1022.658,2153.571C1022.658,2149.978 1019.964,2147.284 1016.371,2147.284C1012.779,2147.284 1010.084,2149.978 1010.084,2153.571C1010.084,2157.163 1012.779,2159.858 1016.371,2159.858C1019.964,2159.858 1022.658,2157.163 1022.658,2153.571Z" fill="#FFFFFF"/>
<path d="M2055.063,2075.433C2050.123,2070.494 2050.123,2062.859 2055.063,2057.92C2060.003,2052.98 2067.636,2052.98 2072.576,2057.92C2077.516,2062.859 2077.516,2070.494 2072.576,2075.433C2067.636,2080.373 2059.554,2080.373 2055.063,2075.433Z" fill="#FFFFFF"/>
</svg>
