<svg width="66" height="160" viewBox="0 0 66 160" fill="none" xmlns="http://www.w3.org/2000/svg" xmlns:xlink="http://www.w3.org/1999/xlink">
<path d="M63.946,119.132C64.597,121.708 64.922,124.393 64.922,127.078C64.922,129.329 63.105,131.146 60.854,131.146C58.603,131.146 56.786,129.329 56.786,127.078C56.786,125.044 56.542,123.037 56.054,121.085C55.512,118.915 56.841,116.691 59.01,116.149C61.18,115.607 63.403,116.935 63.946,119.132Z" fill="#FFFFFF"/>
<path d="M56.19,143.349C57.844,144.841 57.98,147.417 56.488,149.098C50.143,156.149 41.41,160 32.054,160C30.807,160 29.532,159.946 28.258,159.783C12.963,158.102 0.76,145.736 -0.759,130.386C-1.952,118.373 3.58,106.658 13.451,99.905L13.451,18.549C13.451,8.325 21.776,0 32,0C42.224,0 50.549,8.325 50.549,18.549L50.549,99.905C52.014,100.908 53.397,102.047 54.699,103.268C55.446,104.02 55.871,105.034 55.882,106.094C55.893,107.154 55.49,108.177 54.758,108.944C54.026,109.711 53.023,110.163 51.964,110.202C50.904,110.24 49.871,109.864 49.085,109.153C47.675,107.824 46.102,106.631 44.448,105.681C43.173,104.949 42.414,103.593 42.414,102.156L42.414,100.854L32,100.854C29.749,100.854 27.932,99.037 27.932,96.786C27.932,94.536 29.749,92.719 32,92.719L42.414,92.719L42.414,77.18L32,77.18C29.749,77.18 27.932,75.363 27.932,73.112C27.932,70.861 29.749,69.044 32,69.044L42.414,69.044L42.414,53.505L32,53.505C29.749,53.505 27.932,51.688 27.932,49.437C27.932,47.186 29.749,45.369 32,45.369L42.414,45.369L42.414,29.831L32,29.831C29.749,29.831 27.932,28.014 27.932,25.763C27.932,23.512 29.749,21.695 32,21.695L42.414,21.695L42.414,18.549C42.352,15.828 41.227,13.24 39.281,11.338C37.335,9.436 34.722,8.371 32,8.371C29.279,8.371 26.665,9.436 24.719,11.338C22.773,13.24 21.649,15.828 21.587,18.549L21.587,102.156C21.587,103.593 20.827,104.949 19.58,105.654C11.065,110.617 6.373,119.783 7.349,129.6C8.461,140.963 17.844,150.454 29.153,151.702C37.288,152.624 45.017,149.668 50.441,143.647C51.932,141.993 54.509,141.831 56.19,143.349Z" fill="#FFFFFF"/>
<path d="M42.007,117.234C43.322,118.547 44.365,120.107 45.077,121.824C45.789,123.541 46.156,125.382 46.156,127.241C46.156,129.1 45.789,130.94 45.077,132.657C44.365,134.374 43.322,135.934 42.007,137.248C39.241,140.014 35.634,141.397 32,141.397C28.366,141.397 24.759,140.014 21.993,137.248C20.678,135.934 19.635,134.374 18.923,132.657C18.211,130.94 17.844,129.1 17.844,127.241C17.844,125.382 18.211,123.541 18.923,121.824C19.635,120.107 20.678,118.547 21.993,117.234C23.566,115.634 26.142,115.634 27.742,117.234C29.342,118.834 29.342,121.383 27.742,122.983C25.383,125.342 25.383,129.139 27.742,131.498C30.102,133.858 33.925,133.858 36.258,131.498C38.617,129.139 38.617,125.342 36.258,122.983C34.658,121.383 34.658,118.834 36.258,117.234C37.858,115.634 40.434,115.634 42.007,117.234ZM7.214,32.38L7.214,80C7.214,82.251 5.397,84.068 3.146,84.068C0.895,84.068 -0.922,82.251 -0.922,80L-0.922,32.38C-0.922,30.129 0.895,28.312 3.146,28.312C5.397,28.312 7.214,30.129 7.214,32.38ZM7.214,17.492L7.214,20.176C7.214,22.427 5.397,24.244 3.146,24.244C0.895,24.244 -0.922,22.427 -0.922,20.176L-0.922,17.492C-0.922,15.241 0.895,13.424 3.146,13.424C5.397,13.424 7.214,15.241 7.214,17.492Z" fill="#FFFFFF"/>
</svg>
