<svg width="590" height="496" viewBox="0 0 590 496" fill="none" xmlns="http://www.w3.org/2000/svg" xmlns:xlink="http://www.w3.org/1999/xlink">
<path d="M493.341,74.877C489.686,74.877 486.031,74.877 482.376,74.877C440.713,74.877 401.242,87.325 368.349,108.559C373.466,110.756 377.852,112.952 382.237,115.149C423.17,129.793 463.372,110.756 493.341,74.877Z" transform="rotate(360 430.845 97.495)" fill="#FCFCFC"/>
<path d="M478.722,74.877C449.484,110.756 408.551,129.793 368.349,114.417C363.964,112.22 359.578,110.023 354.462,107.827C335.457,120.274 319.376,134.919 305.488,151.76C316.453,146.634 328.148,142.241 339.112,137.848C380.775,126.132 428.287,179.584 451.677,143.705C476.529,112.22 508.69,93.915 541.582,87.325C521.116,80.735 500.65,76.341 478.722,74.877Z" transform="rotate(360 423.536 115.584)" fill="#EFEFEF"/>
<path d="M480.914,88.057C448.022,94.647 415.86,113.684 391.008,144.437C366.887,180.316 319.376,126.864 278.443,138.58C267.479,142.973 255.784,147.366 244.82,152.492C241.165,157.617 236.779,162.743 233.856,167.868C251.398,160.546 272.596,165.672 284.291,174.458C314.259,192.031 349.344,227.91 391.008,210.337C426.824,192.764 438.52,145.169 468.488,127.596C496.996,110.023 524.772,126.132 553.278,134.186C532.812,113.684 507.96,98.308 480.914,88.057Z" transform="rotate(360 393.567 151.557)" fill="#E5E5E5"/>
<path d="M536.466,133.454C507.96,125.399 480.184,109.29 451.676,126.864C421.708,144.437 410.012,192.031 374.197,209.604C332.533,227.177 296.717,192.031 267.479,173.726C255.053,166.403 234.587,160.546 217.044,167.868C207.542,182.512 199.502,198.621 193.654,215.462C223.623,200.818 255.784,232.303 279.905,251.341C339.112,293.077 434.134,281.361 464.102,203.746C481.646,162.01 529.156,209.604 559.126,197.889C565.704,194.96 571.552,190.567 576.668,185.441C565.704,166.403 552.546,148.83 536.466,133.454Z" transform="rotate(360 385.161 197.029)" fill="#DBDBDB"/>
<path d="M363.233,482.721C385.161,490.043 407.82,494.437 431.941,494.437C437.058,494.437 442.905,494.437 448.022,493.705C419.515,486.382 389.547,473.935 363.233,482.721Z" transform="rotate(360 405.627 487.068)" fill="#8C8C8C"/>
<path d="M473.605,447.575C437.789,447.575 408.551,489.312 372.735,465.148C348.614,450.504 316.452,443.914 286.484,451.236C304.026,464.416 323.031,474.667 344.228,481.989C371.273,473.935 400.511,485.65 429.748,492.973C456.793,490.776 482.376,483.454 505.766,472.471C495.534,460.755 486.762,447.575 473.605,447.575Z" transform="rotate(360 396.125 470.274)" fill="#9B9B9B"/>
<path d="M561.318,379.479C528.426,390.462 495.534,433.663 464.834,440.985C429.018,446.842 393.202,410.964 369.811,417.554C310.605,423.412 257.246,440.985 209.735,387.533C206.08,387.533 198.771,385.336 192.192,387.533C206.08,412.428 225.085,434.395 248.475,451.236C278.443,443.914 310.605,450.504 334.726,465.148C370.542,488.579 399.78,447.575 435.596,447.575C448.752,447.575 457.524,460.755 467.758,473.202C507.228,452.7 540.852,419.751 561.318,379.479Z" transform="rotate(360 376.755 426.34)" fill="#AAAAAA"/>
<path d="M513.076,334.814C495.534,364.835 488.956,394.123 459.718,405.839C423.902,417.554 406.358,382.408 382.238,375.818C323.031,364.103 257.246,423.412 209.735,345.797C205.349,341.404 187.076,329.688 173.188,340.672C178.304,357.513 184.883,372.889 192.923,387.533C199.502,386.069 206.811,387.533 210.466,387.533C257.977,440.985 311.336,423.412 370.542,417.554C394.664,411.697 429.748,447.575 465.564,440.985C496.264,432.931 529.888,390.462 562.05,379.479C571.552,361.174 578.13,340.672 581.784,319.437C557.664,322.366 533.542,309.186 513.076,334.814Z" transform="rotate(360 377.486 380.195)" fill="#B7B7B7"/>
<path d="M583.246,236.696C563.51,241.09 541.582,244.018 528.426,257.198C504.304,280.629 492.61,316.508 456.794,328.223C420.978,339.939 391.74,298.202 361.771,298.202C320.107,298.202 290.139,345.796 236.78,328.223C198.771,312.114 205.349,260.859 170.264,257.198C169.533,265.985 168.802,275.504 168.802,284.29C168.802,304.06 171.726,323.098 176.843,340.671C190.73,329.688 209.004,341.403 213.39,345.796C260.901,422.679 325.955,363.37 385.892,375.817C410.012,381.675 427.556,417.554 463.372,405.838C493.34,394.123 499.188,364.102 516.73,334.813C536.466,309.918 561.318,322.365 586.17,320.169C588.362,308.453 589.094,296.738 589.094,285.022C588.362,268.181 586.9,252.073 583.246,236.696Z" transform="rotate(360 378.948 322.435)" fill="#C1C1C1"/>
<path d="M240.434,328.224C293.793,345.797 323.761,298.203 365.425,298.203C395.393,298.203 424.631,339.939 460.447,328.224C496.263,316.508 507.959,280.63 532.079,257.199C545.237,244.019 567.165,241.09 586.901,236.697C582.515,218.391 575.937,201.55 567.895,185.441C562.779,190.567 556.931,194.228 550.353,197.889C520.385,209.605 472.873,162.01 455.331,203.747C425.363,280.63 330.34,293.077 271.134,251.341C247.012,232.303 214.851,200.818 184.882,215.462C180.497,228.642 176.842,242.554 174.649,257.199C209.734,260.86 202.425,312.115 240.434,328.224Z" transform="rotate(360 380.775 258.78)" fill="#CCCCCC"/>
<path d="M168.358,243.286C167.627,243.286 168.358,243.286 169.82,244.751C169.089,243.286 168.358,243.286 168.358,243.286Z" transform="rotate(360 168.945 244.018)" fill="#000000"/>
<g opacity="0.2">
<path d="M429.549,83.915C434.665,102.22 438.319,121.99 438.319,142.492C438.319,258.183 344.029,351.907 228.54,351.907C208.073,351.907 188.338,348.977 169.333,343.119C194.916,430.253 275.32,493.957 371.073,493.957C487.293,493.957 580.853,400.233 580.853,284.543C580.853,190.086 517.261,109.543 429.549,83.915Z" transform="rotate(360 375.094 288.936)" fill="url(#pf_0_1_1964)"/>
</g>
<g opacity="0.7">
<path d="M494.072,131.258C500.65,139.312 494.072,155.421 479.453,166.404C464.834,177.387 448.022,179.584 441.444,170.797C434.865,162.743 441.444,146.634 456.063,135.651C471.412,124.668 488.224,122.471 494.072,131.258Z" transform="rotate(360 467.758 151.028)" fill="#FFFFFF"/>
</g>
<path d="M177.838,134.186C211.462,138.579 235.582,170.065 230.466,204.479C226.08,238.161 194.65,262.325 160.295,257.199C129.596,252.805 108.398,227.911 107.667,198.621C107.667,197.889 41.883,138.579 44.075,134.186C46.268,130.525 106.936,190.567 106.936,189.102C106.936,187.638 106.936,188.37 106.936,186.906C107.667,181.048 -5.629,71.948 0.219,62.429C7.528,50.713 112.784,167.868 112.784,166.404C113.515,164.939 117.17,159.814 118.631,157.617C120.824,157.617 36.766,74.144 42.613,67.554C49.923,59.5 131.058,147.366 131.788,145.902C133.25,145.169 134.712,143.705 136.174,142.973C137.636,142.241 15.569,16.299 23.609,6.78C29.457,0.191 150.793,136.383 153.717,136.383C153.717,136.383 161.757,135.651 160.295,134.186C152.986,121.006 108.398,66.822 112.784,63.161C120.824,57.303 172.721,134.186 177.838,134.186Z" transform="rotate(360 115.575 132.217)" fill="#FFD400"/>
<path d="M69.394,141.509C99.362,145.902 120.56,173.726 116.174,203.747C111.789,233.768 84.013,255.002 54.044,250.609C24.075,246.215 2.878,218.391 7.264,188.37C10.918,158.35 38.694,137.115 69.394,141.509Z" transform="rotate(360 61.719 196.059)" fill="#FFD400"/>
<path d="M88.659,226.445L94.507,232.303C94.507,232.303 95.969,238.161 101.085,235.964C106.202,233.035 110.587,228.642 108.395,225.713C106.202,222.784 103.278,226.445 99.623,223.517C95.969,220.588 94.507,213.998 90.852,213.265C86.466,212.533 82.812,217.659 88.659,226.445Z" transform="rotate(360 97.3 224.827)" fill="#FF8500"/>
<path d="M79.405,240.357C79.405,240.357 75.751,239.625 79.405,234.499C83.06,229.374 85.253,225.713 83.791,223.516C82.329,220.587 77.944,221.319 75.02,219.855C72.096,218.391 70.634,219.123 69.903,215.462C69.172,211.801 74.289,210.336 77.213,208.872C80.136,207.407 85.984,202.282 90.37,213.265C94.755,224.248 91.101,225.713 90.37,232.303C90.37,238.892 97.679,243.286 94.024,244.75C90.37,246.215 85.253,245.482 83.06,244.75C80.867,242.554 79.405,238.16 79.405,240.357Z" transform="rotate(360 82.44 225.996)" fill="#FF8500"/>
<path d="M74.592,203.015C74.592,205.212 75.323,206.676 80.439,208.873C86.287,211.069 85.556,212.534 86.287,212.534C87.749,212.534 89.21,212.534 91.403,208.873C93.596,205.212 95.789,208.14 98.713,204.479C104.56,197.157 114.793,209.605 114.062,202.283C113.332,194.961 111.139,193.496 103.098,190.567C95.058,188.371 95.789,184.71 88.479,186.174C81.17,187.638 78.977,181.781 76.053,182.513C73.13,183.245 73.861,186.906 73.13,192.032C72.399,197.157 75.323,201.55 74.592,203.015Z" transform="rotate(360 93.555 197.491)" fill="#FF8500"/>
<path d="M44.378,232.304C44.378,233.768 45.109,237.429 48.764,241.09C52.418,244.751 52.418,246.948 58.266,246.948C64.113,246.216 69.23,250.609 71.423,244.019C73.616,237.429 69.961,233.036 65.575,234.5C60.459,235.965 58.997,239.626 56.804,231.571C54.611,223.517 57.535,217.659 53.149,213.998C48.764,210.337 46.571,207.408 44.378,211.069C42.916,214.73 45.109,225.713 45.84,227.91C46.571,229.375 44.378,230.839 44.378,232.304Z" transform="rotate(360 57.982 228.549)" fill="#FF8500"/>
<path d="M64.204,205.211C66.397,208.14 65.666,206.675 70.052,209.604C74.437,212.533 72.975,216.194 76.63,217.658C80.285,219.123 86.132,221.319 86.863,214.73C87.594,208.872 89.787,201.55 83.939,196.424C78.092,191.299 72.975,187.638 65.666,184.709C58.356,181.78 49.585,176.654 46.661,181.048C43.738,185.441 44.469,186.905 50.316,188.37C56.164,189.834 56.895,188.37 61.28,194.228C65.666,200.817 59.818,199.353 64.204,205.211Z" transform="rotate(360 66.434 199.28)" fill="#FF8500"/>
<path d="M76.572,172.261C76.572,172.993 72.917,175.19 77.303,179.584C81.688,183.245 82.419,186.906 86.074,184.709C88.998,182.512 89.729,182.512 92.653,182.512C95.576,182.512 94.845,178.851 98.5,177.387C102.155,175.922 105.81,181.048 108.002,176.655C110.195,172.261 112.388,171.529 106.54,169.332C100.693,167.136 97.769,172.261 94.845,167.136C91.922,161.278 97.038,156.885 92.653,157.617C88.267,159.081 82.419,158.349 82.419,165.671C81.688,173.726 76.572,172.261 76.572,172.261Z" transform="rotate(360 92.718 171.455)" fill="#FF8500"/>
<path d="M49.073,163.475C50.535,165.672 51.266,166.404 55.651,166.404C60.037,166.404 62.23,165.672 64.423,167.868C67.346,170.065 68.077,173.726 70.27,169.333C71.732,165.672 70.27,164.939 73.194,159.082C76.118,153.224 73.194,152.492 79.041,149.563C84.158,146.634 87.813,150.295 87.813,150.295C87.813,150.295 96.584,149.563 91.467,146.634C86.351,143.705 84.889,140.044 76.849,140.776C68.808,141.509 70.27,142.973 63.692,145.902C57.113,148.099 55.651,145.17 51.266,147.366C46.88,149.563 42.494,151.027 43.956,152.492C46.149,153.956 49.073,149.563 49.804,153.224C51.996,158.35 46.88,161.278 49.073,163.475Z" transform="rotate(360 68.37 156.038)" fill="#FF8500"/>
<path d="M47.467,179.584C47.467,179.584 44.543,175.923 47.467,174.458C50.39,173.726 51.852,175.19 53.314,174.458C54.776,173.726 56.969,172.994 57.7,169.333C58.431,166.404 57.7,165.672 59.162,162.011C60.623,157.617 58.431,154.688 62.816,153.956C67.202,153.224 67.933,144.437 71.588,154.688C75.242,164.939 77.435,162.743 70.857,168.601C63.547,174.458 61.354,176.655 65.009,181.78C67.933,186.906 69.395,192.031 65.009,188.37C60.623,184.709 62.085,182.513 58.431,181.048C54.776,180.316 47.467,178.119 47.467,179.584Z" transform="rotate(360 60.623 169.682)" fill="#FF8500"/>
<path d="M18.359,222.784C18.359,223.516 13.243,229.374 17.629,230.106C22.014,230.839 22.014,228.642 25.669,230.106C30.055,231.571 30.786,233.035 30.786,235.232C30.786,237.428 30.055,239.625 32.247,240.357C34.44,241.09 35.171,244.018 38.826,240.357C42.481,236.696 45.404,236.696 47.597,232.303C49.79,227.91 55.638,222.052 56.369,219.123C57.1,216.194 55.638,208.872 51.983,211.801C48.328,214.73 47.597,218.391 44.673,222.052C41.75,225.713 41.019,228.642 36.633,226.445C32.247,224.249 32.978,224.981 33.709,219.855C34.44,214.73 38.826,216.927 37.364,208.872C35.171,200.818 32.247,197.889 30.786,198.621C30.055,199.353 28.593,202.282 29.324,207.408C30.055,213.265 30.786,218.391 27.862,219.123C25.669,221.32 18.359,222.784 18.359,222.784Z" transform="rotate(360 36.202 220.336)" fill="#FF8500"/>
<path d="M31.335,187.638C31.335,188.371 29.142,191.299 33.527,192.764C37.913,194.228 42.299,197.157 43.03,192.032C43.761,186.906 42.299,184.71 43.761,178.852C45.954,172.994 43.03,171.53 46.684,167.869C50.339,164.208 52.532,165.672 53.994,164.208C55.456,162.743 55.456,160.546 51.07,158.35C47.415,156.153 46.684,153.956 43.761,153.956C40.837,153.956 36.451,153.224 34.989,154.689C33.527,156.885 34.258,153.956 34.989,159.814C35.72,165.672 37.182,167.869 32.066,170.065C27.68,172.262 24.025,170.797 24.756,175.923C25.487,181.048 27.68,181.781 28.411,182.513C29.873,183.245 31.335,187.638 31.335,187.638Z" transform="rotate(360 39.765 174.353)" fill="#FF8500"/>
<path d="M11.118,220.587L14.042,222.784C14.042,222.784 18.427,220.587 18.427,218.391C18.427,216.194 20.62,213.265 20.62,211.801C20.62,210.336 23.544,205.943 24.275,205.943C25.006,205.943 30.122,208.14 30.122,208.14C30.122,208.14 32.315,211.801 33.046,208.872C33.777,206.675 36.701,204.479 36.701,203.014C36.701,201.55 35.97,193.495 35.97,192.031C35.97,190.567 35.239,183.244 34.508,181.048C33.777,178.851 31.584,174.458 30.853,172.993C30.122,172.261 28.661,170.065 27.93,169.332C26.468,168.6 26.468,167.868 25.006,168.6C23.544,169.332 21.351,170.797 19.889,172.261C18.427,172.993 17.696,172.261 16.235,175.922C14.042,180.316 13.311,181.78 13.311,182.512C14.042,183.977 15.504,186.173 15.504,186.173C15.504,194.96 13.311,194.228 11.849,194.96C11.118,196.424 9.656,195.692 10.387,197.157C11.849,198.621 11.849,198.621 13.311,200.818C14.773,203.014 14.773,203.014 14.773,205.943C14.773,208.872 14.042,211.069 13.311,213.265C13.311,215.462 11.118,220.587 11.118,220.587Z" transform="rotate(360 23.444 195.541)" fill="#FF8500"/>
<path d="M199.664,58.036C203.318,60.233 206.973,55.839 206.242,51.446C206.242,47.785 202.587,44.124 198.933,43.392C195.278,42.659 190.161,44.124 191.623,48.517C191.623,47.785 196.009,55.839 199.664,58.036Z" transform="rotate(360 198.852 50.916)" fill="#FF8500"/>
<g opacity="0.5">
<path d="M202.712,55.107C199.057,52.91 194.671,44.856 194.671,44.856C194.671,44.124 193.94,44.124 193.94,43.392C192.479,44.124 191.748,45.588 192.479,47.785C192.479,47.785 196.864,55.107 200.519,58.036C203.443,60.233 205.636,57.304 207.097,54.375C206.366,55.839 204.174,55.839 202.712,55.107Z" transform="rotate(360 199.645 51.097)" fill="#FFFA94"/>
</g>
<path d="M62.246,116.612C65.901,118.809 69.556,114.416 68.825,110.022C68.825,106.361 65.17,102.7 61.515,101.968C57.86,101.236 52.744,102.7 54.206,107.093C54.206,107.093 58.591,114.416 62.246,116.612Z" transform="rotate(360 61.434 109.492)" fill="#FF8500"/>
<g opacity="0.5">
<path d="M66.026,113.684C62.371,111.488 57.986,103.433 57.986,103.433C57.986,102.701 57.255,102.701 57.255,101.969C55.793,102.701 55.062,104.165 55.793,106.362C55.793,106.362 60.179,113.684 63.833,116.613C66.757,118.81 68.95,115.881 70.412,112.952C69.681,114.416 68.219,115.149 66.026,113.684Z" transform="rotate(360 62.959 109.674)" fill="#FFFA94"/>
</g>
<path d="M194.069,155.421C197.724,157.617 200.648,151.76 199.917,148.099C199.186,144.438 195.531,140.776 191.877,140.776C188.222,140.044 183.105,142.241 185.298,146.634C185.298,146.634 190.415,153.224 194.069,155.421Z" transform="rotate(360 192.4 148.269)" fill="#FF8500"/>
<g opacity="0.5">
<path d="M196.644,152.492C192.989,150.296 187.872,143.706 187.872,143.706C187.872,142.973 187.142,142.973 187.142,142.241C185.68,142.973 184.949,145.17 186.411,147.367C186.411,147.367 191.527,154.689 195.182,156.153C198.106,157.618 200.298,154.689 201.029,151.76C200.298,152.492 198.837,153.224 196.644,152.492Z" transform="rotate(360 193.322 149.392)" fill="#FFFA94"/>
</g>
<path d="M151.421,46.32C155.076,48.517 158.73,44.124 157.999,39.73C157.268,36.069 154.345,32.408 150.69,31.676C147.035,30.944 141.919,32.408 143.381,36.801C143.381,36.069 147.766,44.124 151.421,46.32Z" transform="rotate(360 150.609 39.2)" fill="#FF8500"/>
<g opacity="0.5">
<path d="M153.025,43.391C149.37,41.195 144.985,33.14 144.985,33.14C144.985,32.408 144.254,32.408 144.254,31.676C143.523,32.408 142.792,33.872 143.523,36.069C143.523,36.069 147.908,43.391 151.563,46.32C154.487,48.517 156.68,45.588 158.141,42.659C155.949,44.123 154.487,44.123 153.025,43.391Z" transform="rotate(360 150.681 39.381)" fill="#FFFA94"/>
</g>
<path d="M129.725,60.965C131.917,62.429 133.379,59.5 133.379,57.303C133.379,55.107 131.186,52.91 128.994,52.91C126.801,52.178 123.877,53.642 125.339,55.839C125.339,55.107 127.532,59.5 129.725,60.965Z" transform="rotate(360 129.162 57.039)" fill="#FF8500"/>
<g opacity="0.5">
<path d="M130.365,59.5C128.172,58.036 125.979,53.642 125.979,53.642L125.979,52.91C125.248,53.642 124.517,54.375 125.248,55.839C125.248,55.839 127.441,60.232 129.634,61.697C131.096,63.161 132.558,60.965 133.289,59.5C132.558,59.5 131.096,60.232 130.365,59.5Z" transform="rotate(360 129.117 57.545)" fill="#FFFA94"/>
</g>
<path d="M195.51,8.245C197.703,9.709 199.165,6.78 199.165,4.584C199.165,2.387 196.972,0.19 194.779,0.19C192.586,-0.542 189.663,0.923 191.124,3.119C191.124,2.387 193.317,6.78 195.51,8.245Z" transform="rotate(360 194.948 4.32)" fill="#FF8500"/>
<g opacity="0.5">
<path d="M196.15,6.78C193.957,5.316 191.764,0.923 191.764,0.923L191.764,0.19C191.033,0.923 190.302,1.655 191.033,3.119C191.033,3.119 193.226,7.513 195.419,8.977C196.881,9.709 198.343,8.245 199.074,6.78C198.343,6.78 196.881,6.78 196.15,6.78Z" transform="rotate(360 194.902 4.681)" fill="#FFFA94"/>
</g>
<path d="M128.263,75.609C130.456,77.074 131.918,74.145 131.918,71.948C131.918,69.751 129.725,67.555 127.532,67.555C125.339,66.823 122.416,68.287 123.878,70.484C123.878,69.751 126.07,74.145 128.263,75.609Z" transform="rotate(360 127.701 71.684)" fill="#FF8500"/>
<g opacity="0.5">
<path d="M128.903,74.145C126.71,72.68 124.517,68.287 124.517,68.287L124.517,67.555C123.786,68.287 123.055,69.019 123.786,70.484C123.786,70.484 125.979,74.877 128.172,76.341C129.634,77.806 131.096,75.609 131.827,74.145C130.365,74.145 129.634,74.145 128.903,74.145Z" transform="rotate(360 127.655 72.189)" fill="#FFFA94"/>
</g>
<path d="M221.093,52.91C223.285,54.375 224.747,51.446 224.747,49.249C224.747,47.053 222.554,44.856 220.362,44.856C218.169,44.124 215.245,44.856 216.707,47.785C216.707,47.053 219.631,51.446 221.093,52.91Z" transform="rotate(360 220.53 48.948)" fill="#FF8500"/>
<g opacity="0.5">
<path d="M221.002,50.713C218.809,49.249 216.616,44.855 216.616,44.855L216.616,44.123C215.886,44.855 215.155,45.587 215.886,47.052C215.886,47.052 218.078,51.445 220.271,52.91C221.733,53.642 223.195,52.177 223.926,50.713C222.464,51.445 221.733,51.445 221.002,50.713Z" transform="rotate(360 219.754 48.614)" fill="#FFFA94"/>
</g>
<path d="M205.743,126.132C207.936,127.596 209.397,124.668 209.397,122.471C209.397,120.274 207.205,118.078 205.012,118.078C202.819,117.345 199.895,118.078 201.357,121.006C201.357,120.274 203.55,124.668 205.743,126.132Z" transform="rotate(360 205.181 122.17)" fill="#FF8500"/>
<g opacity="0.5">
<path d="M206.383,123.935C204.19,122.47 201.997,118.077 201.997,118.077L201.997,117.345C201.266,118.077 200.535,118.809 201.266,120.274C201.266,120.274 203.459,124.667 205.652,126.131C207.114,126.864 208.576,125.399 209.307,123.935C208.576,124.667 207.845,124.667 206.383,123.935Z" transform="rotate(360 205.135 121.835)" fill="#FFFA94"/>
</g>
<path d="M33.241,134.186C35.434,135.651 36.896,132.722 36.896,130.525C36.896,128.329 34.703,126.132 32.51,126.132C30.317,125.4 27.394,126.864 28.855,129.061C28.855,129.061 31.048,132.722 33.241,134.186Z" transform="rotate(360 32.679 130.261)" fill="#FF8500"/>
<g opacity="0.5">
<path d="M33.881,132.722C31.688,131.257 29.495,126.864 29.495,126.864L29.495,126.132C28.764,126.864 28.033,127.596 28.764,129.061C28.764,129.061 30.957,133.454 33.15,134.918C34.612,136.383 36.074,134.186 36.804,132.722C36.074,132.722 35.343,133.454 33.881,132.722Z" transform="rotate(360 32.633 130.767)" fill="#FFFA94"/>
</g>
<path d="M138.496,205.943C140.689,207.408 142.151,204.479 142.151,202.282C142.151,200.085 139.958,197.889 137.765,197.889C135.572,197.156 132.648,198.621 134.11,200.818C134.11,200.085 136.303,204.479 138.496,205.943Z" transform="rotate(360 137.934 202.018)" fill="#FF8500"/>
<g opacity="0.5">
<path d="M139.135,203.746C136.943,202.282 134.75,197.888 134.75,197.888L134.75,197.156C134.019,197.888 133.288,198.621 134.019,200.085C134.019,200.085 136.212,204.478 138.405,205.943C139.866,206.675 141.328,205.211 142.059,203.746C141.328,204.478 139.866,204.478 139.135,203.746Z" transform="rotate(360 137.888 201.647)" fill="#FFFA94"/>
</g>
<g opacity="0.5">
<path d="M6.689,173.725C11.806,172.993 16.922,172.993 22.039,173.725C52.007,178.119 73.205,205.943 68.819,235.964C68.088,241.089 66.626,246.215 64.433,251.34C87.824,247.679 107.559,229.374 111.214,204.478C115.599,174.458 94.402,146.633 64.433,142.24C39.581,137.847 16.191,151.759 6.689,173.725Z" transform="rotate(360 59.239 196.386)" fill="url(#pf_0_1_2025)"/>
</g>
<defs>
<linearGradient id="pf_0_1_1964" x1="494.987" y1="382.76" x2="140.249" y2="106.295" gradientUnits="userSpaceOnUse">
<stop stop-color="#000000"/>
<stop offset="0.569" stop-color="#000000"/>
<stop offset="0.606" stop-color="#000000"/>
<stop offset="1" stop-color="#404040"/>
</linearGradient>
<linearGradient id="pf_0_1_2025" x1="59.985" y1="197.708" x2="21.106" y2="232.049" gradientUnits="userSpaceOnUse">
<stop stop-color="#FF6700"/>
<stop offset="0.977" stop-color="#C61300"/>
</linearGradient>
</defs>
</svg>
