<svg width="66" height="160" viewBox="0 0 66 160" fill="none" xmlns="http://www.w3.org/2000/svg" xmlns:xlink="http://www.w3.org/1999/xlink">
<path d="M33,147.797C32.214,147.797 31.4,147.742 30.614,147.661C21.149,146.603 13.339,138.685 12.39,129.193C11.576,120.976 15.509,113.329 22.614,109.18L26.654,106.82L26.654,18.549C26.654,15.051 29.502,12.203 33,12.203C36.498,12.203 39.346,15.051 39.346,18.549L39.346,106.82L43.387,109.18C49.76,112.895 53.719,119.756 53.719,127.078C53.719,132.61 51.576,137.817 47.644,141.722C45.729,143.657 43.448,145.19 40.934,146.233C38.419,147.276 35.722,147.808 33,147.797Z" fill="#37B5A5"/>
<path d="M64.946,119.132C65.597,121.708 65.922,124.393 65.922,127.078C65.922,129.329 64.105,131.146 61.854,131.146C59.603,131.146 57.786,129.329 57.786,127.078C57.786,125.044 57.542,123.037 57.054,121.085C56.512,118.915 57.841,116.692 60.01,116.149C62.18,115.607 64.403,116.936 64.946,119.132Z" fill="#FFFFFF"/>
<path d="M57.19,143.349C58.844,144.841 58.98,147.417 57.488,149.098C51.143,156.149 42.41,160 33.054,160C31.807,160 30.532,159.946 29.258,159.783C13.963,158.102 1.76,145.736 0.241,130.386C-0.952,118.373 4.58,106.658 14.451,99.905L14.451,18.549C14.451,8.325 22.776,0 33,0C43.224,0 51.549,8.325 51.549,18.549L51.549,99.905C53.014,100.908 54.397,102.047 55.699,103.268C56.446,104.02 56.871,105.034 56.882,106.094C56.893,107.154 56.49,108.177 55.758,108.944C55.026,109.711 54.023,110.163 52.964,110.202C51.904,110.24 50.871,109.864 50.085,109.153C48.675,107.824 47.102,106.631 45.448,105.681C44.173,104.949 43.414,103.593 43.414,102.156L43.414,100.854L33,100.854C30.749,100.854 28.932,99.037 28.932,96.786C28.932,94.536 30.749,92.719 33,92.719L43.414,92.719L43.414,77.18L33,77.18C30.749,77.18 28.932,75.363 28.932,73.112C28.932,70.861 30.749,69.044 33,69.044L43.414,69.044L43.414,53.505L33,53.505C30.749,53.505 28.932,51.688 28.932,49.437C28.932,47.186 30.749,45.369 33,45.369L43.414,45.369L43.414,29.831L33,29.831C30.749,29.831 28.932,28.014 28.932,25.763C28.932,23.512 30.749,21.695 33,21.695L43.414,21.695L43.414,18.549C43.352,15.828 42.227,13.24 40.281,11.338C38.335,9.436 35.722,8.371 33,8.371C30.279,8.371 27.665,9.436 25.719,11.338C23.773,13.24 22.649,15.828 22.587,18.549L22.587,102.156C22.587,103.593 21.827,104.949 20.58,105.654C12.065,110.617 7.373,119.783 8.349,129.6C9.461,140.963 18.844,150.454 30.153,151.702C38.288,152.624 46.017,149.668 51.441,143.647C52.932,141.993 55.509,141.831 57.19,143.349Z" fill="#FFFFFF"/>
<path d="M43.007,117.234C44.322,118.547 45.365,120.107 46.077,121.824C46.789,123.541 47.156,125.382 47.156,127.241C47.156,129.1 46.789,130.94 46.077,132.657C45.365,134.374 44.322,135.934 43.007,137.248C40.241,140.014 36.634,141.397 33,141.397C29.366,141.397 25.759,140.014 22.993,137.248C21.678,135.934 20.635,134.374 19.923,132.657C19.211,130.94 18.844,129.1 18.844,127.241C18.844,125.382 19.211,123.541 19.923,121.824C20.635,120.107 21.678,118.547 22.993,117.234C24.566,115.634 27.142,115.634 28.742,117.234C30.342,118.834 30.342,121.383 28.742,122.983C26.383,125.342 26.383,129.139 28.742,131.498C31.102,133.858 34.925,133.858 37.258,131.498C39.617,129.139 39.617,125.342 37.258,122.983C35.658,121.383 35.658,118.834 37.258,117.234C38.858,115.634 41.434,115.634 43.007,117.234ZM8.214,32.38L8.214,80C8.214,82.251 6.397,84.068 4.146,84.068C1.895,84.068 0.078,82.251 0.078,80L0.078,32.38C0.078,30.129 1.895,28.312 4.146,28.312C6.397,28.312 8.214,30.129 8.214,32.38ZM8.214,17.492L8.214,20.176C8.214,22.427 6.397,24.244 4.146,24.244C1.895,24.244 0.078,22.427 0.078,20.176L0.078,17.492C0.078,15.241 1.895,13.424 4.146,13.424C6.397,13.424 8.214,15.241 8.214,17.492Z" fill="#FFFFFF"/>
</svg>
