<svg width="466" height="64" viewBox="0 0 466 64" fill="none" xmlns="http://www.w3.org/2000/svg" xmlns:xlink="http://www.w3.org/1999/xlink">
<path d="M12.674,64C10.46,64 8.413,63.447 6.531,62.34C4.65,61.233 3.155,59.739 2.049,57.857C0.942,55.976 0.388,53.928 0.388,51.715L0.388,16.519C0.388,14.25 0.942,12.202 2.049,10.376C3.155,8.495 4.65,7 6.531,5.894C8.413,4.787 10.46,4.233 12.674,4.233L47.787,4.233C50.056,4.233 52.103,4.787 53.929,5.894C55.811,7 57.305,8.495 58.412,10.376C59.574,12.202 60.155,14.25 60.155,16.519L60.155,22.163L47.123,22.163L47.123,17.183L13.255,17.183L13.255,51.051L47.123,51.051L47.123,42.086L34.173,42.086L34.173,29.136L60.155,29.136L60.155,51.715C60.155,53.928 59.574,55.976 58.412,57.857C57.305,59.739 55.811,61.233 53.929,62.34C52.103,63.447 50.056,64 47.787,64L12.674,64Z" fill="#FFFFFF"/>
<path d="M80.997,64C78.783,64 76.763,63.447 74.937,62.34C73.111,61.233 71.644,59.767 70.538,57.94C69.486,56.114 68.96,54.122 68.96,51.964L68.96,33.536L105.069,33.536L105.069,28.555L68.96,28.555L68.96,15.855L105.733,15.855C107.947,15.855 109.967,16.408 111.793,17.515C113.619,18.622 115.058,20.088 116.11,21.914C117.216,23.741 117.77,25.733 117.77,27.891L117.77,64L80.997,64ZM81.661,51.3L105.069,51.3L105.069,44.659L81.661,44.659L81.661,51.3Z" fill="#FFFFFF"/>
<path d="M136.444,64C134.286,64 132.294,63.447 130.468,62.34C128.641,61.233 127.175,59.767 126.068,57.94C124.961,56.114 124.408,54.122 124.408,51.964L124.408,0L137.191,0L137.191,51.3L146.903,51.3L146.903,64L136.444,64Z" fill="#FFFFFF"/>
<path d="M165.384,64C163.17,64 161.15,63.447 159.324,62.34C157.498,61.233 156.031,59.767 154.925,57.94C153.873,56.114 153.348,54.122 153.348,51.964L153.348,33.536L189.456,33.536L189.456,28.555L153.348,28.555L153.348,15.855L190.121,15.855C192.334,15.855 194.354,16.408 196.18,17.515C198.006,18.622 199.445,20.088 200.496,21.914C201.604,23.741 202.156,25.733 202.156,27.891L202.156,64L165.384,64ZM166.048,51.3L189.456,51.3L189.456,44.659L166.048,44.659L166.048,51.3Z" fill="#FFFFFF"/>
<path d="M220.018,64C217.86,64 215.868,63.447 214.042,62.34C212.216,61.233 210.75,59.767 209.642,57.94C208.536,56.114 207.982,54.122 207.982,51.964L207.982,27.891C207.982,25.733 208.536,23.741 209.642,21.914C210.75,20.088 212.216,18.622 214.042,17.515C215.868,16.408 217.86,15.855 220.018,15.855L256.708,15.855L256.708,28.555L220.682,28.555L220.682,51.3L256.792,51.3L256.792,64L220.018,64Z" fill="#FFFFFF"/>
<path d="M275.714,64C273.502,64 271.482,63.447 269.656,62.34C267.828,61.233 266.362,59.767 265.256,57.94C264.148,56.114 263.596,54.122 263.596,51.964L263.596,1.577L276.296,1.577L276.296,15.855L294.142,15.855L294.142,28.555L276.296,28.555L276.296,51.3L294.142,51.3L294.142,64L275.714,64Z" fill="#FFFFFF"/>
<path d="M300.964,64L300.964,15.855L313.664,15.855L313.664,64L300.964,64ZM300.964,12.866L300.964,0.083L313.664,0.083L313.664,12.866L300.964,12.866Z" fill="#FFFFFF"/>
<path d="M332.778,64C330.62,64 328.628,63.447 326.802,62.34C324.974,61.233 323.508,59.767 322.402,57.94C321.294,56.114 320.742,54.122 320.742,51.964L320.742,27.891C320.742,25.733 321.294,23.741 322.402,21.914C323.508,20.088 324.974,18.622 326.802,17.515C328.628,16.408 330.62,15.855 332.778,15.855L369.468,15.855L369.468,28.555L333.442,28.555L333.442,51.3L369.55,51.3L369.55,64L332.778,64Z" fill="#FFFFFF"/>
<path d="M378.708,64L378.708,51.3L391.408,51.3L391.408,64L378.708,64Z" fill="#FFFFFF"/>
<path d="M397.916,64L397.916,15.855L410.616,15.855L410.616,64L397.916,64ZM397.916,12.866L397.916,0.083L410.616,0.083L410.616,12.866L397.916,12.866Z" fill="#FFFFFF"/>
<path d="M428.838,64C426.68,64 424.688,63.447 422.862,62.34C421.036,61.233 419.568,59.767 418.462,57.94C417.356,56.114 416.802,54.122 416.802,51.964L416.802,27.891C416.802,25.733 417.356,23.741 418.462,21.914C419.568,20.088 421.036,18.622 422.862,17.515C424.688,16.408 426.68,15.855 428.838,15.855L453.574,15.855C455.788,15.855 457.808,16.408 459.634,17.515C461.46,18.622 462.9,20.088 463.95,21.914C465.058,23.741 465.612,25.733 465.612,27.891L465.612,51.964C465.612,54.122 465.058,56.114 463.95,57.94C462.9,59.767 461.46,61.233 459.634,62.34C457.808,63.447 455.788,64 453.574,64L428.838,64ZM429.502,51.3L452.91,51.3L452.91,28.555L429.502,28.555L429.502,51.3Z" fill="#FFFFFF"/>
</svg>
