<svg width="364" height="374" viewBox="0 0 364 374" fill="none" xmlns="http://www.w3.org/2000/svg" xmlns:xlink="http://www.w3.org/1999/xlink">
<path d="M97.086,232.861C100.089,206.329 123.618,187.306 150.15,190.31C176.682,193.313 195.705,216.842 192.702,243.374C190.199,266.902 171.176,284.424 148.148,285.425C147.146,285.425 103.093,337.488 99.589,335.986C96.585,334.484 141.64,285.925 140.639,285.925C139.637,285.925 140.138,285.925 139.137,285.925C135.132,285.425 53.032,375.033 45.523,370.528C36.512,365.522 124.619,281.921 123.618,281.42C122.116,280.919 118.111,278.416 116.609,276.914C116.109,276.414 53.032,342.995 48.026,338.489C41.518,332.982 107.599,268.905 107.098,267.904C106.097,266.902 105.596,265.901 104.595,264.399C104.094,263.398 8.979,360.516 1.47,354.509C-4.037,350.003 99.088,253.386 98.588,251.384C98.588,251.384 98.087,245.376 96.585,246.377C86.573,252.385 45.523,287.928 43.02,284.424C38.515,278.917 96.585,236.365 97.086,232.861Z" fill="#FFD400"/>
<path d="M312.847,121.725L244.765,59.65L259.783,66.658C269.295,71.164 278.806,77.672 287.316,85.681C293.824,92.189 299.832,99.198 304.337,106.707L312.847,121.725Z" fill="#FFFFFF"/>
<path d="M352.465,45.213L276.372,45.213L276.372,60.231L352.465,60.231L352.465,45.213Z" transform="rotate(-95.277 314.418 52.722)" fill="#66ACFF"/>
<path d="M188.697,104.706C184.692,101.201 178.685,101.201 174.68,105.206L97.086,190.309C93.582,194.314 86.573,195.816 81.567,193.814L4.474,161.775C-0.532,159.772 -1.534,160.774 2.471,164.779L59.54,216.842C63.545,220.346 70.053,226.353 74.058,230.358L76.561,232.861C80.566,236.365 86.573,236.365 90.578,232.36L106.097,214.839C109.601,210.834 115.608,204.326 119.613,200.322L191.7,121.226C195.205,117.221 195.205,111.214 191.2,107.209L188.697,104.706Z" fill="#66ACFF"/>
<path d="M275.803,180.798C279.807,184.302 280.308,190.81 276.303,194.815L198.709,279.918C195.205,283.923 194.204,290.931 196.707,295.937L235.754,369.527C238.257,374.533 237.256,375.033 233.251,371.529L176.182,319.466C172.177,315.962 165.669,309.954 161.664,305.949L159.161,303.446C155.156,299.942 154.656,293.434 158.661,289.429L174.179,271.908C177.684,267.903 183.691,261.396 187.696,257.391L259.783,178.295C263.287,174.29 269.795,173.789 273.8,177.794L275.803,180.798Z" fill="#66ACFF"/>
<path d="M315.852,51.14C291.822,29.114 211.725,78.173 190.199,102.202L167.171,127.733L103.594,197.818C110.602,214.338 122.617,231.359 138.636,245.876C154.655,260.394 172.677,270.906 189.698,276.414L253.275,206.328L276.303,180.798C298.33,156.768 339.38,72.666 315.852,51.14Z" fill="#FFFCF0"/>
<path d="M270.796,100.7C284.813,113.215 295.326,127.733 302.835,141.75C320.356,107.709 334.373,63.655 318.354,49.138C301.834,34.12 259.282,52.642 227.244,73.167C241.761,78.674 256.779,87.684 270.796,100.7Z" fill="#66EDFF"/>
<path d="M248.77,164.277C258.782,153.263 257.781,136.243 246.767,126.231C235.754,116.218 218.734,117.22 208.721,128.233C198.709,139.246 199.71,156.267 210.724,166.279C222.238,175.791 239.258,175.29 248.77,164.277ZM216.731,159.771C209.222,153.263 208.721,141.749 215.73,134.24C222.238,126.731 233.752,126.231 241.261,133.239C248.77,139.747 249.27,151.261 242.262,158.77C235.754,165.778 224.24,166.279 216.731,159.771Z" fill="#66EDFF"/>
<path d="M241.261,132.738C233.752,126.23 222.238,126.731 215.73,133.74C209.222,141.249 209.723,152.763 216.731,159.27C224.24,165.778 235.754,165.278 242.262,158.269C249.271,150.76 248.77,139.246 241.261,132.738Z" fill="#323232"/>
<path d="M359.404,28.112C353.396,35.121 342.884,35.621 335.875,29.113C328.867,23.106 328.867,12.593 334.874,5.585C340.881,-1.424 351.394,-1.924 358.402,4.584C365.411,10.591 365.912,21.104 359.404,28.112Z" fill="#66EDFF"/>
<path d="M150.15,230.858C133.13,215.339 115.108,185.303 115.108,185.303C113.606,182.8 111.103,182.8 109.1,184.802L91.579,204.326C89.577,206.329 89.577,209.833 90.578,212.336C90.578,212.336 108.6,242.873 125.621,258.392C142.641,273.91 174.68,288.929 174.68,288.929C177.183,289.93 180.687,289.429 182.69,287.427L200.211,267.903C202.213,265.901 201.713,263.398 199.21,262.396C199.21,261.395 167.171,246.377 150.15,230.858Z" fill="#66EDFF"/>
<g opacity="0.2">
<path d="M201.713,267.402C203.214,265.9 203.214,263.896 202.213,262.896L257.28,202.323L280.308,176.792C287.316,169.283 295.827,155.766 304.337,139.747C320.357,109.21 333.373,70.163 323.361,52.141C323.361,51.64 322.859,51.64 322.859,51.139C322.359,50.639 322.359,50.138 321.859,49.638C321.357,48.636 320.857,48.136 319.855,47.635C319.855,47.635 319.855,47.135 319.355,47.135C318.355,46.133 317.353,45.633 316.351,45.132C315.351,44.632 313.849,44.131 312.847,43.63C308.343,75.669 292.323,109.21 266.291,137.744C219.734,188.806 154.656,208.33 107.599,189.307L93.582,204.826C91.579,206.828 91.579,210.332 92.581,212.835C92.581,212.835 110.602,243.372 127.623,258.89C144.644,274.41 176.682,289.428 176.682,289.428C179.185,290.428 182.69,289.928 184.692,287.926L201.713,267.402Z" fill="url(#pf_0_1_1248)"/>
</g>
<defs>
<linearGradient id="pf_0_1_1248" x1="193.169" y1="126.647" x2="328.546" y2="244.889" gradientUnits="userSpaceOnUse">
<stop offset="0.192" stop-color="#000000"/>
<stop offset="0.466" stop-color="#000000"/>
<stop offset="0.484" stop-color="#000000"/>
<stop offset="0.817" stop-color="#404040"/>
</linearGradient>
</defs>
</svg>
