<svg width="5140" height="4764" viewBox="0 0 5140 4764" fill="none" xmlns="http://www.w3.org/2000/svg" xmlns:xlink="http://www.w3.org/1999/xlink">
<g opacity="0.1">
<circle cx="2278.506" cy="2462.818" r="1381" transform="rotate(-40.985 2278.506 2462.818)" fill="#8D58B7"/>
</g>
<g opacity="0.2">
<circle cx="2278.506" cy="2462.819" r="1322.171" transform="rotate(-40.985 2278.506 2462.819)" fill="#8D58B7"/>
</g>
<path d="M3230.89,1511.671C3032.882,1343.68 2789.502,1238.186 2531.532,1208.529C2273.562,1178.873 2012.592,1226.387 1781.628,1345.062C2083.612,1368.049 2370.14,1487.783 2598.692,1686.495C2777.168,1842.605 3022.744,1717.079 3230.89,1511.671Z" transform="rotate(12.551 2506.26 1478.216)" fill="#ECE4F9"/>
<path d="M3505.432,1896.814C3427.126,1750.27 3321.99,1619.74 3195.49,1512.018C2987.344,1717.426 2741.768,1842.952 2563.292,1686.842C2334.74,1488.129 2048.212,1368.396 1746.228,1345.41C1646.144,1397.125 1553.168,1461.563 1469.612,1537.123C1863.994,1564.512 2241.03,1902.292 2600.722,2132.804C2971.368,2393.9 3277.652,2207.664 3505.432,1896.814Z" transform="rotate(12.551 2487.519 1801.078)" fill="#D6C3ED"/>
<path d="M1127.22,3249.415C1249.984,3404.687 1406.338,3530.121 1584.536,3616.295C1762.734,3702.467 1958.142,3747.141 2156.082,3746.957C2177.08,3746.957 2198.076,3746.957 2219.074,3746.957C1892.704,3465.321 1520.232,3244.394 1127.22,3249.415Z" transform="rotate(12.551 1673.147 3498.144)" fill="#65377F"/>
<path d="M1025.573,2791.437C985.874,2772.268 944.045,2757.866 900.959,2748.53C943.759,2943.285 1030.574,3125.658 1154.751,3281.676C1547.763,3276.654 1921.605,3497.582 2246.605,3777.848C2548.651,3764.368 2836.647,3646.426 3061.379,3444.176C2299.099,3767.35 1646.359,3119.176 1025.573,2791.437Z" transform="rotate(12.551 1981.174 3263.189)" fill="#794899"/>
<path d="M3146.67,3000.151C2365.662,3260.333 1733.922,2776.941 1138.24,2329.154C1077.365,2285.951 1003.074,2265.881 928.725,2272.553C916.469,2344.026 910.209,2416.399 910.01,2488.915C910.155,2583.765 920.407,2678.329 940.593,2771.007C983.678,2780.343 1025.507,2794.745 1065.207,2813.915C1685.994,3141.653 2338.732,3789.827 3101.03,3466.653C3301.45,3286.245 3441.41,3048.433 3501.79,2785.615C3402.89,2885.275 3280.91,2958.969 3146.67,3000.151Z" transform="rotate(12.551 2205.902 2912.912)" fill="#8D58B7"/>
<path d="M1188.887,2334.856C1782.285,2780.818 2414.939,3264.21 3197.311,3004.026C3331.371,2963.37 3453.331,2890.314 3552.431,2791.316C3575.371,2693.614 3587.011,2593.604 3587.131,2493.248C3587.131,2456.73 3587.131,2420.67 3582.111,2385.066C3402.711,2476.358 3197.311,2533.416 3011.071,2595.494C2341.905,2855.678 2006.863,2260.908 1487.411,1926.323C1439.117,1886.212 1382.361,1857.569 1321.405,1842.548C1260.449,1827.526 1196.883,1826.517 1135.481,1839.595C1057.479,1975.233 1004.595,2123.834 979.371,2278.254C1053.72,2271.584 1128.011,2291.652 1188.887,2334.856Z" transform="rotate(12.551 2283.251 2453.841)" fill="#A177C9"/>
<path d="M1526.624,1938.126C2046.988,2272.712 2381.118,2867.48 3050.288,2607.298C3236.532,2545.22 3441.932,2489.532 3621.312,2396.87C3606.812,2219.102 3556.012,2046.196 3472.052,1888.828C3243.832,2200.134 2938,2386.37 2567.354,2124.818C2207.662,1893.85 1830.626,1556.525 1436.244,1531.42C1332.497,1624.44 1244.209,1733.374 1174.692,1854.138C1235.889,1840.688 1299.336,1841.256 1360.283,1855.8C1421.23,1870.346 1478.096,1898.49 1526.624,1938.126Z" transform="rotate(12.551 2398.006 2101.384)" fill="#BA9CDB"/>
<g opacity="0.2">
<path d="M2634.787,1235.803C2670.097,1356.022 2687.931,1480.695 2687.735,1605.993C2687.323,1809.719 2639.533,2010.557 2548.145,2192.635C2456.757,2374.713 2324.273,2533.041 2161.165,2655.107C1998.055,2777.173 1808.793,2859.631 1608.333,2895.963C1407.873,2932.297 1201.708,2921.509 1006.135,2864.455C1070.045,3083.359 1189.857,3281.843 1353.779,3440.383C1517.699,3598.923 1720.077,3712.043 1940.993,3768.603C2161.909,3825.183 2393.749,3823.243 2613.689,3762.983C2833.631,3702.743 3034.095,3586.263 3195.335,3425.003C3356.595,3263.763 3473.075,3063.299 3533.315,2843.357C3593.575,2623.417 3595.515,2391.577 3538.935,2170.661C3482.375,1949.745 3369.255,1747.367 3210.715,1583.447C3052.175,1419.526 2853.691,1299.714 2634.787,1235.803Z" transform="rotate(12.551 2293.058 2522.727)" fill="url(#pf_0_1_298)"/>
</g>
<g opacity="0.7">
<path d="M2064.968,1434.206C2104.224,1486.699 2064.968,1584.382 1973.676,1652.852C1882.384,1721.32 1777.854,1734.1 1738.142,1682.064C1698.43,1630.028 1740.881,1532.345 1832.173,1466.159C1923.466,1399.972 2025.712,1382.17 2064.968,1434.206Z" transform="rotate(12.551 1901.684 1558.962)" fill="#FFFFFF"/>
</g>
<path d="M3491.286,1271.87C3506.66,1287.259 3517.126,1306.86 3521.36,1328.197C3525.596,1349.533 3523.412,1371.646 3515.082,1391.74C3506.752,1411.835 3492.652,1429.009 3474.564,1441.091C3456.476,1453.175 3435.212,1459.623 3413.459,1459.623C3391.707,1459.623 3370.442,1453.175 3352.354,1441.091C3334.266,1429.009 3320.166,1411.835 3311.837,1391.74C3303.507,1371.646 3301.322,1349.533 3305.558,1328.197C3309.793,1306.86 3320.259,1287.259 3335.633,1271.87C3345.849,1261.643 3357.981,1253.529 3371.335,1247.994C3384.689,1242.459 3399.003,1239.609 3413.459,1239.609C3427.915,1239.609 3442.229,1242.459 3455.583,1247.994C3468.937,1253.529 3481.069,1261.643 3491.286,1271.87Z" transform="rotate(12.551 3413.459 1349.616)" fill="#D6C3ED"/>
<g opacity="0.2">
<path d="M3358.706,1258.618C3387.047,1258.901 3414.124,1270.388 3434.022,1290.571C3454.594,1311.341 3466.134,1339.392 3466.134,1368.625C3466.134,1397.859 3454.594,1425.91 3434.022,1446.68C3427.472,1453.224 3420.108,1458.9 3412.112,1463.57C3426.957,1463.868 3441.711,1461.194 3455.508,1455.706C3469.304,1450.22 3481.864,1442.029 3492.449,1431.617C3511.907,1412.795 3523.742,1387.459 3525.688,1360.457C3527.634,1333.455 3519.555,1306.684 3502.997,1285.266C3486.439,1263.848 3462.565,1249.288 3435.944,1244.371C3409.322,1239.455 3381.822,1244.527 3358.706,1258.618Z" transform="rotate(12.551 3442.34 1353.067)" fill="#000000"/>
</g>
<path d="M4230.457,1137.665C4230.457,1181.541 4217.447,1224.431 4193.071,1260.913C4168.695,1297.393 4134.047,1325.827 4093.511,1342.619C4052.975,1359.409 4008.371,1363.801 3965.338,1355.243C3922.305,1346.683 3882.777,1325.555 3851.752,1294.529C3820.727,1263.505 3799.599,1223.977 3791.039,1180.943C3782.48,1137.911 3786.873,1093.307 3803.663,1052.771C3820.454,1012.235 3848.888,977.588 3885.369,953.212C3921.85,928.836 3964.741,915.825 4008.617,915.825C4067.415,915.946 4123.771,939.357 4165.349,980.934C4206.925,1022.511 4230.337,1078.867 4230.457,1137.665Z" transform="rotate(12.551 4008.617 1137.665)" fill="#ECE4F9"/>
<g opacity="0.2">
<path d="M4063.02,927.065C4096.438,961.872 4117.568,1006.644 4123.196,1054.566C4128.824,1102.489 4118.64,1150.937 4094.196,1192.539C4069.752,1234.141 4032.385,1266.619 3987.782,1285.027C3943.18,1303.435 3893.784,1306.767 3847.114,1294.515C3870.495,1320.145 3899.562,1339.933 3931.978,1352.291C3964.394,1364.647 3999.257,1369.231 4033.766,1365.671C4068.274,1362.111 4101.468,1350.505 4130.678,1331.791C4159.888,1313.075 4184.302,1287.769 4201.958,1257.907C4219.616,1228.043 4230.022,1194.457 4232.342,1159.841C4234.664,1125.228 4228.834,1090.552 4215.322,1058.599C4201.81,1026.647 4180.992,998.309 4154.542,975.861C4128.092,953.414 4096.744,937.482 4063.02,929.347L4063.02,927.065Z" transform="rotate(12.551 4039.976 1146.953)" fill="#000000"/>
</g>
<defs>
<linearGradient id="pf_0_1_298" x1="1611.86" y1="1854.811" x2="3629.975" y2="3814.401" gradientUnits="userSpaceOnUse">
<stop stop-color="#000000"/>
<stop offset="0.57" stop-color="#000000"/>
<stop offset="0.61" stop-color="#000000"/>
<stop offset="1" stop-color="#404040"/>
</linearGradient>
</defs>
</svg>
