<svg width="1412" height="1412" viewBox="0 0 1412 1412" fill="none" xmlns="http://www.w3.org/2000/svg" xmlns:xlink="http://www.w3.org/1999/xlink">
<g opacity="0.1">
<circle cx="706" cy="706" r="706" fill="#D9D9D9"/>
</g>
<g opacity="0.3">
<circle cx="706" cy="706" r="676" fill="#D9D9D9"/>
</g>
<path d="M736.212,62.592C724.938,62.592 713.662,62.592 702.388,62.592C573.858,62.592 452.093,100.992 350.622,166.499C366.407,173.275 379.936,180.052 393.466,186.828C519.741,232.005 643.76,173.275 736.212,62.592Z" fill="#FCFCFC"/>
<path d="M734.205,62.592C644.009,173.275 517.733,232.005 393.713,184.569C380.184,177.793 366.654,171.016 350.87,164.24C292.242,202.64 242.634,247.817 199.791,299.77C233.614,283.958 269.693,270.406 303.517,256.852C432.047,220.711 578.617,385.606 650.773,274.924C727.441,177.793 826.657,121.322 928.127,100.992C864.991,80.663 801.853,67.109 734.205,62.592Z" fill="#EFEFEF"/>
<path d="M929.887,97.231C828.417,117.561 729.201,176.29 652.533,271.162C578.121,381.845 431.551,216.95 305.277,253.091C271.453,266.644 235.374,280.197 201.551,296.009C190.276,311.821 176.747,327.633 167.727,343.445C221.845,320.857 287.237,336.669 323.316,363.775C415.767,417.987 524.003,528.669 652.533,474.457C763.023,420.245 799.103,273.421 891.553,219.208C979.495,164.996 1065.181,214.691 1153.123,239.538C1089.985,176.29 1013.319,128.855 929.887,97.231Z" fill="#E5E5E5"/>
<path d="M1153.122,237.279C1065.18,212.432 979.494,162.737 891.552,216.949C799.1,271.162 763.022,417.987 652.532,472.199C524.002,526.411 413.51,417.987 323.314,361.515C284.98,338.927 221.843,320.856 167.725,343.445C138.411,388.621 113.607,438.315 95.568,490.269C188.019,445.093 287.235,542.223 361.648,600.953C544.296,729.707 837.434,693.565 929.886,454.127C984.004,325.374 1130.572,472.199 1223.024,436.057C1243.318,427.021 1261.358,413.469 1277.142,397.657C1243.318,338.927 1202.73,284.715 1153.122,237.279Z" fill="#DBDBDB"/>
<path d="M500.46,1302.707C568.107,1325.296 638.009,1338.849 712.422,1338.849C728.206,1338.849 746.246,1338.849 762.03,1336.59C674.088,1314.001 581.637,1275.601 500.46,1302.707Z" fill="#8C8C8C"/>
<path d="M897.574,1196.289C787.082,1196.289 696.886,1325.043 586.396,1250.502C511.983,1205.325 412.767,1184.995 320.316,1207.584C374.434,1248.243 433.061,1279.867 498.454,1302.455C581.886,1277.608 672.082,1313.749 762.278,1336.338C845.71,1329.561 924.632,1306.973 996.79,1273.09C965.22,1236.949 938.162,1196.289 897.574,1196.289Z" fill="#9B9B9B"/>
<path d="M1283.658,988.225C1182.188,1022.107 1080.716,1155.379 986.01,1177.967C875.52,1196.039 765.028,1085.355 692.872,1105.684C510.224,1123.755 345.616,1177.967 199.046,1013.072C187.772,1013.072 165.223,1006.295 144.928,1013.072C187.772,1089.872 246.399,1157.638 318.557,1209.591C411.008,1187.003 510.224,1207.333 584.636,1252.509C695.126,1324.793 785.324,1198.297 895.814,1198.297C936.402,1198.297 963.462,1238.957 995.03,1277.357C1116.796,1214.109 1220.522,1112.461 1283.658,988.225Z" fill="#AAAAAA"/>
<path d="M1130.325,852.441C1076.207,945.054 1055.913,1035.408 965.717,1071.548C855.225,1107.69 801.109,999.266 726.695,978.937C544.047,942.795 341.105,1125.76 194.537,886.324C181.007,872.771 124.635,836.629 81.791,870.512C97.576,922.466 117.87,969.901 142.674,1015.078C162.968,1010.56 185.517,1015.078 196.792,1015.078C343.361,1179.974 507.969,1125.76 690.617,1107.69C765.029,1089.62 873.265,1200.302 983.755,1179.974C1078.463,1155.126 1182.189,1024.114 1281.405,990.231C1310.719,933.76 1331.013,870.512 1342.287,805.006C1267.875,814.041 1193.463,773.382 1130.325,852.441Z" fill="#B7B7B7"/>
<path d="M1333.762,553.77C1272.88,567.323 1205.232,576.358 1164.644,617.017C1090.232,689.3 1054.154,799.984 943.664,836.126C833.172,872.266 742.976,743.512 650.524,743.512C521.994,743.512 429.544,890.338 264.934,836.126C147.68,786.43 167.974,628.311 59.738,617.017C57.483,644.123 55.228,673.488 55.228,700.594C55.228,761.584 64.248,820.314 80.032,874.526C122.876,840.642 179.248,876.784 192.778,890.338C339.346,1127.516 540.034,944.55 724.936,982.95C799.348,1001.02 853.466,1111.704 963.958,1075.562C1056.408,1039.422 1074.448,946.808 1128.566,856.454C1189.448,779.654 1266.116,818.054 1342.782,811.278C1349.548,775.136 1351.802,738.995 1351.802,702.853C1349.548,650.9 1345.038,601.205 1333.762,553.77Z" fill="#C1C1C1"/>
<path d="M266.942,838.132C431.55,892.344 524.002,745.52 652.532,745.52C744.984,745.52 835.18,874.274 945.67,838.132C1056.162,801.99 1092.24,691.308 1166.652,619.024C1207.24,578.366 1274.888,569.33 1335.77,555.777C1322.242,499.306 1301.946,447.353 1277.142,397.658C1261.358,413.47 1243.32,424.764 1223.024,436.059C1130.574,472.2 984.004,325.375 929.886,454.129C837.434,691.308 544.296,729.708 361.648,600.954C287.236,542.224 188.021,445.094 95.569,490.271C82.04,530.93 70.765,573.848 64,619.024C172.236,630.318 149.687,788.438 266.942,838.132Z" fill="#CCCCCC"/>
<path d="M1351.555,576.105C1349.3,576.105 1351.555,576.105 1356.065,580.623C1353.81,576.105 1351.555,576.105 1351.555,576.105Z" fill="#000000"/>
<g opacity="0.1">
<path d="M885.403,84.457C901.189,140.928 912.463,201.916 912.463,265.164C912.463,622.061 621.579,911.193 265.302,911.193C202.165,911.193 141.282,902.159 82.655,884.087C161.577,1152.889 409.617,1349.409 705.011,1349.409C1063.541,1349.409 1352.171,1060.277 1352.171,703.379C1352.171,411.989 1155.993,163.516 885.403,84.457Z" fill="url(#pf_0_1_1611)"/>
</g>
<g opacity="0.7">
<path d="M369.747,320.369C384.059,337.892 369.747,372.936 337.944,396.831C306.14,420.725 269.566,425.504 255.255,406.388C240.943,388.866 255.255,353.821 287.058,329.927C320.452,306.033 357.026,301.254 369.747,320.369Z" fill="#FFFFFF"/>
</g>
<defs>
<linearGradient id="pf_0_1_1611" x1="347.548" y1="427.489" x2="1441.893" y2="1280.367" gradientUnits="userSpaceOnUse">
<stop stop-color="#000000"/>
<stop offset="0.569" stop-color="#000000"/>
<stop offset="0.606" stop-color="#000000"/>
<stop offset="1" stop-color="#404040"/>
</linearGradient>
</defs>
</svg>
