<svg width="1000" height="1036" viewBox="0 0 1000 1036" fill="none" xmlns="http://www.w3.org/2000/svg" xmlns:xlink="http://www.w3.org/1999/xlink">
<path d="M137.846,132.625C137.846,146.256 133.804,159.582 126.231,170.916C118.657,182.251 107.893,191.085 95.299,196.301C82.705,201.518 68.847,202.883 55.477,200.223C42.107,197.564 29.826,191 20.187,181.361C10.548,171.722 3.984,159.441 1.324,146.071C-1.335,132.701 0.03,118.843 5.246,106.249C10.463,93.655 19.297,82.89 30.631,75.317C41.966,67.743 55.291,63.701 68.923,63.701C87.203,63.701 104.734,70.963 117.659,83.888C130.585,96.814 137.846,114.345 137.846,132.625Z" fill="#EDB656"/>
<g opacity="0.2">
<path d="M85.942,66.112C95.296,75.848 101.577,88.122 104.003,101.404C106.429,114.685 104.893,128.387 99.585,140.801C94.278,153.216 85.434,163.793 74.156,171.216C62.879,178.639 49.666,182.579 36.164,182.544C30.278,182.515 24.419,181.752 18.721,180.275C25.985,188.223 35.011,194.359 45.074,198.191C55.137,202.022 65.958,203.443 76.669,202.338C87.38,201.233 97.684,197.634 106.753,191.829C115.822,186.024 123.406,178.175 128.894,168.911C134.383,159.647 137.625,149.226 138.36,138.483C139.096,127.741 137.303,116.975 133.127,107.05C128.952,97.124 122.508,88.316 114.314,81.329C106.12,74.343 96.403,69.374 85.942,66.821L85.942,66.112Z" fill="#000000"/>
</g>
<path d="M960.104,922.548C960.104,936.18 956.062,949.505 948.488,960.84C940.915,972.174 930.151,981.008 917.557,986.225C904.963,991.442 891.104,992.807 877.734,990.147C864.365,987.488 852.084,980.923 842.445,971.284C832.805,961.645 826.241,949.364 823.582,935.994C820.922,922.625 822.287,908.766 827.504,896.172C832.72,883.578 841.555,872.814 852.889,865.24C864.223,857.667 877.549,853.625 891.181,853.625C900.237,853.606 909.208,855.376 917.579,858.833C925.949,862.29 933.555,867.366 939.959,873.77C946.362,880.174 951.439,887.78 954.896,896.15C958.353,904.521 960.123,913.492 960.104,922.548Z" fill="#0CB0C1"/>
<g opacity="0.2">
<path d="M909.051,856.178C918.346,865.947 924.571,878.228 926.956,891.501C929.34,904.773 927.778,918.453 922.465,930.846C917.151,943.24 908.319,953.802 897.061,961.226C885.804,968.649 872.616,972.607 859.132,972.61C853.292,972.581 847.48,971.818 841.83,970.341C849.176,978.089 858.222,984.024 868.254,987.679C878.286,991.334 889.03,992.608 899.639,991.4C910.248,990.193 920.431,986.538 929.385,980.722C938.34,974.907 945.821,967.091 951.238,957.89C956.656,948.69 959.861,938.356 960.603,927.705C961.344,917.054 959.601,906.376 955.51,896.513C951.42,886.651 945.094,877.874 937.031,870.874C928.969,863.874 919.391,858.843 909.051,856.178Z" fill="#000000"/>
</g>
<path d="M181.102,918.861C181.271,929.694 178.213,940.333 172.317,949.423C166.421,958.513 157.954,965.644 147.993,969.907C138.033,974.17 127.029,975.374 116.382,973.364C105.735,971.354 95.927,966.222 88.206,958.621C80.484,951.02 75.199,941.294 73.022,930.68C70.846,920.066 71.876,909.045 75.983,899.018C80.089,888.992 87.085,880.414 96.082,874.376C105.078,868.338 115.668,865.113 126.503,865.112C140.837,865.11 154.597,870.746 164.813,880.802C175.028,890.858 180.879,904.528 181.102,918.861Z" fill="#FFD685"/>
<g opacity="0.2">
<path d="M140.681,866.247C148.067,873.974 153.021,883.7 154.931,894.218C156.84,904.735 155.62,915.582 151.422,925.413C147.224,935.243 140.233,943.625 131.315,949.52C122.397,955.414 111.946,958.56 101.256,958.57C96.469,958.57 91.702,957.95 87.074,956.726C92.899,962.859 100.068,967.556 108.018,970.444C115.967,973.333 124.479,974.336 132.882,973.373C141.286,972.41 149.35,969.508 156.44,964.896C163.53,960.283 169.451,954.087 173.737,946.795C178.023,939.503 180.556,931.315 181.137,922.877C181.718,914.439 180.33,905.981 177.084,898.171C173.838,890.361 168.821,883.412 162.43,877.872C156.039,872.331 148.448,868.352 140.256,866.247L140.681,866.247Z" fill="#000000"/>
</g>
<path d="M283.636,60.723C283.664,71.528 280.485,82.098 274.503,91.096C268.52,100.093 260.003,107.113 250.029,111.268C240.054,115.422 229.072,116.524 218.471,114.433C207.87,112.342 198.128,107.153 190.478,99.523C182.828,91.893 177.614,82.164 175.496,71.569C173.377,60.974 174.45,49.988 178.579,40.003C182.707,30.018 189.705,21.483 198.687,15.477C207.669,9.471 218.231,6.265 229.036,6.265C243.492,6.265 257.358,11.998 267.594,22.207C277.829,32.416 283.598,46.267 283.636,60.723Z" fill="#0CB0C1"/>
<g opacity="0.2">
<path d="M243.36,8.108C250.707,15.851 255.623,25.577 257.501,36.084C259.379,46.591 258.136,57.418 253.926,67.226C249.716,77.034 242.724,85.393 233.814,91.269C224.904,97.146 214.467,100.282 203.793,100.29C199.012,100.349 194.243,99.777 189.611,98.588C195.436,104.659 202.584,109.302 210.499,112.155C218.414,115.007 226.881,115.992 235.24,115.032C243.598,114.073 251.621,111.194 258.684,106.622C265.746,102.05 271.656,95.908 275.953,88.674C280.25,81.441 282.817,73.313 283.454,64.924C284.092,56.535 282.781,48.112 279.626,40.313C276.471,32.514 271.556,25.549 265.265,19.963C258.975,14.376 251.478,10.319 243.36,8.108Z" fill="#000000"/>
</g>
<path d="M391.132,10.094C395.889,14.883 399.12,20.974 400.42,27.597C401.72,34.22 401.029,41.08 398.435,47.312C395.841,53.543 391.461,58.867 385.845,62.612C380.23,66.357 373.631,68.356 366.881,68.356C360.132,68.356 353.533,66.357 347.918,62.612C342.302,58.867 337.921,53.543 335.328,47.312C332.734,41.08 332.043,34.22 333.343,27.597C334.643,20.974 337.874,14.883 342.631,10.094C345.807,6.895 349.585,4.357 353.748,2.624C357.91,0.892 362.373,0 366.881,0C371.39,0 375.853,0.892 380.015,2.624C384.177,4.357 387.955,6.895 391.132,10.094Z" fill="#FFD685"/>
<g opacity="0.2">
<path d="M349.437,4.988C358.242,5.076 366.654,8.645 372.837,14.915C376.035,18.092 378.574,21.87 380.307,26.032C382.039,30.194 382.931,34.658 382.931,39.166C382.931,43.674 382.039,48.138 380.307,52.3C378.574,56.462 376.035,60.24 372.837,63.417C370.793,65.44 368.506,67.202 366.029,68.664C370.657,68.779 375.259,67.945 379.552,66.213C383.844,64.482 387.737,61.889 390.989,58.595C396.887,52.714 400.433,44.882 400.963,36.57C401.493,28.258 398.97,20.039 393.868,13.456C388.765,6.873 381.435,2.38 373.253,0.821C365.072,-0.738 356.603,0.744 349.437,4.988Z" fill="#000000"/>
</g>
<path d="M75.588,285.787C80.392,290.585 83.666,296.7 84.994,303.359C86.322,310.018 85.645,316.921 83.049,323.195C80.453,329.469 76.054,334.832 70.409,338.605C64.764,342.378 58.127,344.392 51.337,344.392C44.547,344.392 37.91,342.378 32.265,338.605C26.62,334.832 22.221,329.469 19.625,323.195C17.029,316.921 16.352,310.018 17.68,303.359C19.008,296.7 22.282,290.585 27.086,285.787C33.539,279.396 42.255,275.811 51.337,275.811C60.42,275.811 69.135,279.396 75.588,285.787Z" fill="#FFD685"/>
<g opacity="0.2">
<path d="M34.602,280.682C41.314,280.815 47.838,282.922 53.36,286.739C58.882,290.556 63.158,295.915 65.653,302.147C68.149,308.378 68.754,315.207 67.394,321.781C66.033,328.354 62.767,334.382 58.002,339.111C55.945,341.179 53.605,342.946 51.053,344.358C56.336,344.481 61.575,343.378 66.359,341.135C71.143,338.892 75.342,335.57 78.625,331.43C81.909,327.291 84.188,322.446 85.284,317.277C86.38,312.108 86.262,306.756 84.941,301.64C83.619,296.524 81.129,291.784 77.667,287.793C74.205,283.802 69.864,280.668 64.986,278.637C60.108,276.606 54.826,275.734 49.554,276.088C44.282,276.443 39.164,278.016 34.602,280.682Z" fill="#000000"/>
</g>
<path d="M132.459,734.072C137.235,738.853 140.487,744.944 141.802,751.573C143.118,758.201 142.44,765.072 139.852,771.315C137.264,777.558 132.883,782.894 127.263,786.648C121.644,790.402 115.037,792.405 108.279,792.405C101.52,792.405 94.914,790.402 89.294,786.648C83.674,782.894 79.294,777.558 76.706,771.315C74.118,765.072 73.439,758.201 74.755,751.573C76.071,744.944 79.322,738.853 84.099,734.072C87.273,730.895 91.042,728.374 95.191,726.654C99.34,724.935 103.787,724.049 108.279,724.049C112.77,724.049 117.217,724.935 121.366,726.654C125.515,728.374 129.284,730.895 132.459,734.072Z" fill="#0CB0C1"/>
<g opacity="0.2">
<path d="M91.613,728.967C98.325,729.1 104.849,731.207 110.371,735.024C115.893,738.841 120.168,744.2 122.664,750.432C125.16,756.663 125.765,763.492 124.405,770.066C123.044,776.639 119.778,782.667 115.013,787.396C112.978,789.429 110.69,791.193 108.206,792.643C113.483,792.745 118.712,791.623 123.483,789.365C128.255,787.108 132.438,783.776 135.706,779.631C138.973,775.486 141.237,770.64 142.318,765.474C143.4,760.307 143.27,754.961 141.939,749.853C140.608,744.745 138.112,740.015 134.647,736.034C131.182,732.052 126.841,728.927 121.966,726.904C117.091,724.881 111.814,724.014 106.547,724.372C101.281,724.73 96.17,726.303 91.613,728.967Z" fill="#000000"/>
</g>
<path d="M322.919,947.649C327.695,952.431 330.947,958.521 332.263,965.15C333.579,971.779 332.9,978.649 330.312,984.892C327.724,991.135 323.343,996.471 317.724,1000.225C312.104,1003.979 305.497,1005.983 298.739,1005.983C291.981,1005.983 285.374,1003.979 279.754,1000.225C274.135,996.471 269.754,991.135 267.166,984.892C264.578,978.649 263.899,971.779 265.215,965.15C266.531,958.521 269.783,952.431 274.559,947.649C280.988,941.267 289.68,937.685 298.739,937.685C307.798,937.685 316.49,941.267 322.919,947.649Z" fill="#EDB656"/>
<g opacity="0.2">
<path d="M281.367,942.544C288.079,942.677 294.602,944.784 300.124,948.601C305.647,952.418 309.922,957.777 312.418,964.009C314.914,970.241 315.519,977.069 314.158,983.643C312.798,990.217 309.531,996.244 304.767,1000.973C302.759,1003.292 300.417,1005.3 297.818,1006.929C303.1,1007.052 308.339,1005.949 313.123,1003.706C317.907,1001.463 322.106,998.141 325.39,994.002C328.674,989.862 330.953,985.018 332.049,979.849C333.145,974.68 333.027,969.327 331.705,964.211C330.384,959.095 327.894,954.356 324.432,950.364C320.969,946.373 316.629,943.239 311.751,941.208C306.873,939.177 301.59,938.305 296.318,938.66C291.046,939.015 285.929,940.587 281.367,943.253L281.367,942.544Z" fill="#000000"/>
</g>
<path d="M523.307,975.446C528.063,980.235 531.295,986.325 532.595,992.949C533.894,999.572 533.204,1006.432 530.61,1012.663C528.016,1018.895 523.635,1024.219 518.02,1027.964C512.405,1031.709 505.806,1033.708 499.056,1033.708C492.306,1033.708 485.708,1031.709 480.092,1027.964C474.477,1024.219 470.096,1018.895 467.502,1012.663C464.909,1006.432 464.218,999.572 465.518,992.949C466.817,986.325 470.049,980.235 474.805,975.446C477.982,972.247 481.76,969.708 485.922,967.976C490.084,966.243 494.548,965.352 499.056,965.352C503.564,965.352 508.028,966.243 512.19,967.976C516.352,969.708 520.13,972.247 523.307,975.446Z" fill="#0CB0C1"/>
<g opacity="0.2">
<path d="M482.179,970.341C490.984,970.428 499.397,973.997 505.579,980.268C508.778,983.445 511.317,987.223 513.049,991.385C514.781,995.547 515.673,1000.011 515.673,1004.519C515.673,1009.027 514.781,1013.491 513.049,1017.653C511.317,1021.815 508.778,1025.593 505.579,1028.769C503.544,1030.803 501.256,1032.566 498.772,1034.017C504.049,1034.119 509.278,1032.997 514.05,1030.739C518.821,1028.482 523.004,1025.15 526.272,1021.004C529.54,1016.859 531.803,1012.014 532.884,1006.847C533.966,1001.681 533.836,996.334 532.505,991.227C531.174,986.119 528.678,981.389 525.213,977.407C521.748,973.426 517.407,970.301 512.532,968.278C507.657,966.254 502.38,965.388 497.114,965.746C491.848,966.104 486.736,967.676 482.179,970.341Z" fill="#000000"/>
</g>
<path d="M989.177,751.658C993.953,756.439 997.205,762.529 998.521,769.158C999.837,775.787 999.158,782.657 996.57,788.9C993.982,795.143 989.601,800.479 983.982,804.233C978.362,807.987 971.755,809.991 964.997,809.991C958.239,809.991 951.632,807.987 946.012,804.233C940.392,800.479 936.012,795.143 933.424,788.9C930.836,782.657 930.157,775.787 931.473,769.158C932.789,762.529 936.041,756.439 940.817,751.658C943.991,748.48 947.761,745.96 951.91,744.24C956.059,742.52 960.506,741.635 964.997,741.635C969.488,741.635 973.935,742.52 978.084,744.24C982.233,745.96 986.003,748.48 989.177,751.658Z" fill="#0CB0C1"/>
<g opacity="0.2">
<path d="M948.335,746.127C955.047,746.26 961.57,748.367 967.092,752.184C972.614,756.001 976.89,761.36 979.386,767.592C981.882,773.824 982.487,780.652 981.126,787.226C979.766,793.8 976.499,799.827 971.735,804.556C969.7,806.589 967.412,808.353 964.928,809.803C970.205,809.905 975.434,808.783 980.205,806.526C984.976,804.268 989.16,800.936 992.427,796.791C995.695,792.646 997.959,787.8 999.04,782.634C1000.121,777.468 999.991,772.121 998.66,767.013C997.33,761.906 994.834,757.176 991.368,753.194C987.903,749.212 983.563,746.088 978.688,744.064C973.813,742.041 968.535,741.174 963.269,741.532C958.003,741.89 952.891,743.463 948.335,746.127Z" fill="#000000"/>
</g>
<path d="M850.905,56.752C855.682,61.533 858.933,67.623 860.249,74.252C861.565,80.881 860.886,87.751 858.298,93.994C855.711,100.238 851.33,105.573 845.71,109.327C840.09,113.081 833.484,115.085 826.725,115.085C819.967,115.085 813.361,113.081 807.741,109.327C802.121,105.573 797.74,100.238 795.152,93.994C792.565,87.751 791.886,80.881 793.202,74.252C794.517,67.623 797.769,61.533 802.546,56.752C805.72,53.574 809.489,51.054 813.638,49.334C817.787,47.614 822.234,46.729 826.725,46.729C831.217,46.729 835.664,47.614 839.813,49.334C843.962,51.054 847.731,53.574 850.905,56.752Z" fill="#EDB656"/>
<path d="M824.667,58.879C825.19,58.401 825.873,58.136 826.582,58.136C827.29,58.136 827.973,58.401 828.496,58.879C828.985,59.425 829.255,60.132 829.255,60.865C829.255,61.597 828.985,62.304 828.496,62.85L824.667,58.879Z" fill="#D3B94F"/>
<g opacity="0.2">
<path d="M809.921,50.937C816.633,51.07 823.157,53.177 828.679,56.994C834.201,60.811 838.476,66.17 840.972,72.402C843.468,78.634 844.073,85.462 842.712,92.036C841.352,98.61 838.086,104.637 833.321,109.366C831.264,111.434 828.924,113.201 826.372,114.613C831.654,114.736 836.893,113.633 841.677,111.39C846.461,109.147 850.66,105.825 853.944,101.686C857.228,97.546 859.507,92.702 860.603,87.533C861.699,82.364 861.581,77.011 860.26,71.895C858.938,66.78 856.448,62.04 852.986,58.048C849.523,54.057 845.183,50.923 840.305,48.892C835.427,46.861 830.144,45.989 824.873,46.344C819.601,46.699 814.483,48.271 809.921,50.937Z" fill="#000000"/>
</g>
<path d="M943.228,188.075C948.005,192.856 951.256,198.946 952.572,205.575C953.888,212.204 953.209,219.074 950.621,225.317C948.034,231.561 943.653,236.896 938.033,240.65C932.413,244.404 925.807,246.408 919.048,246.408C912.29,246.408 905.684,244.404 900.064,240.65C894.444,236.896 890.063,231.561 887.475,225.317C884.887,219.074 884.209,212.204 885.525,205.575C886.84,198.946 890.092,192.856 894.868,188.075C901.315,181.726 910,178.168 919.048,178.168C928.096,178.168 936.781,181.726 943.228,188.075Z" fill="#FFD685"/>
<g opacity="0.2">
<path d="M901.677,182.969C908.301,183.217 914.712,185.377 920.135,189.189C925.558,193.002 929.761,198.303 932.236,204.453C934.71,210.602 935.351,217.337 934.081,223.843C932.81,230.349 929.683,236.348 925.077,241.115C923.019,243.183 920.68,244.949 918.127,246.362C922.769,246.523 927.395,245.725 931.714,244.017C936.033,242.309 939.953,239.728 943.229,236.435C949.275,230.587 952.951,222.715 953.556,214.326C954.161,205.937 951.651,197.619 946.506,190.965C941.362,184.311 933.944,179.787 925.673,178.259C917.402,176.732 908.858,178.308 901.677,182.686L901.677,182.969Z" fill="#000000"/>
</g>
<path d="M146.072,518.51C342.49,714.785 665.692,714.785 896.712,576.23C905.458,573.369 914.598,571.886 923.8,571.833C926.448,555.732 928.154,539.49 928.904,523.19C683.702,666.568 404.18,689.259 169.188,494.827C162.833,486.56 154.577,479.949 145.121,475.554C135.665,471.159 125.289,469.111 114.872,469.583C113.454,482.205 113.454,493.692 113.454,505.888C113.454,509.008 113.454,512.27 113.454,515.39C127.636,513.121 138.839,510.568 146.072,518.51Z" fill="#D69630"/>
<path d="M136.568,641.324C155.014,693.628 183.972,741.601 221.659,782.29C423.04,727.832 645.976,688.549 855.866,738.894C872.904,714.204 887.17,687.714 898.412,659.902C650.798,684.011 370.142,744.141 136.568,641.324Z" fill="#FFD685"/>
<path d="M896.712,576.229C665.692,714.786 342.49,714.786 146.072,518.51C138.839,510.568 127.636,513.121 113.454,515.39C114.417,558.317 122.171,600.821 136.428,641.324C370.002,744.142 650.658,683.869 898.84,659.902C910.394,631.571 918.718,602.028 923.658,571.833C914.502,571.9 905.414,573.383 896.712,576.229Z" fill="#EDB656"/>
<path d="M221.659,782.291C227.331,788.53 233.146,794.629 239.244,800.443C425.451,751.658 644.275,718.473 823.675,780.021C835.255,767.148 846.007,753.553 855.867,739.32C645.977,688.549 423.039,727.833 221.659,782.291Z" fill="#EDB656"/>
<path d="M482.179,911.77C495.227,913.046 508.416,913.897 521.747,913.897C558.056,914.063 594.22,909.292 629.244,899.715C605.924,888.267 579.941,883.343 554.05,885.465C528.158,887.587 503.324,896.677 482.179,911.77Z" fill="#D69630"/>
<path d="M424.317,902.126C442.959,906.75 461.921,909.974 481.044,911.77C502.135,896.587 526.943,887.396 552.835,885.174C578.728,882.952 604.739,887.781 628.109,899.148C647.059,893.912 665.593,887.275 683.559,879.294C641.865,861.208 596.313,853.824 551.04,857.812C505.768,861.799 462.208,877.031 424.317,902.126Z" fill="#EDB656"/>
<path d="M683.562,879.294C707.384,869.106 730.18,856.664 751.634,842.137C621.87,792.785 463.036,813.774 334.974,868.941C363.222,883.424 393.064,894.561 423.894,902.126C461.835,876.958 505.471,861.684 550.824,857.696C596.18,853.708 641.81,861.133 683.562,879.294Z" fill="#FFD685"/>
<path d="M239.248,800.443C267.789,827.839 300.182,850.916 335.4,868.941C463.036,814.057 622.298,792.785 752.06,842.137C778.018,824.079 801.81,803.094 822.968,779.596C644.278,718.472 425.454,751.658 239.248,800.443Z" fill="#0CB0C1"/>
<path d="M169.189,495.394C403.897,689.259 683.703,666.567 928.905,523.19C928.905,517.517 928.905,511.703 928.905,505.888C928.969,454.068 919.151,402.711 899.975,354.569C732.771,599.629 426.163,458.237 215.422,380.663C190.702,371.04 164.373,366.227 137.848,366.482C125.777,399.715 118.055,434.369 114.873,469.583C125.339,469.176 135.747,471.312 145.206,475.807C154.666,480.302 162.895,487.023 169.189,495.394Z" fill="#0CB0C1"/>
<path d="M833.603,243.951C826.655,235.867 819.423,227.926 812.189,220.409C677.463,333.863 440.911,301.103 296.257,183.537C291.591,180.519 286.595,178.045 281.366,176.162C259.195,192.404 238.717,210.839 220.243,231.187C422.901,299.543 642.009,397.114 833.603,243.951Z" fill="#D69630"/>
<path d="M859.129,278.129C851.187,266.358 842.679,254.871 833.601,243.951C642.007,397.539 422.331,299.543 220.241,231.188C212.157,239.98 204.499,249.198 197.125,258.7C414.247,307.485 686.253,445.047 859.129,278.129Z" fill="#EDB656"/>
<path d="M889.479,330.46C880.647,312.302 870.505,294.812 859.131,278.129C686.255,445.048 414.249,307.485 197.126,258.7C181.374,279.289 167.604,301.322 155.999,324.504C382.907,377.685 694.905,505.604 889.479,330.46Z" fill="#FFD685"/>
<path d="M155.998,324.503C149.048,338.032 142.892,351.953 137.562,366.198C164.087,365.943 190.417,370.757 215.136,380.38C426.16,457.528 732.77,598.919 899.972,354.569C896.712,346.627 893.166,338.827 889.478,331.169C694.904,505.604 382.906,377.685 155.998,324.503Z" fill="#EDB656"/>
<path d="M726.249,153.046C677.321,170.773 620.595,179.424 573.369,195.591C477.075,225.231 414.108,178.857 344.618,138.864C322.475,149.626 301.311,162.295 281.367,176.729C286.595,178.612 291.591,181.086 296.258,184.104C440.912,301.671 677.463,334.289 812.189,220.977C786.689,194.613 757.789,171.768 726.249,153.046Z" fill="#0CB0C1"/>
<path d="M661.579,122.839C594.925,193.748 470.551,153.897 380.355,122.839C368.159,127.377 356.246,132.199 344.617,137.872C414.107,178.006 477.074,224.38 573.369,194.598C620.593,178.857 677.321,170.206 726.247,152.053C705.569,140.481 683.933,130.707 661.579,122.839Z" fill="#D69630"/>
<path d="M620.453,110.217C587.993,102.049 554.652,97.906 521.181,97.879C497.931,97.888 474.726,99.928 451.832,103.977C507.283,136.028 580.035,168.22 620.453,110.217Z" fill="#FFD685"/>
<path d="M620.453,110.217C580.034,168.22 506.998,136.028 451.973,103.977C427.559,108.195 403.586,114.651 380.355,123.264C470.551,153.897 594.925,194.173 661.579,123.264C648.249,118.017 634.351,113.479 620.453,110.217Z" fill="#EDB656"/>
<path d="M225.066,429.874C225.066,438.383 214.713,445.332 201.949,445.332C189.186,445.332 178.833,438.383 178.833,429.874C178.833,421.365 189.186,414.558 201.949,414.558C214.713,414.558 225.066,421.365 225.066,429.874Z" fill="#007272"/>
<path d="M421.339,494.401C421.339,502.91 410.986,509.859 398.223,509.859C385.459,509.859 375.107,502.91 375.107,494.401C375.107,485.892 385.459,478.943 398.223,478.943C410.986,478.943 421.339,485.892 421.339,494.401Z" fill="#007272"/>
<path d="M652.36,550.277C652.36,558.644 642.008,565.593 629.244,565.593C616.481,565.593 606.27,558.644 606.27,550.277C606.27,541.91 616.481,534.819 629.244,534.819C642.008,534.819 652.36,541.768 652.36,550.277Z" fill="#007272"/>
<path d="M838,512.695C838,521.205 827.648,528.012 814.884,528.012C802.121,528.012 791.768,521.205 791.768,512.695C791.768,504.186 802.121,497.237 814.884,497.237C827.648,497.237 838,504.186 838,512.695Z" fill="#007272"/>
<path d="M576.202,236.577C576.202,245.086 565.85,251.893 553.086,251.893C540.323,251.893 530.112,245.086 530.112,236.577C530.112,228.068 540.323,221.119 553.086,221.119C565.85,221.119 576.202,228.068 576.202,236.577Z" fill="#007272"/>
<path d="M694.055,227.784C694.055,230.904 690.51,233.315 685.972,233.315C681.434,233.315 677.746,230.904 677.746,227.784C677.746,224.664 681.434,222.395 685.972,222.395C690.51,222.395 694.055,224.806 694.055,227.784Z" fill="#007272"/>
<path d="M751.634,190.344C751.634,193.322 748.089,195.733 743.55,195.733C739.012,195.733 735.325,193.322 735.325,190.344C735.325,187.366 739.012,184.813 743.55,184.813C748.089,184.813 751.634,187.366 751.634,190.344Z" fill="#007272"/>
<path d="M401.626,223.104C401.626,226.082 397.938,228.493 393.4,228.493C388.862,228.493 385.175,226.082 385.175,223.104C385.175,220.126 388.862,217.573 393.4,217.573C397.938,217.573 401.626,219.984 401.626,223.104Z" fill="#007272"/>
<path d="M443.039,210.482C443.039,213.602 439.352,216.013 434.813,216.013C430.275,216.013 426.588,213.602 426.588,210.482C426.588,207.362 430.275,205.093 434.813,205.093C439.352,205.093 443.039,207.504 443.039,210.482Z" fill="#007272"/>
<path d="M332.279,172.05C332.279,175.028 328.592,177.581 324.195,177.581C319.799,177.581 315.97,175.028 315.97,172.05C315.97,169.072 319.657,166.661 324.195,166.661C328.733,166.661 332.279,169.072 332.279,172.05Z" fill="#007272"/>
<path d="M180.251,471.001C180.251,473.979 176.563,476.39 172.167,476.39C167.771,476.39 163.942,473.979 163.942,471.001C163.942,468.022 167.629,465.47 172.167,465.47C176.705,465.47 180.251,468.022 180.251,471.001Z" fill="#007272"/>
<path d="M271.722,427.038C271.722,430.016 268.035,432.568 263.497,432.568C258.959,432.568 255.271,430.016 255.271,427.038C255.271,424.059 258.959,421.648 263.497,421.648C268.035,421.648 271.722,424.059 271.722,427.038Z" fill="#007272"/>
<path d="M309.161,496.386C309.161,499.365 305.615,501.775 301.077,501.775C296.539,501.775 292.852,499.365 292.852,496.386C292.852,493.408 296.539,490.855 301.077,490.855C305.615,490.855 309.161,493.266 309.161,496.386Z" fill="#007272"/>
<path d="M271.722,520.353C271.722,523.332 268.035,525.884 263.497,525.884C258.959,525.884 255.271,523.332 255.271,520.353C255.271,517.375 258.959,514.964 263.497,514.964C268.035,514.964 271.722,517.375 271.722,520.353Z" fill="#007272"/>
<path d="M418.927,538.932C418.927,541.91 415.24,544.462 410.702,544.462C406.164,544.462 402.618,541.91 402.618,538.932C402.618,535.953 406.164,533.542 410.702,533.542C415.24,533.542 418.927,535.67 418.927,538.932Z" fill="#007272"/>
<path d="M371.704,456.819C371.704,459.939 368.159,462.35 363.621,462.35C359.083,462.35 355.395,459.939 355.395,456.819C355.395,453.699 359.083,451.43 363.621,451.43C368.159,451.43 371.704,453.841 371.704,456.819Z" fill="#007272"/>
<path d="M410.278,572.259C410.278,575.379 406.591,577.789 402.053,577.789C397.515,577.789 393.827,575.379 393.827,572.259C393.827,569.139 397.089,567.295 402.053,567.295C407.016,567.295 410.278,569.28 410.278,572.259Z" fill="#007272"/>
<path d="M517.067,557.935C517.067,560.913 513.38,563.324 508.842,563.324C504.304,563.324 500.758,560.913 500.758,557.935C500.758,554.957 504.304,552.404 508.842,552.404C513.38,552.404 517.067,554.957 517.067,557.935Z" fill="#007272"/>
<path d="M586.414,619.484C586.414,622.462 582.727,624.873 578.189,624.873C573.651,624.873 569.964,622.462 569.964,619.484C569.964,616.506 573.651,614.095 578.189,614.095C582.727,614.095 586.414,616.506 586.414,619.484Z" fill="#007272"/>
<path d="M446.868,771.513C446.868,774.491 443.181,776.902 438.643,776.902C434.104,776.902 430.417,774.491 430.417,771.513C430.417,768.534 434.104,766.124 438.643,766.124C443.181,766.124 446.868,768.534 446.868,771.513Z" fill="#007272"/>
<path d="M283.636,808.385C283.636,811.505 279.949,813.916 275.411,813.916C270.873,813.916 267.327,811.505 267.327,808.385C267.327,805.265 271.014,802.996 275.411,802.996C279.807,802.996 283.636,805.974 283.636,808.385Z" fill="#007272"/>
<path d="M542.028,785.978C542.028,788.956 538.482,791.367 533.944,791.367C529.406,791.367 525.719,788.956 525.719,785.978C525.719,782.999 529.406,780.447 533.944,780.447C538.482,780.447 542.028,782.858 542.028,785.978Z" fill="#007272"/>
<path d="M570.959,795.621C570.959,798.599 567.271,801.01 562.733,801.01C558.195,801.01 554.65,798.599 554.65,795.621C554.65,792.643 558.195,790.09 562.733,790.09C567.271,790.09 570.959,792.501 570.959,795.621Z" fill="#007272"/>
<path d="M631.512,791.65C631.512,794.77 627.966,797.181 623.428,797.181C618.89,797.181 615.203,794.77 615.203,791.65C615.203,788.53 618.89,786.261 623.428,786.261C627.966,786.261 631.512,788.672 631.512,791.65Z" fill="#007272"/>
<path d="M621.017,761.869C621.017,764.847 617.329,767.4 612.791,767.4C608.253,767.4 604.566,764.847 604.566,761.869C604.566,758.891 608.253,756.48 612.791,756.48C617.329,756.48 621.017,758.891 621.017,761.869Z" fill="#007272"/>
<path d="M714.334,767.683C714.334,770.661 710.647,773.072 706.109,773.072C701.57,773.072 697.883,770.661 697.883,767.683C697.883,764.705 701.57,762.152 706.109,762.152C710.647,762.152 714.334,764.705 714.334,767.683Z" fill="#007272"/>
<path d="M757.589,816.752C757.589,819.73 753.902,822.141 749.364,822.141C744.826,822.141 741.28,819.73 741.28,816.752C741.28,813.774 744.968,811.221 749.364,811.221C753.76,811.221 757.589,813.774 757.589,816.752Z" fill="#007272"/>
<path d="M381.347,790.799C381.347,793.778 377.659,796.189 373.263,796.189C368.867,796.189 365.038,793.778 365.038,790.799C365.038,787.821 368.725,785.269 373.263,785.269C377.801,785.269 381.347,787.679 381.347,790.799Z" fill="#007272"/>
<path d="M472.819,809.945C472.819,813.065 469.131,815.476 464.593,815.476C460.055,815.476 456.51,813.065 456.51,809.945C456.51,806.825 460.055,804.556 464.593,804.556C469.131,804.556 472.819,806.967 472.819,809.945Z" fill="#007272"/>
<path d="M473.812,792.36C473.812,795.338 470.125,797.749 465.587,797.749C461.048,797.749 457.361,795.338 457.361,792.36C457.361,789.382 461.048,786.971 465.587,786.971C470.125,786.971 473.812,789.382 473.812,792.36Z" fill="#007272"/>
<path d="M592.09,575.237C592.09,578.215 588.402,580.626 584.006,580.626C579.61,580.626 575.781,578.215 575.781,575.237C575.781,572.259 579.468,569.706 584.006,569.706C588.544,569.706 592.09,572.259 592.09,575.237Z" fill="#007272"/>
<path d="M678.738,512.695C678.738,515.673 675.05,518.084 670.512,518.084C665.974,518.084 662.287,515.673 662.287,512.695C662.287,509.717 665.974,507.306 670.512,507.306C675.05,507.306 678.738,509.717 678.738,512.695Z" fill="#007272"/>
<path d="M702.704,524.75C702.704,527.728 699.159,530.139 694.621,530.139C690.082,530.139 686.395,527.728 686.395,524.75C686.395,521.772 690.082,519.361 694.621,519.361C699.159,519.361 702.704,522.197 702.704,524.75Z" fill="#007272"/>
<path d="M901.959,397.114C901.959,400.092 898.271,402.503 893.733,402.503C889.195,402.503 885.65,400.092 885.65,397.114C885.65,394.136 889.195,391.583 893.733,391.583C898.271,391.583 901.959,394.136 901.959,397.114Z" fill="#007272"/>
<path d="M884.657,468.023C884.657,471.001 880.97,473.554 876.432,473.554C871.894,473.554 868.206,471.001 868.206,468.023C868.206,465.045 871.894,462.634 876.432,462.634C880.97,462.634 884.657,464.477 884.657,468.023Z" fill="#007272"/>
<path d="M823.535,557.935C823.535,560.913 817.862,563.324 811.055,563.324C804.248,563.324 798.575,560.913 798.575,557.935C798.575,554.957 804.106,552.404 811.055,552.404C818.004,552.404 823.535,554.815 823.535,557.935Z" fill="#007272"/>
<path d="M248.604,485.183C248.604,490.856 241.797,495.394 233.43,495.394C225.063,495.394 218.255,490.856 218.255,485.183C218.255,479.51 225.063,475.114 233.43,475.114C241.797,475.114 248.604,479.652 248.604,485.183Z" fill="#007272"/>
<path d="M315.968,452.565C315.968,458.096 309.16,462.634 300.793,462.634C292.426,462.634 285.619,458.096 285.619,452.565C285.619,447.034 292.426,442.496 300.793,442.496C309.16,442.496 315.968,446.892 315.968,452.565Z" fill="#007272"/>
<path d="M338.092,555.524C338.092,561.055 331.285,565.593 322.918,565.593C314.55,565.593 307.743,561.055 307.743,555.524C307.743,549.993 314.55,545.455 322.918,545.455C331.285,545.455 338.092,549.851 338.092,555.524Z" fill="#007272"/>
<path d="M479.484,529.572C479.484,535.103 472.677,539.641 464.309,539.641C455.942,539.641 449.277,535.103 449.277,529.572C449.277,524.041 455.942,519.361 464.309,519.361C472.677,519.361 479.484,523.899 479.484,529.572Z" fill="#007272"/>
<path d="M528.552,605.585C528.552,611.116 521.745,615.654 513.378,615.654C505.011,615.654 498.345,611.116 498.345,605.585C498.345,600.055 505.011,595.658 513.378,595.658C521.745,595.658 528.552,599.913 528.552,605.585Z" fill="#007272"/>
<path d="M569.965,533.401C569.965,538.932 563.158,543.47 554.79,543.47C546.423,543.47 539.616,538.932 539.616,533.401C539.616,527.87 546.423,523.19 554.79,523.19C563.158,523.19 569.965,527.728 569.965,533.401Z" fill="#007272"/>
<path d="M769.219,516.95C769.219,522.623 762.412,527.161 754.045,527.161C745.678,527.161 738.87,522.623 738.87,516.95C738.87,511.277 745.678,506.881 754.045,506.881C762.412,506.881 769.219,511.419 769.219,516.95Z" fill="#007272"/>
<path d="M892.316,429.448C892.316,434.979 885.509,439.517 877.141,439.517C868.774,439.517 861.967,434.979 861.967,429.448C861.967,423.918 868.774,419.379 877.141,419.379C885.509,419.379 892.316,423.918 892.316,429.448Z" fill="#007272"/>
<path d="M895.436,514.681C895.436,520.211 888.628,524.75 880.261,524.75C871.894,524.75 865.087,520.211 865.087,514.681C865.087,509.15 871.894,504.47 880.261,504.47C888.628,504.47 895.436,509.008 895.436,514.681Z" fill="#007272"/>
<path d="M675.051,596.367C675.051,602.04 668.386,606.578 660.018,606.578C651.651,606.578 644.844,602.04 644.844,596.367C644.844,590.695 651.651,586.298 660.018,586.298C668.386,586.298 675.051,590.836 675.051,596.367Z" fill="#007272"/>
<path d="M716.46,187.508C716.46,193.039 709.653,197.577 701.286,197.577C692.919,197.577 686.111,193.039 686.111,187.508C686.111,181.977 692.919,177.297 701.286,177.297C709.653,177.297 716.46,181.835 716.46,187.508Z" fill="#007272"/>
<path d="M639.455,261.536C639.455,267.067 632.79,271.605 624.422,271.605C616.055,271.605 609.815,267.067 609.815,261.536C609.815,256.005 616.622,251.467 624.99,251.467C633.357,251.467 639.455,256.005 639.455,261.536Z" fill="#007272"/>
<path d="M640.448,202.824C640.448,208.355 633.641,212.893 625.273,212.893C616.906,212.893 609.815,208.355 609.815,202.824C609.815,197.293 616.622,192.755 624.99,192.755C633.357,192.755 640.448,197.293 640.448,202.824Z" fill="#007272"/>
<path d="M758.867,225.94C758.867,231.471 752.06,236.009 743.692,236.009C735.325,236.009 728.518,231.471 728.518,225.94C728.518,220.409 735.325,215.871 743.692,215.871C752.06,215.871 758.867,220.409 758.867,225.94Z" fill="#007272"/>
<path d="M385.46,180.7C385.46,186.373 378.653,190.769 370.285,190.769C361.918,190.769 354.544,186.373 354.544,180.7C354.544,175.028 361.351,170.631 369.718,170.631C378.085,170.631 385.46,175.17 385.46,180.7Z" fill="#007272"/>
<path d="M482.181,244.235C482.181,249.765 475.515,254.304 467.148,254.304C458.781,254.304 451.974,249.765 451.974,244.235C451.974,238.704 458.781,234.166 467.148,234.166C475.515,234.166 482.181,238.704 482.181,244.235Z" fill="#007272"/>
<path d="M330.576,801.294C330.576,806.966 323.768,811.505 315.543,811.505C307.317,811.505 300.368,806.966 300.368,801.294C300.368,795.621 307.034,791.225 315.543,791.225C324.052,791.225 330.576,795.763 330.576,801.294Z" fill="#007272"/>
<path d="M435.522,809.094C435.522,814.625 428.715,819.163 420.348,819.163C411.981,819.163 405.173,814.625 405.173,809.094C405.173,803.563 411.981,798.883 420.348,798.883C428.715,798.883 435.522,803.421 435.522,809.094Z" fill="#007272"/>
<path d="M590.386,769.527C590.386,775.2 583.579,779.738 575.211,779.738C566.844,779.738 560.037,775.2 560.037,769.527C560.037,763.854 566.844,759.458 575.211,759.458C583.579,759.458 590.386,763.996 590.386,769.527Z" fill="#007272"/>
<path d="M709.089,800.443C709.089,805.974 702.282,810.512 693.915,810.512C685.547,810.512 678.74,805.974 678.74,800.443C678.74,794.912 685.547,790.232 693.915,790.232C702.282,790.232 709.089,794.203 709.089,800.443Z" fill="#007272"/>
<path d="M675.051,767.683C675.051,773.214 668.244,777.752 659.876,777.752C651.509,777.752 644.844,773.214 644.844,767.683C644.844,762.152 651.509,757.614 659.876,757.614C668.244,757.614 675.051,762.011 675.051,767.683Z" fill="#007272"/>
<path d="M761.985,790.799C761.985,794.77 757.163,798.032 751.065,798.032C744.967,798.032 740.287,794.77 740.287,790.799C740.287,786.828 745.108,783.566 751.065,783.566C757.021,783.566 761.985,786.828 761.985,790.799Z" fill="#007272"/>
<path d="M512.952,771.512C512.952,775.483 508.13,778.745 502.174,778.745C496.218,778.745 491.254,775.483 491.254,771.512C491.254,767.541 496.218,764.279 502.174,764.279C508.13,764.279 512.952,767.541 512.952,771.512Z" fill="#007272"/>
<path d="M322.492,827.388C322.492,831.359 317.67,834.479 311.572,834.479C305.474,834.479 300.794,831.359 300.794,827.388C300.794,823.418 305.616,820.156 311.572,820.156C317.529,820.156 322.492,823.276 322.492,827.388Z" fill="#007272"/>
<path d="M365.747,842.705C365.747,846.676 360.925,849.938 354.969,849.938C349.013,849.938 344.049,846.676 344.049,842.705C344.049,838.734 349.013,835.472 354.969,835.472C360.925,835.472 365.747,838.734 365.747,842.705Z" fill="#007272"/>
<path d="M361.918,575.237C361.918,579.208 357.096,582.469 351.14,582.469C345.183,582.469 340.22,579.208 340.22,575.237C340.22,571.266 345.042,568.004 351.14,568.004C357.238,568.004 361.918,571.266 361.918,575.237Z" fill="#007272"/>
<path d="M362.912,532.833C362.912,536.804 358.09,540.066 351.992,540.066C345.894,540.066 341.214,536.804 341.214,532.833C341.214,528.862 346.035,525.601 351.992,525.601C357.948,525.601 362.912,528.862 362.912,532.833Z" fill="#007272"/>
<path d="M167.487,421.223C167.487,425.194 162.665,428.456 156.709,428.456C150.752,428.456 145.931,425.194 145.931,421.223C145.931,417.252 150.752,413.99 156.709,413.99C162.665,413.99 167.487,417.252 167.487,421.223Z" fill="#007272"/>
<path d="M508.133,512.695C508.133,516.666 503.311,519.928 497.355,519.928C491.398,519.928 486.577,516.666 486.577,512.695C486.577,508.724 491.398,505.462 497.355,505.462C503.311,505.462 508.133,508.724 508.133,512.695Z" fill="#007272"/>
<path d="M736.173,559.779C736.173,563.891 731.351,567.011 725.395,567.011C719.438,567.011 714.475,563.891 714.475,559.779C714.475,555.666 719.438,552.546 725.395,552.546C731.351,552.546 736.173,555.808 736.173,559.779Z" fill="#007272"/>
<path d="M774.75,548.292C774.75,552.263 769.787,555.524 763.83,555.524C757.874,555.524 753.052,552.263 753.052,548.292C753.052,544.321 757.874,541.059 763.83,541.059C769.787,541.059 774.75,544.321 774.75,548.292Z" fill="#007272"/>
<path d="M852.608,460.79C852.608,464.761 847.786,467.881 841.83,467.881C835.873,467.881 831.052,464.761 831.052,460.79C831.052,456.819 835.873,453.558 841.83,453.558C847.786,453.558 852.608,456.678 852.608,460.79Z" fill="#007272"/>
<path d="M915.148,482.205C915.148,486.176 910.327,489.438 904.37,489.438C898.414,489.438 893.45,485.892 893.45,482.205C893.45,478.518 898.414,474.972 904.37,474.972C910.327,474.972 915.148,477.95 915.148,482.205Z" fill="#007272"/>
<path d="M448.57,605.019C448.57,608.99 443.606,612.251 437.65,612.251C431.694,612.251 426.872,608.99 426.872,605.019C426.872,601.048 431.694,597.786 437.65,597.786C443.606,597.786 448.57,601.048 448.57,605.019Z" fill="#007272"/>
<path d="M177.415,394.845C177.415,400.376 170.608,404.914 162.241,404.914C153.873,404.914 147.066,400.376 147.066,394.845C147.066,389.314 153.873,384.634 162.241,384.634C170.608,384.634 177.415,389.172 177.415,394.845Z" fill="#007272"/>
<g opacity="0.2">
<path d="M635.765,114.33C656.319,184.564 657.599,259.034 639.469,329.932C621.339,400.83 584.467,465.546 532.723,517.292C480.977,569.036 416.261,605.908 345.363,624.038C274.465,642.168 199.995,640.888 129.761,620.334C149.618,688.346 186.842,750.014 237.77,799.27C288.699,848.526 351.575,883.672 420.211,901.246C488.849,918.82 560.877,918.22 629.211,899.5C697.545,880.782 759.827,844.594 809.925,794.494C860.025,744.396 896.213,682.114 914.931,613.78C933.649,545.448 934.251,473.418 916.677,404.78C899.101,336.144 863.957,273.267 814.701,222.339C765.445,171.411 703.777,134.186 635.765,114.33Z" fill="url(#pf_0_1_2223)"/>
</g>
<g opacity="0.7">
<path d="M382.907,212.751C395.104,229.06 382.198,259.409 354.544,280.682C326.889,301.954 293.704,305.925 281.508,289.758C269.311,273.591 281.508,243.1 309.871,221.969C338.235,200.838 370.995,196.017 382.907,212.751Z" fill="#FFFFFF"/>
</g>
<defs>
<linearGradient id="pf_0_1_2223" x1="296.539" y1="331.027" x2="986.339" y2="867.665" gradientUnits="userSpaceOnUse">
<stop stop-color="#000000"/>
<stop offset="0.57" stop-color="#000000"/>
<stop offset="0.61" stop-color="#000000"/>
<stop offset="1" stop-color="#404040"/>
</linearGradient>
</defs>
</svg>
