<svg width="2526" height="2800" viewBox="0 0 2526 2800" fill="none" xmlns="http://www.w3.org/2000/svg" xmlns:xlink="http://www.w3.org/1999/xlink">
<path d="M2525.999,210.502C2525.999,252.136 2513.653,292.834 2490.523,327.452C2467.393,362.068 2434.517,389.048 2396.053,404.98C2357.589,420.914 2315.263,425.082 2274.431,416.96C2233.597,408.838 2196.089,388.79 2166.65,359.35C2137.211,329.91 2117.163,292.402 2109.04,251.57C2100.918,210.736 2105.087,168.411 2121.019,129.947C2136.951,91.483 2163.932,58.607 2198.549,35.476C2233.166,12.346 2273.864,0 2315.497,0C2343.157,-0.057 2370.555,5.349 2396.121,15.908C2421.685,26.466 2444.913,41.969 2464.471,61.528C2484.031,81.086 2499.533,104.314 2510.091,129.879C2520.651,155.444 2526.057,182.843 2525.999,210.502Z" transform="rotate(360 2315.498 210.502)" fill="#FFDF4F"/>
<path d="M2393.893,112.185C2393.892,117.771 2392.229,123.231 2389.116,127.87C2386.003,132.509 2381.58,136.116 2376.41,138.234C2371.241,140.352 2365.558,140.883 2360.085,139.761C2354.612,138.64 2349.597,135.915 2345.678,131.934C2341.758,127.953 2339.111,122.896 2338.075,117.407C2337.038,111.917 2337.657,106.244 2339.855,101.107C2342.052,95.971 2345.728,91.605 2350.415,88.564C2355.101,85.523 2360.586,83.945 2366.172,84.031C2373.564,84.145 2380.614,87.161 2385.8,92.429C2390.987,97.696 2393.893,104.792 2393.893,112.185Z" transform="rotate(360 2365.739 112.181)" fill="#D3B94F"/>
<path d="M2468.385,249.916C2468.299,257.35 2466.017,264.592 2461.825,270.732C2457.633,276.872 2451.718,281.634 2444.825,284.42C2437.933,287.205 2430.37,287.89 2423.089,286.388C2415.808,284.885 2409.134,281.262 2403.908,275.976C2398.681,270.689 2395.135,263.974 2393.715,256.676C2392.296,249.379 2393.067,241.825 2395.932,234.964C2398.796,228.104 2403.626,222.244 2409.813,218.122C2416,214 2423.268,211.801 2430.702,211.8C2435.688,211.8 2440.623,212.789 2445.224,214.71C2449.824,216.63 2453.997,219.445 2457.502,222.99C2461.007,226.535 2463.774,230.741 2465.642,235.362C2467.51,239.984 2468.442,244.931 2468.385,249.916Z" transform="rotate(360 2430.705 249.483)" fill="#D3B94F"/>
<path d="M2211.418,252.947C2211.304,260.798 2208.106,268.289 2202.513,273.8C2196.921,279.311 2189.384,282.4 2181.532,282.4C2174.281,281.522 2167.602,278.019 2162.757,272.552C2157.912,267.086 2155.237,260.034 2155.237,252.73C2155.237,245.426 2157.912,238.374 2162.757,232.908C2167.602,227.441 2174.281,223.938 2181.532,223.061C2189.458,223.061 2197.06,226.209 2202.665,231.814C2208.27,237.419 2211.418,245.02 2211.418,252.947Z" transform="rotate(360 2183.328 252.73)" fill="#D3B94F"/>
<path d="M2315.055,349.102C2315.113,352.986 2314.392,356.842 2312.932,360.442C2311.473,364.042 2309.305,367.312 2306.559,370.059C2303.812,372.805 2300.542,374.973 2296.942,376.432C2293.342,377.892 2289.486,378.613 2285.602,378.555C2281.698,378.612 2277.821,377.893 2274.198,376.439C2270.574,374.984 2267.276,372.824 2264.495,370.083C2261.714,367.342 2259.506,364.076 2257.999,360.474C2256.492,356.872 2255.716,353.007 2255.716,349.102C2255.716,341.176 2258.865,333.574 2264.469,327.969C2270.074,322.365 2277.676,319.216 2285.602,319.216C2289.507,319.216 2293.372,319.991 2296.974,321.499C2300.576,323.006 2303.842,325.214 2306.583,327.995C2309.324,330.776 2311.484,334.074 2312.939,337.698C2314.393,341.321 2315.112,345.198 2315.055,349.102Z" transform="rotate(360 2285.387 348.887)" fill="#D3B94F"/>
<path d="M2247.928,126.474C2247.287,130.435 2245.257,134.039 2242.202,136.64C2239.147,139.241 2235.265,140.67 2231.252,140.67C2227.239,140.67 2223.358,139.241 2220.302,136.64C2217.247,134.039 2215.217,130.435 2214.577,126.474C2214.186,124.059 2214.325,121.588 2214.983,119.232C2215.642,116.876 2216.804,114.691 2218.39,112.828C2219.975,110.965 2221.947,109.469 2224.168,108.443C2226.389,107.417 2228.806,106.886 2231.252,106.886C2233.699,106.886 2236.116,107.417 2238.337,108.443C2240.557,109.469 2242.529,110.965 2244.115,112.828C2245.7,114.691 2246.863,116.876 2247.521,119.232C2248.179,121.588 2248.318,124.059 2247.928,126.474Z" transform="rotate(360 2231.252 123.778)" fill="#D3B94F"/>
<path d="M2334.992,208.769C2334.992,212.109 2334.001,215.375 2332.145,218.153C2330.289,220.931 2327.651,223.096 2324.564,224.375C2321.477,225.653 2318.081,225.988 2314.804,225.336C2311.527,224.684 2308.517,223.076 2306.155,220.713C2303.793,218.351 2302.184,215.341 2301.532,212.064C2300.88,208.787 2301.215,205.391 2302.493,202.304C2303.772,199.218 2305.937,196.579 2308.715,194.723C2311.493,192.867 2314.759,191.876 2318.1,191.876C2322.58,191.876 2326.876,193.656 2330.044,196.824C2333.212,199.992 2334.992,204.288 2334.992,208.769Z" transform="rotate(360 2318.1 208.768)" fill="#D3B94F"/>
<g opacity="0.2">
<path d="M2310.727,7.362C2339.057,37.254 2358.017,74.784 2365.267,115.324C2372.519,155.863 2367.743,197.639 2351.531,235.496C2335.321,273.354 2308.381,305.638 2274.037,328.366C2239.694,351.094 2199.448,363.272 2158.265,363.396C2140.43,363.306 2122.678,360.978 2105.423,356.466C2134.431,386.938 2171.904,408.016 2213.007,416.986C2254.111,425.956 2296.959,422.402 2336.023,406.786C2375.089,391.17 2408.577,364.206 2432.171,329.374C2455.765,294.54 2468.379,253.438 2468.387,211.368C2468.367,164.715 2452.881,119.386 2424.355,82.473C2395.827,45.56 2355.867,19.145 2310.727,7.362Z" transform="rotate(360 2286.905 214.594)" fill="#000000"/>
</g>
<path d="M1075.871,2276.536C1190.666,2438.331 1342.553,2570.269 1518.815,2661.301C1695.077,2752.333 1890.585,2799.811 2088.967,2799.759C2146.951,2799.523 2204.847,2795.181 2262.219,2786.765C2051.875,2675.729 1853.599,2543.205 1670.561,2391.316C1528.061,2264.841 1281.609,2221.961 1075.871,2276.536Z" transform="rotate(360 1669.045 2526.53)" fill="#007E93"/>
<path d="M2474.883,2005.399C2130.983,2252.283 1797.907,2555.475 1356.547,2252.283C1074.577,2075.999 863.209,1794.03 511.073,1758.947C370.675,1741.335 228.41,1745.279 89.203,1770.641C121.492,1953.019 194.154,2125.869 301.871,2276.539C507.609,2221.965 754.061,2264.845 898.293,2391.319C1081.331,2543.209 1279.609,2675.731 1489.951,2786.767C1708.681,2755.613 1915.185,2666.823 2088.271,2529.511C2261.363,2392.197 2394.803,2211.307 2474.883,2005.399Z" transform="rotate(360 1282.048 2267.457)" fill="#11AABA"/>
<path d="M443.509,1756.783C795.645,1791.867 1006.579,2073.835 1288.981,2250.121C1730.343,2553.313 2063.429,2250.121 2407.329,2005.401C2504.489,1757.837 2519.669,1485.629 2450.649,1228.796C2439.389,1239.624 2428.109,1250.885 2417.729,1263.013C1783.617,1968.151 1043.829,1615.583 338.691,1156.896C263.337,1111.047 174.223,1093.255 87.041,1106.653C5.622,1317.247 -16.985,1546.021 21.638,1768.477C160.845,1743.115 303.109,1739.171 443.509,1756.783Z" transform="rotate(360 1248.265 1739.763)" fill="#20CBD3"/>
<path d="M1073.28,1086.729C861.912,945.529 756.228,696.912 579.944,628.044C532.06,606.856 481.93,591.163 430.512,581.265C258.372,719.365 125.948,900.661 46.758,1106.653C133.94,1093.257 223.054,1111.049 298.408,1156.897C1002.68,1615.583 1742.468,1968.153 2377.438,1263.015C2387.838,1250.887 2399.098,1239.625 2410.358,1228.797C2353.138,1016.285 2240.598,822.741 2084.218,667.892C1796.176,948.561 1475.66,1303.295 1073.28,1086.729Z" transform="rotate(360 1228.557 1121.894)" fill="#3EE5E5"/>
<path d="M1121.357,522.358C1147.345,505.033 1172.467,486.841 1197.589,468.217C1026.521,371.382 834.828,316.74 638.415,308.824C647.511,332.213 656.174,356.036 663.537,381.157C698.621,487.274 945.073,592.958 1121.357,522.358Z" transform="rotate(360 918.002 427.034)" fill="#A6F2FF"/>
<path d="M1687.025,522.353C1510.739,592.953 1264.289,487.27 1229.205,381.152C1221.841,356.031 1213.179,332.208 1204.083,308.819C1187.191,308.819 1169.865,308.819 1152.541,308.819C868.979,308.077 593.759,404.71 372.903,582.559C425.301,591.815 476.459,607.075 525.365,628.037C701.649,698.637 807.335,945.523 1018.703,1086.723C1421.081,1303.289 1741.599,948.555 2028.765,667.885C1949.869,589.803 1860.861,522.647 1764.121,468.212C1738.133,486.836 1713.013,505.028 1687.025,522.353Z" transform="rotate(360 1200.834 731.207)" fill="#84ECF7"/>
<path d="M794.334,2147.032C796.306,2185.566 803.146,2223.696 814.691,2260.513C831.15,2284.768 806.894,2400.849 847.176,2393.051C875.606,2391.563 903.123,2382.507 926.881,2366.821C950.639,2351.135 969.776,2329.387 982.313,2303.826C1030.824,2222.83 1084.532,2165.657 1100.992,2122.344C1102.552,2116.695 1103.424,2110.877 1103.59,2105.019C1006.186,2146.678 899.322,2161.196 794.334,2147.032Z" transform="rotate(360 948.962 2249.222)" fill="#0D7024"/>
<path d="M692.349,1602.591C683.346,1621.433 679.148,1642.212 680.13,1663.072C681.113,1683.931 687.245,1704.223 697.98,1722.135C719.568,1758.663 752.096,1787.476 790.961,1804.499C829.826,1821.521 873.06,1825.893 914.546,1816.991C1014.6,1787.105 982.114,1833.017 1017.198,1843.845C1052.282,1854.673 1025.428,1841.247 1019.796,1917.045C1014.166,1992.843 1060.512,2030.525 1076.536,2070.807C1084.114,2096.367 1089.048,2122.637 1091.264,2149.203C1196.368,2162.959 1303.238,2147.991 1400.52,2105.891C1404.418,2053.481 1369.334,1960.357 1400.52,1909.681C1431.704,1859.005 1451.63,1882.395 1484.114,1828.685L1516.598,1774.545C1513.9,1752.32 1508.518,1730.505 1500.574,1709.575L1457.26,1717.804C1450.586,1719.547 1443.576,1719.547 1436.902,1717.804C1192.184,1758.952 941.834,1712.607 692.349,1602.591Z" transform="rotate(360 1098.295 1878.379)" fill="#03841F"/>
<path d="M1425.407,1630.739C1393.355,1595.655 1374.297,1428.033 1366.067,1422.836C1357.839,1417.638 1236.129,1431.065 1192.815,1431.065C1149.503,1431.065 1136.075,1352.668 1109.221,1336.209L1082.367,1320.183C1045.737,1342.189 1005.591,1357.72 963.689,1366.095L936.402,1371.293C909.547,1376.924 898.719,1428.033 898.719,1438.862C850.548,1465.592 810.454,1504.788 782.64,1552.341C773.202,1568.469 764.951,1585.261 757.951,1602.585C1007.435,1714.767 1257.785,1761.111 1504.237,1715.199C1473.051,1703.505 1451.395,1660.191 1425.407,1630.739Z" transform="rotate(360 1131.094 1526.475)" fill="#04A02C"/>
<path d="M3.001,1588.295C4.431,1624.949 11.442,1661.171 23.792,1695.713L37.219,1703.941C48.992,1733.719 68.597,1759.759 93.959,1779.307L93.959,1739.025C92.351,1706.449 94.093,1673.791 99.157,1641.571C106.648,1616.305 118.524,1592.555 134.24,1571.403C153.298,1549.747 171.923,1528.089 182.751,1528.089C193.579,1528.089 204.407,1566.205 215.235,1577.033C227.605,1591.591 237.683,1607.949 245.121,1625.545C247.773,1632.247 251.749,1638.349 256.809,1643.483C261.869,1648.617 267.911,1652.681 274.575,1655.431L285.403,1658.029C291.927,1689.343 301.055,1720.059 312.691,1749.853L315.289,1763.281C317.887,1776.707 312.691,1860.735 315.289,1874.163C317.887,1887.589 333.913,1941.731 352.971,1952.559L355.571,1952.559C368.131,1916.177 378.959,1878.927 388.055,1841.245C381.125,1823.485 372.895,1801.397 368.997,1791.867C365.099,1782.339 358.169,1740.325 350.373,1721.267C342.577,1702.209 301.861,1659.329 328.717,1659.329C355.571,1659.329 382.857,1661.927 390.653,1686.183L398.883,1710.871L410.145,1710.871C415.881,1668.939 419.207,1626.711 420.107,1584.397C407.547,1571.403 382.857,1554.945 399.749,1541.085C406.203,1536.575 413.381,1533.205 420.973,1531.121C419.621,1441.597 408.877,1352.461 388.921,1265.179C278.419,1392.861 148.119,1501.957 3.001,1588.295Z" transform="rotate(360 211.988 1608.869)" fill="#04A02C"/>
<path d="M1187.62,1230.957L1181.989,1241.786L1176.792,1252.614C1177.724,1269.243 1182.047,1285.506 1189.496,1300.403C1196.944,1315.301 1207.361,1328.517 1220.105,1339.24L1230.933,1336.208C1258.887,1321.179 1284.435,1302.054 1306.731,1279.468C1313.959,1267.825 1323.198,1257.559 1334.019,1249.149C1301.101,1242.219 1268.616,1233.123 1236.997,1223.161C1221.198,1228.931 1204.429,1231.579 1187.62,1230.957Z" transform="rotate(360 1255.405 1281.201)" fill="#00BA35"/>
<path d="M767.045,948.556C915.979,910.012 1055.723,842.127 1178.087,748.882C1173.013,745.398 1167.253,743.035 1161.195,741.952C1136.515,746.559 1112.197,752.928 1088.429,761.009C1077.601,763.608 1064.173,761.009 1064.173,739.353C1064.173,717.696 1050.313,682.613 1029.089,687.81C982.721,698.901 937.481,714.27 893.953,733.722C883.123,744.551 856.269,768.806 856.269,787.864C856.269,806.921 872.295,828.145 864.067,825.546L856.269,822.947C848.907,822.947 831.581,803.89 818.587,777.035L791.301,777.035C777.673,793.569 769.233,813.761 767.045,835.075C768.253,840.473 767.581,846.121 765.139,851.084C762.697,856.047 758.631,860.027 753.617,862.362C735.713,865.194 717.601,866.499 699.477,866.261C669.687,870.005 641.587,882.176 618.481,901.344L613.283,909.574L607.653,917.37C599.885,918.684 591.919,918.154 584.395,915.822C576.871,913.488 570.001,909.42 564.339,903.944C557.409,895.28 575.167,879.254 603.321,868.859L589.893,860.63C576.467,852.833 498.07,814.718 471.216,822.947L443.929,831.177C408.182,842.998 374.871,861.194 345.608,884.885C337.399,898.806 330.163,913.278 323.951,928.198C467.319,973.662 620.111,980.682 767.045,948.556Z" transform="rotate(360 751.019 827.835)" fill="#70FF61"/>
<path d="M1112.997,748.886C990.635,842.131 850.891,910.015 701.955,948.559C555.465,979.958 403.309,972.492 260.595,926.903C255.397,938.164 250.199,949.86 245.868,960.688L248.467,982.344C251.066,1004 261.894,1060.74 243.269,1068.97L224.211,1076.766C201.43,1095.854 182.092,1118.708 167.038,1144.336C164.383,1153.914 163.86,1163.96 165.506,1173.762C167.152,1183.566 170.928,1192.89 176.567,1201.076C182.631,1209.738 176.567,1217.534 164.872,1223.166C196.491,1233.128 228.976,1242.222 261.894,1249.154C270.123,1242.656 277.92,1237.892 283.117,1239.192C292.688,1243.596 301.242,1249.938 308.239,1257.816C369.187,1267.984 431.141,1270.748 492.753,1266.046C740.937,1227.496 1009.913,1023.492 1272.391,929.069C1243.441,878.281 1210.873,829.645 1174.935,783.536C1157.611,779.638 1131.623,759.281 1112.997,748.886Z" transform="rotate(360 718.479 1008.577)" fill="#4FDD3A"/>
<path d="M219.573,1266.04C157.892,1270.172 95.937,1266.826 35.059,1256.078C51.085,1271.238 68.41,1290.296 74.907,1296.794C81.404,1303.29 88.334,1337.508 126.017,1329.278L163.699,1321.048C189.254,1316.718 212.21,1321.048 215.242,1329.278C218.274,1337.508 244.695,1347.902 274.581,1350.934L290.607,1345.304C307.065,1340.106 320.493,1369.56 312.263,1380.388L304.033,1391.216C317.235,1460.89 338.153,1528.878 366.405,1593.922L379.831,1602.152C393.259,1610.38 409.285,1680.548 420.113,1677.95C430.941,1675.35 485.083,1672.318 501.109,1653.694L517.135,1634.636C560.447,1591.322 583.837,1541.946 572.575,1527.652C561.315,1513.36 523.199,1516.824 485.949,1534.582L480.751,1518.556C475.121,1502.098 431.807,1431.93 459.095,1429.332C486.383,1426.732 526.231,1461.816 542.689,1472.644C565.115,1488.8 590.861,1499.75 618.055,1504.696C641.545,1504.3 664.469,1511.942 683.023,1526.354L688.221,1537.182C695.585,1546.278 712.911,1540.214 726.337,1523.754L734.133,1537.182C739.047,1553.238 742.099,1569.806 743.229,1586.558C888.707,1501.422 1019.587,1393.5 1130.883,1266.908C1103.157,1147.7 1057.909,1033.264 996.611,927.332C736.733,1023.487 467.757,1227.492 219.573,1266.04Z" transform="rotate(360 582.971 1302.676)" fill="#00BA35"/>
<path d="M1972.888,1317.152C1966.824,1350.503 1961.193,1386.02 1958.162,1418.505C1979.818,1453.156 2011.437,1485.206 2027.463,1517.258C2043.489,1549.31 2030.061,1573.998 2040.89,1601.286C2046.863,1623.172 2056.06,1644.046 2068.177,1663.224C2075.973,1668.854 2114.089,1679.682 2124.917,1668.854C2132.887,1663.98 2141.844,1660.946 2151.135,1659.972C2160.426,1658.998 2169.818,1660.108 2178.626,1663.224C2189.55,1667.678 2199.45,1674.318 2207.716,1682.734C2215.984,1691.15 2222.444,1701.166 2226.704,1712.168C2232.334,1736.424 2224.104,1741.62 2259.188,1749.85C2294.272,1758.08 2237.532,1684.88 2253.99,1666.256C2270.45,1647.632 2297.304,1638.968 2267.418,1630.74C2237.532,1622.51 2189.022,1603.884 2180.792,1587.426C2168.922,1558.814 2160.63,1528.846 2156.103,1498.2C2150.905,1463.118 2137.478,1433.232 2159.136,1414.173C2168.096,1404.215 2179.63,1396.924 2192.47,1393.103C2205.31,1389.282 2218.954,1389.079 2231.902,1392.517L2264.386,1400.746C2292.54,1417.205 2307.7,1440.162 2302.068,1452.288L2323.726,1479.144C2345.382,1505.998 2350.58,1535.884 2356.21,1522.456C2360.53,1493.794 2362.268,1464.802 2361.408,1435.83C2361.408,1422.403 2350.58,1414.173 2388.262,1381.688C2406.474,1362.014 2428.606,1346.373 2453.232,1335.776C2462.64,1331.648 2472.538,1328.737 2482.684,1327.114C2455.83,1307.19 2428.976,1286.399 2402.122,1265.609C2308.132,1195.009 2119.287,1219.264 1972.888,1317.152Z" transform="rotate(360 2220.423 1487.761)" fill="#04A02C"/>
<path d="M2011.878,747.152C1979.394,744.553 1909.226,750.184 1868.944,709.47C1852.596,693.933 1832.84,682.435 1811.258,675.892C1789.674,669.349 1766.86,667.944 1744.636,671.787C1731.208,679.584 1696.126,690.412 1696.126,701.24C1696.126,712.069 1725.578,744.553 1717.782,750.184L1709.552,755.382C1688.93,756.877 1668.786,762.317 1650.214,771.408L1636.786,771.408C1652.812,801.294 1653.678,821.218 1636.786,814.721C1598.119,804.881 1558.932,797.218 1519.407,791.765C1476.852,848.018 1439.04,907.707 1406.36,970.215C1497.751,966.749 1593.04,983.643 1680.1,983.643C1792.17,976.365 1904.484,993.507 2009.28,1033.885C2006.248,1012.229 2006.248,968.915 1979.394,955.489C1945.452,944.197 1909.096,942.253 1874.142,949.857C1841.658,955.489 1809.606,952.457 1823.032,925.603C1836.46,898.749 1879.34,842.008 1925.684,871.461C1953.894,893.381 1979.996,917.887 2003.648,944.661C2029.404,963.523 2057.506,978.957 2087.244,990.573C2101.104,990.573 2133.154,1006.599 2149.614,1001.401C2166.074,996.203 2205.922,998.369 2216.75,968.915C2227.578,939.463 2203.322,955.489 2257.464,903.945C2311.606,852.403 2313.338,872.761 2347.122,845.473C2244.47,802.16 2142.25,758.847 2040.032,718.565C2036.134,736.324 2028.77,748.885 2011.878,747.152Z" transform="rotate(360 1876.741 851.778)" fill="#4FDD3A"/>
<path d="M1707.458,741.957C1711.876,716.948 1713.618,691.538 1712.656,666.159C1707.458,650.134 1728.682,625.878 1685.802,625.878C1642.922,625.878 1521.212,633.675 1502.155,631.076C1483.097,628.477 1342.762,663.561 1337.565,679.587C1334.966,687.383 1334.099,703.842 1330.634,718.568C1432.853,757.55 1535.072,805.195 1637.724,845.476C1640.756,842.444 1644.222,840.278 1647.686,836.38C1677.492,812.372 1698.51,779.17 1707.458,741.957Z" transform="rotate(360 1522.04 735.677)" fill="#70FF61"/>
<path d="M2136.976,983.642C2050.35,983.642 1954.628,966.75 1863.238,970.215C1806.118,1079.138 1765.397,1195.899 1742.394,1316.721C1888.792,1218.833 2077.638,1194.577 2172.06,1265.611C2198.914,1286.401 2225.768,1308.925 2252.624,1327.115C2259.438,1326.799 2266.104,1325.009 2272.16,1321.867C2278.216,1318.727 2283.52,1314.311 2287.706,1308.925C2293.824,1299.845 2297.548,1289.367 2298.534,1278.463C2299.518,1267.559 2297.73,1256.583 2293.338,1246.553C2287.706,1227.929 2271.68,1219.699 2331.02,1206.273C2390.36,1192.845 2428.042,1189.813 2433.672,1176.387C2439.302,1162.959 2452.296,1125.276 2460.526,1106.219C2467.884,1082.701 2469.81,1057.821 2466.158,1033.452C2361.328,993.221 2249.016,976.226 2136.976,983.642Z" transform="rotate(360 2105.175 1148.431)" fill="#00BA35"/>
<path d="M1680.915,1819.152C1680.915,1835.177 1685.68,1854.235 1687.845,1872.86L1671.819,1880.656C1650.862,1895.094 1633.399,1914.037 1620.71,1936.097C1616.881,1959.903 1619.575,1984.301 1628.506,2006.698C1636.736,2025.322 1671.819,2085.094 1677.017,2093.324C1682.215,2101.554 1690.877,2134.038 1709.502,2134.038C1732.325,2135.364 1754.15,2143.852 1771.873,2158.294C1790.038,2183.858 1801.234,2213.714 1804.358,2244.92C1884.487,2239.29 1973.713,2254.448 2039.981,2254.448L2056.007,2261.812C2053.841,2255.316 2056.007,2249.684 2062.937,2240.156C2079.397,2221.098 2127.907,2240.156 2133.537,2196.842C2139.169,2153.53 2157.793,2153.53 2144.367,2113.248C2130.939,2072.966 2122.709,2072.534 2127.907,2045.68C2133.105,2018.825 2136.137,2026.622 2162.991,1991.538C2168.403,1984.979 2173.325,1978.03 2177.717,1970.748C2054.781,1911.194 1926.039,1864.458 1793.529,1831.279C1756.699,1822.239 1718.826,1818.161 1680.915,1819.152Z" transform="rotate(360 1898.367 2040.409)" fill="#0D7024"/>
<path d="M2075.759,1865.932C2040.769,1860.289 2005.483,1856.674 1970.075,1855.103C1955.417,1852.209 1941.949,1845.022 1931.383,1834.457C1920.817,1823.891 1913.631,1810.423 1910.737,1795.764C1902.939,1760.68 1899.907,1736.425 1875.653,1719.966C1851.397,1703.507 1773.433,1690.513 1759.573,1679.685C1750.523,1673.774 1740.365,1669.766 1729.717,1667.904C1719.069,1666.043 1708.154,1666.367 1697.635,1668.856L1679.011,1674.054C1666.108,1691.73 1650.462,1707.23 1632.665,1719.966L1627.035,1736.425C1618.805,1752.451 1610.576,1749.852 1607.977,1768.91C1625.735,1765.878 1642.194,1773.241 1644.36,1784.936C1646.526,1796.63 1647.392,1802.694 1649.558,1817.854C1687.468,1816.863 1725.341,1820.942 1762.172,1829.982C1894.683,1863.16 2023.423,1909.896 2146.359,1969.45C2151.231,1963.874 2154.263,1956.928 2155.039,1949.562C2155.813,1942.198 2154.295,1934.772 2150.691,1928.302C2143.089,1913.364 2132.527,1900.13 2119.643,1889.406C2106.761,1878.684 2091.829,1870.696 2075.759,1865.932Z" transform="rotate(360 1881.606 1818.082)" fill="#03841F"/>
<path d="M1738.82,2243.619C1739.006,2244.766 1739.006,2245.936 1738.82,2247.084C1728.16,2283.157 1721.906,2320.389 1720.196,2357.966C1720.196,2387.419 1727.992,2449.789 1731.024,2471.445C1734.056,2493.103 1801.191,2539.015 1801.191,2546.811C1797.718,2558.891 1793.524,2570.751 1788.631,2582.327C1811.153,2597.487 1831.944,2611.781 1857.932,2625.641C1861.903,2600.535 1869.186,2576.067 1879.588,2552.875C1890.417,2522.989 1874.391,2528.619 1866.161,2501.333C1857.932,2474.045 1882.62,2444.591 1887.818,2436.796L1893.448,2428.566C1912.359,2414.686 1932.184,2402.097 1952.788,2390.884L1955.386,2377.023C1957.986,2363.596 1971.412,2358.399 1993.068,2341.94C2014.726,2325.481 2014.726,2315.086 2003.898,2287.798C1998.7,2274.804 1993.502,2267.441 1991.336,2260.944L1974.444,2252.281C1908.175,2252.281 1818.95,2237.988 1738.82,2243.619Z" transform="rotate(360 1865.603 2433.973)" fill="#065E1D"/>
<g opacity="0.2">
<path d="M1542.382,357.77C1605.332,572.006 1609.476,799.232 1554.382,1015.622C1499.288,1232.01 1386.984,1429.588 1229.246,1587.634C1071.51,1745.68 874.154,1858.372 657.874,1913.892C441.594,1969.412 214.358,1965.712 0,1903.184C60.805,2110.606 174.572,2298.622 330.104,2448.73C485.636,2598.83 677.574,2705.85 887.024,2759.25C1096.476,2812.65 1316.222,2810.59 1524.634,2753.27C1733.048,2695.95 1922.946,2585.35 2075.64,2432.37C2228.32,2279.372 2338.56,2089.258 2395.46,1880.732C2452.36,1672.206 2454,1452.458 2400.18,1243.112C2346.38,1033.766 2238.98,842.04 2088.56,686.802C1938.16,531.565 1749.924,418.168 1542.382,357.77Z" transform="rotate(360 1219.686 1577.799)" fill="url(#pf_0_1_1284)"/>
</g>
<g opacity="0.7">
<path d="M1877.173,594.252C1914.421,643.629 1877.173,736.319 1790.545,801.288C1703.92,866.258 1604.733,878.82 1567.484,829.442C1530.234,780.066 1567.484,686.942 1654.11,621.973C1740.736,557.003 1839.489,544.875 1877.173,594.252Z" transform="rotate(360 1722.328 711.767)" fill="#FFFFFF"/>
</g>
<defs>
<linearGradient id="pf_0_1_1284" x1="1931.742" y1="2135.137" x2="-173.278" y2="497.899" gradientUnits="userSpaceOnUse">
<stop stop-color="#000000"/>
<stop offset="0.57" stop-color="#000000"/>
<stop offset="0.61" stop-color="#000000"/>
<stop offset="1" stop-color="#404040"/>
</linearGradient>
</defs>
</svg>
