<svg width="3482" height="3250" viewBox="0 0 3482 3250" fill="none" xmlns="http://www.w3.org/2000/svg" xmlns:xlink="http://www.w3.org/1999/xlink">
<path d="M3029.207,1227.972C3012.967,1180.478 2993.847,1134.02 2971.947,1088.854C2950.167,1043.69 3160.667,827.552 3133.247,785.616C3113.087,754.566 2856.627,896.91 2834.047,866.264C2801.167,823.716 2765.607,783.31 2727.587,745.292C2705.007,722.71 2877.187,378.342 2853.387,357.374C2790.487,304.146 2526.767,579.962 2454.187,539.638C2417.887,519.476 2428.787,331.566 2390.467,315.033C2360.227,301.726 2280.389,459.796 2248.531,448.91C2216.675,438.022 2177.561,427.134 2141.269,418.262C2119.495,413.02 2132.801,130.349 2110.623,126.317C2070.299,118.655 1989.651,391.65 1946.907,388.02C1916.261,386.004 1885.211,384.794 1853.759,384.794C1813.435,384.794 1746.899,134.785 1708.995,138.414C1636.009,145.269 1594.877,409.794 1525.923,428.748C1484.941,440.126 1444.565,453.586 1404.951,469.072C1362.207,485.604 1218.251,276.322 1177.927,297.694C1130.343,322.292 1186.797,579.962 1143.651,608.592C1121.875,623.512 1100.505,639.24 1079.939,655.772C1059.373,672.306 840.413,539.236 818.639,558.994C778.315,596.496 933.965,790.858 899.287,833.602C873.479,864.652 848.881,897.314 826.301,930.782C813.397,949.734 448.06,710.21 436.366,729.162C417.817,759.808 754.523,1049.336 738.797,1081.192C723.071,1113.048 708.151,1147.726 694.843,1182.002C683.955,1210.228 469.432,1186.84 460.561,1216.278C451.689,1245.714 647.261,1333.218 640.003,1365.88C632.745,1398.542 385.961,1381.204 381.525,1417.092C378.3,1440.882 617.017,1519.918 615.405,1544.516C613.791,1569.114 612.583,1598.146 612.583,1625.164C612.583,1641.696 386.768,1692.102 387.574,1708.634C387.574,1740.492 617.825,1738.072 621.453,1769.122C624.277,1793.718 627.905,1818.316 631.937,1842.512C638.389,1877.594 317.41,2039.696 326.685,2073.972C333.943,2100.586 670.245,1999.776 679.521,2025.986C684.763,2041.712 690.407,2057.036 696.053,2072.358C707.343,2100.988 719.441,2129.218 732.345,2156.638C745.249,2184.058 516.611,2330.838 533.547,2358.258C545.645,2379.218 804.525,2286.478 818.235,2307.038C836.381,2334.058 855.333,2360.678 875.495,2387.698C895.657,2414.718 752.103,2625.198 777.105,2651.418C802.105,2677.618 990.419,2516.318 1013.807,2537.698C1046.511,2567.918 1080.837,2596.318 1116.633,2622.778C1127.119,2630.438 1035.985,2930.458 1044.857,2937.718C1110.989,2983.678 1286.801,2730.858 1360.595,2763.118C1390.837,2776.418 1422.291,2788.518 1453.743,2799.398C1485.197,2810.298 1429.953,3088.518 1458.583,3095.778C1502.133,3107.078 1626.331,2845.378 1671.897,2853.838C1732.367,2862.858 1793.429,2867.298 1854.565,2867.138C1904.567,2867.138 1990.055,3230.058 2038.443,3225.638C2061.831,3222.798 2048.121,2852.218 2070.703,2848.198C2111.027,2841.338 2146.915,2832.878 2184.013,2822.798C2202.563,2817.558 2348.947,3049.018 2367.087,3042.958C2402.967,3031.678 2309.019,2781.258 2343.287,2766.738C2385.427,2748.658 2426.487,2728.198 2466.287,2705.438C2532.807,2667.938 2748.547,2812.298 2805.407,2763.118C2831.627,2740.938 2705.407,2529.638 2730.007,2505.038C2762.567,2472.538 2793.387,2438.358 2822.347,2402.618C2846.947,2371.958 3270.747,2491.738 3292.527,2458.658C3319.947,2418.338 2944.127,2222.358 2966.307,2176.398C3002.207,2104.142 3030.847,2028.498 3051.787,1950.58C3060.667,1919.53 3310.667,1966.71 3317.127,1934.046C3325.987,1886.464 3089.287,1758.638 3092.507,1709.038C3092.507,1681.618 3095.347,1653.392 3095.347,1625.568C3095.347,1566.694 3377.607,1461.044 3371.567,1404.592C3365.507,1361.444 3068.727,1366.686 3058.647,1323.942C3049.767,1292.894 3040.087,1260.23 3029.207,1227.972Z" fill="#FFDE3E"/>
<path d="M2323.536,869.891C2394.778,868.055 2465.224,854.429 2532.012,829.567C2388.684,707.495 2215.056,626.386 2029.456,594.802C1843.858,563.218 1653.174,582.332 1477.536,650.124C1715.046,833.599 2042.476,891.263 2323.536,869.891Z" fill="#FFF8C2"/>
<path d="M2620.716,1017.883C2639.984,1005.027 2660.69,994.471 2682.412,986.431C2637.908,929.387 2587.49,877.211 2532.004,830.779C2465.216,855.643 2394.77,869.269 2323.528,871.103C2041.26,892.475 1715.038,834.812 1476.722,652.547C1354.664,700.106 1242.533,769.983 1146.064,858.603C1564.226,1188.455 2080.374,1325.557 2620.716,1017.883Z" fill="#FFF39C"/>
<path d="M2844.922,1290.474C2807.446,1180.606 2751.986,1077.724 2680.802,986.027C2659.08,994.068 2638.374,1004.624 2619.106,1017.48C2080.376,1325.154 1564.228,1188.052 1146.873,856.184C1073.255,924.401 1009.713,1002.742 958.156,1088.854C1203.73,1169.502 1365.832,1430.4 1613.02,1520.322C2082.796,1721.942 2467.488,1534.84 2844.922,1290.474Z" fill="#FFEB73"/>
<path d="M1346.88,2319.947C1173.084,2223.169 1037.19,2063.889 865.41,1964.691C911.907,2100.958 986.057,2226.147 1083.21,2332.411C1180.362,2438.675 1298.42,2523.719 1429.984,2582.213C1561.548,2640.707 1703.778,2671.387 1847.756,2672.331C1991.734,2673.275 2134.354,2644.463 2266.674,2587.699C1952.146,2605.441 1622.698,2500.195 1346.88,2319.947Z" fill="#FFBE06"/>
<path d="M2862.663,1900.98C2313.453,2247.364 1539.633,2183.248 990.822,1699.359C939.207,1659.035 876.301,1661.454 809.363,1669.922C813.167,1770.757 831.781,1870.484 864.607,1965.902C1036.387,2065.098 1172.281,2224.378 1346.077,2321.156C1621.895,2499.39 1950.939,2606.652 2265.871,2588.908C2410.675,2526.502 2539.537,2432.236 2642.865,2313.128C2746.193,2194.022 2821.323,2053.144 2862.663,1900.98Z" fill="#FFC533"/>
<path d="M991.629,1698.151C1540.44,2182.039 2314.26,2247.365 2863.48,1899.771C2917.92,1699.335 2911.46,1487.227 2844.92,1290.473C2467.492,1534.837 2082.8,1721.941 1612.62,1520.725C1365.836,1430.801 1203.734,1169.501 958.159,1088.853C860.384,1251.087 808.793,1436.953 808.96,1626.373C808.96,1640.487 808.96,1654.197 808.96,1666.697C877.108,1660.245 940.014,1659.439 991.629,1698.151Z" fill="#FFDE3E"/>
<g opacity="0.5">
<path d="M1400.915,1030.382C1400.915,1085.222 1419.059,1224.744 1357.767,1250.956C1323.635,1265.05 1287.029,1272.18 1250.101,1271.924C1199.293,1271.924 981.139,1404.59 976.301,1267.488C976.301,1220.712 1094.047,1030.382 1140.823,1002.962C1177.115,981.186 1318.653,738.032 1451.319,742.468C1672.295,750.13 1400.915,974.734 1400.915,1030.382Z" fill="#FF7415"/>
</g>
<g opacity="0.5">
<path d="M2032.794,865.053C1990.454,900.135 1901.338,976.347 1834.804,971.509C1697.701,961.831 1777.14,846.101 1754.155,815.454C1721.492,775.13 1478.741,775.13 1581.971,686.82C1617.456,655.77 1836.82,619.479 1890.854,619.479C1968.68,619.479 2194.092,632.785 2274.336,738.032C2407.002,914.249 2075.942,829.971 2032.794,865.053Z" fill="#FF7415"/>
</g>
<g opacity="0.7">
<path d="M1325.111,996.512C1365.435,1030.787 1349.305,1114.258 1290.431,1183.211C1231.558,1252.167 1151.313,1280.394 1111.796,1246.118C1072.278,1211.842 1087.601,1128.775 1146.475,1059.82C1205.348,990.866 1285.593,962.639 1325.111,996.512Z" fill="#FFFFFF"/>
</g>
<g opacity="0.5">
<path d="M1565.44,897.716C1546.89,897.716 1510.599,943.282 1487.614,1048.528C1464.629,1153.775 1350.915,1221.921 1442.048,1308.619C1533.18,1395.315 1603.344,1513.869 1693.267,1518.707C1753.697,1520.797 1813.759,1508.507 1868.511,1482.849C1923.263,1457.191 1971.139,1418.897 2008.199,1371.121C2103.767,1252.569 2158.607,1147.725 2135.623,1069.901C2112.639,992.074 2099.331,873.924 2017.069,937.636C1934.809,1001.349 1930.373,1088.449 1807.385,1056.189C1684.395,1023.93 1747.705,960.621 1706.977,894.893C1666.251,829.165 1565.44,897.716 1565.44,897.716Z" fill="#FF7415"/>
</g>
<g opacity="0.5">
<path d="M962.594,1409.025C1014.862,1392.593 1069.128,1383.368 1123.889,1381.605C1252.121,1375.556 1187.603,1308.619 1310.995,1349.749C1434.385,1390.88 1502.533,1422.736 1520.679,1454.592C1538.825,1486.448 1657.781,1477.576 1625.925,1623.55C1594.069,1769.522 1552.939,1819.928 1438.821,1788.072C1324.705,1756.216 1333.575,1687.262 1210.587,1707.424C1087.599,1727.586 976.304,1855.01 935.173,1810.654C894.043,1766.296 875.897,1637.26 886.784,1577.984C897.672,1518.707 875.897,1472.738 962.594,1409.025Z" fill="#FF7415"/>
</g>
<g opacity="0.5">
<path d="M1209.376,1769.522C1194.86,1769.522 1035.579,1850.17 1035.579,1850.17C1035.579,1850.17 944.447,1886.865 976.303,1973.563C1008.159,2060.259 1012.998,2142.117 1081.549,2206.233C1150.1,2270.347 1117.841,2438.903 1268.652,2384.061C1419.464,2329.221 1591.246,2292.929 1515.032,2206.233C1464.308,2139.523 1396.44,2087.819 1318.654,2056.631C1209.376,2002.193 1238.006,1947.351 1273.088,1906.221C1308.17,1865.09 1437.61,2067.517 1501.322,2020.339C1565.034,1973.159 1662.62,1901.785 1615.44,1874.365C1568.26,1846.944 1560.6,1851.38 1460.192,1834.04C1359.786,1816.701 1346.074,1760.651 1209.376,1769.522Z" fill="#FF7415"/>
</g>
<g opacity="0.5">
<path d="M1820.689,1600.566C1820.689,1600.566 1756.977,1546.128 1699.717,1637.26C1642.456,1728.394 1562.615,1765.088 1619.069,1801.784C1675.522,1838.478 1705.765,1869.932 1696.894,1906.626C1688.023,1943.322 1591.648,1970.338 1719.476,2016.308C1847.303,2062.278 1933.999,2157.442 2042.069,2103.004C2150.137,2048.568 2292.885,1865.496 2343.289,1723.958C2393.695,1582.42 2416.277,1413.462 2334.015,1340.475C2251.753,1267.489 2124.329,1313.055 2055.779,1399.752C1985.035,1475.128 1906.195,1542.474 1820.689,1600.566Z" fill="#FF7415"/>
</g>
<g opacity="0.5">
<path d="M2427.973,824.728C2398.537,811.421 2347.325,797.308 2266.677,884.005C2186.028,970.701 2129.575,1002.961 2161.431,1075.947C2193.287,1148.933 2076.347,1217.485 2217.481,1240.067C2260.683,1243.441 2302.186,1258.355 2337.653,1283.253C2373.121,1308.151 2401.249,1342.119 2419.101,1381.603C2432.811,1413.459 2432.811,1583.225 2505.799,1550.563C2578.785,1517.899 2747.743,1244.501 2697.741,1125.949C2647.739,1007.396 2528.379,870.294 2427.973,824.728Z" fill="#FF7415"/>
</g>
<g opacity="0.5">
<path d="M1505.765,2089.295C1523.974,2070.622 1548.321,2059.164 1574.316,2057.035C1598.884,2050.283 1624.609,2048.841 1649.778,2052.804C1674.948,2056.767 1698.984,2066.045 1720.29,2080.02C1788.84,2120.344 1779.968,2175.992 1866.666,2180.427C1953.362,2184.863 2003.364,2153.007 2068.286,2180.427C2133.208,2207.848 2229.582,2239.704 2182.404,2353.82C2135.224,2467.938 2072.722,2586.492 1986.026,2595.766C1899.328,2605.04 1698.514,2582.056 1629.963,2591.33C1561.412,2600.604 1447.295,2527.214 1442.859,2481.648C1438.423,2436.082 1492.861,2394.952 1593.671,2376.806C1694.482,2358.66 1729.564,2290.108 1652.948,2235.268C1576.332,2180.427 1511.41,2134.861 1502.135,2125.586C1492.861,2116.312 1515.039,2103.005 1505.765,2089.295Z" fill="#FF7415"/>
</g>
<g opacity="0.5">
<path d="M2450.962,1623.549C2437.252,1627.985 2286.44,1774.361 2318.296,1911.059C2350.152,2047.759 2487.254,2107.439 2528.385,2038.887C2569.515,1970.337 2447.736,1902.189 2510.239,1801.781C2572.741,1701.375 2646.937,1714.681 2715.489,1623.549C2784.039,1532.416 2834.041,1413.46 2770.329,1409.025C2706.617,1404.589 2715.489,1500.157 2628.793,1550.562C2572.715,1582.054 2512.994,1606.565 2450.962,1623.549Z" fill="#FF7415"/>
</g>
<g opacity="0.5">
<path d="M2847.749,1623.551C2862.923,1692.207 2856.587,1763.871 2829.605,1828.8C2784.037,1920.336 2765.891,2070.746 2701.776,2061.874C2637.661,2053.002 2546.528,2016.308 2565.077,1915.9C2583.626,1815.494 2565.077,1788.074 2656.21,1742.104C2747.342,1696.134 2788.473,1664.681 2793.313,1641.697C2798.151,1618.712 2843.315,1536.854 2847.749,1623.551Z" fill="#FF7415"/>
</g>
<g opacity="0.5">
<path d="M2272.724,1988.887C2235.76,2009.961 2204.482,2039.716 2181.592,2075.584C2149.333,2130.021 2135.622,2153.006 2190.463,2207.846C2245.304,2262.688 2172.317,2312.69 2254.578,2326.4C2289.325,2331.392 2324.731,2329.094 2358.54,2319.652C2392.35,2310.212 2423.824,2293.832 2450.958,2271.56C2487.248,2239.704 2638.06,2121.15 2560.236,2110.263C2482.41,2099.375 2450.958,2165.103 2396.116,2119.537C2356.456,2081.558 2323.949,2036.758 2300.145,1987.274L2272.724,1988.887Z" fill="#FF7415"/>
</g>
<g opacity="0.5">
<path d="M2217.484,2394.949L2162.643,2490.921C2162.643,2490.921 2044.09,2605.038 2130.787,2591.328C2208.173,2583.908 2282.203,2556.078 2345.312,2510.68C2413.862,2460.275 2555.4,2392.127 2564.676,2341.722C2573.95,2291.317 2514.27,2286.881 2436.848,2323.576C2359.426,2360.271 2322.73,2419.547 2290.471,2404.224C2258.211,2388.901 2272.728,2394.949 2217.484,2394.949Z" fill="#FF7415"/>
</g>
<g opacity="0.5">
<path d="M2765.888,1185.226C2765.888,1185.226 2806.212,1263.051 2797.744,1294.907C2789.276,1326.763 2784.034,1371.12 2733.628,1371.12C2683.223,1371.12 2693.304,1339.264 2715.482,1307.408C2730.792,1283.789 2741.593,1257.539 2747.339,1229.985C2747.339,1229.985 2733.628,1194.5 2765.888,1185.226Z" fill="#FF7415"/>
</g>
<g opacity="0.5">
<path d="M2633.222,2111.877C2612.761,2132.487 2597.189,2157.43 2587.656,2184.863C2574.521,2213.565 2571.95,2245.986 2580.398,2276.399C2586.274,2279.902 2592.783,2282.211 2599.552,2283.194C2606.322,2284.178 2613.219,2283.816 2619.848,2282.131C2626.478,2280.445 2632.71,2277.469 2638.188,2273.371C2643.666,2269.274 2648.282,2264.137 2651.771,2258.253C2679.192,2212.687 2742.904,2153.411 2742.904,2125.99C2742.904,2098.57 2679.192,2085.666 2679.192,2085.666L2633.222,2111.877Z" fill="#FF7415"/>
</g>
<path d="M2515.073,266.239C2502.17,309.789 2563.463,326.725 2605.4,306.563C2623.709,297.007 2638.947,282.476 2649.363,264.642C2659.778,246.807 2664.946,226.395 2664.273,205.753C2661.047,165.429 2627.578,121.072 2588.06,155.348C2557.938,188.155 2533.293,225.598 2515.073,266.239Z" fill="#FF8500"/>
<g opacity="0.5">
<path d="M2550.964,269.063C2569.357,228.544 2594.135,191.24 2624.354,158.575C2628.498,154.897 2633.108,151.779 2638.064,149.301C2634.506,146.222 2630.37,143.882 2625.898,142.416C2621.427,140.951 2616.708,140.389 2612.018,140.764C2607.327,141.14 2602.758,142.444 2598.576,144.602C2594.394,146.76 2590.683,149.728 2587.659,153.333C2557.365,186.089 2532.581,223.538 2514.269,264.224C2504.188,298.097 2539.27,315.839 2575.159,313.017C2570.625,311.816 2566.382,309.708 2562.686,306.82C2558.99,303.933 2555.919,300.325 2553.657,296.217C2551.395,292.108 2549.991,287.583 2549.528,282.916C2549.065,278.249 2549.554,273.536 2550.964,269.063Z" fill="#FFFA94"/>
</g>
<path d="M3075.978,1129.175C3044.929,1162.644 3092.511,1205.388 3138.48,1207.001C3159.078,1206.576 3179.144,1200.38 3196.395,1189.117C3213.646,1177.854 3227.391,1161.976 3236.065,1143.288C3252.195,1102.964 3242.114,1048.124 3190.902,1062.64C3149.267,1078.499 3110.462,1100.965 3075.978,1129.175Z" fill="#FF8500"/>
<g opacity="0.5">
<path d="M3107.035,1147.323C3141.518,1119.113 3180.324,1096.647 3221.959,1080.788C3227.337,1079.25 3232.897,1078.437 3238.491,1078.369C3234.686,1069.66 3227.582,1062.817 3218.737,1059.339C3209.892,1055.862 3200.03,1056.035 3191.312,1059.82C3149.678,1075.678 3110.872,1098.145 3076.388,1126.355C3052.194,1152.162 3076.388,1183.615 3109.051,1197.325C3105.551,1194.227 3102.713,1190.453 3100.708,1186.231C3098.703,1182.009 3097.573,1177.424 3097.384,1172.754C3097.196,1168.083 3097.954,1163.423 3099.612,1159.053C3101.27,1154.683 3103.795,1150.693 3107.035,1147.323Z" fill="#FFFA94"/>
</g>
<path d="M973.074,282.37C932.75,258.982 901.7,313.823 909.362,359.389C913.786,379.305 923.678,397.592 937.925,412.195C952.172,426.798 970.209,437.139 990.01,442.053C1030.334,450.118 1083.965,428.746 1059.771,381.97C1036.385,344.347 1007.114,310.719 973.074,282.37Z" fill="#FF8500"/>
<g opacity="0.5">
<path d="M960.983,318.26C995.067,346.525 1024.463,380.005 1048.083,417.457C1050.724,422.395 1052.626,427.694 1053.729,433.184C1057.583,430.522 1060.872,427.123 1063.407,423.184C1065.941,419.245 1067.671,414.843 1068.495,410.232C1069.32,405.621 1069.224,400.893 1068.212,396.319C1067.2,391.746 1065.293,387.418 1062.6,383.585C1039.111,345.327 1009.558,311.143 975.097,282.371C944.854,264.225 918.643,293.259 912.191,328.744C914.649,324.788 917.879,321.368 921.688,318.687C925.497,316.006 929.807,314.121 934.361,313.142C938.915,312.164 943.619,312.113 948.193,312.992C952.767,313.871 957.117,315.663 960.983,318.26Z" fill="#FFFA94"/>
</g>
<path d="M1342.445,242.046C1363.413,267.853 1398.899,237.61 1404.544,204.947C1406.203,190.067 1403.687,175.018 1397.277,161.486C1390.868,147.955 1380.817,136.475 1368.252,128.332C1341.638,113.009 1300.508,114.622 1305.75,152.929C1313.126,184.41 1325.516,214.499 1342.445,242.046Z" fill="#FF8500"/>
<g opacity="0.5">
<path d="M1358.977,220.272C1342.113,192.739 1329.854,162.638 1322.685,131.156C1321.881,127.163 1321.881,123.051 1322.685,119.059C1319.349,119.942 1316.224,121.485 1313.495,123.597C1310.766,125.709 1308.488,128.347 1306.796,131.354C1305.104,134.362 1304.033,137.678 1303.645,141.107C1303.258,144.536 1303.562,148.008 1304.539,151.318C1311.618,183.335 1323.876,213.981 1340.831,242.047C1357.364,261.806 1381.155,248.096 1395.269,225.514C1392.568,227.622 1389.47,229.162 1386.16,230.041C1382.849,230.921 1379.395,231.122 1376.005,230.632C1372.615,230.142 1369.359,228.972 1366.432,227.192C1363.506,225.411 1360.97,223.058 1358.977,220.272Z" fill="#FFFA94"/>
</g>
<path d="M291.6,763.036C256.115,750.133 239.179,800.134 251.276,835.216C258.28,850.861 269.573,864.202 283.846,873.693C298.119,883.185 314.789,888.439 331.925,888.848C366.603,888.848 406.121,862.637 378.297,828.765C353.041,802.425 323.781,780.242 291.6,763.036Z" fill="#FF8500"/>
<g opacity="0.5">
<path d="M287.169,792.469C319.709,809.655 349.257,831.987 374.672,858.601C377.534,861.983 379.847,865.793 381.527,869.892C386.846,864.529 389.831,857.282 389.831,849.73C389.831,842.177 386.846,834.93 381.527,829.568C356.349,802.969 326.912,780.755 294.427,763.839C267.007,753.758 250.474,781.985 250.877,811.422C253.195,804.109 258.313,798.011 265.114,794.46C271.914,790.908 279.843,790.193 287.169,792.469Z" fill="#FFFA94"/>
</g>
<path d="M118.207,1395.72C80.706,1398.542 85.141,1450.964 111.755,1476.368C124.339,1487.857 139.941,1495.515 156.727,1498.444C173.513,1501.373 190.786,1499.45 206.517,1492.901C238.373,1478.787 263.777,1439.27 224.663,1419.511C190.665,1405.982 154.73,1397.951 118.207,1395.72Z" fill="#FF8500"/>
<g opacity="0.5">
<path d="M126.267,1424.751C162.856,1427.093 198.816,1435.401 232.723,1449.349C236.696,1451.375 240.361,1453.955 243.61,1457.01C245.008,1453.391 245.655,1449.525 245.512,1445.647C245.37,1441.77 244.441,1437.962 242.781,1434.455C241.122,1430.947 238.767,1427.814 235.859,1425.245C232.952,1422.676 229.553,1420.724 225.868,1419.509C192.341,1405.689 156.8,1397.382 120.622,1394.911C91.588,1394.911 87.959,1428.783 100.46,1455.801C100.071,1452.059 100.435,1448.278 101.528,1444.679C102.622,1441.081 104.424,1437.737 106.828,1434.844C109.232,1431.951 112.19,1429.568 115.529,1427.835C118.867,1426.102 122.518,1425.053 126.267,1424.751Z" fill="#FFFA94"/>
</g>
<path d="M467.417,2131.232C437.98,2154.62 471.046,2195.347 507.741,2202.605C524.645,2204.828 541.833,2202.22 557.318,2195.084C572.802,2187.949 585.951,2176.576 595.244,2162.281C613.39,2132.845 612.583,2086.069 569.033,2091.311C533.196,2098.938 498.863,2112.426 467.417,2131.232Z" fill="#FF8500"/>
<g opacity="0.5">
<path d="M490.394,2150.587C521.938,2131.6 556.413,2117.974 592.414,2110.263C596.813,2109.452 601.323,2109.452 605.721,2110.263C604.836,2106.476 603.188,2102.908 600.878,2099.779C598.568,2096.65 595.645,2094.024 592.286,2092.061C588.928,2090.099 585.205,2088.842 581.344,2088.366C577.484,2087.891 573.567,2088.207 569.833,2089.295C533.853,2097.076 499.39,2110.697 467.813,2129.619C444.828,2147.765 460.151,2176.395 485.152,2191.718C482.649,2188.735 480.79,2185.266 479.693,2181.529C478.595,2177.792 478.283,2173.869 478.775,2170.006C479.268,2166.143 480.554,2162.423 482.554,2159.081C484.553,2155.739 487.223,2152.848 490.394,2150.587Z" fill="#FFFA94"/>
</g>
<path d="M790.001,2806.257C770.645,2858.275 844.035,2884.486 896.456,2865.13C919.516,2855.168 939.308,2838.918 953.57,2818.239C967.831,2797.56 975.987,2773.285 977.105,2748.19C977.105,2696.575 940.006,2638.105 888.795,2678.026C849.284,2715.271 815.937,2758.553 790.001,2806.257Z" fill="#FF8500"/>
<g opacity="0.5">
<path d="M833.963,2813.114C859.765,2765.323 893.127,2722.02 932.757,2684.883C938.031,2680.719 943.869,2677.325 950.097,2674.802C946.078,2670.693 941.28,2667.428 935.982,2665.199C930.685,2662.97 924.996,2661.822 919.249,2661.822C913.502,2661.822 907.812,2662.97 902.515,2665.199C897.218,2667.428 892.419,2670.693 888.401,2674.802C848.664,2711.842 815.287,2755.163 789.607,2803.033C774.283,2843.357 815.414,2867.954 858.964,2867.954C853.523,2866.276 848.499,2863.466 844.222,2859.708C839.946,2855.949 836.514,2851.327 834.152,2846.146C831.79,2840.966 830.552,2835.344 830.52,2829.65C830.487,2823.957 831.661,2818.321 833.963,2813.114Z" fill="#FFFA94"/>
</g>
<path d="M1684.798,3064.736C1692.863,3093.366 1732.784,3082.075 1749.72,3057.074C1756.841,3045.713 1760.617,3032.577 1760.617,3019.17C1760.617,3005.762 1756.841,2992.625 1749.72,2981.265C1733.59,2958.683 1698.912,2944.973 1689.637,2978.442C1683.39,3006.759 1681.756,3035.898 1684.798,3064.736Z" fill="#FF8500"/>
<g opacity="0.5">
<path d="M1706.166,3053.845C1702.53,3025.113 1703.483,2995.985 1708.988,2967.551C1709.983,2964.125 1711.478,2960.864 1713.424,2957.874C1710.401,2957.358 1707.306,2957.452 1704.32,2958.15C1701.334,2958.849 1698.518,2960.138 1696.038,2961.942C1693.558,2963.746 1691.463,2966.028 1689.879,2968.653C1688.294,2971.278 1687.251,2974.194 1686.81,2977.229C1681.21,3006.06 1680.257,3035.601 1683.988,3064.732C1690.036,3086.911 1715.44,3084.895 1734.393,3071.185C1731.397,3072.086 1728.244,3072.344 1725.141,3071.941C1722.038,3071.538 1719.056,3070.483 1716.39,3068.845C1713.724,3067.208 1711.435,3065.025 1709.673,3062.439C1707.911,3059.854 1706.715,3056.925 1706.166,3053.845Z" fill="#FFFA94"/>
</g>
<path d="M1817.466,3229.257C1825.128,3257.887 1865.048,3246.193 1881.984,3221.596C1889.095,3210.157 1892.863,3196.958 1892.863,3183.489C1892.863,3170.021 1889.095,3156.821 1881.984,3145.383C1865.855,3123.205 1831.579,3109.091 1821.902,3142.56C1815.637,3171.015 1814.138,3200.312 1817.466,3229.257Z" fill="#FF8500"/>
<g opacity="0.5">
<path d="M1838.43,3218.37C1834.858,3189.619 1835.947,3160.48 1841.656,3132.076C1842.392,3128.436 1843.905,3124.997 1846.092,3121.995C1843.039,3121.482 1839.914,3121.59 1836.905,3122.314C1833.895,3123.037 1831.062,3124.361 1828.577,3126.207C1826.091,3128.052 1824.004,3130.38 1822.441,3133.052C1820.877,3135.724 1819.87,3138.684 1819.478,3141.754C1813.769,3170.158 1812.68,3199.297 1816.252,3228.048C1822.301,3250.63 1848.108,3248.21 1867.06,3234.903C1861.072,3236.504 1854.692,3235.663 1849.323,3232.562C1843.955,3229.462 1840.037,3224.357 1838.43,3218.37Z" fill="#FFFA94"/>
</g>
<path d="M1550.515,3226.03C1550.515,3255.87 1590.839,3255.87 1614.63,3236.917C1624.503,3227.788 1631.595,3216.056 1635.091,3203.071C1638.587,3190.087 1638.343,3176.379 1634.389,3163.527C1625.115,3137.317 1594.065,3114.735 1577.532,3143.769C1564.143,3169.55 1555.019,3197.33 1550.515,3226.03Z" fill="#FF8500"/>
<g opacity="0.5">
<path d="M1572.3,3221.998C1576.89,3193.886 1585.871,3166.671 1598.914,3141.349C1601.023,3138.397 1603.458,3135.692 1606.172,3133.284C1603.401,3131.935 1600.386,3131.157 1597.308,3130.996C1594.23,3130.835 1591.151,3131.295 1588.254,3132.348C1585.357,3133.401 1582.702,3135.027 1580.446,3137.127C1578.19,3139.228 1576.379,3141.761 1575.122,3144.575C1562.095,3169.939 1552.986,3197.131 1548.105,3225.224C1548.105,3248.208 1573.106,3253.45 1594.881,3245.386C1591.847,3245.388 1588.843,3244.778 1586.049,3243.593C1583.256,3242.408 1580.729,3240.672 1578.621,3238.489C1576.514,3236.306 1574.868,3233.721 1573.781,3230.887C1572.695,3228.054 1572.191,3225.03 1572.3,3221.998Z" fill="#FFFA94"/>
</g>
<path d="M18.202,1279.584C-7.202,1281.601 -4.379,1317.489 14.17,1336.038C22.902,1344.144 33.809,1349.53 45.554,1351.535C57.299,1353.54 69.374,1352.079 80.301,1347.329C102.076,1337.248 120.625,1310.231 92.802,1296.521C68.991,1286.955 43.81,1281.238 18.202,1279.584Z" fill="#FF8500"/>
<g opacity="0.5">
<path d="M23.85,1299.345C49.078,1301.2 73.85,1307.052 97.24,1316.684C100.066,1317.997 102.655,1319.768 104.902,1321.926C105.849,1319.416 106.276,1316.739 106.155,1314.058C106.034,1311.378 105.368,1308.75 104.199,1306.336C103.029,1303.921 101.38,1301.77 99.351,1300.013C97.323,1298.257 94.959,1296.931 92.401,1296.119C69.155,1286.476 44.514,1280.622 19.415,1278.779C-0.747,1278.779 -3.167,1302.57 5.301,1319.103C5.386,1314.094 7.332,1309.295 10.761,1305.643C14.19,1301.99 18.856,1299.745 23.85,1299.345Z" fill="#FFFA94"/>
</g>
<path d="M386.769,2482.453C368.22,2500.195 393.221,2526.406 419.029,2528.825C430.71,2529.468 442.333,2526.777 452.543,2521.066C462.753,2515.354 471.128,2506.857 476.692,2496.566C487.58,2475.194 483.95,2443.338 454.514,2449.387C430.298,2456.686 407.421,2467.852 386.769,2482.453Z" fill="#FF8500"/>
<g opacity="0.5">
<path d="M402.898,2494.553C423.689,2479.306 446.849,2467.59 471.449,2459.874C474.514,2459.295 477.66,2459.295 480.724,2459.874C478.904,2454.849 475.163,2450.752 470.324,2448.483C465.485,2446.215 459.943,2445.961 454.917,2447.777C430.695,2454.871 407.807,2465.906 387.172,2480.439C372.655,2494.149 384.753,2513.102 402.898,2520.763C399.611,2517.19 397.787,2512.513 397.787,2507.658C397.787,2502.803 399.611,2498.125 402.898,2494.553Z" fill="#FFFA94"/>
</g>
<path d="M3353.813,2382.049C3379.62,2382.049 3380.023,2346.563 3363.49,2326.401C3355.684,2317.776 3345.598,2311.534 3334.396,2308.394C3323.195,2305.255 3311.333,2305.347 3300.181,2308.659C3277.6,2316.321 3257.438,2341.321 3282.439,2357.854C3304.794,2369.66 3328.887,2377.827 3353.813,2382.049Z" fill="#FF8500"/>
<g opacity="0.5">
<path d="M3350.187,2361.883C3325.443,2358.11 3301.475,2350.347 3279.216,2338.899C3276.383,2337.438 3273.906,2335.373 3271.958,2332.85C3270.802,2335.256 3270.135,2337.869 3269.996,2340.535C3269.857,2343.201 3270.249,2345.868 3271.15,2348.382C3272.05,2350.895 3273.441,2353.204 3275.241,2355.176C3277.041,2357.148 3279.214,2358.742 3281.636,2359.867C3303.795,2371.876 3327.768,2380.185 3352.606,2384.465C3372.768,2384.465 3377.607,2363.093 3370.752,2344.141C3370.339,2349.206 3367.952,2353.905 3364.104,2357.225C3360.256,2360.545 3355.257,2362.218 3350.187,2361.883Z" fill="#FFFA94"/>
</g>
<path d="M3331.228,1267.085C3354.616,1255.391 3337.679,1223.535 3313.485,1213.453C3302.51,1209.632 3290.683,1208.966 3279.349,1211.532C3268.015,1214.098 3257.628,1219.794 3249.37,1227.97C3232.837,1245.713 3227.191,1277.166 3257.434,1279.585C3282.551,1279.485 3307.48,1275.262 3331.228,1267.085Z" fill="#FF8500"/>
<g opacity="0.5">
<path d="M3318.73,1250.148C3294.838,1258.306 3269.78,1262.528 3244.534,1262.649C3241.459,1263.107 3238.333,1263.107 3235.259,1262.649C3235.572,1268.033 3237.987,1273.079 3241.985,1276.699C3245.982,1280.32 3251.242,1282.225 3256.631,1282.004C3281.894,1281.704 3306.946,1277.348 3330.827,1269.101C3348.57,1260.229 3342.521,1238.858 3327.601,1225.147C3329.488,1229.673 3329.625,1234.738 3327.985,1239.358C3326.346,1243.979 3323.047,1247.824 3318.73,1250.148Z" fill="#FFFA94"/>
</g>
<path d="M3336.069,1748.957C3361.473,1744.925 3355.424,1708.633 3336.069,1692.503C3326.85,1685.31 3315.778,1680.884 3304.141,1679.742C3292.504,1678.6 3280.782,1680.788 3270.34,1686.052C3249.372,1697.342 3234.049,1726.376 3261.469,1737.263C3285.551,1745.121 3310.737,1749.069 3336.069,1748.957Z" fill="#FF8500"/>
<g opacity="0.5">
<path d="M3328.808,1729.602C3303.61,1729.692 3278.56,1725.744 3254.612,1717.908C3251.613,1716.879 3248.865,1715.231 3246.547,1713.07C3245.813,1715.638 3245.596,1718.326 3245.91,1720.979C3246.224,1723.632 3247.062,1726.196 3248.375,1728.522C3249.688,1730.848 3251.45,1732.89 3253.559,1734.529C3255.668,1736.168 3258.082,1737.372 3260.66,1738.07C3284.609,1745.906 3309.659,1749.854 3334.857,1749.764C3354.615,1746.942 3355.825,1724.36 3345.744,1706.618C3346.202,1709.246 3346.122,1711.94 3345.51,1714.537C3344.899,1717.133 3343.768,1719.579 3342.185,1721.727C3340.602,1723.875 3338.601,1725.68 3336.302,1727.033C3334.003,1728.387 3331.454,1729.261 3328.808,1729.602Z" fill="#FFFA94"/>
</g>
<path d="M3179.212,2123.974C3194.939,2123.974 3195.342,2102.602 3185.664,2090.102C3180.577,2084.779 3174.13,2080.95 3167.022,2079.03C3159.913,2077.111 3152.415,2077.175 3145.34,2079.214C3131.227,2084.053 3119.129,2099.376 3134.452,2109.054C3148.408,2116.554 3163.548,2121.601 3179.212,2123.974Z" fill="#FF8500"/>
<g opacity="0.5">
<path d="M3177.193,2111.873C3162.134,2109.131 3147.583,2104.099 3134.047,2096.953C3132.412,2095.948 3130.92,2094.728 3129.611,2093.324C3128.938,2094.779 3128.56,2096.353 3128.5,2097.954C3128.44,2099.556 3128.699,2101.153 3129.262,2102.654C3129.825,2104.155 3130.68,2105.529 3131.778,2106.696C3132.876,2107.863 3134.196,2108.801 3135.659,2109.454C3149.116,2116.783 3163.697,2121.825 3178.806,2124.374C3190.903,2124.374 3193.726,2111.47 3189.694,2099.776C3189.695,2101.399 3189.369,2103.006 3188.736,2104.501C3188.103,2105.995 3187.176,2107.347 3186.009,2108.476C3184.843,2109.605 3183.461,2110.487 3181.947,2111.071C3180.432,2111.654 3178.816,2111.927 3177.193,2111.873Z" fill="#FFFA94"/>
</g>
<path d="M3339.296,2255.431C3355.022,2255.431 3355.425,2233.656 3345.344,2221.558C3340.46,2215.95 3334.018,2211.92 3326.838,2209.981C3319.658,2208.042 3312.064,2208.282 3305.02,2210.671C3291.31,2215.106 3279.213,2230.43 3294.536,2240.511C3308.491,2248.011 3323.631,2253.058 3339.296,2255.431Z" fill="#FF8500"/>
<g opacity="0.5">
<path d="M3337.277,2242.929C3322.168,2240.38 3307.587,2235.338 3294.131,2228.009C3292.496,2227.004 3291.004,2225.783 3289.695,2224.38C3288.291,2227.327 3288.095,2230.707 3289.15,2233.796C3290.205,2236.886 3292.427,2239.44 3295.341,2240.913C3308.949,2248.223 3323.659,2253.262 3338.89,2255.833C3350.988,2255.833 3353.81,2242.929 3349.778,2231.235C3349.782,2232.841 3349.455,2234.431 3348.817,2235.905C3348.18,2237.379 3347.246,2238.705 3346.073,2239.803C3344.9,2240.9 3343.514,2241.744 3342.001,2242.282C3340.487,2242.819 3338.88,2243.04 3337.277,2242.929Z" fill="#FFFA94"/>
</g>
<path d="M3467.524,1785.251C3483.25,1785.251 3483.653,1763.476 3473.572,1751.379C3468.688,1745.77 3462.246,1741.74 3455.066,1739.801C3447.886,1737.863 3440.292,1738.103 3433.248,1740.491C3419.538,1745.33 3407.441,1760.25 3422.764,1770.331C3436.719,1777.831 3451.859,1782.878 3467.524,1785.251Z" fill="#FF8500"/>
<g opacity="0.5">
<path d="M3465.112,1774.364C3449.88,1771.794 3435.17,1766.755 3421.562,1759.445C3419.942,1758.581 3418.558,1757.335 3417.529,1755.815C3416.779,1757.265 3416.329,1758.851 3416.208,1760.479C3416.087,1762.107 3416.296,1763.742 3416.824,1765.287C3417.351,1766.831 3418.185,1768.253 3419.277,1769.467C3420.368,1770.68 3421.694,1771.661 3423.175,1772.348C3436.75,1779.734 3451.473,1784.777 3466.725,1787.268C3478.822,1787.268 3481.644,1774.364 3477.612,1762.67C3477.616,1764.276 3477.289,1765.866 3476.651,1767.34C3476.014,1768.814 3475.08,1770.141 3473.907,1771.238C3472.734,1772.335 3471.348,1773.179 3469.835,1773.717C3468.321,1774.255 3466.714,1774.475 3465.112,1774.364Z" fill="#FFFA94"/>
</g>
<path d="M2925.567,675.933C2936.051,664.239 2919.115,649.723 2903.389,649.723C2896.307,649.978 2889.442,652.234 2883.59,656.231C2877.738,660.228 2873.138,665.801 2870.323,672.304C2865.081,686.014 2870.323,704.967 2886.453,699.724C2900.664,693.907 2913.865,685.877 2925.567,675.933Z" fill="#FF8500"/>
<g opacity="0.5">
<path d="M2914.688,669.479C2902.734,679.696 2889.087,687.747 2874.364,693.27C2872.501,693.65 2870.581,693.65 2868.718,693.27C2870.196,696.184 2872.725,698.429 2875.793,699.552C2878.862,700.674 2882.242,700.591 2885.251,699.319C2899.888,693.616 2913.506,685.582 2925.575,675.527C2933.64,666.253 2925.575,655.769 2913.478,651.333C2914.97,652.285 2916.218,653.575 2917.12,655.098C2918.021,656.62 2918.553,658.334 2918.67,660.1C2918.788,661.866 2918.489,663.635 2917.797,665.264C2917.105,666.893 2916.04,668.337 2914.688,669.479Z" fill="#FFFA94"/>
</g>
<path d="M3077.994,652.947C3088.075,641.253 3071.542,626.736 3055.816,626.736C3048.734,626.992 3041.869,629.248 3036.017,633.245C3030.165,637.241 3025.565,642.814 3022.75,649.318C3017.508,663.028 3022.75,682.384 3038.88,676.738C3053.091,670.921 3066.292,662.891 3077.994,652.947Z" fill="#FF8500"/>
<g opacity="0.5">
<path d="M3067.104,645.286C3055.034,655.341 3041.417,663.375 3026.78,669.078L3021.134,669.078C3022.612,671.992 3025.141,674.237 3028.209,675.359C3031.278,676.482 3034.658,676.399 3037.667,675.126C3052.356,669.531 3065.99,661.487 3077.991,651.335C3086.459,642.061 3077.992,631.576 3066.298,627.141C3067.697,628.176 3068.847,629.51 3069.664,631.047C3070.482,632.583 3070.946,634.283 3071.024,636.021C3071.101,637.76 3070.789,639.494 3070.111,641.097C3069.433,642.7 3068.406,644.131 3067.104,645.286Z" fill="#FFFA94"/>
</g>
<path d="M3067.516,524.314C3081.63,508.184 3058.645,488.426 3036.87,488.022C3027.059,488.347 3017.548,491.484 3009.47,497.06C3001.391,502.636 2995.086,510.417 2991.304,519.475C2984.045,538.024 2991.303,564.235 3013.482,556.977C3033.097,548.994 3051.332,537.972 3067.516,524.314Z" fill="#FF8500"/>
<g opacity="0.5">
<path d="M3052.182,513.831C3036.315,527.72 3018.173,538.769 2998.551,546.494C2996.025,547.027 2993.416,547.027 2990.89,546.494C2991.841,548.508 2993.18,550.315 2994.83,551.81C2996.481,553.306 2998.41,554.462 3000.507,555.211C3002.605,555.96 3004.83,556.288 3007.054,556.176C3009.279,556.064 3011.459,555.515 3013.471,554.559C3032.847,547.404 3050.954,537.194 3067.102,524.316C3078.393,511.815 3067.102,497.299 3050.973,491.25C3052.566,492.633 3053.865,494.323 3054.791,496.219C3055.718,498.114 3056.254,500.177 3056.367,502.284C3056.48,504.391 3056.167,506.499 3055.449,508.483C3054.73,510.467 3053.619,512.286 3052.182,513.831Z" fill="#FFFA94"/>
</g>
<path d="M2765.887,242.046C2773.549,228.336 2753.79,218.255 2738.467,221.884C2731.668,223.841 2725.561,227.681 2720.851,232.962C2716.142,238.242 2713.023,244.746 2711.853,251.724C2709.837,266.241 2718.305,283.984 2733.628,274.709C2746.106,265.672 2757.006,254.636 2765.887,242.046Z" fill="#FF8500"/>
<g opacity="0.5">
<path d="M2754.197,239.221C2745.227,251.621 2734.337,262.511 2721.938,271.481C2720.201,271.746 2718.433,271.746 2716.696,271.481C2717.792,272.692 2719.13,273.66 2720.623,274.322C2722.116,274.985 2723.732,275.327 2725.366,275.327C2726.999,275.327 2728.615,274.985 2730.108,274.322C2731.601,273.66 2732.939,272.692 2734.035,271.481C2746.534,262.628 2757.442,251.721 2766.294,239.221C2771.94,228.334 2761.052,219.866 2748.955,218.656C2751.057,219.196 2752.975,220.291 2754.509,221.827C2756.042,223.363 2757.134,225.283 2757.67,227.386C2758.206,229.489 2758.166,231.697 2757.555,233.779C2756.944,235.862 2755.784,237.742 2754.197,239.221Z" fill="#FFFA94"/>
</g>
<path d="M717.822,756.583C731.936,763.841 741.614,744.082 737.984,728.759C735.998,721.905 732.097,715.761 726.74,711.046C721.383,706.332 714.792,703.244 707.741,702.145C693.628,700.129 675.885,708.597 685.563,724.324C694.416,736.823 705.323,747.731 717.822,756.583Z" fill="#FF8500"/>
<g opacity="0.5">
<path d="M721.459,744.485C708.87,735.603 697.834,724.703 688.797,712.225C687.665,710.647 686.844,708.868 686.377,706.983C684.873,708.022 683.624,709.388 682.724,710.978C681.824,712.569 681.296,714.343 681.18,716.166C681.063,717.99 681.362,719.817 682.052,721.509C682.743,723.201 683.808,724.714 685.167,725.936C694.205,738.414 705.241,749.313 717.83,758.195C728.314,763.84 736.782,752.953 737.992,740.856C737.171,742.208 736.084,743.381 734.796,744.301C733.509,745.221 732.048,745.871 730.502,746.21C728.957,746.549 727.358,746.571 725.804,746.275C724.249,745.978 722.771,745.369 721.459,744.485Z" fill="#FFFA94"/>
</g>
<path d="M3099.769,2814.725C3111.06,2825.613 3126.383,2809.483 3127.19,2793.757C3127.221,2786.61 3125.231,2779.599 3121.45,2773.535C3117.668,2767.47 3112.249,2762.598 3105.818,2759.481C3092.511,2753.836 3073.156,2756.659 3077.591,2774.401C3082.86,2788.906 3090.341,2802.508 3099.769,2814.725Z" fill="#FF8500"/>
<g opacity="0.5">
<path d="M3106.628,2803.838C3097.115,2791.676 3089.626,2778.06 3084.45,2763.514C3084.281,2761.636 3084.281,2759.746 3084.45,2757.868C3082.951,2758.483 3081.59,2759.393 3080.45,2760.544C3079.309,2761.695 3078.411,2763.063 3077.81,2764.567C3077.208,2766.072 3076.915,2767.682 3076.947,2769.302C3076.979,2770.922 3077.336,2772.519 3077.998,2773.998C3082.97,2788.554 3090.329,2802.181 3099.773,2814.322C3108.644,2822.79 3119.935,2814.322 3124.774,2803.434C3123.708,2804.808 3122.349,2805.926 3120.796,2806.708C3119.243,2807.49 3117.535,2807.915 3115.797,2807.954C3114.059,2807.993 3112.334,2807.643 3110.748,2806.931C3109.161,2806.219 3107.754,2805.162 3106.628,2803.838Z" fill="#FFFA94"/>
</g>
<path d="M2513.459,2865.13C2524.75,2876.421 2539.67,2860.291 2540.476,2844.161C2540.432,2837.083 2538.407,2830.159 2534.63,2824.172C2530.852,2818.186 2525.474,2813.377 2519.105,2810.289C2505.798,2804.644 2486.442,2807.466 2491.281,2825.209C2496.496,2839.614 2503.984,2853.092 2513.459,2865.13Z" fill="#FF8500"/>
<g opacity="0.5">
<path d="M2519.911,2854.646C2510.467,2842.505 2503.108,2828.878 2498.136,2814.322C2497.767,2812.458 2497.767,2810.54 2498.136,2808.677C2496.601,2809.252 2495.2,2810.134 2494.016,2811.267C2492.832,2812.401 2491.892,2813.763 2491.251,2815.272C2490.609,2816.78 2490.282,2818.403 2490.287,2820.042C2490.292,2821.681 2490.63,2823.302 2491.281,2824.806C2496.457,2839.353 2503.946,2852.969 2513.459,2865.131C2522.331,2873.599 2533.218,2865.13 2538.057,2854.243C2536.991,2855.616 2535.632,2856.735 2534.079,2857.516C2532.526,2858.298 2530.818,2858.724 2529.08,2858.763C2527.342,2858.801 2525.617,2858.452 2524.031,2857.74C2522.445,2857.028 2521.037,2855.971 2519.911,2854.646Z" fill="#FFFA94"/>
</g>
<path d="M2547.74,2986.103C2520.723,2957.473 2480.802,2995.781 2476.77,3035.298C2476.01,3053.12 2480.252,3070.798 2489.018,3086.333C2497.783,3101.869 2510.721,3114.641 2526.369,3123.205C2559.031,3139.334 2607.017,3134.092 2598.146,3088.929C2587.022,3052.151 2569.998,3017.424 2547.74,2986.103Z" fill="#FF8500"/>
<g opacity="0.5">
<path d="M2529.595,3011.909C2551.994,3043.202 2569.155,3077.931 2580.403,3114.735C2581.382,3119.388 2581.382,3124.195 2580.403,3128.848C2584.437,3127.651 2588.172,3125.614 2591.363,3122.872C2594.553,3120.129 2597.128,3116.743 2598.918,3112.935C2600.708,3109.127 2601.672,3104.983 2601.748,3100.776C2601.823,3096.569 2601.008,3092.394 2599.355,3088.524C2588.265,3051.608 2571.241,3016.742 2548.95,2985.295C2527.982,2963.116 2499.351,2981.262 2485.641,3009.086C2488.627,3006.214 2492.179,3003.994 2496.069,3002.57C2499.96,3001.146 2504.105,3000.547 2508.24,3000.813C2512.374,3001.078 2516.409,3002.202 2520.085,3004.112C2523.762,3006.023 2527,3008.678 2529.595,3011.909Z" fill="#FFFA94"/>
</g>
<path d="M2972.352,2557.862C2937.27,2539.716 2912.269,2588.911 2921.543,2627.622C2926.517,2644.718 2936.245,2660.048 2949.595,2671.828C2962.946,2683.607 2979.368,2691.351 2996.95,2694.157C3033.241,2698.996 3077.598,2677.624 3053.807,2638.51C3031.13,2607.455 3003.631,2580.228 2972.352,2557.862Z" fill="#FF8500"/>
<g opacity="0.5">
<path d="M2963.473,2588.103C2994.514,2610.477 3021.746,2637.709 3044.121,2668.751C3046.361,2672.886 3048.25,2677.203 3049.766,2681.654C3052.939,2679.147 3055.577,2676.029 3057.524,2672.485C3059.471,2668.94 3060.687,2665.041 3061.1,2661.018C3061.514,2656.996 3061.116,2652.93 3059.932,2649.064C3058.747,2645.197 3056.798,2641.608 3054.202,2638.508C3031.893,2607.41 3004.651,2580.169 2973.554,2557.859C2946.536,2543.343 2925.568,2570.36 2921.939,2601.006C2923.723,2597.342 2926.238,2594.083 2929.329,2591.428C2932.421,2588.774 2936.024,2586.78 2939.915,2585.571C2943.806,2584.362 2947.904,2583.963 2951.956,2584.399C2956.007,2584.834 2959.927,2586.094 2963.473,2588.103Z" fill="#FFFA94"/>
</g>
<path d="M739.602,264.628C709.359,246.079 685.164,288.823 690.003,322.695C693.548,338.322 701.393,352.646 712.651,364.047C723.91,375.449 738.134,383.473 753.715,387.214C785.974,393.262 826.702,376.73 807.75,340.438C789.313,311.626 766.294,286.019 739.602,264.628Z" fill="#FF8500"/>
<g opacity="0.5">
<path d="M729.927,291.242C756.808,313.022 779.962,339.036 798.478,368.261C800.542,372.017 801.908,376.115 802.51,380.358C805.781,378.305 808.581,375.584 810.727,372.374C812.873,369.164 814.316,365.537 814.964,361.73C815.611,357.924 815.447,354.023 814.482,350.284C813.517,346.545 811.774,343.052 809.366,340.034C791.035,310.792 768.01,284.77 741.218,263.015C717.427,248.498 697.264,271.483 692.022,298.903C693.978,295.877 696.52,293.272 699.497,291.243C702.475,289.214 705.829,287.8 709.36,287.087C712.893,286.373 716.532,286.372 720.064,287.086C723.596,287.8 726.949,289.213 729.927,291.242Z" fill="#FFFA94"/>
</g>
<path d="M1862.627,137.202C1854.965,118.653 1828.755,129.943 1819.48,148.492C1815.557,157.199 1814.232,166.854 1815.662,176.296C1817.093,185.738 1821.219,194.566 1827.545,201.72C1840.449,215.43 1865.046,221.479 1867.869,198.091C1869.538,177.644 1867.766,157.062 1862.627,137.202Z" fill="#FF8500"/>
<g opacity="0.5">
<path d="M1849.323,146.477C1854.284,165.819 1856.055,185.841 1854.565,205.753C1854.252,208.183 1853.427,210.52 1852.145,212.608C1854.264,212.662 1856.372,212.297 1858.349,211.536C1860.327,210.775 1862.135,209.631 1863.67,208.171C1865.206,206.71 1866.438,204.961 1867.298,203.024C1868.157,201.087 1868.626,199 1868.678,196.882C1869.912,177.058 1867.869,157.167 1862.63,138.009C1856.581,123.089 1839.645,127.121 1827.951,138.009C1829.889,137.022 1832.014,136.459 1834.186,136.357C1836.358,136.255 1838.527,136.617 1840.549,137.418C1842.57,138.219 1844.398,139.441 1845.911,141.003C1847.424,142.565 1848.587,144.431 1849.323,146.477Z" fill="#FFFA94"/>
</g>
<path d="M1988.439,19.053C1988.439,-7.561 1948.115,-3.932 1929.969,15.424C1922.001,24.487 1916.752,35.614 1914.826,47.526C1912.9,59.439 1914.375,71.654 1919.081,82.765C1929.565,105.347 1959.406,123.089 1971.503,95.266C1981.386,70.992 1987.111,45.228 1988.439,19.053Z" fill="#FF8500"/>
<g opacity="0.5">
<path d="M1967.872,25.104C1966.612,51.247 1961.025,77.001 1951.339,101.316C1949.748,104.197 1947.856,106.901 1945.693,109.381C1948.311,110.322 1951.092,110.722 1953.869,110.558C1956.645,110.393 1959.36,109.666 1961.848,108.423C1964.336,107.179 1966.545,105.443 1968.343,103.32C1970.141,101.198 1971.489,98.733 1972.307,96.074C1982.153,71.93 1987.878,46.304 1989.243,20.265C1989.243,-0.704 1964.646,-2.72 1945.693,6.151C1948.406,5.875 1951.147,6.151 1953.751,6.964C1956.354,7.777 1958.765,9.11 1960.838,10.881C1962.911,12.653 1964.604,14.827 1965.813,17.272C1967.022,19.716 1967.722,22.381 1967.872,25.104Z" fill="#FFFA94"/>
</g>
<g opacity="0.2">
<path d="M2165.866,631.979C2211.386,787.827 2219.988,952.133 2190.992,1111.881C2161.994,1271.629 2096.194,1422.431 1998.802,1552.337C1901.412,1682.243 1775.108,1787.685 1629.898,1860.307C1484.686,1932.931 1324.558,1970.739 1162.198,1970.739C1063.052,1971.419 964.323,1957.839 869.042,1930.415C920.224,2104.505 1015.83,2262.279 1146.46,2388.225C1277.092,2514.171 1438.252,2603.953 1614.094,2648.739C1789.936,2693.539 1974.408,2691.799 2149.374,2643.699C2324.34,2595.589 2483.776,2502.779 2612.006,2374.389C2740.236,2245.999 2832.846,2086.449 2880.742,1911.425C2928.622,1736.399 2930.122,1551.925 2885.122,1376.137C2840.11,1200.351 2750.128,1039.303 2624.02,908.829C2497.912,778.354 2340.02,682.944 2165.866,631.979Z" fill="url(#pf_0_1_1810)"/>
</g>
<defs>
<linearGradient id="pf_0_1_1810" x1="1811.82" y1="1588.468" x2="2860.651" y2="2404.225" gradientUnits="userSpaceOnUse">
<stop stop-color="#FF3B00"/>
<stop offset="1" stop-color="#FF8D00"/>
</linearGradient>
</defs>
</svg>
