<svg width="2380" height="2176" viewBox="0 0 2380 2176" fill="none" xmlns="http://www.w3.org/2000/svg" xmlns:xlink="http://www.w3.org/1999/xlink">
<path d="M1290.845,645.295L1276.267,648.484C1253.407,654.64 1230.964,662.248 1209.073,671.262C1196.317,676.729 1183.334,682.651 1171.034,689.256C1158.734,695.862 1146.662,702.695 1134.817,710.212C1192.9,712.034 1259.184,690.167 1290.845,645.295Z" transform="rotate(316.438 1212.831 677.806)" fill="#FFF871"/>
<path d="M1372.576,632.836C1361.87,632.836 1351.392,634.658 1341.142,635.797C1322.906,638.27 1304.812,641.691 1286.932,646.047C1255.271,691.603 1188.076,712.786 1130.904,711.419L1122.932,716.203C1100.91,730.829 1080.045,747.125 1060.52,764.947C1174.409,817.564 1316.998,745.586 1372.576,632.836Z" transform="rotate(316.438 1216.548 707.668)" fill="#FFA727"/>
<path d="M1435.275,630.44L1412.497,630.44C1402.247,630.44 1391.997,630.44 1381.975,630.44C1326.397,743.19 1183.808,815.168 1069.919,762.551C1051.558,779.614 1034.432,797.959 1018.669,817.446C1168.091,884.868 1365.575,785.557 1435.275,630.44Z" transform="rotate(316.438 1226.972 734.679)" fill="#9E713B"/>
<path d="M1317.739,851.898C1380.151,799.737 1442.789,729.809 1471.033,652.364C1460.101,649.859 1448.255,647.581 1437.779,645.759L1415.001,642.798C1404.523,642.798 1393.817,640.975 1383.111,640.52C1313.411,795.637 1115.928,894.948 967.189,827.981C959.445,837.548 951.928,847.57 944.411,857.592C1055.567,939.592 1217.061,919.092 1317.739,851.898Z" transform="rotate(316.438 1207.723 775.82)" fill="#B75F00"/>
<path d="M1537.531,648.298C1530.697,646.704 1523.863,644.882 1517.031,643.515C1488.559,720.96 1425.919,790.887 1363.735,843.049C1263.057,910.243 1101.108,930.743 990.635,848.743C986.991,853.755 983.347,858.993 980.158,864.231C971.502,877.443 963.758,891.337 956.241,905.687C951.23,915.481 946.446,925.731 941.891,935.981L937.791,946.231C1176.957,1031.877 1451.431,890.881 1537.531,648.298Z" transform="rotate(316.438 1237.661 807.469)" fill="#FFA727"/>
<path d="M1574.627,682.992C1551.207,672.57 1527.079,663.817 1502.423,656.798L1498.095,655.659C1411.995,898.471 1137.521,1039.465 898.355,953.821C891.67,969.497 885.89,985.543 881.044,1001.881C878.994,1008.259 877.4,1015.093 875.805,1021.699C1153.239,1099.827 1485.795,951.315 1574.627,682.992Z" transform="rotate(316.438 1225.217 849.07)" fill="#FFF871"/>
<path d="M1604.65,723.206C1586.052,711.242 1566.644,700.587 1546.566,691.317L1542.012,689.267C1453.178,957.589 1120.622,1106.101 843.189,1028.883C841.822,1033.667 840.455,1038.451 839.316,1043.235C835.9,1058.951 833.394,1075.123 831.344,1091.295C1132.694,1170.335 1436.322,983.783 1604.65,723.206Z" transform="rotate(316.438 1217.997 899.446)" fill="#FFA727"/>
<path d="M1633.089,772.634C1623.065,764.207 1613.043,756.007 1602.339,748.262C1591.633,740.518 1583.661,735.279 1573.865,729.129C1405.537,989.707 1101.909,1176.257 800.559,1097.219C799.193,1108.151 797.826,1119.997 797.143,1130.247C796.459,1140.497 797.143,1149.151 797.143,1158.491C797.143,1163.957 797.143,1169.197 797.143,1174.435C797.143,1179.675 797.143,1182.635 797.143,1186.735C1112.615,1265.775 1472.733,1066.923 1633.089,772.634Z" transform="rotate(316.438 1214.964 966.645)" fill="#9E713B"/>
<path d="M1655.95,814.488C1654.356,812.893 1653.218,811.299 1651.85,809.704C1640.234,797.86 1629.072,786.927 1615.634,775.993C1455.278,1070.283 1095.16,1269.133 780.144,1190.093C780.144,1196.927 780.144,1203.533 781.51,1210.365C782.877,1223.577 784.699,1236.561 786.977,1249.543C788.344,1258.199 790.166,1266.855 792.216,1275.283C1128.872,1328.811 1493.772,1111.965 1655.95,814.488Z" transform="rotate(316.438 1218.047 1029.709)" fill="#B75F00"/>
<path d="M1669.142,873.619C1655.842,854.905 1641.308,837.099 1625.636,820.319C1463.458,1117.797 1098.558,1334.641 761.902,1281.113C763.496,1287.947 765.091,1294.553 766.913,1301.159C772.242,1320.979 778.784,1340.451 786.502,1359.469C787.203,1360.793 787.812,1362.163 788.324,1363.569C1054.596,1417.097 1301.508,1295.237 1486.692,1109.141C1554.518,1036.323 1615.586,957.492 1669.142,873.619Z" transform="rotate(316.438 1215.522 1098.284)" fill="#FFF871"/>
<path d="M1671.518,1014.61C1664.276,993.245 1655.6,972.394 1645.55,952.198C1635.966,933.193 1625.242,914.785 1613.434,897.076L1605.234,885.915C1551.75,969.779 1490.76,1048.61 1423.012,1121.437C1237.828,1306.393 990.234,1429.393 724.644,1375.865C730.339,1389.305 736.716,1402.743 743.55,1415.727C752.502,1432.735 762.388,1449.237 773.161,1465.155C1141.25,1519.593 1466.062,1310.721 1671.518,1014.61Z" transform="rotate(316.438 1198.081 1179.858)" fill="#FFA727"/>
<path d="M1626.643,1189.717C1626.409,1156.877 1622.899,1124.143 1616.165,1092C1614.571,1084.255 1612.749,1076.283 1610.699,1069.222C1476.537,1380.138 1091.593,1567.372 754.481,1547.556C762.909,1556.44 771.792,1565.094 780.903,1573.294C794.439,1585.344 808.661,1596.6 823.498,1607.006C1136.465,1618.622 1415.721,1468.516 1624.365,1242.561C1625.733,1227.072 1626.871,1211.583 1626.871,1195.639C1626.871,1192.678 1626.643,1191.083 1626.643,1189.717Z" transform="rotate(316.438 1190.676 1338.429)" fill="#FFA727"/>
<path d="M801.123,1609.488C807.728,1614.5 814.334,1619.284 821.167,1623.838C842.241,1637.626 864.322,1649.808 887.223,1660.284L899.067,1665.294C1157.367,1644.794 1434.573,1528.628 1586.501,1331.372C1594.131,1303.171 1599.313,1274.364 1601.991,1245.272C1393.345,1471 1114.089,1621.106 801.123,1609.488Z" transform="rotate(316.438 1201.556 1455.284)" fill="#FFF871"/>
<path d="M1172.848,1695.878C1246.535,1670.463 1313.399,1628.458 1368.281,1573.106C1265.097,1643.489 1133.443,1671.051 1017.731,1722.528C1070.511,1721.792 1122.85,1712.8 1172.848,1695.878Z" transform="rotate(316.438 1193.006 1647.817)" fill="#FFA727"/>
<path d="M1501.354,1460.438C1331.606,1589.714 1129.394,1669.494 917.104,1690.95C935.784,1696.68 954.802,1701.246 974.049,1704.616C1003.055,1709.928 1032.483,1712.596 1061.971,1712.588L1070.855,1712.588C1186.566,1661.11 1318.222,1633.55 1421.404,1563.166C1452.124,1532.691 1478.698,1498.305 1500.444,1460.894L1501.354,1460.438Z" transform="rotate(316.438 1209.23 1586.513)" fill="#9E713B"/>
<path d="M838.993,1676.852C856.265,1684.14 873.904,1690.526 891.838,1695.986C1103.809,1674.366 1305.685,1594.594 1475.177,1465.474C1496.087,1429.652 1512.535,1391.405 1524.149,1351.585C1524.149,1348.624 1525.743,1345.663 1526.427,1342.474C1374.499,1540.869 1097.293,1656.352 838.993,1676.852Z" transform="rotate(316.438 1182.71 1519.23)" fill="#FFA727"/>
<path d="M1659.214,1059.291C1656.71,1049.497 1653.976,1039.475 1650.786,1029.908C1650.786,1026.264 1648.282,1022.847 1646.914,1019.43C1441.914,1315.542 1116.648,1524.414 749.014,1469.974L756.531,1481.364C766.475,1495.04 777.119,1508.192 788.42,1520.77C792.975,1526.236 797.986,1531.248 802.998,1536.486C1139.654,1557.442 1524.598,1370.208 1659.214,1059.291Z" transform="rotate(316.438 1204.115 1278.755)" fill="#9E713B"/>
<g opacity="0.2">
<path d="M1330.608,694.716C1343.982,741.068 1350.804,789.063 1350.88,837.305C1350.518,971.684 1296.898,1100.438 1201.772,1195.352C1106.644,1290.266 977.77,1343.596 843.391,1343.656C795.071,1343.62 746.996,1336.796 700.574,1323.384C725.126,1408.102 771.324,1484.962 834.618,1546.392C897.912,1607.824 976.118,1651.706 1061.532,1673.716C1146.944,1695.726 1236.618,1695.104 1321.718,1671.914C1406.818,1648.722 1484.41,1603.762 1546.846,1541.46C1609.284,1479.158 1654.412,1401.666 1677.788,1316.616C1701.164,1231.566 1701.98,1141.894 1680.156,1056.432C1658.33,970.972 1614.618,892.671 1553.326,829.244C1492.032,765.817 1415.272,719.452 1330.608,694.716Z" transform="rotate(316.438 1198.259 1192.247)" fill="url(#pf_0_1_476)"/>
</g>
<path d="M1316.052,666.85C1349.76,672.968 1382.74,682.586 1414.452,695.55C1706.69,543.167 1944.718,490.55 2006.674,578.7C2068.63,666.85 1947.224,861.374 1720.584,1077.534C1610.612,1181.56 1493.308,1277.55 1369.578,1364.762C1246.384,1452.62 1116.97,1531.412 982.356,1600.512C702.872,1741.964 477.372,1789.568 416.555,1703.468C355.739,1617.368 484.89,1407.358 724.74,1183.68C723.29,1149.4 725.274,1115.062 730.662,1081.18C376.011,1385.946 175.339,1685.474 264.4,1810.296C349.589,1930.792 678.5,1852.436 1066.634,1638.096C1184.872,1572.29 1299.46,1500.13 1409.896,1421.936C1520.706,1344.328 1627.164,1260.684 1728.784,1171.38C2059.974,876.406 2243.786,592.595 2158.602,471.873C2070.452,347.278 1721.496,435.656 1316.052,666.85Z" transform="rotate(316.438 1211.346 1141.126)" fill="#FFA727"/>
<path d="M1414.545,695.532C1432.435,702.616 1449.859,710.833 1466.705,720.132C1473.083,723.549 1479.233,727.193 1485.383,730.837C1681.501,639.726 1832.973,611.937 1875.339,672.071C1917.705,732.204 1845.955,857.254 1703.823,1005.082C1591.007,1120.176 1467.699,1224.494 1335.505,1316.682C1204.659,1410.478 1065.337,1491.844 919.355,1559.722C732.121,1644.228 588.849,1668.144 547.621,1610.06C506.393,1551.978 582.015,1416.678 733.487,1262.244C731.817,1255.106 730.451,1248.046 729.387,1241.06C726.475,1222.042 724.575,1202.88 723.693,1183.66C482.704,1408.022 352.871,1614.844 415.51,1703.45C478.148,1792.056 701.827,1741.944 981.311,1600.494C1115.925,1531.392 1245.339,1452.602 1368.533,1364.744C1492.969,1277.61 1610.959,1181.618 1721.589,1077.516C1949.367,861.354 2068.267,664.554 2007.679,578.682C1947.089,492.809 1706.783,543.149 1414.545,695.532Z" transform="rotate(316.438 1211.613 1142.261)" fill="#FFF871"/>
<path d="M1485.711,731.685C1495.961,737.835 1506.211,744.441 1516.005,751.274C1529.445,760.841 1542.655,771.091 1555.183,782.024C1663.151,736.469 1740.139,723.257 1761.551,753.552C1782.961,783.846 1747.201,848.308 1672.489,931.218C1557.361,1052.406 1429.785,1161.124 1291.871,1255.574C1156.835,1354.094 1011.771,1438.078 859.093,1506.13C755.911,1548.724 683.022,1560.114 662.066,1530.73C641.111,1501.346 678.694,1432.102 757.733,1345.774C751.811,1330.286 746.343,1314.34 742.015,1298.396C738.599,1286.78 735.866,1275.618 733.588,1263.546C582.116,1417.98 505.81,1551.458 547.722,1611.364C589.633,1671.27 732.222,1645.53 919.455,1561.024C1065.569,1492.726 1204.969,1410.9 1335.833,1316.618C1468.027,1224.432 1591.335,1120.112 1704.151,1005.018C1846.283,856.734 1916.895,729.635 1875.667,671.552C1834.439,613.468 1681.827,640.574 1485.711,731.685Z" transform="rotate(316.438 1211.829 1142.5)" fill="#B75F00"/>
<g opacity="0.7">
<path d="M1493.28,795.904C1516.058,810.482 1513.097,853.76 1487.585,892.71C1462.074,931.66 1423.124,950.793 1400.802,935.988C1378.48,921.182 1381.213,878.132 1406.724,839.41C1432.235,800.688 1470.958,781.099 1493.28,795.904Z" transform="rotate(316.438 1447.182 865.975)" fill="#FFFFFF"/>
</g>
<g opacity="0.5">
<path d="M506.494,1702.112C498.436,1701.085 490.767,1698.042 484.198,1693.264C477.628,1688.486 472.37,1682.128 468.91,1674.779C464.355,1676.373 461.849,1678.196 461.166,1681.84C459.571,1689.812 478.249,1710.312 498.749,1712.362C524.095,1712.731 549.213,1707.521 572.321,1697.101C577.105,1693.457 578.471,1690.496 578.016,1688.218C555.354,1697.617 531.027,1702.343 506.494,1702.112Z" transform="rotate(316.438 519.585 1693.58)" fill="#FFFA94"/>
</g>
<path d="M625.95,1610.394C625.95,1678.727 585.86,1716.994 517.754,1716.994C475.16,1716.994 401.36,1725.65 379.265,1692.622C366.054,1673.033 379.265,1617.683 379.265,1592.172C379.265,1553.45 412.293,1520.422 440.31,1497.872C461.493,1480.561 492.926,1494.683 522.31,1494.683C556.476,1494.683 606.588,1487.622 628.91,1509.944C651.232,1532.266 625.95,1576.455 625.95,1610.394Z" transform="rotate(316.438 505.756 1603.636)" fill="#FFB208"/>
<path d="M510.932,1514.884C502.277,1528.55 521.866,1540.395 538.038,1537.661C545.277,1536.187 551.948,1532.685 557.271,1527.563C562.595,1522.441 566.352,1515.91 568.105,1508.734C571.294,1493.928 564.005,1474.795 546.921,1483.45C533.275,1491.874 521.115,1502.495 510.932,1514.884Z" transform="rotate(316.438 538.823 1509.672)" fill="#FFD00B"/>
<g opacity="0.5">
<path d="M528.202,1518.439C538.539,1506.242 550.767,1495.783 564.418,1487.461C565.782,1486.371 567.323,1485.524 568.974,1484.955C568.074,1483.518 566.892,1482.278 565.5,1481.311C564.107,1480.343 562.532,1479.669 560.871,1479.328C559.21,1478.987 557.497,1478.987 555.836,1479.328C554.175,1479.669 552.6,1480.344 551.207,1481.311C537.652,1489.674 525.506,1500.13 515.218,1512.289C508.385,1523.222 518.863,1532.561 531.39,1535.067C528.875,1533.196 527.152,1530.451 526.562,1527.373C525.972,1524.295 526.557,1521.107 528.202,1518.439Z" transform="rotate(316.438 541.016 1507.07)" fill="#FFFA94"/>
</g>
<path d="M427.668,1509.252C419.696,1511.53 418.557,1527.247 426.301,1535.902C434.046,1544.558 434.501,1555.036 450.901,1555.264C460.199,1555.401 469.431,1553.702 478.07,1550.262C486.709,1546.822 494.583,1541.71 501.24,1535.219C508.301,1523.83 514.224,1512.441 501.24,1509.708C488.257,1506.975 476.64,1512.897 464.112,1512.669C442.474,1512.441 435.868,1506.975 427.668,1509.252Z" transform="rotate(316.438 464.984 1531.985)" fill="#FFD00B"/>
<g opacity="0.5">
<path d="M438.872,1544.593C431.356,1535.71 432.494,1520.449 440.467,1518.171C448.439,1515.893 455.045,1521.132 476.684,1521.588C487.617,1521.588 497.411,1517.032 508.572,1517.715C508.572,1513.387 508.572,1510.199 501.283,1508.832C488.831,1508.623 476.39,1509.692 464.156,1512.021C441.378,1512.021 435.456,1506.326 427.483,1508.604C419.511,1510.882 418.372,1526.371 426.117,1535.254C433.861,1544.138 434.089,1551.882 445.478,1554.16C443.51,1550.815 441.303,1547.618 438.872,1544.593Z" transform="rotate(316.438 464.721 1531.113)" fill="#FFFA94"/>
</g>
<path d="M402.777,1549.854C403.874,1546.54 405.718,1543.523 408.167,1541.034C410.615,1538.546 413.603,1536.654 416.899,1535.504C422.325,1534.226 427.962,1534.134 433.427,1535.235C438.891,1536.336 444.053,1538.603 448.561,1541.882C454.322,1546.723 458.568,1553.121 460.789,1560.312C463.011,1567.502 463.115,1575.179 461.088,1582.427C454.483,1599.738 447.422,1605.205 444.688,1614.771C441.955,1624.338 446.283,1637.549 421.911,1635.044C397.538,1632.538 367.472,1627.982 369.749,1607.255C372.027,1586.527 382.733,1584.477 392.527,1574.227C398.134,1567.208 401.683,1558.771 402.777,1549.854Z" transform="rotate(316.438 416.081 1584.913)" fill="#FFD00B"/>
<g opacity="0.5">
<path d="M400.153,1615.064C402.203,1595.247 413.136,1592.286 422.931,1581.808C428.589,1574.797 432.213,1566.366 433.408,1557.436C434.505,1554.122 436.349,1551.104 438.798,1548.616C441.247,1546.128 444.234,1544.236 447.531,1543.086C452.422,1542.161 457.444,1542.161 462.336,1543.086L460.058,1540.808C455.507,1537.621 450.336,1535.426 444.882,1534.367C439.427,1533.307 433.811,1533.407 428.397,1534.658C425.101,1535.808 422.113,1537.7 419.665,1540.188C417.216,1542.676 415.372,1545.694 414.275,1549.008C413.019,1558.006 409.227,1566.459 403.342,1573.38C394.231,1582.947 383.069,1586.819 380.564,1606.636C379.197,1619.164 390.13,1625.769 404.708,1629.414C402.842,1627.571 401.452,1625.301 400.659,1622.801C399.865,1620.301 399.691,1617.646 400.153,1615.064Z" transform="rotate(316.438 421.392 1581.527)" fill="#FFFA94"/>
</g>
<path d="M506.836,1546.417C518.681,1549.606 546.47,1540.951 553.759,1542.545C561.048,1544.14 564.464,1542.545 562.414,1552.795C560.364,1563.045 553.986,1566.234 557.403,1577.623C561.052,1587.143 567.79,1595.163 576.537,1600.401C582.687,1604.956 586.103,1608.145 587.242,1623.179C588.381,1638.212 525.97,1657.345 510.253,1653.929C494.536,1650.512 462.648,1631.151 460.37,1612.929C458.092,1594.706 443.286,1570.562 457.864,1564.867C472.442,1559.173 488.159,1540.951 506.836,1546.417Z" transform="rotate(316.438 519.39 1598.338)" fill="#FFD00B"/>
<g opacity="0.5">
<path d="M517.407,1622.888C515.129,1605.577 500.323,1580.293 514.673,1574.827C529.023,1569.36 545.196,1552.049 563.874,1557.06C570.355,1558.178 576.981,1558.178 583.462,1557.06C584.791,1554.383 585.786,1551.552 586.423,1548.632C588.473,1538.838 584.829,1539.977 577.768,1538.382C570.707,1536.788 542.69,1545.443 530.846,1542.255C512.168,1536.788 497.818,1554.099 481.874,1560.021C465.929,1565.943 481.874,1590.999 484.379,1608.082C486.885,1625.166 518.773,1645.666 534.262,1649.082L538.135,1649.082C528.316,1643.11 520.962,1633.817 517.407,1622.888Z" transform="rotate(316.438 530.934 1593.633)" fill="#FFFA94"/>
</g>
<path d="M418.837,1636.281C418.837,1636.281 413.142,1636.281 413.826,1643.798C415.413,1652.457 415.413,1661.333 413.826,1669.993C411.548,1677.737 401.753,1684.57 417.698,1692.77C433.642,1700.97 445.487,1703.704 455.737,1695.731C461.064,1691.755 465.299,1686.495 468.047,1680.441C470.795,1674.388 471.967,1667.737 471.454,1661.109C469.176,1649.492 476.009,1634.459 464.62,1633.32C453.231,1632.181 458.926,1636.737 445.487,1637.876C436.578,1638.882 427.562,1638.342 418.837,1636.281Z" transform="rotate(316.438 440.167 1666.819)" fill="#FFD00B"/>
<g opacity="0.5">
<path d="M424.203,1679.367C425.669,1670.621 425.669,1661.691 424.203,1652.945C424.203,1645.884 428.987,1645.428 428.987,1645.428C437.268,1647.808 445.9,1648.733 454.498,1648.162C466.798,1648.162 462.926,1643.15 471.353,1643.378C471.353,1638.139 469.987,1634.495 464.52,1633.812C453.131,1633.812 458.826,1637.228 445.387,1638.367C436.803,1638.946 428.183,1638.1 419.876,1635.862C419.876,1635.862 414.181,1635.862 414.864,1643.378C416.451,1652.038 416.451,1660.913 414.864,1669.573C412.587,1677.317 402.792,1684.151 418.737,1692.351C418.281,1688.478 422.609,1684.151 424.203,1679.367Z" transform="rotate(316.438 440.577 1663.081)" fill="#FFFA94"/>
</g>
<path d="M487.953,1669.102C508.909,1663.18 512.326,1652.019 533.509,1660.903C545.755,1667.244 557.286,1674.88 567.904,1683.68C573.826,1687.325 577.698,1691.197 567.904,1698.486C544.579,1708.962 519.21,1714.098 493.648,1713.519C473.148,1711.697 454.47,1690.741 456.065,1683.225C457.659,1675.708 466.998,1675.252 487.953,1669.102Z" transform="rotate(316.438 514.927 1685.578)" fill="#FFD00B"/>
<path d="M566.602,1533.028C566.602,1533.028 571.157,1517.767 581.863,1519.361C592.568,1520.955 589.152,1526.194 590.518,1534.166C591.885,1542.139 590.518,1541 593.024,1555.35C594.194,1568.073 596.87,1580.613 600.996,1592.706C605.096,1602.728 614.663,1605.233 617.624,1611.383C620.585,1617.533 640.402,1628.467 621.496,1636.211C602.591,1643.956 566.146,1647.144 559.768,1638.033C553.391,1628.922 553.618,1620.95 557.035,1605.233C559.642,1591.887 560.561,1578.265 559.768,1564.689C560.72,1553.892 563.016,1543.256 566.602,1533.028Z" transform="rotate(316.438 592.12 1581.412)" fill="#FFD00B"/>
<g opacity="0.5">
<path d="M582.33,1630.129C575.724,1621.018 576.179,1613.046 579.596,1597.329C582.092,1583.968 583.009,1570.36 582.33,1556.785C583.282,1545.988 585.577,1535.352 589.163,1525.124C589.696,1523.469 590.383,1521.868 591.213,1520.34C589.437,1518.982 587.295,1518.189 585.063,1518.063C574.357,1516.468 569.802,1531.729 569.802,1531.729C566.216,1541.958 563.92,1552.593 562.968,1563.39C563.761,1576.966 562.842,1590.588 560.235,1603.935C556.818,1619.651 556.591,1626.713 562.968,1636.735C569.346,1646.757 605.335,1642.429 624.696,1634.913L629.252,1632.635C610.118,1637.418 587.341,1637.874 582.33,1630.129Z" transform="rotate(316.438 593.56 1580.271)" fill="#FFFA94"/>
</g>
<path d="M576.927,1666.158C589.684,1672.05 603.29,1675.893 617.244,1677.547C626.355,1678.914 653.688,1680.964 652.322,1672.308C650.955,1663.653 647.994,1663.881 643.894,1655.453C639.794,1647.025 647.311,1641.331 642.299,1636.092C637.288,1630.853 637.516,1636.092 627.038,1639.053C615.814,1644.587 603.714,1648.133 591.277,1649.531C581.483,1647.936 577.61,1647.253 568.499,1646.342C559.388,1645.431 570.322,1661.831 576.927,1666.158Z" transform="rotate(316.438 608.697 1656.324)" fill="#FFD00B"/>
<g opacity="0.5">
<path d="M649.26,1662.674C638.476,1665.939 627.052,1666.487 616.005,1664.268C602.194,1662.495 588.745,1658.576 576.144,1652.652C573.664,1650.746 571.444,1648.526 569.538,1646.046C561.11,1646.046 571.588,1661.535 578.194,1665.863C590.951,1671.754 604.556,1675.598 618.51,1677.252C627.621,1678.619 655.183,1680.668 653.588,1672.013C652.993,1668.573 651.5,1665.351 649.26,1662.674Z" transform="rotate(316.438 610.026 1662.269)" fill="#FFFA94"/>
</g>
<g opacity="0.7">
<path d="M497.421,1628.212C499.927,1631.629 497.421,1638.007 491.271,1642.562C485.121,1647.118 478.516,1647.801 476.01,1644.384C473.504,1640.968 476.01,1634.818 481.932,1630.262C487.854,1625.707 494.688,1624.112 497.421,1628.212Z" transform="rotate(316.438 486.713 1636.194)" fill="#FFFFFF"/>
</g>
<g opacity="0.7">
<path d="M614.666,1618.015C614.666,1622.115 610.111,1626.67 603.05,1628.037C595.989,1629.404 589.155,1628.037 588.244,1623.026C587.333,1618.015 592.8,1614.143 600.088,1612.776C607.377,1611.409 613.983,1613.687 614.666,1618.015Z" transform="rotate(316.438 601.405 1620.458)" fill="#FFFFFF"/>
</g>
<g opacity="0.7">
<path d="M556.895,1522.942C556.895,1526.359 551.428,1528.409 545.734,1527.726C540.039,1527.042 535.484,1523.626 535.939,1520.209C536.395,1516.793 541.406,1514.742 547.1,1515.654C552.795,1516.565 557.35,1519.526 556.895,1522.942Z" transform="rotate(316.438 546.417 1521.647)" fill="#FFFFFF"/>
</g>
<g opacity="0.7">
<path d="M487.552,1526.127C487.552,1529.543 482.085,1531.821 476.391,1530.91C470.696,1529.999 466.141,1527.038 466.596,1523.621C467.052,1520.204 472.063,1518.154 477.985,1518.838C483.907,1519.521 488.007,1522.938 487.552,1526.127Z" transform="rotate(316.438 477.075 1524.909)" fill="#FFFFFF"/>
</g>
<g opacity="0.7">
<path d="M392.986,1583.096C390.481,1585.602 385.242,1583.096 381.142,1579.907C377.042,1576.718 375.675,1570.568 377.953,1568.063C380.231,1565.557 385.697,1568.063 389.797,1571.252C393.897,1574.441 395.264,1580.818 392.986,1583.096Z" transform="rotate(316.438 385.47 1575.58)" fill="#FFFFFF"/>
</g>
<g opacity="0.7">
<path d="M447.314,1677.579C449.364,1680.084 447.314,1685.323 442.758,1688.968C438.203,1692.612 432.736,1693.295 430.686,1690.562C428.636,1687.829 430.686,1682.818 435.242,1679.173C439.797,1675.529 445.264,1674.845 447.314,1677.579Z" transform="rotate(316.438 439 1684.07)" fill="#FFFFFF"/>
</g>
<g opacity="0.7">
<path d="M547.764,1689.073C547.764,1692.49 542.753,1694.995 536.83,1694.54C530.908,1694.084 526.353,1691.351 526.58,1687.934C526.808,1684.517 531.591,1682.012 537.514,1682.467C543.436,1682.923 547.991,1685.656 547.764,1689.073Z" transform="rotate(316.438 537.172 1688.504)" fill="#FFFFFF"/>
</g>
<g opacity="0.7">
<path d="M593.246,1679.355C593.246,1681.633 589.83,1683.227 585.957,1682.999C582.085,1682.772 578.896,1680.722 578.896,1678.444C578.896,1676.166 582.313,1674.572 586.413,1674.799C590.513,1675.027 593.246,1677.077 593.246,1679.355Z" transform="rotate(316.438 586.071 1678.899)" fill="#FFFFFF"/>
</g>
<g opacity="0.5">
<path d="M999.906,543.098C993.029,538.721 987.347,532.704 983.371,525.587C979.395,518.47 977.25,510.477 977.128,502.326C972.345,502.326 969.384,502.326 967.106,505.515C964.828,508.704 970.523,538.543 988.29,549.021C1011.229,560.421 1036.474,566.421 1062.09,566.56C1068.012,566.56 1070.29,563.371 1070.745,561.093C1046.174,559.842 1022.096,553.726 999.906,543.098Z" transform="rotate(316.438 1018.687 534.443)" fill="#FFFA94"/>
</g>
<path d="M1077.299,521.536C1048.371,583.264 995.982,601.03 934.254,572.33C895.532,554.108 825.148,530.648 818.998,491.47C815.354,468.692 850.887,423.136 861.593,400.359C877.993,365.053 922.409,349.109 956.804,340.453C983.226,333.847 1006.004,359.814 1032.427,372.342C1063.403,386.692 1111.921,401.497 1123.537,431.336C1135.155,461.175 1091.649,490.103 1077.299,521.536Z" transform="rotate(316.438 972.112 462.547)" fill="#FFB208"/>
<path d="M937.484,358.009C923.818,366.892 937.484,385.798 952.29,390.581C959.458,392.217 966.94,391.826 973.899,389.453C980.858,387.08 987.02,382.817 991.695,377.142C1000.807,364.842 1002.173,344.57 983.268,345.253C967.412,346.972 951.945,351.281 937.484,358.009Z" transform="rotate(316.438 965.005 368.405)" fill="#FFD00B"/>
<g opacity="0.5">
<path d="M944.734,366.794C959.123,360.09 974.511,355.781 990.289,354.038C992.247,353.679 994.254,353.679 996.212,354.038C995.936,352.374 995.333,350.781 994.438,349.351C993.543,347.922 992.373,346.684 990.996,345.709C989.619,344.735 988.062,344.043 986.416,343.674C984.77,343.305 983.067,343.267 981.406,343.56C965.633,345.331 950.25,349.639 935.85,356.316C925.145,363.149 930.611,376.133 940.861,383.877C939.147,381.088 938.592,377.739 939.316,374.546C940.039,371.353 941.984,368.571 944.734,366.794Z" transform="rotate(316.438 963.119 363.621)" fill="#FFFA94"/>
</g>
<path d="M870.162,381.865C861.962,380.499 854.445,394.165 857.634,404.643C860.823,415.121 857.634,425.371 871.756,432.66C880.115,436.687 889.188,439.022 898.452,439.531C907.717,440.039 916.99,438.71 925.74,435.621C937.129,428.56 947.151,420.588 936.901,412.843C926.651,405.099 914.123,405.327 901.823,399.86C882.462,390.976 878.59,383.232 870.162,381.865Z" transform="rotate(316.438 899.025 410.703)" fill="#FFD00B"/>
<g opacity="0.5">
<path d="M862.758,419.086C859.569,407.925 867.314,394.486 875.286,396.308C883.258,398.13 887.358,405.192 906.719,414.758C916.514,419.542 927.447,419.542 937.242,425.008C937.973,424.115 938.488,423.066 938.748,421.942C939.009,420.818 939.006,419.649 938.742,418.525C938.478,417.402 937.958,416.355 937.224,415.464C936.49,414.574 935.561,413.865 934.508,413.392C923.575,404.964 911.73,405.875 899.43,400.18C879.842,390.841 876.653,383.097 867.769,381.73C858.886,380.364 851.825,394.03 855.014,404.508C858.203,414.986 855.014,422.958 864.808,429.792C864.125,427.058 863.897,423.186 862.758,419.086Z" transform="rotate(316.438 896.588 405.713)" fill="#FFFA94"/>
</g>
<path d="M890.633,446.618C893.008,444.027 895.951,442.02 899.23,440.756C902.51,439.491 906.038,439.003 909.538,439.329C914.967,440.52 920.075,442.866 924.516,446.207C928.958,449.547 932.628,453.805 935.277,458.69C938.522,465.336 939.795,472.771 938.948,480.118C938.1,487.464 935.167,494.414 930.494,500.146C917.511,512.901 907.716,514.724 902.022,522.924C896.327,531.124 893.822,544.107 871.727,531.124C849.633,518.14 826.171,502.196 836.877,485.568C847.583,468.94 859.655,469.624 871.044,464.84C879.145,460.712 885.93,454.4 890.633,446.618Z" transform="rotate(316.438 886.704 487.93)" fill="#FFD00B"/>
<g opacity="0.5">
<path d="M849.823,501.431C859.845,484.348 872.601,485.715 883.762,480.931C891.974,477.229 898.994,471.314 904.034,463.848C906.431,461.298 909.384,459.334 912.662,458.11C915.941,456.885 919.458,456.432 922.94,456.787C927.843,457.835 932.489,459.849 936.607,462.709C936.607,461.57 936.607,460.659 936.607,459.748C933.69,454.875 929.761,450.685 925.084,447.462C920.408,444.24 915.093,442.06 909.501,441.07C906.038,440.78 902.554,441.286 899.317,442.549C896.079,443.813 893.174,445.8 890.823,448.359C885.682,455.878 878.597,461.861 870.323,465.67C858.023,470.454 846.406,469.315 836.384,486.398C830.006,497.331 836.384,507.809 848.456,517.376C847.303,514.823 846.824,512.017 847.063,509.226C847.302,506.434 848.252,503.751 849.823,501.431Z" transform="rotate(316.438 885.238 479.183)" fill="#FFFA94"/>
</g>
<path d="M992.272,400.921C1001.611,408.893 1030.539,412.765 1036.233,417.321C1041.927,421.877 1045.8,422.104 1039.877,430.304C1033.955,438.504 1026.666,438.732 1025.072,450.577C1024.356,460.638 1027,470.652 1032.589,479.049C1036.233,485.654 1038.055,489.982 1032.589,503.877C1027.122,517.771 962.661,508.888 949.905,499.093C937.15,489.299 917.788,457.41 923.938,440.782C930.088,424.154 926.444,395.226 941.933,396.365C957.422,397.504 978.377,388.165 992.272,400.921Z" transform="rotate(316.438 982.8 452.59)" fill="#FFD00B"/>
<g opacity="0.5">
<path d="M945.377,468.829C950.615,452.429 947.882,423.273 963.371,423.273C978.86,423.273 1000.727,415.301 1015.304,428.057C1020.781,431.763 1026.874,434.463 1033.299,436.029C1035.571,434.129 1037.633,431.991 1039.449,429.651C1045.371,421.451 1041.727,420.996 1035.804,416.668C1029.882,412.34 1000.954,409.151 990.932,401.179C976.354,388.423 956.082,397.762 938.999,396.623C921.916,395.484 926.243,424.64 921.004,442.179C915.766,459.718 936.038,490.923 948.793,500.49L952.21,502.54C945.747,492.573 943.305,480.526 945.377,468.829Z" transform="rotate(316.438 981.312 448.463)" fill="#FFFA94"/>
</g>
<path d="M932.257,512.196C932.257,512.196 926.79,510.146 924.512,516.979C921.769,525.229 917.607,532.938 912.212,539.757C906.974,545.679 895.129,547.729 905.835,562.535C916.54,577.34 926.335,585.312 938.863,581.44C945.374,580.047 951.434,577.046 956.487,572.709C961.54,568.372 965.426,562.838 967.79,556.612C970.751,544.996 983.279,533.835 973.257,528.596C963.235,523.357 966.651,528.596 954.124,524.496C946.177,521.695 938.778,517.533 932.257,512.196Z" transform="rotate(316.438 939.288 547.16)" fill="#FFD00B"/>
<g opacity="0.5">
<path d="M912.212,553.8C917.51,546.954 921.594,539.25 924.284,531.022C926.79,524.189 932.029,526.239 932.029,526.239C938.754,531.993 946.473,536.47 954.807,539.45C966.423,543.55 964.601,539.45 972.118,542.183C974.168,537.628 974.623,533.528 969.84,530.794C960.046,524.872 963.235,530.794 950.707,526.694C942.373,523.715 934.654,519.237 927.929,513.483C927.929,513.483 922.462,511.433 920.184,518.267C917.441,526.517 913.279,534.225 907.884,541.044C902.646,546.967 890.801,549.017 901.507,563.822C903.101,559.722 908.796,557.444 912.212,553.8Z" transform="rotate(316.438 935.379 538.509)" fill="#FFFA94"/>
</g>
<path d="M999.659,507.543C1021.298,510.96 1029.043,502.304 1043.848,518.932C1052.685,529.605 1060.323,541.215 1066.626,553.555C1070.498,559.477 1072.32,564.488 1060.704,566.993C1035.101,566.744 1009.881,560.75 986.904,549.454C969.137,538.977 960.937,512.555 965.72,505.949C970.504,499.343 978.248,504.127 999.659,507.543Z" transform="rotate(316.438 1016.978 534.82)" fill="#FFD00B"/>
<path d="M1069.485,346.389C1069.485,346.389 1080.191,334.545 1089.302,340.467C1098.413,346.389 1092.947,349.806 1090.897,357.551C1088.847,365.295 1087.936,363.928 1083.835,377.823C1079.55,389.895 1076.721,402.436 1075.408,415.178C1075.408,425.884 1082.469,432.262 1082.697,437.956C1082.924,443.651 1096.363,463.24 1075.635,460.734C1054.908,458.228 1020.969,447.523 1018.919,436.362C1016.869,425.201 1020.741,418.367 1030.308,405.612C1038.219,395.237 1044.8,383.911 1049.897,371.901C1055.399,362.655 1061.974,354.092 1069.485,346.389Z" transform="rotate(316.438 1056.393 399.882)" fill="#FFD00B"/>
<g opacity="0.5">
<path d="M1040.865,440.044C1038.815,429.111 1042.459,422.05 1052.254,409.294C1060.272,398.252 1066.855,386.235 1071.843,373.533C1077.19,364.642 1083.533,356.389 1090.748,348.933C1091.964,347.624 1093.341,346.476 1094.848,345.516C1093.785,343.543 1092.212,341.891 1090.293,340.733C1081.181,334.811 1070.476,346.655 1070.476,346.655C1062.993,354.216 1056.419,362.625 1050.887,371.711C1045.947,384.435 1039.362,396.458 1031.298,407.472C1021.731,420.227 1017.859,427.288 1019.909,438.222C1021.959,449.155 1055.67,462.822 1076.626,462.822L1081.637,462.822C1063.643,458.494 1040.865,449.383 1040.865,440.044Z" transform="rotate(316.438 1057.112 400.948)" fill="#FFFA94"/>
</g>
<path d="M1054.946,463.509C1063.973,474.252 1074.662,483.48 1086.607,490.842C1094.123,495.853 1118.268,509.52 1120.546,500.864C1122.823,492.209 1120.546,491.525 1120.546,482.187C1120.546,472.848 1129.657,470.798 1127.379,463.964C1125.101,457.131 1122.823,461.687 1112.346,460.092C1099.814,460.271 1087.341,458.346 1075.446,454.398C1069.223,449.875 1062.76,445.693 1056.085,441.87C1047.657,437.314 1050.846,455.992 1054.946,463.509Z" transform="rotate(316.438 1089.266 472.417)" fill="#FFD00B"/>
<g opacity="0.5">
<path d="M1126.744,489.913C1115.502,488.537 1104.779,484.389 1095.538,477.841C1083.67,470.283 1072.999,460.993 1063.877,450.28C1062.394,447.567 1061.32,444.651 1060.688,441.624C1053.171,437.524 1056.132,456.43 1060.688,463.036C1069.638,473.917 1080.338,483.231 1092.349,490.597C1099.866,495.608 1124.01,509.047 1126.288,500.619C1127.538,497.182 1127.697,493.444 1126.744,489.913Z" transform="rotate(316.438 1091.727 472.191)" fill="#FFFA94"/>
</g>
<g opacity="0.7">
<path d="M982.542,497.929C982.542,502.029 978.214,506.584 970.925,508.179C963.636,509.773 957.03,508.179 956.347,503.395C955.664,498.612 960.447,494.74 967.736,493.145C975.025,491.551 981.631,493.601 982.542,497.929Z" transform="rotate(316.438 969.412 500.692)" fill="#FFFFFF"/>
</g>
<g opacity="0.7">
<path d="M1080.042,441.768C1078.904,445.868 1072.298,447.69 1065.009,445.868C1057.72,444.046 1052.937,439.262 1054.076,435.162C1055.215,431.062 1061.82,429.012 1068.881,430.835C1075.942,432.657 1080.954,437.668 1080.042,441.768Z" transform="rotate(316.438 1067.029 438.37)" fill="#FFFFFF"/>
</g>
<g opacity="0.7">
<path d="M984.215,377.36C982.393,380.094 976.926,379.866 971.915,377.36C966.904,374.855 964.399,369.388 966.221,366.655C968.043,363.921 973.51,363.921 978.521,366.655C983.532,369.388 984.215,375.083 984.215,377.36Z" transform="rotate(316.438 974.921 371.965)" fill="#FFFFFF"/>
</g>
<g opacity="0.7">
<path d="M923.093,410.011C921.271,412.972 915.804,412.745 910.793,410.011C905.782,407.278 903.276,402.039 905.099,399.306C906.921,396.572 912.388,396.572 917.399,399.306C922.41,402.039 924.915,407.278 923.093,410.011Z" transform="rotate(316.438 914.096 404.702)" fill="#FFFFFF"/>
</g>
<g opacity="0.7">
<path d="M856.26,499.455C853.072,499.455 848.744,496.95 846.922,491.483C845.099,486.016 845.783,480.55 848.972,479.411C852.16,478.272 856.488,481.916 858.31,487.383C860.133,492.85 859.449,498.088 856.26,499.455Z" transform="rotate(316.438 852.616 489.329)" fill="#FFFFFF"/>
</g>
<g opacity="0.7">
<path d="M957.587,562.227C957.587,565.416 954.398,569.288 948.704,570.655C943.009,572.021 937.77,570.655 936.859,567.01C935.948,563.366 940.276,559.949 945.97,558.582C951.665,557.216 956.904,558.81 957.587,562.227Z" transform="rotate(316.438 947.162 564.634)" fill="#FFFFFF"/>
</g>
<g opacity="0.7">
<path d="M1046.988,532.244C1045.394,535.205 1039.927,535.433 1034.688,532.244C1029.45,529.055 1026.488,524.955 1028.083,521.994C1029.677,519.033 1035.144,518.805 1040.383,521.994C1045.622,525.183 1046.988,529.283 1046.988,532.244Z" transform="rotate(316.438 1037.32 527.119)" fill="#FFFFFF"/>
</g>
<g opacity="0.7">
<path d="M1084.338,501.172C1084.338,503.222 1079.554,503.222 1075.91,501.172C1072.265,499.122 1070.671,496.161 1071.582,494.111C1072.493,492.061 1076.365,492.061 1079.782,494.111C1083.199,496.161 1085.249,499.122 1084.338,501.172Z" transform="rotate(316.438 1077.942 497.642)" fill="#FFFFFF"/>
</g>
<defs>
<linearGradient id="pf_0_1_476" x1="1552.263" y1="1297.376" x2="507.459" y2="995.675" gradientUnits="userSpaceOnUse">
<stop stop-color="#000000"/>
<stop offset="0.57" stop-color="#000000"/>
<stop offset="0.61" stop-color="#000000"/>
<stop offset="1" stop-color="#404040"/>
</linearGradient>
</defs>
</svg>
