<svg width="2198" height="2198" viewBox="0 0 2198 2198" fill="none" xmlns="http://www.w3.org/2000/svg" xmlns:xlink="http://www.w3.org/1999/xlink">
<path d="M160.113,1401.325C119.018,1373.953 73.937,1353.095 26.467,1339.49C55.059,1468.707 106.805,1591.688 179.205,1702.486C236.101,1583.396 286.505,1480.337 160.113,1401.325Z" fill="#37B5A5"/>
<path d="M1186.133,1618.895C564.487,1929.599 408.693,1214.675 37.54,903.973C32.542,899.339 26.879,895.48 20.739,892.521C7.214,960.284 0.055,1029.163 -0.645,1098.257C-0.608,1179.425 8.486,1260.337 26.466,1339.491C73.936,1353.097 119.017,1373.955 160.112,1401.327C286.503,1480.339 236.481,1583.397 180.732,1702.487C286.117,1861.307 430.815,1990.171 600.763,2076.553C931.059,1775.011 1351.853,1782.645 1746.301,1867.381C1782.827,1868.859 1818.349,1879.775 1849.399,1899.063C1992.363,1765.093 2096.915,1595.359 2152.195,1407.433C2055.915,1308.015 1938.449,1231.563 1808.541,1183.757C1466.025,1059.324 1434.715,1494.461 1186.133,1618.895Z" fill="#4DCEBB"/>
<path d="M599.616,2076.549C800.792,2179.237 1028.788,2217.299 1252.426,2185.529C1476.066,2153.759 1684.426,2053.707 1849.016,1899.059C1817.966,1879.771 1782.446,1868.856 1745.918,1867.378C1350.708,1782.64 929.912,1775.007 599.616,2076.549Z" fill="#37B5A5"/>
<path d="M502.247,779.925C606.873,633.351 429.697,515.025 245.647,405.859C177.398,489.878 121.941,583.514 81.071,683.737C262.83,815.041 396.857,1011.617 502.247,779.925Z" fill="#37B5A5"/>
<path d="M2181.989,920.003C1965.481,989.473 1747.065,967.335 1621.437,841.755C1502.683,699.381 1782.575,593.269 1977.317,440.207C1931.515,379.31 1879.565,323.287 1822.287,273.023C1759.421,275.673 1697.855,291.762 1641.735,320.207C1585.615,348.651 1536.245,388.789 1496.955,437.917C1341.543,717.703 1403.785,1059.323 1155.203,1214.675C999.409,1308.193 875.309,1183.757 782.139,1090.623C595.417,841.755 750.827,407 438.477,250.884L410.985,239.815C349.623,288.94 293.683,344.474 244.119,405.473C428.167,514.639 605.345,634.493 500.719,779.539C395.329,1011.229 261.301,814.655 80.688,683.349C53.125,750.831 32.401,820.905 18.829,892.521C24.969,895.479 30.633,899.339 35.63,903.973C408.693,1214.675 564.487,1929.599 1186.133,1618.895C1434.715,1494.461 1466.025,1059.323 1807.777,1183.757C1937.687,1231.563 2055.149,1308.015 2151.449,1407.433C2180.929,1307.017 2195.969,1202.913 2196.109,1098.257C2196.069,1038.561 2191.349,978.961 2181.989,920.003Z" fill="#36EAC7"/>
<path d="M1621.437,841.754C1747.065,967.332 1965.098,989.472 2181.988,920.002C2153.186,745.994 2082.994,581.446 1977.318,440.206C1782.576,593.267 1502.683,699.38 1621.437,841.754Z" fill="#37B5A5"/>
<path d="M875.31,468.837C875.31,562.355 999.41,655.489 1123.892,624.571C1340.78,503.955 1297.632,252.415 1279.686,15.379C1156.122,-5.986 1029.804,-5.986 906.24,15.379C927.242,152.791 856.6,338.297 875.31,468.837Z" fill="#92FFEA"/>
<path d="M1279.684,15.381C1296.104,252.417 1340.78,503.957 1123.892,626.101C999.41,657.017 875.31,563.883 875.31,470.367C856.598,338.299 927.24,152.793 906.238,16.908C725.544,48.803 555.767,125.586 412.512,240.203L440.005,251.271C750.828,407.005 595.416,841.761 783.666,1091.011C876.836,1184.145 1000.936,1308.579 1156.73,1215.063C1405.312,1059.711 1343.07,718.853 1500.392,438.305C1539.682,389.177 1589.05,349.037 1645.17,320.593C1701.29,292.149 1762.858,276.059 1825.724,273.409C1671.528,137.903 1482.308,48.487 1279.684,15.381Z" fill="#55FFDE"/>
<path d="M926.476,1512.785C908.912,1558.207 827.96,1569.277 745.482,1537.596C663.003,1505.915 610.308,1443.316 627.873,1397.894C645.438,1352.471 724.862,1341.402 808.868,1374.228C892.874,1407.055 944.042,1467.363 926.476,1512.785Z" fill="#4DCEBB"/>
<path d="M1180.024,956.266C1194.534,1019.629 1136.874,1087.189 1050.578,1107.039C964.281,1126.887 882.947,1091.389 868.437,1028.026C853.927,964.664 911.586,897.103 997.501,878.018C1083.416,858.933 1165.514,892.904 1180.024,956.266Z" fill="#36EAC7"/>
<path d="M1788.686,1499.428C1777.958,1519.278 1761.601,1535.519 1741.672,1546.109C1721.742,1556.701 1699.126,1561.169 1676.664,1558.957C1654.202,1556.743 1632.894,1547.947 1615.416,1533.671C1597.938,1519.394 1585.068,1500.275 1578.423,1478.713C1571.778,1457.15 1571.653,1434.106 1578.064,1412.473C1584.475,1390.84 1597.137,1371.582 1614.46,1357.117C1631.782,1342.653 1652.993,1333.626 1675.43,1331.17C1697.867,1328.714 1720.53,1332.938 1740.573,1343.313C1754.082,1350.305 1766.062,1359.917 1775.816,1371.587C1785.568,1383.258 1792.898,1396.753 1797.376,1411.286C1801.856,1425.818 1803.394,1441.097 1801.902,1456.231C1800.41,1471.364 1795.916,1486.049 1788.686,1499.428Z" fill="#37B5A5"/>
<path d="M1269.375,1958.605C1271.667,1991.05 1222.79,2020.44 1160.167,2025.021C1097.545,2029.601 1045.613,2006.699 1042.559,1974.636C1039.504,1942.574 1089.144,1912.801 1151.767,1908.602C1214.39,1904.404 1267.085,1926.542 1269.375,1958.605Z" fill="#228778"/>
<path d="M807.723,165.383C822.233,194.01 789.013,241.723 731.354,269.205C673.695,296.687 616.8,297.832 603.436,269.205C590.071,240.578 622.146,192.865 679.805,165.383C737.464,137.9 792.831,136.755 807.723,165.383Z" fill="#92FFEA"/>
<path d="M1939.132,747.479C1941.422,779.541 1892.928,809.314 1830.306,814.276C1767.683,819.238 1715.752,796.718 1712.315,764.655C1708.879,732.592 1758.9,702.438 1821.523,697.858C1884.146,693.277 1936.458,715.416 1939.132,747.479Z" fill="#36EAC7"/>
<g opacity="0.2">
<path d="M1406.075,44.388C1435.469,144.426 1450.385,248.156 1450.369,352.42C1450.419,496.644 1422.039,639.466 1366.849,772.722C1311.657,905.978 1230.739,1027.058 1128.717,1129.04C1026.695,1231.022 905.571,1311.91 772.263,1367.08C638.955,1422.248 496.079,1450.62 351.799,1450.568C247.513,1450.71 143.744,1435.928 43.649,1406.674C97.178,1589.68 197.453,1755.602 334.605,1888.112C471.757,2020.62 641.061,2115.148 825.855,2162.388C1010.649,2209.648 1204.567,2207.988 1388.521,2157.568C1572.477,2107.148 1740.133,2009.736 1874.989,1874.894C2009.845,1740.052 2107.249,1572.434 2157.629,1388.534C2208.009,1204.634 2209.629,1010.792 2162.309,826.082C2114.989,641.372 2020.379,472.16 1887.781,335.098C1755.183,198.035 1589.169,97.845 1406.075,44.388Z" fill="url(#pf_0_1_1430)"/>
</g>
<g opacity="0.7">
<path d="M835.214,305.467C868.054,348.98 833.306,430.664 758.846,487.918C684.386,545.174 595.034,556.242 562.195,512.348C529.356,468.452 562.195,387.15 638.564,329.896C714.933,272.641 801.23,260.426 835.214,305.467Z" fill="#FFFFFF"/>
</g>
<defs>
<linearGradient id="pf_0_1_1430" x1="492.7" y1="627.624" x2="2349.999" y2="2071.975" gradientUnits="userSpaceOnUse">
<stop stop-color="#000000"/>
<stop offset="0.57" stop-color="#000000"/>
<stop offset="0.61" stop-color="#000000"/>
<stop offset="1" stop-color="#404040"/>
</linearGradient>
</defs>
</svg>
