<svg width="452" height="444" viewBox="0 0 452 444" fill="none" xmlns="http://www.w3.org/2000/svg" xmlns:xlink="http://www.w3.org/1999/xlink">
<path d="M71.457,35.728C71.457,42.795 69.361,49.702 65.435,55.578C61.51,61.453 55.93,66.033 49.401,68.737C42.873,71.441 35.689,72.149 28.758,70.77C21.827,69.392 15.461,65.989 10.465,60.992C5.468,55.995 2.065,49.629 0.687,42.699C-0.692,35.768 0.015,28.584 2.72,22.056C5.424,15.527 10.003,9.947 15.879,6.021C21.754,2.095 28.662,0 35.728,0C45.204,0 54.292,3.764 60.992,10.465C67.692,17.165 71.457,26.253 71.457,35.728Z" fill="#BFDDDA"/>
<g opacity="0.2">
<path d="M44.551,1.25C50.939,7.854 54.499,16.689 54.475,25.877C54.485,31.335 53.241,36.723 50.84,41.624C48.439,46.526 44.945,50.811 40.627,54.149C36.308,57.487 31.281,59.789 25.933,60.878C20.585,61.967 15.058,61.813 9.778,60.429C13.544,64.557 18.225,67.744 23.446,69.734C28.667,71.724 34.281,72.462 39.839,71.889C45.397,71.316 50.743,69.447 55.447,66.432C60.152,63.418 64.084,59.343 66.927,54.533C69.771,49.724 71.447,44.314 71.821,38.739C72.195,33.165 71.256,27.58 69.08,22.434C66.903,17.288 63.551,12.724 59.291,9.108C55.031,5.493 49.982,2.927 44.551,1.617L44.551,1.25Z" fill="#000000"/>
</g>
<path d="M221.501,382.72C175.407,375.368 116.669,379.044 73.957,361.768C96.606,390.678 126.391,413.194 160.381,427.102C194.372,441.01 231.397,445.831 267.816,441.091C260.685,412.493 247.085,389.116 221.501,382.72Z" fill="#70797A"/>
<path d="M221.501,340.816C179.597,328.834 137.694,340.816 101.818,316.85C53.886,280.975 35.655,197.167 77.852,143.281C84.616,136.591 83.733,116.595 75.353,99.172C45.564,136.353 29.216,182.511 28.962,230.153C28.709,277.795 44.564,324.124 73.956,361.62C116.668,378.896 175.407,375.442 221.501,382.572C247.083,388.968 260.685,411.978 267.815,441.018C282.189,439.148 296.329,435.798 310.013,431.02C297.075,386.322 268.771,349.712 221.501,340.816Z" fill="#829899"/>
<path d="M143.722,268.993C131.739,262.964 125.784,251.054 119.756,239.071C101.818,197.168 149.676,161.219 137.693,119.315C133.915,98.88 125.068,79.72 111.963,63.591C98.335,73.998 85.996,85.992 75.205,99.319C83.586,116.595 84.468,136.591 77.705,143.428C35.801,197.315 53.739,281.123 101.671,316.997C137.546,340.963 179.45,328.981 221.354,340.963C268.624,349.859 296.928,386.469 309.572,431.313C326.77,425.343 343.108,417.137 358.166,406.907C332.214,379.633 316.114,338.169 299.354,304.867C269.432,257.303 197.608,292.959 143.722,268.993Z" fill="#9EB5B5"/>
<path d="M377.133,340.816C347.211,257.01 305.308,221.134 215.399,215.105C203.416,215.105 185.478,203.122 191.433,191.139C217.678,138.65 211.944,66.972 169.378,32.2C148.665,39.633 129.224,50.222 111.743,63.591C124.848,79.72 133.695,98.88 137.473,119.315C149.456,161.219 101.598,197.168 119.535,239.072C125.563,251.054 131.518,262.964 143.501,268.992C197.388,292.958 269.212,257.01 299.133,304.868C316.115,338.17 332.215,379.632 358.607,406.76C378.781,393.146 396.463,376.16 410.875,356.548C394.409,355.004 381.469,349.492 377.133,340.816Z" fill="#ADC9C8"/>
<path d="M401.1,280.975C383.088,191.139 329.275,191.139 257.303,173.201C252.575,170.977 248.462,167.631 245.323,163.454C242.184,159.277 240.113,154.396 239.292,149.235C256.568,110.861 264.655,51.46 237.234,20.069C214.176,20.371 191.325,24.469 169.6,32.199C212.092,66.972 217.826,138.649 191.654,191.139C185.7,203.122 203.637,215.105 215.62,215.105C305.382,221.133 347.286,257.009 377.354,340.815C381.692,349.491 394.63,355.003 411.098,356.547C424.028,338.823 434.144,319.209 441.092,298.397C419.846,303.175 401.1,298.617 401.1,280.975Z" fill="#BFDDDA"/>
<path d="M424.991,221.135C413.082,131.298 311.263,167.247 293.325,119.315C285.974,100.275 302.294,59.474 296.928,27.642C278.52,22.682 259.532,20.21 240.468,20.29L237.233,20.29C264.655,51.461 256.568,110.861 239.439,149.236C240.245,154.382 242.293,159.253 245.406,163.429C248.519,167.605 252.602,170.959 257.303,173.202C329.274,191.14 383.087,191.14 401.099,280.975C401.099,298.619 419.845,303.029 441.091,298.399C447.599,278.837 451.215,258.429 451.823,237.823C437.561,237.087 424.991,230.911 424.991,221.135Z" fill="#D0EAE7"/>
<path d="M349.418,50.284C333.029,40.391 315.371,32.774 296.928,27.642C302.295,59.474 285.754,100.275 293.326,119.315C311.264,167.247 413.082,131.298 424.991,221.133C424.991,230.912 437.563,237.086 451.824,237.822C451.824,235.69 451.824,233.558 451.824,231.426C451.853,196.698 443.292,162.503 426.903,131.886C374.193,142.693 356.402,104.318 349.418,50.284Z" fill="#E4F4F2"/>
<path d="M349.418,50.285C356.401,104.318 374.192,142.693 427.05,131.886C408.988,98.195 382.167,70.003 349.418,50.285Z" fill="#F3FFFD"/>
<g opacity="0.2">
<path d="M299.795,28.45C309.023,59.973 310.779,93.213 304.925,125.533C299.071,157.854 285.767,188.366 266.069,214.649C246.371,240.932 220.819,262.266 191.441,276.956C162.063,291.646 129.666,299.29 96.82,299.28C76.745,299.268 56.772,296.422 37.493,290.826C47.799,326.072 67.105,358.03 93.51,383.55C119.915,409.072 152.511,427.278 188.088,436.378C223.666,445.476 260.999,445.156 296.415,435.448C331.831,425.738 364.109,406.976 390.073,381.004C416.037,355.034 434.791,322.75 444.489,287.332C454.189,251.912 454.499,214.579 445.389,179.004C436.279,143.429 418.063,110.839 392.535,84.441C367.007,58.043 335.045,38.746 299.795,28.45Z" fill="url(#pf_0_1_2338)"/>
</g>
<g opacity="0.8">
<path d="M176.804,88.218C183.2,96.672 176.804,112.404 162.101,123.358C147.398,134.312 130.563,136.517 124.241,128.137C117.919,119.756 124.241,103.95 138.944,92.923C153.647,81.896 170.482,79.543 176.804,88.218Z" fill="#FFFFFF"/>
</g>
<defs>
<linearGradient id="pf_0_1_2338" x1="123.947" y1="140.855" x2="481.525" y2="419.036" gradientUnits="userSpaceOnUse">
<stop stop-color="#000000"/>
<stop offset="0.57" stop-color="#000000"/>
<stop offset="0.61" stop-color="#000000"/>
<stop offset="1" stop-color="#404040"/>
</linearGradient>
</defs>
</svg>
