<svg width="2900" height="2900" viewBox="0 0 2900 2900" fill="none" xmlns="http://www.w3.org/2000/svg" xmlns:xlink="http://www.w3.org/1999/xlink">
<path d="M2410.89,467.671C2212.882,299.68 1969.502,194.186 1711.532,164.529C1453.562,134.873 1192.592,182.387 961.628,301.062C1263.612,324.049 1550.14,443.783 1778.692,642.495C1957.168,798.605 2202.744,673.079 2410.89,467.671Z" transform="rotate(12.551 1686.26 434.216)" fill="#ECE4F9"/>
<path d="M2685.432,852.814C2607.126,706.27 2501.99,575.74 2375.49,468.018C2167.344,673.426 1921.768,798.952 1743.292,642.842C1514.74,444.129 1228.212,324.396 926.228,301.41C826.144,353.125 733.168,417.563 649.612,493.123C1043.994,520.512 1421.03,858.292 1780.722,1088.804C2151.368,1349.9 2457.652,1163.664 2685.432,852.814Z" transform="rotate(12.551 1667.519 757.078)" fill="#D6C3ED"/>
<path d="M307.22,2205.415C429.984,2360.687 586.338,2486.121 764.536,2572.295C942.734,2658.467 1138.142,2703.141 1336.082,2702.957C1357.08,2702.957 1378.076,2702.957 1399.074,2702.957C1072.704,2421.321 700.232,2200.394 307.22,2205.415Z" transform="rotate(12.551 853.147 2454.144)" fill="#65377F"/>
<path d="M205.573,1747.437C165.874,1728.268 124.045,1713.866 80.959,1704.53C123.759,1899.285 210.574,2081.658 334.751,2237.676C727.763,2232.654 1101.605,2453.582 1426.605,2733.848C1728.651,2720.368 2016.647,2602.426 2241.379,2400.176C1479.099,2723.35 826.359,2075.176 205.573,1747.437Z" transform="rotate(12.551 1161.174 2219.189)" fill="#794899"/>
<path d="M2326.67,1956.151C1545.662,2216.333 913.922,1732.941 318.24,1285.154C257.365,1241.951 183.074,1221.881 108.725,1228.553C96.469,1300.026 90.209,1372.399 90.01,1444.915C90.155,1539.765 100.407,1634.329 120.593,1727.007C163.678,1736.343 205.507,1750.745 245.207,1769.915C865.994,2097.653 1518.732,2745.827 2281.03,2422.653C2481.45,2242.245 2621.41,2004.433 2681.79,1741.615C2582.89,1841.275 2460.91,1914.969 2326.67,1956.151Z" transform="rotate(12.551 1385.902 1868.912)" fill="#8D58B7"/>
<path d="M368.887,1290.856C962.285,1736.818 1594.939,2220.21 2377.311,1960.026C2511.371,1919.37 2633.331,1846.314 2732.431,1747.316C2755.371,1649.614 2767.011,1549.604 2767.131,1449.248C2767.131,1412.73 2767.131,1376.67 2762.111,1341.066C2582.711,1432.358 2377.311,1489.416 2191.071,1551.494C1521.905,1811.678 1186.863,1216.908 667.411,882.323C619.117,842.212 562.361,813.569 501.405,798.548C440.449,783.526 376.883,782.517 315.481,795.595C237.479,931.233 184.595,1079.834 159.371,1234.254C233.72,1227.584 308.011,1247.652 368.887,1290.856Z" transform="rotate(12.551 1463.251 1409.841)" fill="#A177C9"/>
<path d="M706.624,894.126C1226.988,1228.712 1561.118,1823.48 2230.288,1563.298C2416.532,1501.22 2621.932,1445.532 2801.312,1352.87C2786.812,1175.102 2736.012,1002.196 2652.052,844.828C2423.832,1156.134 2118,1342.37 1747.354,1080.818C1387.662,849.85 1010.626,512.525 616.244,487.42C512.497,580.44 424.209,689.374 354.692,810.138C415.889,796.688 479.336,797.256 540.283,811.8C601.23,826.346 658.096,854.49 706.624,894.126Z" transform="rotate(12.551 1578.006 1057.384)" fill="#BA9CDB"/>
<g opacity="0.2">
<path d="M1814.787,191.803C1850.097,312.022 1867.931,436.695 1867.735,561.993C1867.323,765.719 1819.533,966.557 1728.145,1148.635C1636.757,1330.713 1504.273,1489.041 1341.165,1611.107C1178.055,1733.173 988.793,1815.631 788.333,1851.963C587.873,1888.297 381.708,1877.509 186.135,1820.455C250.045,2039.359 369.857,2237.843 533.779,2396.383C697.699,2554.923 900.077,2668.043 1120.993,2724.603C1341.909,2781.183 1573.749,2779.243 1793.689,2718.983C2013.631,2658.743 2214.095,2542.263 2375.335,2381.003C2536.595,2219.763 2653.075,2019.299 2713.315,1799.357C2773.575,1579.417 2775.515,1347.577 2718.935,1126.661C2662.375,905.745 2549.255,703.367 2390.715,539.447C2232.175,375.526 2033.691,255.714 1814.787,191.803Z" transform="rotate(12.551 1473.058 1478.727)" fill="url(#pf_0_1_138)"/>
</g>
<g opacity="0.7">
<path d="M1244.968,390.206C1284.224,442.699 1244.968,540.382 1153.676,608.852C1062.384,677.32 957.854,690.1 918.142,638.064C878.43,586.028 920.881,488.345 1012.173,422.159C1103.466,355.972 1205.712,338.17 1244.968,390.206Z" transform="rotate(12.551 1081.684 514.962)" fill="#FFFFFF"/>
</g>
<defs>
<linearGradient id="pf_0_1_138" x1="791.86" y1="810.811" x2="2809.975" y2="2770.401" gradientUnits="userSpaceOnUse">
<stop stop-color="#000000"/>
<stop offset="0.57" stop-color="#000000"/>
<stop offset="0.61" stop-color="#000000"/>
<stop offset="1" stop-color="#404040"/>
</linearGradient>
</defs>
</svg>
