<svg width="126" height="126" viewBox="0 0 126 126" fill="none" xmlns="http://www.w3.org/2000/svg" xmlns:xlink="http://www.w3.org/1999/xlink">
<path d="M9.726,79.92C7.382,78.358 4.81,77.168 2.102,76.392C3.733,83.765 6.685,90.783 10.815,97.106C14.06,90.31 16.935,84.429 9.726,79.92Z" fill="#37B5A5"/>
<path d="M68.252,92.336C32.792,110.066 23.905,69.269 2.734,51.539C2.449,51.275 2.126,51.055 1.776,50.886C1.004,54.753 0.596,58.683 0.556,62.626C0.558,67.258 1.077,71.875 2.102,76.392C4.81,77.168 7.382,78.358 9.726,79.92C16.935,84.429 14.082,90.31 10.902,97.106C16.913,106.169 25.167,113.522 34.861,118.452C53.702,101.244 77.705,101.68 100.205,106.515C102.289,106.6 104.315,107.223 106.086,108.323C114.241,100.678 120.205,90.993 123.359,80.269C117.866,74.596 111.166,70.233 103.756,67.505C84.218,60.404 82.432,85.235 68.252,92.336Z" fill="#4DCEBB"/>
<path d="M34.796,118.451C46.272,124.311 59.277,126.483 72.034,124.67C84.791,122.857 96.676,117.148 106.065,108.323C104.293,107.222 102.267,106.599 100.184,106.515C77.64,101.68 53.637,101.244 34.796,118.451Z" fill="#37B5A5"/>
<path d="M29.242,44.46C35.21,36.096 25.103,29.344 14.605,23.114C10.712,27.909 7.548,33.252 5.217,38.971C15.585,46.464 23.23,57.681 29.242,44.46Z" fill="#37B5A5"/>
<path d="M125.058,52.454C112.708,56.418 100.249,55.155 93.083,47.989C86.309,39.864 102.275,33.809 113.383,25.075C110.77,21.6 107.807,18.403 104.54,15.535C100.954,15.686 97.442,16.604 94.241,18.227C91.04,19.85 88.223,22.141 85.982,24.944C77.117,40.91 80.668,60.404 66.488,69.269C57.601,74.606 50.522,67.505 45.208,62.19C34.556,47.989 43.421,23.18 25.604,14.271L24.036,13.64C20.536,16.443 17.345,19.612 14.518,23.093C25.016,29.322 35.123,36.162 29.155,44.438C23.143,57.66 15.498,46.442 5.195,38.95C3.623,42.8 2.441,46.799 1.667,50.886C2.017,51.055 2.34,51.275 2.625,51.539C23.905,69.269 32.792,110.066 68.252,92.336C82.432,85.235 84.218,60.404 103.712,67.505C111.122,70.233 117.823,74.596 123.315,80.269C124.998,74.538 125.856,68.598 125.864,62.626C125.861,59.219 125.592,55.818 125.058,52.454Z" fill="#36EAC7"/>
<path d="M93.083,47.989C100.249,55.155 112.686,56.419 125.058,52.454C123.415,42.525 119.411,33.135 113.383,25.075C102.275,33.81 86.309,39.865 93.083,47.989Z" fill="#37B5A5"/>
<path d="M50.522,26.709C50.522,32.045 57.601,37.36 64.702,35.595C77.074,28.713 74.612,14.359 73.589,0.832C66.54,-0.387 59.335,-0.387 52.287,0.832C53.485,8.674 49.455,19.259 50.522,26.709Z" fill="#92FFEA"/>
<path d="M73.589,0.832C74.525,14.358 77.074,28.712 64.702,35.682C57.601,37.446 50.522,32.132 50.522,26.795C49.455,19.259 53.484,8.673 52.286,0.919C41.979,2.739 32.295,7.121 24.123,13.661L25.691,14.293C43.421,23.18 34.556,47.989 45.295,62.212C50.609,67.526 57.688,74.627 66.575,69.291C80.755,60.426 77.204,40.975 86.178,24.966C88.419,22.162 91.236,19.872 94.437,18.249C97.638,16.626 101.15,15.707 104.736,15.556C95.94,7.824 85.147,2.721 73.589,0.832Z" fill="#55FFDE"/>
<path d="M53.441,86.281C52.439,88.873 47.821,89.504 43.117,87.696C38.412,85.889 35.406,82.316 36.408,79.724C37.41,77.132 41.94,76.501 46.732,78.374C51.524,80.247 54.443,83.689 53.441,86.281Z" fill="#4DCEBB"/>
<path d="M67.904,54.523C68.731,58.139 65.442,61.994 60.52,63.127C55.597,64.259 50.958,62.234 50.13,58.618C49.302,55.002 52.591,51.147 57.492,50.058C62.393,48.969 67.076,50.908 67.904,54.523Z" fill="#36EAC7"/>
<path d="M102.623,85.518C102.011,86.651 101.078,87.578 99.941,88.182C98.805,88.786 97.514,89.042 96.233,88.915C94.952,88.789 93.736,88.287 92.739,87.472C91.742,86.658 91.008,85.567 90.629,84.336C90.25,83.106 90.243,81.791 90.609,80.556C90.975,79.322 91.697,78.223 92.685,77.397C93.673,76.572 94.883,76.057 96.163,75.917C97.443,75.777 98.735,76.018 99.879,76.61C100.649,77.009 101.333,77.557 101.889,78.223C102.445,78.889 102.863,79.659 103.119,80.489C103.374,81.318 103.462,82.19 103.377,83.053C103.292,83.917 103.036,84.755 102.623,85.518Z" fill="#37B5A5"/>
<path d="M73.001,111.721C73.131,113.573 70.343,115.25 66.771,115.511C63.199,115.773 60.237,114.466 60.062,112.636C59.888,110.807 62.72,109.108 66.292,108.868C69.864,108.628 72.87,109.892 73.001,111.721Z" fill="#228778"/>
<path d="M46.667,9.392C47.495,11.026 45.6,13.749 42.311,15.317C39.022,16.885 35.776,16.95 35.014,15.317C34.252,13.683 36.081,10.96 39.37,9.392C42.659,7.824 45.817,7.759 46.667,9.392Z" fill="#92FFEA"/>
<path d="M111.205,42.609C111.336,44.439 108.569,46.138 104.997,46.421C101.425,46.704 98.463,45.419 98.267,43.589C98.071,41.76 100.924,40.039 104.496,39.777C108.068,39.516 111.053,40.779 111.205,42.609Z" fill="#36EAC7"/>
<g opacity="0.2">
<path d="M80.798,2.487C82.475,8.196 83.326,14.115 83.325,20.065C83.328,28.295 81.709,36.445 78.561,44.049C75.412,51.653 70.797,58.563 64.977,64.382C59.158,70.202 52.248,74.817 44.644,77.966C37.04,81.114 28.89,82.733 20.66,82.73C14.711,82.738 8.792,81.894 3.082,80.225C6.136,90.668 11.856,100.136 19.679,107.698C27.503,115.259 37.16,120.654 47.701,123.35C58.242,126.046 69.304,125.951 79.797,123.074C90.29,120.197 99.854,114.638 107.546,106.944C115.239,99.249 120.795,89.684 123.669,79.19C126.543,68.696 126.634,57.634 123.935,47.094C121.236,36.554 115.839,26.898 108.276,19.076C100.712,11.255 91.242,5.538 80.798,2.487Z" fill="url(#pf_0_1_2043)"/>
</g>
<g opacity="0.7">
<path d="M48.235,17.386C50.108,19.869 48.126,24.53 43.879,27.797C39.632,31.065 34.535,31.696 32.661,29.191C30.788,26.687 32.661,22.047 37.018,18.78C41.374,15.513 46.297,14.816 48.235,17.386Z" fill="#FFFFFF"/>
</g>
<defs>
<linearGradient id="pf_0_1_2043" x1="28.697" y1="35.769" x2="134.642" y2="118.19" gradientUnits="userSpaceOnUse">
<stop stop-color="#000000"/>
<stop offset="0.57" stop-color="#000000"/>
<stop offset="0.61" stop-color="#000000"/>
<stop offset="1" stop-color="#404040"/>
</linearGradient>
</defs>
</svg>
