<svg width="262" height="290" viewBox="0 0 262 290" fill="none" xmlns="http://www.w3.org/2000/svg" xmlns:xlink="http://www.w3.org/1999/xlink">
<path d="M43.561,21.781C43.561,26.089 42.284,30.3 39.891,33.881C37.497,37.463 34.096,40.255 30.116,41.903C26.136,43.552 21.757,43.983 17.531,43.143C13.306,42.302 9.426,40.228 6.379,37.182C3.333,34.136 1.259,30.255 0.419,26.03C-0.422,21.805 0.009,17.426 1.658,13.446C3.307,9.466 6.098,6.064 9.68,3.671C13.262,1.277 17.473,0 21.781,0C24.643,-0.006 27.478,0.553 30.123,1.646C32.768,2.738 35.171,4.343 37.195,6.366C39.219,8.39 40.823,10.793 41.915,13.439C43.008,16.084 43.567,18.919 43.561,21.781Z" fill="#FFDF4F"/>
<path d="M19.495,11.608C19.495,12.186 19.323,12.751 19.001,13.231C18.679,13.711 18.221,14.084 17.687,14.303C17.152,14.522 16.564,14.577 15.997,14.461C15.431,14.345 14.912,14.063 14.507,13.651C14.101,13.239 13.827,12.716 13.72,12.148C13.613,11.58 13.677,10.993 13.904,10.462C14.131,9.93 14.512,9.478 14.997,9.164C15.482,8.849 16.049,8.686 16.627,8.695C17.392,8.706 18.121,9.019 18.658,9.564C19.195,10.109 19.495,10.843 19.495,11.608Z" fill="#D3B94F"/>
<path d="M13.759,25.859C13.75,26.628 13.514,27.377 13.08,28.013C12.646,28.648 12.034,29.141 11.321,29.429C10.608,29.717 9.825,29.788 9.072,29.633C8.319,29.477 7.628,29.102 7.087,28.555C6.547,28.008 6.18,27.313 6.033,26.558C5.886,25.803 5.966,25.022 6.262,24.312C6.558,23.602 7.058,22.996 7.698,22.569C8.339,22.143 9.091,21.915 9.86,21.915C10.376,21.915 10.886,22.017 11.362,22.216C11.838,22.415 12.27,22.706 12.633,23.073C12.995,23.44 13.282,23.875 13.475,24.353C13.668,24.831 13.765,25.343 13.759,25.859Z" fill="#D3B94F"/>
<path d="M38.363,26.172C38.351,26.985 38.02,27.76 37.441,28.33C36.863,28.9 36.083,29.22 35.271,29.22C34.52,29.129 33.829,28.767 33.328,28.201C32.827,27.635 32.55,26.906 32.55,26.15C32.55,25.394 32.827,24.665 33.328,24.099C33.829,23.533 34.52,23.171 35.271,23.08C36.091,23.08 36.877,23.406 37.457,23.986C38.037,24.566 38.363,25.352 38.363,26.172Z" fill="#D3B94F"/>
<path d="M27.966,36.122C27.972,36.523 27.897,36.922 27.746,37.295C27.595,37.667 27.371,38.006 27.087,38.29C26.803,38.574 26.464,38.798 26.092,38.949C25.719,39.1 25.32,39.175 24.918,39.169C24.514,39.175 24.113,39.101 23.738,38.95C23.363,38.8 23.022,38.576 22.734,38.293C22.447,38.009 22.218,37.671 22.062,37.298C21.906,36.926 21.826,36.526 21.826,36.122C21.826,35.301 22.152,34.515 22.732,33.935C23.312,33.355 24.098,33.029 24.918,33.029C25.322,33.029 25.722,33.11 26.095,33.265C26.468,33.421 26.806,33.65 27.089,33.938C27.373,34.225 27.596,34.567 27.747,34.942C27.897,35.317 27.972,35.718 27.966,36.122Z" fill="#D3B94F"/>
<path d="M32.223,13.086C32.157,13.496 31.947,13.869 31.631,14.138C31.314,14.407 30.913,14.555 30.498,14.555C30.082,14.555 29.681,14.407 29.365,14.138C29.048,13.869 28.838,13.496 28.772,13.086C28.732,12.836 28.746,12.581 28.814,12.337C28.882,12.093 29.003,11.867 29.167,11.674C29.331,11.482 29.535,11.327 29.765,11.221C29.994,11.115 30.244,11.06 30.498,11.06C30.751,11.06 31.001,11.115 31.231,11.221C31.46,11.327 31.664,11.482 31.828,11.674C31.993,11.867 32.113,12.093 32.181,12.337C32.249,12.581 32.263,12.836 32.223,13.086Z" fill="#D3B94F"/>
<path d="M23.259,21.601C23.259,21.947 23.157,22.285 22.965,22.572C22.773,22.86 22.5,23.084 22.18,23.216C21.861,23.348 21.51,23.383 21.17,23.316C20.831,23.248 20.52,23.082 20.276,22.837C20.031,22.593 19.865,22.281 19.797,21.942C19.73,21.603 19.764,21.252 19.897,20.932C20.029,20.613 20.253,20.34 20.54,20.148C20.828,19.956 21.166,19.854 21.511,19.854C21.975,19.854 22.42,20.038 22.747,20.365C23.075,20.693 23.259,21.138 23.259,21.601Z" fill="#D3B94F"/>
<g opacity="0.2">
<path d="M27.204,0.762C30.135,3.855 32.097,7.738 32.847,11.932C33.597,16.127 33.103,20.45 31.426,24.367C29.748,28.284 26.961,31.625 23.408,33.976C19.854,36.328 15.69,37.588 11.429,37.601C9.583,37.591 7.746,37.351 5.961,36.884C8.963,40.036 12.84,42.218 17.093,43.146C21.346,44.074 25.779,43.706 29.821,42.09C33.863,40.474 37.328,37.684 39.77,34.08C42.211,30.476 43.516,26.223 43.517,21.87C43.515,17.043 41.913,12.353 38.961,8.533C36.009,4.714 31.874,1.981 27.204,0.762Z" fill="#000000"/>
</g>
<path d="M27.294,235.554C39.171,252.294 54.887,265.946 73.125,275.365C91.363,284.784 111.592,289.697 132.119,289.691C138.118,289.667 144.109,289.218 150.045,288.347C128.281,276.858 107.765,263.146 88.826,247.43C74.082,234.344 48.581,229.907 27.294,235.554Z" fill="#007E93"/>
<path d="M252.136,207.499C216.552,233.044 182.088,264.415 136.42,233.044C107.245,214.804 85.375,185.629 48.939,181.999C34.412,180.176 19.692,180.584 5.288,183.209C8.629,202.079 16.147,219.964 27.293,235.554C48.581,229.907 74.081,234.344 89.005,247.43C107.944,263.146 128.46,276.858 150.224,288.347C172.856,285.124 194.223,275.937 212.132,261.729C230.042,247.521 243.848,228.804 252.136,207.499Z" fill="#11AABA"/>
<path d="M48.939,181.775C85.375,185.405 107.2,214.58 136.42,232.82C182.088,264.192 216.552,232.82 252.136,207.499C262.19,181.884 263.762,153.718 256.618,127.144C255.452,128.264 254.288,129.429 253.212,130.684C187.6,203.645 111.054,167.164 38.094,119.704C30.297,114.96 21.076,113.119 12.055,114.506C3.631,136.296 1.292,159.967 5.288,182.985C19.692,180.36 34.412,179.952 48.939,181.775Z" fill="#20CBD3"/>
<path d="M118.18,112.444C96.31,97.834 85.375,72.109 67.134,64.984C62.18,62.791 56.993,61.168 51.673,60.144C33.861,74.433 20.159,93.192 11.966,114.506C20.986,113.119 30.207,114.96 38.004,119.704C110.875,167.165 187.421,203.645 253.122,130.684C254.198,129.429 255.362,128.264 256.528,127.144C250.608,105.155 238.962,85.129 222.782,69.107C192.978,98.148 159.814,134.852 118.18,112.444Z" fill="#3EE5E5"/>
<path d="M187.421,54.049C190.11,52.256 192.709,50.374 195.309,48.446C177.608,38.427 157.774,32.773 137.451,31.954C138.392,34.374 139.288,36.839 140.05,39.438C143.68,50.418 169.181,61.354 187.421,54.049Z" fill="#A6F2FF"/>
<path d="M187.421,54.048C169.181,61.353 143.681,50.418 140.051,39.438C139.289,36.839 138.392,34.374 137.451,31.954C135.703,31.954 133.911,31.954 132.118,31.954C102.778,31.877 74.301,41.875 51.449,60.277C56.871,61.235 62.164,62.814 67.224,64.983C85.464,72.288 96.4,97.833 118.27,112.444C159.904,134.852 193.068,98.147 222.781,69.106C214.618,61.027 205.408,54.078 195.399,48.446C192.71,50.373 190.11,52.255 187.421,54.048Z" fill="#84ECF7"/>
<path d="M147.177,222.154C147.381,226.141 148.089,230.086 149.283,233.896C150.986,236.405 148.477,248.416 152.645,247.609C155.586,247.455 158.433,246.518 160.892,244.895C163.35,243.272 165.33,241.022 166.627,238.377C171.647,229.997 177.204,224.081 178.907,219.599C179.068,219.015 179.159,218.413 179.176,217.807C169.097,222.117 158.04,223.619 147.177,222.154Z" fill="#0D7024"/>
<path d="M105.722,165.82C104.79,167.77 104.356,169.92 104.457,172.078C104.559,174.237 105.194,176.336 106.304,178.19C108.538,181.969 111.904,184.95 115.925,186.712C119.946,188.473 124.42,188.925 128.712,188.004C139.065,184.912 135.704,189.663 139.334,190.783C142.964,191.903 140.185,190.514 139.603,198.357C139.02,206.2 143.815,210.099 145.474,214.267C146.258,216.911 146.768,219.63 146.997,222.378C157.873,223.802 168.93,222.253 178.996,217.897C179.399,212.474 175.769,202.839 178.996,197.595C182.223,192.352 184.284,194.772 187.646,189.214L191.007,183.612C190.728,181.313 190.171,179.056 189.349,176.89L184.867,177.741C184.176,177.922 183.451,177.922 182.761,177.741C157.44,181.999 131.536,177.204 105.722,165.82Z" fill="#03841F"/>
<path d="M174.784,168.733C171.467,165.103 169.495,147.759 168.644,147.221C167.792,146.683 155.199,148.073 150.717,148.073C146.236,148.073 144.847,139.961 142.068,138.258L139.289,136.6C135.499,138.877 131.345,140.484 127.01,141.35L124.186,141.888C121.408,142.471 120.287,147.759 120.287,148.879C115.303,151.645 111.154,155.701 108.277,160.621C107.3,162.29 106.446,164.027 105.722,165.82C131.536,177.427 157.44,182.222 182.94,177.472C179.714,176.262 177.473,171.78 174.784,168.733Z" fill="#04A02C"/>
<path d="M217.807,164.341C217.955,168.134 218.681,171.882 219.958,175.456L221.348,176.307C222.566,179.388 224.594,182.083 227.219,184.105L227.219,179.937C227.052,176.566 227.233,173.187 227.756,169.853C228.532,167.239 229.76,164.782 231.387,162.593C233.359,160.352 235.286,158.112 236.406,158.112C237.526,158.112 238.647,162.055 239.767,163.176C241.047,164.682 242.09,166.375 242.859,168.195C243.134,168.889 243.545,169.52 244.069,170.051C244.592,170.583 245.217,171.003 245.907,171.288L247.027,171.556C247.702,174.797 248.647,177.975 249.851,181.058L250.12,182.447C250.389,183.836 249.851,192.53 250.12,193.92C250.389,195.309 252.047,200.911 254.019,202.032L254.288,202.032C255.587,198.267 256.708,194.413 257.649,190.514C256.932,188.676 256.08,186.391 255.677,185.405C255.274,184.419 254.556,180.072 253.75,178.1C252.943,176.128 248.73,171.691 251.509,171.691C254.288,171.691 257.111,171.96 257.918,174.47L258.769,177.024L259.934,177.024C260.528,172.685 260.872,168.316 260.965,163.938C259.666,162.593 257.111,160.89 258.859,159.456C259.527,158.99 260.269,158.641 261.055,158.425C260.915,149.162 259.803,139.939 257.738,130.908C246.305,144.12 232.823,155.408 217.807,164.341Z" fill="#04A02C"/>
<path d="M124.455,127.367L123.872,128.488L123.334,129.608C123.431,131.329 123.878,133.011 124.649,134.553C125.42,136.094 126.497,137.462 127.816,138.571L128.936,138.258C131.829,136.702 134.472,134.724 136.779,132.387C137.527,131.182 138.483,130.12 139.603,129.25C136.197,128.532 132.835,127.591 129.564,126.561C127.929,127.158 126.194,127.432 124.455,127.367Z" fill="#00BA35"/>
<path d="M185.316,98.147C200.726,94.159 215.185,87.135 227.846,77.487C227.321,77.126 226.725,76.882 226.099,76.77C223.545,77.247 221.029,77.906 218.569,78.742C217.449,79.011 216.06,78.742 216.06,76.501C216.06,74.26 214.626,70.63 212.43,71.168C207.632,72.315 202.951,73.906 198.447,75.918C197.327,77.039 194.548,79.549 194.548,81.52C194.548,83.492 196.206,85.688 195.355,85.419L194.548,85.151C193.786,85.151 191.993,83.179 190.649,80.4L187.825,80.4C186.415,82.111 185.542,84.2 185.316,86.405C185.441,86.964 185.371,87.548 185.119,88.062C184.866,88.575 184.445,88.987 183.926,89.229C182.074,89.522 180.2,89.657 178.324,89.632C175.242,90.02 172.335,91.279 169.944,93.262L169.406,94.114L168.823,94.92C168.02,95.056 167.195,95.001 166.417,94.76C165.638,94.519 164.928,94.098 164.342,93.531C163.625,92.635 165.462,90.977 168.375,89.901L166.986,89.05C165.597,88.243 157.485,84.299 154.706,85.151L151.883,86.002C148.184,87.225 144.737,89.108 141.71,91.559C140.86,93 140.111,94.497 139.469,96.041C154.303,100.745 170.113,101.471 185.316,98.147Z" fill="#70FF61"/>
<path d="M227.845,77.487C215.184,87.135 200.725,94.159 185.315,98.148C170.157,101.396 154.414,100.624 139.647,95.907C139.109,97.072 138.571,98.282 138.123,99.403L138.392,101.643C138.661,103.884 139.782,109.755 137.854,110.607L135.882,111.413C133.525,113.388 131.524,115.753 129.967,118.405C129.692,119.396 129.638,120.435 129.808,121.449C129.979,122.464 130.369,123.428 130.953,124.276C131.58,125.172 130.953,125.979 129.743,126.561C133.014,127.592 136.375,128.533 139.782,129.25C140.633,128.578 141.44,128.085 141.977,128.219C142.968,128.675 143.853,129.331 144.577,130.146C150.883,131.199 157.294,131.485 163.668,130.998C189.348,127.009 217.179,105.901 244.338,96.131C241.342,90.876 237.972,85.843 234.254,81.073C232.461,80.669 229.772,78.563 227.845,77.487Z" fill="#4FDD3A"/>
<path d="M163.445,130.997C157.062,131.425 150.652,131.079 144.353,129.967C146.011,131.535 147.804,133.507 148.476,134.179C149.148,134.852 149.865,138.392 153.764,137.541L157.663,136.689C160.307,136.241 162.683,136.689 162.996,137.541C163.31,138.392 166.044,139.468 169.136,139.781L170.795,139.199C172.498,138.661 173.887,141.709 173.035,142.829L172.184,143.949C173.55,151.159 175.714,158.193 178.637,164.923L180.027,165.775C181.416,166.626 183.074,173.887 184.195,173.618C185.315,173.349 190.917,173.035 192.575,171.108L194.233,169.136C198.715,164.654 201.135,159.545 199.97,158.066C198.805,156.588 194.861,156.946 191.007,158.784L190.469,157.125C189.886,155.422 185.405,148.162 188.228,147.893C191.051,147.624 195.175,151.254 196.878,152.375C199.198,154.046 201.862,155.179 204.676,155.691C207.106,155.65 209.478,156.441 211.398,157.932L211.936,159.052C212.698,159.994 214.49,159.366 215.88,157.663L216.686,159.052C217.195,160.714 217.511,162.428 217.627,164.161C232.68,155.352 246.222,144.186 257.738,131.087C254.869,118.753 250.187,106.912 243.845,95.951C216.955,105.9 189.124,127.009 163.445,130.997Z" fill="#00BA35"/>
<path d="M6.006,136.286C5.378,139.737 4.796,143.412 4.482,146.773C6.723,150.358 9.994,153.675 11.652,156.991C13.311,160.307 11.921,162.862 13.042,165.685C13.66,167.95 14.611,170.11 15.865,172.094C16.672,172.677 20.616,173.797 21.736,172.677C22.561,172.172 23.487,171.858 24.449,171.757C25.41,171.657 26.382,171.772 27.293,172.094C28.424,172.555 29.448,173.242 30.303,174.113C31.159,174.983 31.827,176.02 32.268,177.158C32.85,179.668 31.999,180.206 35.629,181.057C39.259,181.909 33.388,174.335 35.091,172.408C36.794,170.481 39.573,169.584 36.481,168.733C33.388,167.881 28.369,165.954 27.517,164.251C26.289,161.291 25.431,158.19 24.963,155.019C24.425,151.389 23.036,148.297 25.277,146.325C26.204,145.294 27.397,144.54 28.726,144.144C30.054,143.749 31.466,143.728 32.806,144.084L36.167,144.935C39.08,146.638 40.648,149.014 40.066,150.268L42.307,153.047C44.547,155.826 45.085,158.918 45.668,157.529C46.115,154.563 46.295,151.563 46.206,148.565C46.206,147.176 45.085,146.325 48.984,142.963C50.869,140.928 53.159,139.309 55.707,138.213C56.68,137.786 57.704,137.485 58.754,137.317C55.976,135.255 53.197,133.104 50.418,130.953C40.693,123.648 21.153,126.157 6.006,136.286Z" fill="#04A02C"/>
<path d="M81.162,77.308C77.8,77.039 70.54,77.622 66.372,73.409C64.681,71.801 62.637,70.612 60.403,69.935C58.17,69.258 55.81,69.112 53.51,69.51C52.121,70.317 48.491,71.437 48.491,72.557C48.491,73.678 51.538,77.039 50.731,77.622L49.88,78.16C47.746,78.314 45.662,78.877 43.74,79.818L42.351,79.818C44.009,82.91 44.099,84.972 42.351,84.299C38.35,83.281 34.295,82.488 30.206,81.924C25.803,87.745 21.89,93.921 18.509,100.388C27.965,100.03 37.824,101.778 46.832,101.778C58.428,101.025 70.049,102.798 80.893,106.976C80.579,104.735 80.579,100.254 77.8,98.865C74.288,97.696 70.527,97.495 66.91,98.282C63.549,98.865 60.232,98.551 61.622,95.772C63.011,92.994 67.448,87.123 72.243,90.17C75.162,92.438 77.863,94.974 80.31,97.744C82.975,99.696 85.883,101.293 88.96,102.495C90.394,102.495 93.71,104.153 95.413,103.615C97.116,103.077 101.239,103.301 102.36,100.254C103.48,97.206 100.97,98.865 106.572,93.531C112.174,88.198 112.354,90.305 115.849,87.481C105.228,83 94.651,78.518 84.075,74.35C83.671,76.188 82.909,77.487 81.162,77.308Z" fill="#4FDD3A"/>
<path d="M123.065,76.771C123.522,74.183 123.703,71.554 123.603,68.928C123.065,67.269 125.261,64.76 120.824,64.76C116.388,64.76 103.794,65.566 101.822,65.298C99.851,65.029 85.33,68.659 84.792,70.317C84.523,71.124 84.434,72.827 84.075,74.35C94.652,78.384 105.228,83.314 115.85,87.482C116.164,87.168 116.522,86.944 116.881,86.54C119.965,84.056 122.139,80.621 123.065,76.771Z" fill="#70FF61"/>
<path d="M46.833,101.778C37.87,101.778 27.966,100.03 18.51,100.388C12.599,111.659 8.386,123.74 6.006,136.241C21.154,126.113 40.694,123.603 50.463,130.953C53.242,133.104 56.021,135.435 58.799,137.317C59.504,137.284 60.194,137.099 60.821,136.774C61.447,136.449 61.996,135.992 62.429,135.435C63.062,134.495 63.448,133.411 63.55,132.283C63.651,131.154 63.467,130.019 63.012,128.981C62.429,127.054 60.771,126.202 66.911,124.813C73.051,123.424 76.95,123.11 77.532,121.721C78.115,120.332 79.46,116.433 80.311,114.461C81.072,112.027 81.272,109.453 80.894,106.931C70.047,102.769 58.426,101.01 46.833,101.778Z" fill="#00BA35"/>
<path d="M42.441,188.228C42.441,189.886 42.934,191.858 43.159,193.785L41.5,194.592C39.332,196.086 37.525,198.046 36.212,200.328C35.816,202.791 36.095,205.316 37.019,207.633C37.87,209.56 41.5,215.745 42.038,216.597C42.576,217.448 43.472,220.809 45.399,220.809C47.761,220.946 50.019,221.825 51.853,223.319C53.732,225.964 54.891,229.053 55.214,232.282C63.505,231.7 72.737,233.268 79.594,233.268L81.252,234.03C81.028,233.358 81.252,232.775 81.969,231.789C83.672,229.817 88.692,231.789 89.274,227.308C89.857,222.826 91.784,222.826 90.395,218.658C89.005,214.49 88.154,214.445 88.692,211.667C89.23,208.888 89.543,209.695 92.322,206.065C92.882,205.386 93.391,204.667 93.846,203.914C81.125,197.752 67.805,192.916 54.094,189.483C50.283,188.547 46.364,188.125 42.441,188.228Z" fill="#0D7024"/>
<path d="M86.764,193.068C83.144,192.484 79.493,192.11 75.829,191.948C74.313,191.648 72.919,190.905 71.826,189.811C70.733,188.718 69.989,187.325 69.69,185.808C68.883,182.178 68.569,179.668 66.059,177.965C63.55,176.262 55.483,174.918 54.049,173.797C53.112,173.186 52.061,172.771 50.959,172.578C49.858,172.386 48.728,172.419 47.64,172.677L45.713,173.215C44.378,175.044 42.759,176.647 40.918,177.965L40.335,179.668C39.483,181.326 38.632,181.057 38.363,183.029C40.2,182.716 41.903,183.478 42.128,184.688C42.352,185.898 42.441,186.525 42.665,188.094C46.588,187.991 50.507,188.413 54.318,189.348C68.028,192.781 81.349,197.617 94.07,203.779C94.574,203.202 94.887,202.483 94.967,201.721C95.048,200.959 94.891,200.191 94.518,199.522C93.731,197.976 92.638,196.607 91.305,195.497C89.972,194.388 88.427,193.561 86.764,193.068Z" fill="#03841F"/>
<path d="M55.213,232.148C55.232,232.266 55.232,232.387 55.213,232.506C54.11,236.239 53.463,240.091 53.286,243.979C53.286,247.027 54.093,253.48 54.406,255.721C54.72,257.962 61.667,262.712 61.667,263.519C61.307,264.769 60.873,265.996 60.367,267.194C62.697,268.763 64.849,270.241 67.538,271.676C67.949,269.078 68.702,266.546 69.778,264.146C70.899,261.054 69.241,261.637 68.389,258.813C67.538,255.99 70.092,252.942 70.63,252.136L71.213,251.284C73.169,249.848 75.22,248.545 77.352,247.385L77.621,245.951C77.89,244.562 79.279,244.024 81.52,242.321C83.761,240.618 83.761,239.542 82.641,236.719C82.103,235.374 81.565,234.613 81.341,233.94L79.593,233.044C72.736,233.044 63.504,231.565 55.213,232.148Z" fill="#065E1D"/>
<g opacity="0.2">
<path d="M168.554,37.019C175.067,59.186 175.496,82.697 169.796,105.087C164.095,127.476 152.475,147.92 136.154,164.273C119.833,180.626 99.412,192.286 77.034,198.031C54.655,203.775 31.143,203.393 8.963,196.923C15.255,218.385 27.026,237.839 43.119,253.371C59.212,268.901 79.072,279.975 100.744,285.499C122.416,291.025 145.153,290.811 166.718,284.881C188.282,278.951 207.931,267.507 223.729,251.677C239.529,235.847 250.933,216.176 256.821,194.6C262.709,173.024 262.877,150.286 257.311,128.625C251.743,106.964 240.631,87.126 225.067,71.064C209.505,55.001 190.028,43.268 168.554,37.019Z" fill="url(#pf_0_1_2077)"/>
</g>
<g opacity="0.7">
<path d="M99.178,61.487C103.032,66.596 99.178,76.187 90.214,82.91C81.251,89.632 70.988,90.932 67.134,85.823C63.28,80.714 67.134,71.078 76.097,64.356C85.061,57.633 95.279,56.378 99.178,61.487Z" fill="#FFFFFF"/>
</g>
<defs>
<linearGradient id="pf_0_1_2077" x1="61.488" y1="105.587" x2="279.295" y2="274.993" gradientUnits="userSpaceOnUse">
<stop stop-color="#000000"/>
<stop offset="0.57" stop-color="#000000"/>
<stop offset="0.61" stop-color="#000000"/>
<stop offset="1" stop-color="#404040"/>
</linearGradient>
</defs>
</svg>
