<svg width="332" height="340" viewBox="0 0 332 340" fill="none" xmlns="http://www.w3.org/2000/svg" xmlns:xlink="http://www.w3.org/1999/xlink">
<path d="M67.564,17.89C67.564,21.428 66.515,24.887 64.549,27.829C62.583,30.771 59.789,33.064 56.52,34.418C53.251,35.772 49.654,36.127 46.184,35.436C42.713,34.746 39.526,33.042 37.024,30.54C34.522,28.038 32.818,24.851 32.128,21.38C31.437,17.91 31.792,14.313 33.146,11.044C34.5,7.775 36.793,4.981 39.735,3.015C42.677,1.049 46.136,0 49.674,0C54.419,0 58.969,1.885 62.324,5.24C65.679,8.595 67.564,13.145 67.564,17.89Z" fill="#458DF4"/>
<g opacity="0.2">
<path d="M54.414,0.325C56.84,2.851 58.47,6.036 59.098,9.482C59.727,12.927 59.328,16.482 57.951,19.702C56.574,22.923 54.279,25.667 51.353,27.592C48.427,29.517 44.999,30.539 41.496,30.529C39.931,30.523 38.371,30.336 36.849,29.972C38.758,31.966 41.102,33.492 43.698,34.43C46.294,35.367 49.072,35.692 51.814,35.377C54.557,35.062 57.189,34.117 59.506,32.616C61.822,31.114 63.76,29.097 65.167,26.722C66.574,24.348 67.412,21.679 67.616,18.926C67.82,16.174 67.385,13.411 66.343,10.854C65.302,8.298 63.683,6.017 61.614,4.191C59.544,2.364 57.08,1.041 54.414,0.325Z" fill="#000000"/>
</g>
<path d="M95.351,321.975C95.351,325.513 94.302,328.972 92.336,331.914C90.371,334.856 87.576,337.149 84.307,338.503C81.039,339.857 77.442,340.211 73.971,339.521C70.501,338.83 67.313,337.127 64.811,334.625C62.309,332.123 60.605,328.935 59.915,325.465C59.225,321.994 59.579,318.397 60.933,315.128C62.287,311.859 64.58,309.065 67.522,307.099C70.464,305.134 73.923,304.084 77.461,304.084C82.206,304.084 86.756,305.969 90.111,309.324C93.466,312.679 95.351,317.23 95.351,321.975Z" fill="#458DF4"/>
<g opacity="0.2">
<path d="M81.876,304.41C84.55,307.225 86.235,310.834 86.677,314.692C87.119,318.55 86.294,322.447 84.327,325.794C82.359,329.142 79.356,331.758 75.77,333.249C72.185,334.739 68.211,335.022 64.451,334.056C66.359,336.066 68.708,337.604 71.313,338.551C73.918,339.497 76.707,339.826 79.46,339.51C82.213,339.195 84.856,338.244 87.179,336.733C89.502,335.221 91.442,333.191 92.846,330.802C94.251,328.413 95.081,325.73 95.271,322.965C95.461,320.2 95.007,317.429 93.943,314.87C92.879,312.311 91.236,310.034 89.141,308.219C87.047,306.403 84.56,305.099 81.876,304.41Z" fill="#000000"/>
</g>
<path d="M294.837,31.18C294.837,35.646 293.513,40.013 291.031,43.727C288.55,47.44 285.023,50.335 280.896,52.044C276.77,53.753 272.229,54.201 267.848,53.329C263.468,52.458 259.444,50.307 256.285,47.149C253.127,43.99 250.976,39.966 250.105,35.586C249.233,31.205 249.681,26.664 251.39,22.538C253.099,18.411 255.994,14.884 259.707,12.403C263.421,9.921 267.788,8.597 272.254,8.597C275.222,8.591 278.161,9.171 280.904,10.303C283.646,11.436 286.138,13.099 288.237,15.198C290.335,17.296 291.998,19.788 293.131,22.531C294.264,25.273 294.844,28.213 294.837,31.18Z" fill="#458DF4"/>
<g opacity="0.2">
<path d="M278.48,9.293C281.52,12.5 283.554,16.527 284.332,20.876C285.11,25.225 284.597,29.707 282.858,33.768C281.119,37.83 278.229,41.293 274.544,43.732C270.86,46.17 266.542,47.476 262.124,47.49C260.207,47.488 258.299,47.222 256.455,46.7C258.835,49.304 261.792,51.315 265.09,52.57C268.387,53.826 271.933,54.291 275.442,53.929C278.952,53.567 282.328,52.388 285.299,50.486C288.271,48.584 290.756,46.012 292.554,42.977C294.353,39.941 295.415,36.527 295.656,33.007C295.897,29.487 295.309,25.959 293.941,22.707C292.573,19.455 290.462,16.569 287.777,14.28C285.092,11.991 281.908,10.362 278.48,9.526L278.48,9.293Z" fill="#000000"/>
</g>
<path d="M331.454,91.076C331.454,95.543 330.129,99.909 327.648,103.623C325.167,107.337 321.64,110.231 317.513,111.941C313.386,113.65 308.846,114.097 304.465,113.226C300.084,112.354 296.06,110.204 292.902,107.045C289.744,103.887 287.593,99.863 286.721,95.482C285.85,91.102 286.297,86.561 288.006,82.434C289.716,78.308 292.61,74.781 296.324,72.299C300.038,69.818 304.404,68.493 308.871,68.493C314.86,68.493 320.604,70.872 324.84,75.108C329.075,79.343 331.454,85.087 331.454,91.076Z" fill="#A6CAFF"/>
<g opacity="0.2">
<path d="M314.772,69.283C317.811,72.49 319.845,76.516 320.623,80.866C321.401,85.215 320.889,89.697 319.15,93.758C317.41,97.82 314.52,101.283 310.836,103.722C307.151,106.16 302.834,107.466 298.415,107.48C296.507,107.539 294.599,107.335 292.746,106.876C295.127,109.48 298.084,111.49 301.381,112.746C304.678,114.001 308.224,114.467 311.734,114.105C315.243,113.743 318.619,112.563 321.591,110.661C324.563,108.759 327.047,106.188 328.846,103.152C330.644,100.117 331.706,96.702 331.947,93.182C332.188,89.662 331.601,86.135 330.233,82.883C328.864,79.631 326.753,76.744 324.068,74.455C321.383,72.166 318.2,70.538 314.772,69.701L314.772,69.283Z" fill="#000000"/>
</g>
<path d="M45.167,290.656C45.167,295.122 43.842,299.488 41.361,303.202C38.879,306.916 35.352,309.811 31.226,311.52C27.099,313.229 22.558,313.676 18.178,312.805C13.797,311.934 9.773,309.783 6.614,306.624C3.456,303.466 1.305,299.442 0.434,295.061C-0.437,290.681 0.01,286.14 1.719,282.013C3.428,277.887 6.323,274.36 10.037,271.878C13.751,269.397 18.117,268.072 22.583,268.072C25.551,268.066 28.49,268.646 31.233,269.779C33.975,270.912 36.467,272.575 38.566,274.673C40.664,276.771 42.327,279.263 43.46,282.006C44.593,284.749 45.173,287.688 45.167,290.656Z" fill="#A6CAFF"/>
<g opacity="0.2">
<path d="M28.159,268.862C31.218,272.058 33.27,276.082 34.061,280.434C34.853,284.786 34.349,289.275 32.612,293.343C30.874,297.412 27.981,300.88 24.29,303.318C20.599,305.757 16.273,307.057 11.849,307.058C9.932,307.06 8.024,306.794 6.18,306.268C8.56,308.877 11.519,310.892 14.819,312.15C18.119,313.408 21.668,313.874 25.181,313.512C28.694,313.149 32.073,311.968 35.047,310.063C38.02,308.158 40.506,305.581 42.303,302.541C44.101,299.501 45.16,296.082 45.396,292.558C45.632,289.035 45.039,285.505 43.664,282.252C42.288,278.999 40.169,276.114 37.476,273.829C34.783,271.544 31.592,269.922 28.159,269.094L28.159,268.862Z" fill="#000000"/>
</g>
<path d="M224.206,45.353C221.677,45.647 219.271,46.61 217.236,48.141C213.472,51.951 221.047,63.289 228.574,70.863C236.149,85.965 224.81,108.688 202.088,101.114C183.175,89.776 186.986,63.289 175.601,55.715C141.587,40.566 175.601,97.536 156.689,104.878C115.1,116.169 149.161,63.289 130.109,40.566L115.1,40.566C107.526,51.951 103.762,78.391 92.378,63.289C89.474,61.308 87.058,58.693 85.311,55.643C83.565,52.592 82.533,49.185 82.294,45.678C76.78,49.192 71.53,53.106 66.588,57.388C70.104,59.04 73.217,61.438 75.713,64.416C78.208,67.393 80.026,70.877 81.039,74.627C81.039,85.965 65.891,101.114 77.276,112.452C96.188,123.836 99.952,89.776 115.1,97.35C137.776,104.878 115.1,139.171 122.674,157.758C126.438,161.568 137.776,169.142 145.351,169.142C164.263,161.568 152.925,135.082 164.263,131.271C186.986,119.933 190.75,173.092 221.047,157.758C236.149,150.184 228.574,127.507 236.149,116.169C243.723,101.021 262.635,131.271 270.21,119.933C273.478,117.398 276.21,114.239 278.248,110.64C267.792,83.592 248.824,60.678 224.206,45.353Z" fill="#66ACFF"/>
<path d="M98.93,280.804C93.909,276.226 87.848,272.941 81.272,271.232C86.895,274.885 92.8,278.086 98.93,280.804Z" fill="#2B5DC1"/>
<path d="M232.339,252.459C213.426,260.033 198.278,263.797 179.366,275.135C168.027,286.473 152.879,256.223 133.967,271.371C131.304,278.034 127.062,283.951 121.606,288.611C147.675,295.022 175.071,293.428 200.22,284.036C225.369,274.645 247.104,257.892 262.589,235.963C249.392,232.943 239.309,248.974 232.339,252.459Z" fill="#2146A3"/>
<path d="M239.96,207.06C236.148,214.634 239.96,233.546 232.386,233.546C209.662,233.546 202.088,241.12 183.175,256.222C168.073,267.561 164.263,237.31 152.925,237.31C134.013,233.546 130.202,275.135 111.104,252.459C103.576,244.884 107.34,229.736 103.576,222.162C92.192,214.634 80.854,222.162 73.279,225.972C46.793,241.12 43.029,214.634 39.219,191.911C37.453,186.567 29.925,182.943 21.84,182.618C25.131,200.677 32.107,217.865 42.332,233.111C52.557,248.356 65.812,261.333 81.272,271.231C87.848,272.94 93.909,276.226 98.929,280.804C106.254,284.082 113.859,286.695 121.652,288.61C127.108,283.95 131.35,278.034 134.013,271.371C152.925,256.222 168.073,286.473 179.411,275.135C198.324,263.797 213.472,260.219 232.338,252.459C239.262,248.973 249.346,232.942 262.542,235.962C268.51,227.623 273.47,218.608 277.32,209.104C263.844,204.969 250.926,196.093 239.96,207.06Z" fill="#2B5DC1"/>
<path d="M103.762,222.162C107.526,229.736 103.762,244.885 111.29,252.459C130.203,275.135 134.013,233.547 153.111,237.31C164.449,237.31 168.26,267.561 183.362,256.223C202.274,241.121 209.848,233.546 232.572,233.546C240.146,233.546 236.334,214.634 240.146,207.06C251.112,196.094 264.03,204.969 277.32,209.244C283.872,193.227 287.234,176.085 287.218,158.78C274.346,155.853 260.638,145.908 255.062,154.133C243.724,161.707 258.872,210.87 232.386,199.532C221.048,195.722 209.662,184.384 194.56,188.194C183.176,195.722 194.56,214.681 183.176,222.208C156.689,229.783 164.263,180.387 137.777,195.722C126.439,203.296 126.439,229.783 107.526,222.208C69.702,207.106 107.526,165.471 92.378,146.559C81.04,123.883 62.127,191.958 43.215,161.707C27.881,138.938 62.127,120.026 50.789,97.582C49.682,95.439 48.132,93.555 46.241,92.057C44.35,90.559 42.163,89.48 39.823,88.893C22.41,116.873 16.064,150.345 22.026,182.757C29.972,183.176 37.639,186.8 39.405,192.051C43.215,214.774 46.979,241.26 73.466,226.112C81.04,222.162 92.378,214.634 103.762,222.162Z" fill="#3C79DD"/>
<path d="M43.215,161.661C62.127,191.911 81.04,123.836 92.378,146.512C107.526,165.425 69.702,206.92 107.526,222.162C126.439,229.736 126.439,203.249 137.777,195.675C164.263,180.573 156.689,229.736 183.176,222.162C194.56,214.634 183.176,195.675 194.56,188.147C209.662,184.337 221.047,195.675 232.385,199.485C258.871,210.824 243.723,161.661 255.061,154.086C260.637,145.769 274.345,155.713 287.217,158.733C287.199,142.378 284.159,126.168 278.249,110.918C276.211,114.518 273.479,117.677 270.209,120.212C262.635,131.55 243.723,101.299 236.149,116.448C228.575,127.786 236.149,150.462 221.047,158.269C190.75,173.417 186.986,120.444 164.263,131.782C152.925,135.592 164.263,162.079 145.351,169.653C137.777,169.653 126.439,162.079 122.675,158.269C115.101,139.356 137.777,105.295 115.101,97.861C99.952,90.286 96.188,124.347 77.276,112.963C65.891,101.624 81.04,86.476 81.04,75.138C80.026,71.388 78.209,67.903 75.713,64.926C73.217,61.949 70.104,59.551 66.588,57.898C56.106,66.879 47.077,77.428 39.823,89.171C42.138,89.727 44.31,90.764 46.199,92.212C48.088,93.661 49.652,95.49 50.789,97.582C62.127,120.026 27.881,138.938 43.215,161.661Z" fill="#458DF4"/>
<path d="M183.176,48.141C192.934,55.482 194.839,43.912 194.932,31.737C176.559,25.602 157.04,23.68 137.823,26.115C139.357,32.295 140.24,39.033 141.587,44.377C156.689,32.992 164.264,36.802 183.176,48.141Z" fill="#DCECFF"/>
<path d="M228.574,70.863C221.046,63.289 213.472,51.951 217.236,48.14C219.271,46.609 221.677,45.647 224.206,45.352C215.108,39.663 205.357,35.092 195.164,31.737C195.164,43.912 193.166,55.482 183.408,48.14C164.495,36.802 156.921,32.992 141.587,44.377C140.239,39.033 139.403,32.527 137.823,26.115C118.085,28.408 99.111,35.093 82.294,45.678C82.533,49.185 83.565,52.592 85.311,55.642C87.058,58.693 89.474,61.307 92.378,63.289C103.762,78.391 107.526,51.951 115.1,40.566L130.109,40.566C149.068,63.289 115.007,116.262 156.596,104.878C175.601,97.582 141.587,40.566 175.601,55.761C186.986,63.335 183.175,89.822 202.088,101.16C224.81,108.688 236.148,85.965 228.574,70.863Z" fill="#A6CAFF"/>
<g opacity="0.2">
<path d="M191.029,30.947C197.763,53.96 198.182,78.361 192.242,101.591C186.302,124.821 174.221,146.026 157.266,162.981C140.311,179.936 119.106,192.017 95.876,197.957C72.646,203.897 48.245,203.478 25.232,196.744C40.148,247.951 92.471,292.745 153.344,292.745C185.41,292.621 216.364,280.975 240.558,259.931C264.754,238.887 280.58,209.847 285.148,178.107C289.716,146.368 282.726,114.043 265.448,87.029C248.17,60.015 221.758,40.111 191.029,30.947Z" fill="url(#pf_0_1_2246)"/>
</g>
<g opacity="0.7">
<path d="M100.51,68.215C104.506,73.512 100.277,83.503 91.216,90.426C82.155,97.35 71.282,98.744 67.285,93.447C63.289,88.149 67.285,78.159 76.579,71.189C85.872,64.219 96.467,62.917 100.51,68.215Z" fill="#FFFFFF"/>
</g>
<defs>
<linearGradient id="pf_0_1_2246" x1="80.157" y1="101.578" x2="306.222" y2="277.458" gradientUnits="userSpaceOnUse">
<stop stop-color="#000000"/>
<stop offset="0.57" stop-color="#000000"/>
<stop offset="0.61" stop-color="#000000"/>
<stop offset="1" stop-color="#404040"/>
</linearGradient>
</defs>
</svg>
