<svg width="1352" height="1096" viewBox="0 0 1352 1096" fill="none" xmlns="http://www.w3.org/2000/svg" xmlns:xlink="http://www.w3.org/1999/xlink">
<path d="M850.883,265.077L840.71,267.302C824.758,271.598 809.096,276.908 793.819,283.198C784.918,287.013 775.858,291.145 767.274,295.755C758.691,300.365 750.266,305.133 742.001,310.379C782.534,311.65 828.789,296.391 850.883,265.077Z" transform="rotate(360 796.442 287.765)" fill="#FFF871"/>
<path d="M900,255.857C892.53,255.857 885.218,257.129 878.065,257.924C865.339,259.649 852.712,262.037 840.235,265.077C818.14,296.867 771.249,311.65 731.352,310.696L725.789,314.034C710.422,324.241 695.861,335.613 682.236,348.05C761.712,384.768 861.216,334.539 900,255.857Z" transform="rotate(360 791.119 308.078)" fill="#FFA727"/>
<path d="M936.241,255.539L920.345,255.539C913.193,255.539 906.041,255.539 899.047,255.539C860.261,334.22 760.757,384.449 681.281,347.731C668.469,359.639 656.517,372.44 645.517,386.039C749.79,433.089 887.601,363.786 936.241,255.539Z" transform="rotate(360 790.879 328.281)" fill="#9E713B"/>
<path d="M844.527,403.047C888.079,366.647 931.791,317.848 951.501,263.805C943.871,262.056 935.605,260.467 928.293,259.195L912.399,257.129C905.087,257.129 897.617,255.857 890.145,255.539C841.505,363.786 703.694,433.089 599.898,386.357C594.494,393.033 589.249,400.027 584.003,407.021C661.572,464.243 774.269,449.938 844.527,403.047Z" transform="rotate(360 767.752 349.957)" fill="#B75F00"/>
<path d="M988.219,267.143C983.451,266.03 978.681,264.758 973.913,263.805C954.045,317.848 910.333,366.647 866.939,403.047C796.681,449.938 683.665,464.245 606.574,407.021C604.03,410.518 601.487,414.174 599.262,417.83C593.222,427.049 587.817,436.745 582.572,446.759C579.075,453.594 575.737,460.747 572.558,467.899L569.697,475.053C736.597,534.819 928.135,436.427 988.219,267.143Z" transform="rotate(360 778.957 378.218)" fill="#FFA727"/>
<path d="M1003.955,286.059C987.611,278.786 970.773,272.677 953.567,267.779L950.547,266.984C890.463,436.428 698.925,534.818 532.025,475.052C527.36,485.992 523.326,497.19 519.944,508.592C518.514,513.042 517.401,517.81 516.289,522.42C709.893,576.942 941.963,473.304 1003.955,286.059Z" transform="rotate(360 760.122 401.954)" fill="#FFF871"/>
<path d="M1012.221,309.743C999.243,301.394 985.699,293.958 971.687,287.489L968.509,286.059C906.517,473.305 674.447,576.941 480.842,523.057C479.889,526.395 478.935,529.733 478.14,533.071C475.756,544.039 474.007,555.325 472.577,566.611C682.871,621.767 894.755,491.585 1012.221,309.743Z" transform="rotate(360 742.399 432.73)" fill="#FFA727"/>
<path d="M1014.817,340.102C1007.823,334.221 1000.829,328.499 993.357,323.094C985.887,317.69 980.323,314.034 973.489,309.742C856.023,491.584 644.139,621.766 433.845,566.61C432.891,574.238 431.938,582.504 431.461,589.658C430.984,596.81 431.461,602.85 431.461,609.368C431.461,613.182 431.461,616.838 431.461,620.494C431.461,624.15 431.461,626.216 431.461,629.078C651.611,684.234 902.913,545.468 1014.817,340.102Z" transform="rotate(360 723.033 475.49)" fill="#9E713B"/>
<path d="M1014.287,366.966C1013.175,365.853 1012.379,364.74 1011.425,363.628C1003.319,355.362 995.531,347.732 986.153,340.103C874.251,545.469 622.947,684.235 403.115,629.079C403.115,633.847 403.115,638.457 404.068,643.225C405.022,652.445 406.294,661.505 407.883,670.565C408.837,676.605 410.109,682.645 411.539,688.527C646.471,725.881 901.113,574.557 1014.287,366.966Z" transform="rotate(360 708.701 517.155)" fill="#B75F00"/>
<path d="M1005.862,404.16C996.58,391.1 986.438,378.674 975.502,366.965C862.328,574.557 607.686,725.879 372.754,688.525C373.867,693.295 374.979,697.903 376.251,702.513C379.97,716.345 384.535,729.935 389.921,743.205C390.411,744.129 390.835,745.085 391.193,746.067C577.008,783.421 749.312,698.381 878.54,568.517C925.872,517.702 968.488,462.69 1005.862,404.16Z" transform="rotate(360 689.308 560.94)" fill="#FFF871"/>
<path d="M987.266,493.968C982.212,479.059 976.158,464.509 969.144,450.415C962.456,437.153 954.972,424.307 946.732,411.949L941.01,404.16C903.688,462.684 861.126,517.695 813.848,568.517C684.62,697.586 511.839,783.42 326.5,746.066C330.474,755.444 334.925,764.824 339.693,773.884C345.941,785.752 352.839,797.268 360.357,808.376C617.224,846.366 843.89,700.606 987.266,493.968Z" transform="rotate(360 656.883 609.285)" fill="#FFA727"/>
<path d="M915.259,606.348C915.097,583.431 912.647,560.588 907.949,538.157C906.835,532.753 905.563,527.189 904.133,522.262C810.511,739.232 541.881,869.89 306.631,856.062C312.512,862.262 318.711,868.302 325.069,874.024C334.515,882.432 344.439,890.288 354.793,897.548C573.195,905.656 768.071,800.906 913.671,643.225C914.625,632.416 915.419,621.607 915.419,610.48C915.419,608.414 915.259,607.301 915.259,606.348Z" transform="rotate(360 611.025 710.125)" fill="#FFA727"/>
<path d="M308.379,896.276C312.988,899.774 317.598,903.112 322.367,906.29C337.073,915.912 352.482,924.414 368.463,931.724L376.728,935.22C556.981,920.914 750.425,839.849 856.447,702.196C861.771,682.516 865.387,662.413 867.255,642.112C721.655,799.634 526.779,904.384 308.379,896.276Z" transform="rotate(360 587.817 788.666)" fill="#FFF871"/>
<path d="M518.355,944.757C569.778,927.021 616.439,897.709 654.737,859.082C582.731,908.198 490.856,927.432 410.109,963.355C446.94,962.841 483.464,956.566 518.355,944.757Z" transform="rotate(360 532.422 911.218)" fill="#FFA727"/>
<path d="M762.667,787.712C644.209,877.926 503.097,933.6 354.953,948.572C367.988,952.572 381.26,955.757 394.691,958.109C414.932,961.816 435.469,963.678 456.047,963.673L462.246,963.673C542.994,927.749 634.869,908.516 706.873,859.4C728.311,838.133 746.855,814.137 762.031,788.03L762.667,787.712Z" transform="rotate(360 558.809 875.693)" fill="#9E713B"/>
<path d="M319.187,935.22C331.24,940.306 343.549,944.762 356.064,948.572C503.987,933.486 644.863,877.817 763.141,787.712C777.733,762.714 789.211,736.024 797.317,708.236C797.317,706.17 798.429,704.103 798.905,701.878C692.885,840.326 499.439,920.914 319.187,935.22Z" transform="rotate(360 559.047 825.225)" fill="#FFA727"/>
<path d="M952.772,521.785C951.024,514.95 949.116,507.956 946.89,501.28C946.89,498.737 945.142,496.353 944.188,493.968C801.132,700.606 574.148,846.366 317.598,808.376L322.844,816.324C329.783,825.866 337.211,835.046 345.097,843.822C348.276,847.638 351.773,851.134 355.27,854.79C590.202,869.414 858.83,738.754 952.772,521.785Z" transform="rotate(360 635.185 674.935)" fill="#9E713B"/>
<g opacity="0.2">
<path d="M746.149,270.163C755.481,302.509 760.243,336.002 760.297,369.667C760.043,463.442 722.625,553.291 656.243,619.527C589.859,685.761 499.925,722.977 406.15,723.019C372.43,722.993 338.881,718.231 306.487,708.871C323.62,767.991 355.859,821.627 400.028,864.497C444.197,907.365 498.772,937.987 558.377,953.347C617.981,968.707 680.559,968.273 739.945,952.089C799.333,935.907 853.477,904.531 897.049,861.055C940.621,817.577 972.113,763.501 988.425,704.149C1004.739,644.799 1005.307,582.221 990.077,522.583C974.847,462.945 944.343,408.304 901.571,364.042C858.797,319.78 805.231,287.424 746.149,270.163Z" transform="rotate(360 653.791 617.359)" fill="url(#pf_0_1_2268)"/>
</g>
<path d="M748.576,256.653C772.1,260.921 795.114,267.633 817.244,276.681C1021.18,170.342 1187.284,133.624 1230.52,195.138C1273.754,256.653 1189.032,392.398 1030.876,543.244C954.132,615.836 872.272,682.822 785.93,743.682C699.96,804.994 609.65,859.978 515.71,908.198C320.676,1006.908 163.313,1040.13 120.873,980.046C78.432,919.962 168.558,773.406 335.936,617.316C334.924,593.394 336.308,569.432 340.068,545.788C92.579,758.466 -47.458,967.488 14.692,1054.594C74.141,1138.68 303.668,1084 574.522,934.426C657.034,888.502 736.998,838.148 814.064,783.58C891.392,729.422 965.682,671.052 1036.598,608.732C1267.714,402.888 1395.99,204.834 1336.54,120.589C1275.026,33.642 1031.512,95.316 748.576,256.653Z" transform="rotate(360 675.508 587.621)" fill="#FFA727"/>
<path d="M817,276.68C829.486,281.624 841.644,287.358 853.4,293.847C857.852,296.232 862.144,298.775 866.436,301.318C1003.294,237.737 1108.996,218.345 1138.562,260.308C1168.126,302.272 1118.056,389.537 1018.87,492.697C940.144,573.015 854.094,645.811 761.844,710.143C670.536,775.599 573.31,832.379 471.438,879.747C340.78,938.717 240.798,955.407 212.028,914.875C183.257,874.341 236.029,779.925 341.732,672.155C340.568,667.173 339.614,662.247 338.872,657.371C336.84,644.099 335.514,630.729 334.898,617.315C166.726,773.883 76.123,918.213 119.835,980.045C163.547,1041.877 319.638,1006.909 514.674,908.199C608.612,859.977 698.922,804.993 784.892,743.683C871.728,682.877 954.066,615.891 1031.268,543.243C1190.222,392.399 1273.194,255.063 1230.914,195.138C1188.632,135.213 1020.936,170.341 817,276.68Z" transform="rotate(360 675.387 588.426)" fill="#FFF871"/>
<path d="M866.591,301.954C873.745,306.245 880.897,310.855 887.733,315.624C897.111,322.3 906.331,329.452 915.073,337.082C990.415,305.292 1044.141,296.072 1059.083,317.213C1074.025,338.354 1049.069,383.337 996.933,441.197C916.593,525.765 827.565,601.633 731.323,667.545C637.089,736.295 535.857,794.903 429.313,842.393C357.308,872.117 306.443,880.065 291.82,859.559C277.196,839.055 303.423,790.733 358.58,730.489C354.447,719.681 350.632,708.555 347.612,697.427C345.228,689.321 343.32,681.533 341.731,673.107C236.028,780.877 182.778,874.023 212.026,915.829C241.273,957.633 340.777,939.671 471.437,880.699C573.401,833.037 670.679,775.937 762.001,710.143C854.251,645.811 940.299,573.013 1019.027,492.697C1118.213,389.219 1167.489,300.523 1138.719,259.99C1109.949,219.457 1003.449,238.373 866.591,301.954Z" transform="rotate(360 675.466 588.636)" fill="#B75F00"/>
<g opacity="0.7">
<path d="M931.751,421.486C947.646,431.659 945.58,461.86 927.777,489.041C909.975,516.221 882.794,529.573 867.216,519.242C851.639,508.91 853.547,478.868 871.349,451.846C889.152,424.824 916.174,411.154 931.751,421.486Z" transform="rotate(360 899.583 470.384)" fill="#FFFFFF"/>
</g>
<g opacity="0.5">
<path d="M75.046,772.453C69.423,771.736 64.072,769.613 59.487,766.278C54.903,762.944 51.233,758.508 48.819,753.379C45.64,754.492 43.891,755.763 43.415,758.306C42.302,763.87 55.336,778.176 69.642,779.606C87.329,779.863 104.857,776.227 120.983,768.956C124.321,766.413 125.275,764.347 124.957,762.757C109.143,769.316 92.166,772.614 75.046,772.453Z" transform="rotate(360 84.181 766.499)" fill="#FFFA94"/>
</g>
<path d="M182.385,709.349C182.385,757.034 154.41,783.738 106.883,783.738C77.159,783.738 25.658,789.779 10.24,766.73C1.021,753.06 10.24,714.435 10.24,696.632C10.24,669.61 33.288,646.563 52.839,630.826C67.622,618.746 89.557,628.601 110.062,628.601C133.905,628.601 168.875,623.673 184.452,639.251C200.029,654.828 182.385,685.665 182.385,709.349Z" transform="rotate(360 98.51 704.633)" fill="#FFB208"/>
<path d="M124.806,655.941C118.766,665.478 132.436,673.743 143.721,671.836C148.773,670.807 153.428,668.363 157.143,664.789C160.858,661.215 163.48,656.657 164.703,651.649C166.928,641.317 161.842,627.965 149.92,634.005C140.398,639.884 131.912,647.295 124.806,655.941Z" transform="rotate(360 144.269 652.304)" fill="#FFD00B"/>
<g opacity="0.5">
<path d="M137.422,659.12C144.635,650.608 153.168,643.309 162.695,637.502C163.647,636.742 164.722,636.15 165.874,635.754C165.247,634.75 164.422,633.885 163.45,633.21C162.478,632.535 161.379,632.065 160.22,631.827C159.061,631.589 157.865,631.589 156.706,631.827C155.547,632.065 154.448,632.535 153.476,633.21C144.017,639.047 135.541,646.343 128.361,654.828C123.593,662.458 130.905,668.975 139.647,670.723C137.892,669.418 136.69,667.502 136.278,665.354C135.866,663.206 136.274,660.982 137.422,659.12Z" transform="rotate(360 146.365 651.186)" fill="#FFFA94"/>
</g>
<path d="M64.602,631.78C59.038,633.37 58.244,644.337 63.648,650.378C69.052,656.418 69.37,663.73 80.815,663.889C87.303,663.985 93.746,662.799 99.774,660.398C105.802,657.998 111.297,654.43 115.943,649.901C120.871,641.953 125.004,634.006 115.943,632.098C106.883,630.191 98.776,634.323 90.034,634.165C74.934,634.006 70.324,630.191 64.602,631.78Z" transform="rotate(360 90.642 647.644)" fill="#FFD00B"/>
<g opacity="0.5">
<path d="M72.659,656.418C67.414,650.218 68.209,639.569 73.772,637.979C79.335,636.389 83.945,640.045 99.046,640.363C106.675,640.363 113.51,637.184 121.299,637.661C121.299,634.641 121.299,632.416 116.212,631.462C107.523,631.316 98.841,632.062 90.303,633.687C74.408,633.687 70.275,629.714 64.712,631.303C59.148,632.893 58.354,643.701 63.758,649.9C69.162,656.1 69.321,661.504 77.269,663.094C75.896,660.76 74.355,658.528 72.659,656.418Z" transform="rotate(360 90.697 647.011)" fill="#FFFA94"/>
</g>
<path d="M35.963,644.814C36.728,642.502 38.015,640.396 39.724,638.659C41.433,636.923 43.518,635.603 45.818,634.8C49.604,633.908 53.538,633.844 57.351,634.612C61.164,635.38 64.767,636.963 67.912,639.251C71.933,642.629 74.896,647.094 76.446,652.112C77.996,657.129 78.069,662.487 76.655,667.544C72.045,679.625 67.118,683.44 65.21,690.116C63.303,696.792 66.323,706.011 49.315,704.263C32.307,702.514 11.325,699.335 12.915,684.87C14.504,670.406 21.975,668.975 28.81,661.822C32.723,656.924 35.199,651.037 35.963,644.814Z" transform="rotate(360 45.247 669.28)" fill="#FFD00B"/>
<g opacity="0.5">
<path d="M34.744,691.864C36.174,678.035 43.804,675.969 50.639,668.657C54.588,663.764 57.117,657.881 57.951,651.649C58.716,649.336 60.003,647.23 61.712,645.494C63.421,643.758 65.506,642.437 67.806,641.635C71.22,640.99 74.724,640.99 78.138,641.635L76.548,640.045C73.372,637.821 69.764,636.29 65.957,635.55C62.151,634.811 58.232,634.88 54.454,635.754C52.154,636.556 50.069,637.876 48.36,639.613C46.651,641.349 45.364,643.455 44.599,645.768C43.722,652.047 41.076,657.946 36.969,662.776C30.611,669.452 22.822,672.154 21.074,685.983C20.12,694.725 27.75,699.335 37.923,701.878C36.621,700.592 35.651,699.008 35.097,697.263C34.543,695.519 34.422,693.666 34.744,691.864Z" transform="rotate(360 49.566 668.46)" fill="#FFFA94"/>
</g>
<path d="M99.957,668.498C108.222,670.723 127.615,664.683 132.701,665.795C137.787,666.908 140.172,665.795 138.741,672.948C137.311,680.101 132.86,682.326 135.244,690.274C137.791,696.917 142.492,702.514 148.596,706.169C152.888,709.348 155.272,711.574 156.067,722.065C156.862,732.555 113.309,745.907 102.341,743.523C91.373,741.139 69.12,727.628 67.531,714.912C65.941,702.195 55.609,685.347 65.782,681.373C75.955,677.399 86.923,664.683 99.957,668.498Z" transform="rotate(360 108.717 704.73)" fill="#FFD00B"/>
<g opacity="0.5">
<path d="M107.976,725.085C106.387,713.005 96.055,695.361 106.069,691.546C116.083,687.731 127.369,675.651 140.403,679.148C144.926,679.928 149.549,679.928 154.073,679.148C155,677.28 155.694,675.304 156.139,673.267C157.57,666.432 155.026,667.226 150.099,666.114C145.171,665.001 125.62,671.041 117.354,668.816C104.32,665.001 94.307,677.081 83.18,681.214C72.053,685.347 83.18,702.832 84.928,714.753C86.677,726.675 108.93,740.98 119.739,743.365L122.441,743.365C115.589,739.197 110.457,732.712 107.976,725.085Z" transform="rotate(360 117.416 704.67)" fill="#FFFA94"/>
</g>
<path d="M24.761,707.282C24.761,707.282 20.788,707.282 21.264,712.528C22.372,718.571 22.372,724.764 21.264,730.807C19.675,736.212 12.84,740.98 23.967,746.702C35.093,752.425 43.359,754.332 50.512,748.769C54.229,745.994 57.185,742.323 59.102,738.099C61.02,733.874 61.838,729.234 61.479,724.608C59.89,716.501 64.658,706.011 56.711,705.216C48.763,704.421 52.737,707.6 43.359,708.395C37.142,709.097 30.85,708.721 24.761,707.282Z" transform="rotate(360 39.646 728.593)" fill="#FFD00B"/>
<g opacity="0.5">
<path d="M29.454,737.642C30.477,731.539 30.477,725.308 29.454,719.204C29.454,714.277 32.792,713.959 32.792,713.959C38.571,715.619 44.595,716.265 50.595,715.866C59.178,715.866 56.476,712.369 62.357,712.528C62.357,708.872 61.404,706.329 57.589,705.852C49.641,705.852 53.615,708.236 44.237,709.031C38.247,709.435 32.231,708.845 26.434,707.283C26.434,707.283 22.46,707.283 22.937,712.528C24.045,718.571 24.045,724.765 22.937,730.808C21.348,736.212 14.513,740.98 25.639,746.703C25.321,744.001 28.342,740.98 29.454,737.642Z" transform="rotate(360 40.881 726.277)" fill="#FFFA94"/>
</g>
<path d="M64.412,748.61C79.036,744.477 81.42,736.688 96.203,742.887C104.748,747.313 112.795,752.642 120.204,758.783C124.337,761.326 127.039,764.028 120.204,769.115C103.928,776.425 86.224,780.009 68.386,779.605C54.08,778.334 41.046,763.71 42.159,758.465C43.271,753.219 49.788,752.901 64.412,748.61Z" transform="rotate(360 83.235 760.107)" fill="#FFD00B"/>
<path d="M142.423,678.83C142.423,678.83 145.602,668.18 153.072,669.292C160.543,670.405 158.159,674.061 159.113,679.624C160.066,685.188 159.113,684.393 160.861,694.407C161.678,703.286 163.545,712.036 166.425,720.475C169.286,727.469 175.962,729.218 178.028,733.509C180.094,737.801 193.923,745.431 180.73,750.835C167.537,756.239 142.105,758.465 137.654,752.107C133.204,745.749 133.362,740.185 135.747,729.218C137.566,719.904 138.207,710.398 137.654,700.924C138.319,693.39 139.92,685.967 142.423,678.83Z" transform="rotate(360 160.23 712.594)" fill="#FFD00B"/>
<g opacity="0.5">
<path d="M153.622,747.02C149.012,740.662 149.33,735.099 151.715,724.131C153.456,714.807 154.096,705.311 153.622,695.838C154.286,688.303 155.888,680.881 158.39,673.743C158.763,672.589 159.242,671.471 159.821,670.405C158.582,669.458 157.087,668.904 155.529,668.816C148.059,667.703 144.88,678.353 144.88,678.353C142.377,685.491 140.775,692.913 140.111,700.447C140.664,709.921 140.023,719.427 138.204,728.741C135.819,739.709 135.66,744.636 140.111,751.63C144.562,758.624 169.676,755.604 183.187,750.358L186.366,748.769C173.014,752.107 157.119,752.425 153.622,747.02Z" transform="rotate(360 161.459 712.227)" fill="#FFFA94"/>
</g>
<path d="M129.405,772.294C138.307,776.405 147.802,779.087 157.539,780.241C163.898,781.195 182.972,782.626 182.018,776.585C181.064,770.545 178.998,770.704 176.137,764.823C173.276,758.942 178.521,754.968 175.024,751.312C171.527,747.656 171.686,751.312 164.374,753.379C156.541,757.241 148.098,759.715 139.419,760.69C132.584,759.578 129.882,759.101 123.524,758.465C117.165,757.829 124.795,769.274 129.405,772.294Z" transform="rotate(360 151.575 765.431)" fill="#FFD00B"/>
<g opacity="0.5">
<path d="M178.276,769.91C170.75,772.188 162.778,772.57 155.069,771.022C145.431,769.785 136.046,767.05 127.252,762.916C125.522,761.586 123.973,760.036 122.643,758.306C116.762,758.306 124.073,769.115 128.683,772.135C137.585,776.246 147.08,778.928 156.818,780.083C163.176,781.036 182.409,782.467 181.296,776.427C180.881,774.026 179.839,771.778 178.276,769.91Z" transform="rotate(360 150.897 769.627)" fill="#FFFA94"/>
</g>
<g opacity="0.7">
<path d="M85.212,715.23C86.96,717.614 85.212,722.065 80.92,725.244C76.629,728.423 72.019,728.9 70.27,726.516C68.522,724.131 70.27,719.84 74.403,716.661C78.536,713.482 83.304,712.369 85.212,715.23Z" transform="rotate(360 77.74 720.8)" fill="#FFFFFF"/>
</g>
<g opacity="0.7">
<path d="M165.391,738.596C165.391,741.457 162.212,744.636 157.284,745.59C152.357,746.544 147.588,745.59 146.952,742.093C146.317,738.596 150.131,735.894 155.218,734.94C160.304,733.986 164.914,735.576 165.391,738.596Z" transform="rotate(360 156.137 740.301)" fill="#FFFFFF"/>
</g>
<g opacity="0.7">
<path d="M153.401,662.935C153.401,665.319 149.586,666.75 145.613,666.273C141.639,665.796 138.46,663.412 138.778,661.027C139.096,658.643 142.593,657.213 146.566,657.848C150.54,658.484 153.719,660.551 153.401,662.935Z" transform="rotate(360 146.089 662.031)" fill="#FFFFFF"/>
</g>
<g opacity="0.7">
<path d="M107.621,647.039C107.621,649.423 103.806,651.013 99.832,650.377C95.858,649.741 92.679,647.675 92.997,645.291C93.315,642.906 96.812,641.476 100.945,641.953C105.077,642.43 107.938,644.814 107.621,647.039Z" transform="rotate(360 100.31 646.19)" fill="#FFFFFF"/>
</g>
<g opacity="0.7">
<path d="M33.072,660.55C31.324,662.299 27.668,660.55 24.807,658.325C21.946,656.1 20.992,651.808 22.582,650.059C24.171,648.311 27.986,650.059 30.847,652.285C33.708,654.51 34.662,658.961 33.072,660.55Z" transform="rotate(360 27.827 655.305)" fill="#FFFFFF"/>
</g>
<g opacity="0.7">
<path d="M40.225,734.94C41.656,736.689 40.225,740.344 37.046,742.888C33.867,745.431 30.052,745.908 28.621,744C27.191,742.093 28.622,738.596 31.801,736.053C34.98,733.51 38.794,733.033 40.225,734.94Z" transform="rotate(360 34.423 739.47)" fill="#FFFFFF"/>
</g>
<g opacity="0.7">
<path d="M104.284,768.161C104.284,770.545 100.787,772.294 96.655,771.976C92.522,771.658 89.343,769.751 89.502,767.366C89.661,764.982 92.999,763.234 97.132,763.552C101.264,763.869 104.443,765.777 104.284,768.161Z" transform="rotate(360 96.893 767.764)" fill="#FFFFFF"/>
</g>
<g opacity="0.7">
<path d="M136.075,774.519C136.075,776.108 133.69,777.221 130.988,777.062C128.286,776.903 126.061,775.473 126.061,773.883C126.061,772.294 128.445,771.181 131.306,771.34C134.167,771.499 136.075,772.929 136.075,774.519Z" transform="rotate(360 131.068 774.201)" fill="#FFFFFF"/>
</g>
<g opacity="0.5">
<path d="M694.649,150.631C689.85,147.577 685.885,143.378 683.11,138.411C680.336,133.445 678.839,127.867 678.754,122.179C675.416,122.179 673.349,122.179 671.76,124.404C670.17,126.629 674.144,147.452 686.542,154.764C702.55,162.72 720.167,166.906 738.043,167.003C742.176,167.003 743.765,164.778 744.083,163.189C726.936,162.316 710.133,158.048 694.649,150.631Z" transform="rotate(360 707.755 144.591)" fill="#FFFA94"/>
</g>
<path d="M769.593,127.106C749.406,170.182 712.847,182.58 669.771,162.552C642.749,149.836 593.633,133.464 589.341,106.124C586.798,90.229 611.594,58.439 619.065,42.543C630.51,17.906 661.505,6.779 685.507,0.739C703.946,-3.871 719.841,14.25 738.28,22.992C759.897,33.006 793.755,43.338 801.861,64.161C809.967,84.984 779.607,105.171 769.593,127.106Z" transform="rotate(360 696.19 85.941)" fill="#FFB208"/>
<path d="M696.756,15.84C687.219,22.039 696.756,35.232 707.088,38.57C712.091,39.711 717.312,39.439 722.168,37.783C727.025,36.126 731.324,33.152 734.587,29.192C740.945,20.608 741.899,6.462 728.706,6.939C717.641,8.138 706.847,11.145 696.756,15.84Z" transform="rotate(360 715.961 23.095)" fill="#FFD00B"/>
<g opacity="0.5">
<path d="M703.148,21.72C713.189,17.042 723.928,14.035 734.938,12.819C736.305,12.568 737.705,12.568 739.071,12.819C738.879,11.658 738.458,10.546 737.833,9.548C737.209,8.55 736.392,7.687 735.431,7.007C734.47,6.327 733.384,5.844 732.235,5.586C731.087,5.329 729.898,5.302 728.739,5.507C717.732,6.743 706.997,9.749 696.949,14.408C689.478,19.177 693.293,28.237 700.446,33.642C699.249,31.695 698.862,29.358 699.367,27.13C699.872,24.902 701.229,22.96 703.148,21.72Z" transform="rotate(360 715.978 19.506)" fill="#FFFA94"/>
</g>
<path d="M642.11,13.296C636.388,12.342 631.143,21.879 633.368,29.191C635.593,36.503 633.368,43.656 643.223,48.742C649.056,51.553 655.387,53.182 661.853,53.537C668.318,53.891 674.789,52.964 680.895,50.808C688.843,45.881 695.836,40.318 688.684,34.913C681.531,29.509 672.788,29.668 664.205,25.853C650.694,19.654 647.992,14.249 642.11,13.296Z" transform="rotate(360 662.252 33.42)" fill="#FFD00B"/>
<g opacity="0.5">
<path d="M638.357,38.887C636.132,31.099 641.536,21.721 647.1,22.992C652.663,24.264 655.524,29.191 669.035,35.867C675.87,39.205 683.5,39.205 690.335,43.02C690.845,42.397 691.205,41.665 691.386,40.88C691.568,40.096 691.566,39.28 691.382,38.496C691.198,37.712 690.835,36.981 690.323,36.36C689.81,35.739 689.162,35.244 688.427,34.914C680.798,29.032 672.532,29.668 663.949,25.694C650.279,19.177 648.053,13.773 641.854,12.819C635.655,11.865 630.728,21.403 632.953,28.714C635.178,36.026 632.953,41.59 639.788,46.358C639.311,44.451 639.152,41.749 638.357,38.887Z" transform="rotate(360 661.965 29.556)" fill="#FFFA94"/>
</g>
<path d="M637.013,51.445C638.67,49.637 640.724,48.237 643.013,47.354C645.301,46.472 647.763,46.131 650.206,46.359C653.994,47.19 657.559,48.827 660.658,51.158C663.757,53.489 666.318,56.461 668.167,59.87C670.432,64.507 671.32,69.696 670.729,74.822C670.137,79.949 668.09,84.799 664.829,88.799C655.769,97.7 648.934,98.972 644.96,104.694C640.987,110.416 639.238,119.477 623.82,110.416C608.401,101.356 592.029,90.229 599.5,78.626C606.971,67.022 615.395,67.499 623.343,64.161C628.996,61.28 633.731,56.876 637.013,51.445Z" transform="rotate(360 634.271 80.274)" fill="#FFD00B"/>
<g opacity="0.5">
<path d="M610.872,89.752C617.866,77.831 626.767,78.784 634.556,75.446C640.287,72.863 645.185,68.735 648.703,63.525C650.375,61.745 652.436,60.375 654.724,59.52C657.012,58.666 659.466,58.35 661.896,58.598C665.318,59.329 668.559,60.734 671.433,62.73C671.433,61.936 671.433,61.3 671.433,60.664C669.398,57.263 666.656,54.339 663.392,52.09C660.129,49.841 656.42,48.32 652.518,47.63C650.101,47.427 647.67,47.78 645.411,48.662C643.152,49.543 641.124,50.93 639.484,52.716C635.896,57.963 630.952,62.138 625.178,64.797C616.594,68.135 608.488,67.34 601.494,79.261C597.043,86.891 601.494,94.203 609.918,100.879C609.114,99.097 608.779,97.139 608.946,95.191C609.113,93.244 609.776,91.371 610.872,89.752Z" transform="rotate(360 635.586 74.227)" fill="#FFFA94"/>
</g>
<path d="M712.304,46.2C718.821,51.763 739.008,54.465 742.982,57.644C746.956,60.823 749.658,60.982 745.525,66.704C741.392,72.427 736.306,72.586 735.193,80.851C734.694,87.872 736.539,94.861 740.439,100.72C742.982,105.33 744.253,108.35 740.439,118.046C736.624,127.742 691.64,121.543 682.739,114.708C673.838,107.873 660.327,85.62 664.618,74.016C668.91,62.413 666.367,42.226 677.176,43.02C687.984,43.815 702.608,37.298 712.304,46.2Z" transform="rotate(360 705.695 82.256)" fill="#FFD00B"/>
<g opacity="0.5">
<path d="M680.722,93.408C684.378,81.964 682.47,61.618 693.279,61.618C704.088,61.618 719.347,56.055 729.52,64.956C733.341,67.543 737.594,69.427 742.077,70.519C743.663,69.193 745.102,67.701 746.369,66.069C750.502,60.346 747.959,60.028 743.826,57.008C739.693,53.988 719.506,51.763 712.512,46.2C702.339,37.298 688.192,43.815 676.271,43.02C664.35,42.226 667.37,62.572 663.714,74.811C660.058,87.05 674.205,108.827 683.106,115.503L685.49,116.933C680.98,109.978 679.276,101.571 680.722,93.408Z" transform="rotate(360 705.798 79.196)" fill="#FFFA94"/>
</g>
<path d="M648.103,107.873C648.103,107.873 644.288,106.442 642.699,111.211C640.784,116.969 637.88,122.348 634.115,127.106C630.459,131.239 622.194,132.67 629.665,143.001C637.135,153.333 643.97,158.897 652.713,156.195C657.257,155.223 661.485,153.128 665.012,150.101C668.538,147.075 671.25,143.213 672.9,138.869C674.966,130.762 683.709,122.974 676.715,119.318C669.721,115.662 672.105,119.318 663.363,116.456C657.817,114.502 652.654,111.597 648.103,107.873Z" transform="rotate(360 653.01 132.273)" fill="#FFD00B"/>
<g opacity="0.5">
<path d="M636.55,136.325C640.247,131.548 643.097,126.171 644.975,120.43C646.723,115.661 650.379,117.092 650.379,117.092C655.072,121.107 660.459,124.232 666.274,126.311C674.381,129.172 673.109,126.311 678.355,128.218C679.785,125.039 680.103,122.178 676.765,120.271C669.93,116.138 672.155,120.271 663.413,117.41C657.597,115.33 652.211,112.206 647.518,108.19C647.518,108.19 643.703,106.76 642.113,111.528C640.199,117.286 637.294,122.665 633.53,127.424C629.874,131.556 621.609,132.987 629.079,143.319C630.192,140.458 634.166,138.868 636.55,136.325Z" transform="rotate(360 652.717 125.654)" fill="#FFFA94"/>
</g>
<path d="M694.464,125.358C709.565,127.742 714.969,121.702 725.301,133.306C731.468,140.753 736.798,148.855 741.196,157.466C743.898,161.599 745.17,165.096 737.063,166.845C719.197,166.67 701.597,162.488 685.563,154.605C673.164,147.293 667.442,128.855 670.78,124.245C674.118,119.636 679.523,122.974 694.464,125.358Z" transform="rotate(360 706.549 144.393)" fill="#FFD00B"/>
<path d="M776.169,29.827C776.169,29.827 783.639,21.562 789.997,25.694C796.356,29.827 792.541,32.211 791.11,37.616C789.68,43.02 789.044,42.066 786.183,51.763C783.192,60.187 781.218,68.938 780.301,77.831C780.301,85.302 785.229,89.752 785.388,93.726C785.547,97.7 794.925,111.37 780.46,109.621C765.996,107.873 742.312,100.402 740.881,92.613C739.451,84.825 742.153,80.056 748.829,71.155C754.35,63.915 758.942,56.011 762.499,47.63C766.339,41.178 770.927,35.203 776.169,29.827Z" transform="rotate(360 767.032 67.156)" fill="#FFD00B"/>
<g opacity="0.5">
<path d="M755.884,95.316C754.453,87.686 756.997,82.759 763.832,73.857C769.427,66.152 774.021,57.766 777.502,48.902C781.233,42.697 785.66,36.938 790.695,31.735C791.543,30.821 792.504,30.02 793.556,29.351C792.814,27.974 791.716,26.821 790.377,26.013C784.019,21.88 776.548,30.145 776.548,30.145C771.326,35.422 766.739,41.29 762.878,47.63C759.431,56.51 754.835,64.9 749.208,72.586C742.532,81.487 739.83,86.415 741.26,94.044C742.691,101.674 766.216,111.211 780.84,111.211L784.337,111.211C771.779,108.191 755.884,101.833 755.884,95.316Z" transform="rotate(360 767.222 68.033)" fill="#FFFA94"/>
</g>
<path d="M745.602,116.456C751.902,123.953 759.361,130.392 767.697,135.53C772.942,139.027 789.791,148.564 791.381,142.524C792.97,136.484 791.381,136.007 791.381,129.49C791.381,122.973 797.739,121.542 796.149,116.774C794.56,112.005 792.97,115.184 785.658,114.072C776.913,114.196 768.209,112.853 759.908,110.098C755.566,106.942 751.055,104.023 746.397,101.355C740.516,98.176 742.741,111.21 745.602,116.456Z" transform="rotate(360 769.552 122.672)" fill="#FFD00B"/>
<g opacity="0.5">
<path d="M795.642,135.53C787.797,134.57 780.314,131.675 773.866,127.106C765.584,121.831 758.137,115.349 751.771,107.873C750.736,105.98 749.986,103.944 749.546,101.833C744.3,98.971 746.367,112.165 749.546,116.774C755.791,124.367 763.258,130.868 771.64,136.007C776.886,139.504 793.735,148.882 795.324,143.001C796.196,140.603 796.307,137.994 795.642,135.53Z" transform="rotate(360 771.206 123.163)" fill="#FFFA94"/>
</g>
<g opacity="0.7">
<path d="M693.726,108.032C693.726,110.893 690.705,114.072 685.619,115.185C680.533,116.298 675.923,115.185 675.446,111.847C674.969,108.509 678.307,105.807 683.394,104.694C688.48,103.581 693.09,105.012 693.726,108.032Z" transform="rotate(360 684.563 109.96)" fill="#FFFFFF"/>
</g>
<g opacity="0.7">
<path d="M773.04,97.223C772.245,100.084 767.635,101.355 762.549,100.084C757.463,98.812 754.124,95.474 754.919,92.613C755.714,89.752 760.324,88.321 765.251,89.593C770.179,90.865 773.676,94.361 773.04,97.223Z" transform="rotate(360 763.958 94.851)" fill="#FFFFFF"/>
</g>
<g opacity="0.7">
<path d="M727.951,31.734C726.68,33.642 722.865,33.483 719.368,31.734C715.871,29.986 714.122,26.171 715.394,24.264C716.666,22.356 720.48,22.356 723.977,24.264C727.474,26.171 727.951,30.145 727.951,31.734Z" transform="rotate(360 721.465 27.969)" fill="#FFFFFF"/>
</g>
<g opacity="0.7">
<path d="M679.851,37.139C678.58,39.205 674.765,39.046 671.268,37.139C667.771,35.231 666.022,31.575 667.294,29.668C668.566,27.76 672.381,27.76 675.878,29.668C679.374,31.575 681.123,35.231 679.851,37.139Z" transform="rotate(360 673.573 33.433)" fill="#FFFFFF"/>
</g>
<g opacity="0.7">
<path d="M614.363,79.421C612.137,79.421 609.117,77.672 607.846,73.857C606.574,70.042 607.051,66.227 609.276,65.433C611.501,64.638 614.522,67.181 615.793,70.996C617.065,74.811 616.588,78.467 614.363,79.421Z" transform="rotate(360 611.819 72.354)" fill="#FFFFFF"/>
</g>
<g opacity="0.7">
<path d="M660.862,143.955C660.862,146.18 658.637,148.883 654.663,149.836C650.689,150.79 647.033,149.836 646.398,147.293C645.762,144.75 648.782,142.366 652.756,141.412C656.73,140.458 660.385,141.571 660.862,143.955Z" transform="rotate(360 653.588 145.635)" fill="#FFFFFF"/>
</g>
<g opacity="0.7">
<path d="M728.473,148.246C727.36,150.313 723.545,150.472 719.889,148.246C716.234,146.021 714.167,143.16 715.28,141.093C716.392,139.027 720.207,138.868 723.863,141.093C727.519,143.319 728.473,146.18 728.473,148.246Z" transform="rotate(360 721.726 144.67)" fill="#FFFFFF"/>
</g>
<g opacity="0.7">
<path d="M760.146,138.55C760.146,139.981 756.808,139.981 754.264,138.55C751.721,137.12 750.608,135.053 751.244,133.623C751.88,132.192 754.582,132.192 756.967,133.623C759.351,135.053 760.781,137.12 760.146,138.55Z" transform="rotate(360 755.683 136.086)" fill="#FFFFFF"/>
</g>
<defs>
<linearGradient id="pf_0_1_2268" x1="855.971" y1="777.151" x2="257.038" y2="311.102" gradientUnits="userSpaceOnUse">
<stop stop-color="#000000"/>
<stop offset="0.57" stop-color="#000000"/>
<stop offset="0.61" stop-color="#000000"/>
<stop offset="1" stop-color="#404040"/>
</linearGradient>
</defs>
</svg>
