<svg width="2870" height="2936" viewBox="0 0 2870 2936" fill="none" xmlns="http://www.w3.org/2000/svg" xmlns:xlink="http://www.w3.org/1999/xlink">
<path d="M2593.474,154.547C2593.474,185.113 2584.41,214.992 2567.428,240.408C2550.446,265.824 2526.308,285.632 2498.07,297.328C2469.829,309.026 2438.755,312.086 2408.776,306.124C2378.797,300.16 2351.259,285.442 2329.646,263.828C2308.032,242.214 2293.313,214.676 2287.35,184.697C2281.386,154.718 2284.447,123.644 2296.144,95.404C2307.841,67.164 2327.65,43.028 2353.065,26.046C2378.48,9.064 2408.36,0 2438.927,0C2479.915,0 2519.224,16.283 2548.208,45.266C2577.19,74.249 2593.474,113.558 2593.474,154.547Z" transform="rotate(360 2438.927 154.547)" fill="#458DF4"/>
<g opacity="0.2">
<path d="M2435.241,2.808C2456.201,24.631 2470.276,52.14 2475.709,81.907C2481.142,111.674 2477.695,142.381 2465.796,170.202C2453.897,198.023 2434.074,221.726 2408.796,238.358C2383.518,254.99 2353.905,263.814 2323.646,263.73C2310.125,263.678 2296.655,262.062 2283.504,258.914C2299.99,276.144 2320.24,289.324 2342.668,297.424C2365.096,305.526 2389.094,308.326 2412.785,305.608C2436.476,302.89 2459.216,294.726 2479.227,281.756C2499.236,268.786 2515.974,251.362 2528.13,230.846C2540.284,210.33 2547.528,187.28 2549.292,163.499C2551.054,139.718 2547.292,115.852 2538.296,93.767C2529.3,71.683 2515.316,51.98 2497.438,36.2C2479.559,20.42 2458.272,8.991 2435.241,2.808Z" transform="rotate(360 2416.61 154.712)" fill="#000000"/>
</g>
<path d="M2353.426,2781.437C2353.426,2812.003 2344.362,2841.882 2327.38,2867.298C2310.398,2892.714 2286.26,2912.522 2258.022,2924.218C2229.781,2935.916 2198.707,2938.976 2168.728,2933.014C2138.749,2927.05 2111.211,2912.332 2089.597,2890.718C2067.984,2869.104 2053.264,2841.566 2047.301,2811.587C2041.338,2781.608 2044.399,2750.534 2056.096,2722.294C2067.793,2694.054 2087.602,2669.918 2113.017,2652.936C2138.432,2635.954 2168.312,2626.89 2198.878,2626.89C2239.867,2626.89 2279.176,2643.173 2308.16,2672.156C2337.142,2701.139 2353.426,2740.448 2353.426,2781.437Z" transform="rotate(360 2198.878 2781.437)" fill="#458DF4"/>
<g opacity="0.2">
<path d="M2195.194,2629.698C2218.292,2654.022 2232.85,2685.2 2236.669,2718.526C2240.488,2751.852 2233.361,2785.515 2216.363,2814.434C2199.366,2843.352 2173.421,2865.954 2142.447,2878.83C2111.472,2891.704 2077.15,2894.152 2044.661,2885.804C2061.147,2903.164 2081.441,2916.456 2103.943,2924.634C2126.444,2932.81 2150.537,2935.648 2174.323,2932.922C2198.108,2930.196 2220.935,2921.982 2241.003,2908.928C2261.071,2895.872 2277.831,2878.334 2289.963,2857.694C2302.095,2837.054 2309.265,2813.878 2310.909,2789.993C2312.553,2766.109 2308.625,2742.169 2299.437,2720.062C2290.247,2697.955 2276.047,2678.285 2257.957,2662.603C2239.867,2646.921 2218.381,2635.657 2195.194,2629.698Z" transform="rotate(360 2177.968 2781.813)" fill="#000000"/>
</g>
<path d="M711.215,269.351C711.215,307.937 699.773,345.655 678.337,377.737C656.899,409.819 626.431,434.825 590.783,449.591C555.135,464.357 515.909,468.221 478.065,460.693C440.222,453.165 405.46,434.585 378.176,407.301C350.892,380.017 332.312,345.255 324.784,307.411C317.257,269.568 321.12,230.341 335.886,194.693C350.652,159.045 375.657,128.577 407.739,107.14C439.822,85.703 477.54,74.261 516.125,74.261C541.759,74.208 567.153,79.218 590.845,89.004C614.539,98.789 636.067,113.157 654.193,131.284C672.319,149.41 686.687,170.938 696.473,194.631C706.257,218.324 711.267,243.717 711.215,269.351Z" transform="rotate(360 516.126 269.351)" fill="#458DF4"/>
<g opacity="0.2">
<path d="M503.784,80.284C530.039,107.986 547.611,142.769 554.331,180.34C561.051,217.912 556.625,256.629 541.601,291.716C526.577,326.802 501.609,356.722 469.78,377.786C437.951,398.85 400.652,410.136 362.484,410.25C345.924,410.236 329.444,407.94 313.511,403.426C334.073,425.926 359.62,443.294 388.104,454.138C416.589,464.984 447.218,469.004 477.536,465.876C507.854,462.75 537.019,452.562 562.689,436.132C588.361,419.7 609.825,397.484 625.361,371.262C640.899,345.04 650.075,315.542 652.155,285.134C654.237,254.726 649.163,224.254 637.343,196.16C625.523,168.066 607.285,143.132 584.091,123.358C560.899,103.583 533.393,89.519 503.784,82.291L503.784,80.284Z" transform="rotate(360 483.061 273.595)" fill="#000000"/>
</g>
<path d="M394.897,786.784C394.897,825.37 383.455,863.088 362.019,895.17C340.581,927.252 310.113,952.258 274.465,967.024C238.817,981.79 199.591,985.652 161.747,978.126C123.903,970.598 89.142,952.018 61.858,924.734C34.574,897.45 15.994,862.688 8.466,824.844C0.938,787 4.802,747.774 19.568,712.126C34.334,676.478 59.339,646.009 91.421,624.572C123.503,603.136 161.222,591.694 199.807,591.694C251.549,591.694 301.169,612.248 337.757,648.834C374.343,685.421 394.897,735.043 394.897,786.784Z" transform="rotate(360 199.807 786.784)" fill="#A6CAFF"/>
<g opacity="0.2">
<path d="M190.273,598.519C216.528,626.221 234.1,661.004 240.82,698.576C247.54,736.147 243.114,774.864 228.09,809.951C213.064,845.037 188.098,874.957 156.269,896.021C124.44,917.085 87.141,928.371 48.973,928.485C32.487,928.995 16.009,927.239 0,923.267C20.562,945.767 46.109,963.135 74.593,973.979C103.078,984.825 133.707,988.845 164.025,985.717C194.343,982.591 223.508,972.403 249.178,955.973C274.85,939.541 296.314,917.325 311.85,891.103C327.388,864.881 336.564,835.383 338.644,804.975C340.724,774.567 335.652,744.094 323.832,716C312.012,687.906 293.774,662.973 270.58,643.198C247.386,623.424 219.882,609.359 190.273,602.131L190.273,598.519Z" transform="rotate(360 169.55 792.633)" fill="#000000"/>
</g>
<path d="M2868.043,2510.881C2868.043,2549.467 2856.601,2587.185 2835.165,2619.267C2813.727,2651.349 2783.259,2676.355 2747.611,2691.121C2711.963,2705.887 2672.736,2709.751 2634.892,2702.223C2597.049,2694.695 2562.287,2676.115 2535.003,2648.831C2507.719,2621.547 2489.139,2586.785 2481.611,2548.941C2474.084,2511.097 2477.947,2471.871 2492.713,2436.223C2507.479,2400.575 2532.484,2370.106 2564.566,2348.67C2596.649,2327.233 2634.367,2315.791 2672.953,2315.791C2698.587,2315.738 2723.979,2320.748 2747.673,2330.534C2771.367,2340.319 2792.895,2354.687 2811.021,2372.814C2829.147,2390.94 2843.515,2412.467 2853.301,2436.161C2863.085,2459.854 2868.095,2485.247 2868.043,2510.881Z" transform="rotate(360 2672.953 2510.881)" fill="#A6CAFF"/>
<g opacity="0.2">
<path d="M2665.313,2322.613C2691.734,2350.224 2709.462,2384.985 2716.3,2422.583C2723.138,2460.18 2718.782,2498.958 2703.776,2534.103C2688.77,2569.247 2663.771,2599.211 2631.885,2620.273C2599.999,2641.335 2562.63,2652.569 2524.415,2652.579C2507.853,2652.591 2491.37,2650.295 2475.442,2645.755C2496.004,2668.295 2521.565,2685.697 2550.073,2696.563C2578.58,2707.431 2609.239,2711.461 2639.587,2708.331C2669.935,2705.199 2699.124,2694.995 2724.814,2678.535C2750.502,2662.077 2771.972,2639.823 2787.498,2613.561C2803.026,2587.299 2812.178,2557.761 2814.218,2527.321C2816.26,2496.881 2811.132,2466.386 2799.25,2438.287C2787.368,2410.187 2769.06,2385.266 2745.8,2365.525C2722.538,2345.785 2694.972,2331.775 2665.313,2324.62L2665.313,2322.613Z" transform="rotate(360 2645.049 2515.987)" fill="#000000"/>
</g>
<path d="M1825.96,391.788C1804.108,394.334 1783.326,402.647 1765.746,415.873C1733.232,448.789 1798.662,546.736 1863.692,612.167C1929.124,742.627 1831.178,938.923 1634.884,873.491C1471.506,775.545 1504.422,546.736 1406.074,481.304C1112.236,350.441 1406.074,842.581 1242.696,906.005C883.426,1003.551 1177.666,546.736 1013.084,350.441L883.426,350.441C817.994,448.789 785.48,677.197 687.132,546.736C662.049,529.618 641.178,507.033 626.089,480.68C611.001,454.327 602.089,424.894 600.024,394.598C552.387,424.957 507.039,458.767 464.344,495.755C494.714,510.032 521.612,530.749 543.17,556.465C564.729,582.183 580.431,612.285 589.186,644.681C589.186,742.627 458.323,873.491 556.671,971.437C720.048,1069.785 752.564,775.545 883.426,840.975C1079.318,906.005 883.426,1202.253 948.858,1362.821C981.372,1395.737 1079.318,1461.169 1144.75,1461.169C1308.128,1395.737 1210.182,1166.929 1308.128,1134.011C1504.422,1036.065 1536.938,1495.289 1798.662,1362.821C1929.124,1297.389 1863.692,1101.497 1929.124,1003.551C1994.556,872.687 2157.934,1134.011 2223.364,1036.065C2251.602,1014.169 2275.208,986.879 2292.81,955.781C2202.48,722.127 2038.626,524.177 1825.96,391.788Z" transform="rotate(360 1378.577 905.805)" fill="#66ACFF"/>
<path d="M2165.96,2425.779C2122.586,2386.233 2070.23,2357.85 2013.421,2343.086C2061.996,2374.648 2113.003,2402.299 2165.96,2425.779Z" transform="rotate(360 2089.69 2384.433)" fill="#2B5DC1"/>
<path d="M1556.202,2180.911C1392.824,2246.343 1261.96,2278.857 1098.582,2376.803C1000.636,2474.749 869.774,2213.426 706.396,2344.289C683.394,2401.849 646.751,2452.957 599.618,2493.215C824.816,2548.599 1061.48,2534.827 1278.734,2453.697C1495.99,2372.567 1683.75,2227.843 1817.526,2038.407C1703.522,2012.314 1616.414,2150.804 1556.202,2180.911Z" transform="rotate(360 1208.572 2280.875)" fill="#2146A3"/>
<path d="M2356.636,1788.721C2323.72,1854.153 2356.636,2017.531 2291.204,2017.531C2094.91,2017.531 2029.478,2082.963 1866.1,2213.423C1735.64,2311.371 1702.724,2050.045 1604.776,2050.045C1441.398,2017.531 1408.482,2376.801 1243.5,2180.909C1178.47,2115.477 1210.984,1984.615 1178.47,1919.183C1080.122,1854.153 982.174,1919.183 916.744,1952.099C687.934,2082.963 655.42,1854.153 622.503,1657.859C607.249,1611.696 542.219,1580.385 472.372,1577.575C500.808,1733.585 561.069,1882.067 649.4,2013.769C737.73,2145.471 852.238,2257.571 985.788,2343.083C1042.596,2357.845 1094.952,2386.229 1138.328,2425.775C1201.602,2454.099 1267.3,2476.669 1334.622,2493.213C1381.754,2452.955 1418.398,2401.847 1441.398,2344.287C1604.776,2213.423 1735.64,2474.747 1833.586,2376.801C1996.964,2278.855 2127.826,2247.945 2290.802,2180.909C2350.614,2150.803 2437.722,2012.313 2551.732,2038.405C2603.272,1966.365 2646.112,1888.485 2679.372,1806.385C2562.972,1770.658 2451.37,1693.987 2356.636,1788.721Z" transform="rotate(360 1575.875 2035.394)" fill="#2B5DC1"/>
<path d="M1111.83,1919.184C1144.344,1984.614 1111.83,2115.478 1176.86,2180.91C1340.238,2376.802 1373.154,2017.532 1538.138,2050.046C1636.084,2050.046 1669,2311.37 1799.462,2213.424C1962.84,2082.962 2028.27,2017.532 2224.566,2017.532C2289.996,2017.532 2257.08,1854.154 2289.996,1788.722C2384.732,1693.988 2496.326,1770.658 2611.126,1807.588C2667.746,1669.228 2696.786,1521.142 2696.626,1371.646C2585.446,1346.358 2467.026,1260.454 2418.846,1331.506C2320.906,1396.936 2451.766,1821.638 2222.96,1723.692C2125.012,1690.776 2026.666,1592.83 1896.204,1625.746C1797.856,1690.776 1896.204,1854.554 1797.856,1919.584C1569.046,1985.016 1634.478,1558.308 1405.668,1690.776C1307.722,1756.206 1307.722,1985.016 1144.344,1919.584C817.59,1789.124 1144.344,1429.452 1013.482,1266.074C915.536,1070.18 752.158,1658.26 588.78,1396.936C456.312,1200.24 752.158,1036.864 654.212,842.978C644.648,824.462 631.254,808.194 614.922,795.252C598.588,782.309 579.688,772.99 559.476,767.912C409.051,1009.63 354.228,1298.776 405.733,1578.78C474.376,1582.392 540.61,1613.704 555.864,1659.064C588.78,1855.358 621.296,2084.166 850.104,1953.304C915.536,1919.184 1013.482,1854.154 1111.83,1919.184Z" transform="rotate(360 1541.751 1503.799)" fill="#3C79DD"/>
<path d="M421.628,1396.541C585.006,1657.865 748.383,1069.785 846.329,1265.679C977.193,1429.055 650.437,1787.523 977.193,1919.189C1140.569,1984.621 1140.569,1755.811 1238.517,1690.381C1467.325,1559.919 1401.895,1984.621 1630.703,1919.189C1729.051,1854.159 1630.703,1690.381 1729.051,1625.351C1859.513,1592.433 1957.861,1690.381 2055.807,1723.297C2284.615,1821.243 2153.753,1396.541 2251.699,1331.109C2299.869,1259.255 2418.287,1345.159 2529.487,1371.251C2529.327,1229.967 2503.067,1089.927 2452.007,958.191C2434.407,989.287 2410.807,1016.577 2382.563,1038.475C2317.131,1136.421 2153.753,875.097 2088.321,1005.959C2022.891,1103.905 2088.321,1299.799 1957.861,1367.237C1696.135,1498.101 1663.619,1040.481 1467.325,1138.429C1369.379,1171.345 1467.325,1400.153 1303.947,1465.585C1238.517,1465.585 1140.569,1400.153 1108.055,1367.237C1042.623,1203.859 1238.517,909.619 1042.623,845.391C911.761,779.961 879.245,1074.201 715.867,975.853C617.521,877.907 748.383,747.045 748.383,649.098C739.627,616.702 723.927,586.6 702.367,560.882C680.809,535.165 653.911,514.448 623.541,500.171C532.989,577.751 454.993,668.882 392.324,770.327C412.321,775.133 431.086,784.083 447.405,796.599C463.724,809.115 477.233,824.917 487.059,842.983C585.006,1036.869 289.159,1200.247 421.628,1396.541Z" transform="rotate(360 1458.175 1215.501)" fill="#458DF4"/>
<path d="M1575.872,415.869C1660.17,479.292 1676.628,379.339 1677.43,274.167C1518.71,221.167 1350.096,204.566 1184.086,225.596C1197.333,278.985 1204.96,337.19 1216.601,383.354C1347.063,285.006 1412.494,317.922 1575.872,415.869Z" transform="rotate(360 1430.759 326.224)" fill="#DCECFF"/>
<path d="M2136.92,612.167C2071.89,546.735 2006.46,448.789 2038.974,415.871C2056.554,402.645 2077.336,394.333 2099.188,391.786C2020.59,342.637 1936.354,303.147 1848.3,274.17C1848.3,379.342 1831.04,479.297 1746.742,415.871C1583.364,317.925 1517.932,285.009 1385.464,383.357C1373.822,337.193 1366.596,280.995 1352.948,225.599C1182.438,245.413 1018.529,303.158 873.252,394.596C875.317,424.893 884.229,454.327 899.317,480.679C914.406,507.031 935.277,529.617 960.36,546.735C1058.708,677.197 1091.222,448.789 1156.654,350.44L1286.312,350.44C1450.092,546.735 1155.852,1004.353 1515.122,906.005C1679.302,842.983 1385.464,350.44 1679.302,481.705C1777.65,547.137 1744.734,775.945 1908.112,873.891C2104.406,938.921 2202.352,742.627 2136.92,612.167Z" transform="rotate(360 1515.191 572.64)" fill="#A6CAFF"/>
<g opacity="0.2">
<path d="M1825.218,267.349C1883.394,466.148 1887.014,676.939 1835.698,877.619C1784.38,1078.299 1680.016,1261.477 1533.548,1407.945C1387.08,1554.413 1203.902,1658.777 1003.222,1710.095C802.542,1761.411 591.752,1757.791 392.952,1699.615C521.808,2141.979 973.806,2528.949 1499.666,2528.949C1776.678,2527.869 2044.076,2427.269 2253.092,2245.467C2462.112,2063.673 2598.812,1812.807 2638.292,1538.619C2677.752,1264.429 2617.352,985.189 2468.092,751.823C2318.844,518.457 2090.68,346.512 1825.218,267.349Z" transform="rotate(360 1521.511 1398.148)" fill="url(#pf_0_1_667)"/>
</g>
<g opacity="0.7">
<path d="M2287.086,589.288C2321.608,635.05 2285.078,721.355 2206.802,781.165C2128.525,840.977 2034.593,853.021 2000.071,807.259C1965.549,761.497 2000.071,675.192 2080.355,614.979C2160.639,554.766 2252.162,543.526 2287.086,589.288Z" transform="rotate(360 2143.429 698.139)" fill="#FFFFFF"/>
</g>
<defs>
<linearGradient id="pf_0_1_667" x1="2175.592" y1="1918.789" x2="222.685" y2="399.416" gradientUnits="userSpaceOnUse">
<stop stop-color="#000000"/>
<stop offset="0.57" stop-color="#000000"/>
<stop offset="0.61" stop-color="#000000"/>
<stop offset="1" stop-color="#404040"/>
</linearGradient>
</defs>
</svg>
