<svg width="1846" height="1658" viewBox="0 0 1846 1658" fill="none" xmlns="http://www.w3.org/2000/svg" xmlns:xlink="http://www.w3.org/1999/xlink">
<path d="M1634.068,106.773C1634.068,127.73 1627.85,148.216 1616.202,165.637C1604.553,183.059 1587.997,196.632 1568.63,204.64C1549.262,212.646 1527.955,214.728 1507.404,210.62C1486.854,206.51 1467.984,196.397 1453.185,181.559C1438.385,166.721 1428.321,147.825 1424.266,127.264C1420.21,106.703 1422.347,85.401 1430.405,66.055C1438.462,46.709 1452.079,30.188 1469.531,18.584C1486.982,6.981 1507.484,0.816 1528.441,0.87C1542.336,0.87 1556.094,3.612 1568.927,8.937C1581.76,14.263 1593.417,22.068 1603.229,31.905C1613.041,41.743 1620.815,53.42 1626.108,66.267C1631.4,79.114 1634.104,92.879 1634.068,106.773Z" fill="#F41111"/>
<g opacity="0.7">
<path d="M1516.536,57.259C1516.59,60.111 1515.791,62.914 1514.24,65.308C1512.69,67.702 1510.459,69.577 1507.834,70.694C1505.209,71.81 1502.311,72.117 1499.511,71.574C1496.711,71.031 1494.137,69.663 1492.12,67.646C1490.104,65.629 1488.736,63.055 1488.193,60.255C1487.65,57.455 1487.956,54.557 1489.073,51.932C1490.189,49.308 1492.065,47.077 1494.459,45.526C1496.853,43.976 1499.655,43.176 1502.507,43.231C1506.228,43.231 1509.796,44.709 1512.427,47.34C1515.058,49.97 1516.536,53.539 1516.536,57.259Z" fill="#FFFFFF"/>
</g>
<g opacity="0.2">
<path d="M1556.697,4.721C1570.947,19.739 1580.482,38.604 1584.124,58.983C1587.767,79.362 1585.356,100.362 1577.19,119.386C1569.025,138.41 1555.462,154.623 1538.18,166.021C1520.898,177.419 1500.655,183.502 1479.952,183.517C1470.666,183.543 1461.417,182.341 1452.445,179.941C1463.734,191.601 1477.558,200.503 1492.843,205.955C1508.129,211.409 1524.465,213.265 1540.585,211.383C1556.704,209.501 1572.173,203.929 1585.791,195.101C1599.409,186.272 1610.809,174.425 1619.108,160.478C1627.406,146.531 1632.379,130.859 1633.64,114.679C1634.902,98.499 1632.418,82.246 1626.381,67.181C1620.345,52.116 1610.919,38.645 1598.834,27.813C1586.749,16.981 1572.33,9.079 1556.697,4.721Z" fill="#000000"/>
</g>
<path d="M1845.489,417.603C1845.435,444.032 1837.549,469.851 1822.827,491.8C1808.103,513.748 1787.207,530.84 1762.774,540.916C1738.341,550.992 1711.471,553.6 1685.556,548.41C1659.642,543.222 1635.848,530.468 1617.179,511.76C1598.511,493.054 1585.806,469.233 1580.67,443.308C1575.534,417.383 1578.197,390.518 1588.323,366.106C1598.45,341.694 1615.585,320.832 1637.563,306.155C1659.541,291.477 1685.377,283.644 1711.805,283.644C1747.286,283.717 1781.289,297.862 1806.351,322.977C1831.413,348.091 1845.489,382.123 1845.489,417.603Z" fill="#FF9F36"/>
<g opacity="0.2">
<path d="M1744.017,288.595C1762.176,307.497 1774.365,331.329 1779.061,357.115C1783.758,382.902 1780.754,409.501 1770.426,433.591C1760.097,457.681 1742.901,478.195 1720.985,492.571C1699.069,506.947 1673.403,514.549 1647.192,514.429C1635.866,514.371 1624.592,512.893 1613.634,510.027C1627.723,525.445 1645.23,537.345 1664.748,544.777C1684.267,552.209 1705.256,554.963 1726.031,552.821C1746.807,550.677 1766.791,543.697 1784.382,532.437C1801.973,521.179 1816.682,505.955 1827.328,487.987C1837.974,470.018 1844.262,449.805 1845.688,428.968C1847.114,408.131 1843.638,387.25 1835.538,367.999C1827.44,348.748 1814.942,331.662 1799.048,318.112C1783.154,304.561 1764.307,294.923 1744.017,289.971L1744.017,288.595Z" fill="#000000"/>
</g>
<path d="M1120.984,150.508C1073.998,128.912 1024.976,112.049 974.646,100.17C866.268,147.483 740.562,135.38 619.254,97.695C542.068,114.874 467.892,143.524 399.198,182.692C644.012,225.878 903.402,249.259 1120.984,150.508Z" fill="#FFB727"/>
<path d="M974.647,100.17C857.945,72.061 736.336,71.213 619.255,97.694C740.561,135.379 866.269,147.482 974.647,100.17Z" fill="#FFC215"/>
<path d="M1112.46,284.358C1160.314,268.955 1206.782,249.54 1251.37,226.318C1210.364,197.012 1166.714,171.595 1120.986,150.399C903.406,249.699 644.014,226.318 398.925,183.132C347.837,212.661 300.147,247.714 256.714,287.659C531.488,398.143 838.546,396.959 1112.46,284.358Z" fill="#FF9F36"/>
<path d="M1415.862,382.889C1400.184,362.534 1383.404,343.279 1365.8,324.574C1291.378,398.934 1194.87,447.187 1090.73,462.109C784.576,544.63 441.012,550.958 213.253,330.901C175.195,371.822 141.544,416.63 112.852,464.585C511.43,644.756 1127.864,730.854 1415.862,382.889Z" fill="#F9832B"/>
<path d="M1554.499,656.363C1548.997,635.733 1542.395,615.653 1535.243,595.573C1469.231,640.378 1394.051,669.887 1315.187,681.945C880.299,790.047 427.807,793.623 74.617,531.481C48.485,587.417 29.005,646.226 16.577,706.701C484.473,928.133 1125.113,930.333 1554.499,656.363Z" fill="#FF6A17"/>
<path d="M1535.517,1133.612C1554.473,1081.159 1567.841,1026.853 1575.403,971.595C1150.143,1284.351 469.067,1235.387 14.925,1018.632C29.777,1095.488 56.112,1169.671 93.045,1238.689C552.689,1402.081 1097.603,1356.145 1535.517,1133.612Z" fill="#EA1111"/>
<path d="M137.605,1311.033C165.327,1351.105 196.63,1388.577 231.129,1422.987C517.477,1463.422 803.277,1400.156 1067.619,1488.178C1123.581,1509.402 1183.343,1518.769 1243.115,1515.685C1302.921,1473.917 1356.697,1424.121 1402.931,1367.697C1024.983,1491.204 536.733,1335.239 137.605,1311.033Z" fill="#CE0B0B"/>
<path d="M1141.336,1574.551C1176.744,1556.878 1210.766,1536.557 1243.112,1513.76C1183.34,1516.843 1123.578,1507.476 1067.616,1486.253C803.274,1398.23 517.474,1461.496 231.126,1421.061C265.924,1455.817 303.76,1487.392 344.181,1515.41C577.716,1429.313 884.97,1482.952 1141.336,1574.551Z" fill="#BF0C0C"/>
<path d="M669.595,1646.344C709.888,1652.86 750.635,1656.171 791.451,1656.246C815.933,1656.246 840.139,1656.246 864.07,1652.67C799.428,1621.037 731.761,1608.659 669.595,1646.344Z" fill="#751104"/>
<path d="M518.582,1607.007C567.489,1625.099 618.077,1638.275 669.596,1646.343C731.762,1608.658 799.43,1621.036 864.072,1652.669C927.172,1646.957 989.34,1633.563 1049.194,1612.784C890.752,1538.79 684.174,1541.265 518.582,1607.007Z" fill="#871108"/>
<path d="M344.184,1517.336C398.343,1554.391 456.931,1584.517 518.579,1607.009C683.622,1540.717 890.75,1538.792 1049.19,1612.786C1080.742,1602.156 1111.53,1589.381 1141.34,1574.551C884.974,1482.952 577.72,1429.313 344.184,1517.336Z" fill="#A3130C"/>
<path d="M1402.929,1367.698C1460.627,1297.941 1505.851,1218.751 1536.613,1133.612C1097.599,1356.144 552.685,1402.082 93.041,1237.038C106.523,1262.504 121.399,1287.206 137.602,1311.033C536.731,1335.238 1024.981,1491.204 1402.929,1367.698Z" fill="#E01212"/>
<path d="M1575.402,971.594C1580.248,936.223 1582.73,900.568 1582.828,864.867C1582.828,845.062 1582.828,825.532 1580.352,806.277C1117.684,1073.645 444.31,1229.337 0.07,903.377C2.04,942.121 7.006,980.654 14.924,1018.631C469.066,1235.387 1150.142,1284.351 1575.402,971.594Z" fill="#F41111"/>
<path d="M1580.352,806.278C1578.976,789.223 1577.326,772.444 1575.126,755.94C1138.864,1046.14 428.08,1036.236 8.872,749.338C3.141,787.584 0.2,826.195 0.07,864.868C0.07,877.796 0.07,890.449 0.07,903.378C444.31,1229.336 1117.684,1073.646 1580.352,806.278Z" fill="#FF1212"/>
<path d="M1575.128,755.939C1570.4,722.338 1563.51,689.077 1554.498,656.364C1125.112,930.334 484.472,928.134 16.576,706.702C13.55,720.73 11.074,734.209 8.874,749.338C428.082,1036.236 1138.866,1046.14 1575.128,755.939Z" fill="#FF4715"/>
<path d="M1314.083,684.641C1392.947,672.583 1468.127,643.075 1534.139,598.269C1505.927,520.641 1465.639,447.953 1414.759,382.889C1127.859,730.853 511.425,644.757 112.023,463.209C98.309,486.189 85.822,509.878 74.613,534.178C427.805,796.321 880.295,792.745 1314.083,684.641Z" fill="#FC6F29"/>
<path d="M1089.899,463.432C1194.041,448.51 1290.547,400.256 1364.971,325.895C1330.283,289.241 1292.251,255.904 1251.365,226.32C1206.761,249.353 1160.293,268.584 1112.455,283.81C838.541,396.41 531.485,397.594 256.71,287.11C241.306,301.414 226.727,316.268 212.423,331.672C440.181,552.28 783.745,545.128 1089.899,463.432Z" fill="#FF9A22"/>
<g opacity="0.2">
<path d="M1013.43,105.396C1034.582,177.493 1045.326,252.242 1045.338,327.378C1045.338,431.304 1024.868,534.212 985.098,630.226C945.326,726.24 887.034,813.482 813.548,886.968C665.136,1035.38 463.846,1118.758 253.958,1118.758C178.82,1118.77 104.068,1108.024 31.976,1086.85C70.489,1218.764 142.69,1338.378 241.472,1433.914C340.252,1529.452 462.21,1597.618 595.338,1631.706C728.466,1665.794 868.176,1664.628 1000.716,1628.322C1133.256,1592.016 1254.058,1521.824 1351.23,1424.65C1448.404,1327.478 1518.596,1206.676 1554.902,1074.136C1591.208,941.596 1592.374,801.886 1558.286,668.758C1524.198,535.63 1456.032,413.672 1360.494,314.892C1264.958,216.11 1145.344,143.91 1013.43,105.396Z" fill="url(#pf_0_1_1107)"/>
</g>
<g opacity="0.6">
<path d="M551.86,270.439C575.516,301.797 551.86,360.662 496.846,401.923C441.832,443.184 378.841,451.161 354.91,419.803C330.979,388.445 354.91,329.304 409.924,288.044C464.938,246.783 527.929,239.081 551.86,270.439Z" fill="#FFFFFF"/>
</g>
<g opacity="0.4">
<path d="M1695.334,365.615C1695.334,367.806 1694.898,369.974 1694.052,371.995C1693.205,374.015 1691.965,375.847 1690.403,377.383C1688.841,378.92 1686.989,380.13 1684.955,380.943C1682.921,381.756 1680.745,382.156 1678.555,382.119C1675.224,382.119 1671.969,381.127 1669.204,379.271C1666.439,377.415 1664.289,374.778 1663.028,371.696C1661.766,368.614 1661.451,365.226 1662.121,361.964C1662.791,358.702 1664.416,355.713 1666.79,353.377C1669.165,351.042 1672.18,349.466 1675.453,348.85C1678.726,348.234 1682.108,348.606 1685.168,349.918C1688.229,351.23 1690.83,353.424 1692.641,356.219C1694.451,359.014 1695.388,362.285 1695.334,365.615Z" fill="#FFFFFF"/>
</g>
<defs>
<linearGradient id="pf_0_1_1107" x1="355.459" y1="525.705" x2="1693.404" y2="1566.848" gradientUnits="userSpaceOnUse">
<stop stop-color="#000000"/>
<stop offset="0.14" stop-color="#030001"/>
<stop offset="0.27" stop-color="#0E0103"/>
<stop offset="0.39" stop-color="#200206"/>
<stop offset="0.51" stop-color="#3A040B"/>
<stop offset="0.62" stop-color="#5A0611"/>
<stop offset="0.73" stop-color="#820919"/>
<stop offset="0.84" stop-color="#B20C22"/>
<stop offset="0.95" stop-color="#E80F2D"/>
<stop offset="0.99" stop-color="#FF1131"/>
</linearGradient>
</defs>
</svg>
