<svg width="972" height="872" viewBox="0 0 972 872" fill="none" xmlns="http://www.w3.org/2000/svg" xmlns:xlink="http://www.w3.org/1999/xlink">
<path d="M223.384,55.747C223.384,66.779 220.111,77.562 213.979,86.733C207.847,95.903 199.132,103.049 188.937,107.264C178.742,111.479 167.526,112.574 156.708,110.411C145.891,108.249 135.958,102.925 128.167,95.114C120.377,87.303 115.079,77.357 112.944,66.533C110.81,55.71 111.934,44.497 116.176,34.313C120.418,24.129 127.585,15.433 136.772,9.325C145.958,3.217 156.75,-0.028 167.782,0C175.096,0 182.338,1.443 189.094,4.246C195.849,7.05 201.985,11.158 207.15,16.337C212.315,21.515 216.407,27.662 219.193,34.424C221.979,41.187 223.403,48.433 223.384,55.747Z" transform="rotate(360 167.638 55.747)" fill="#F41111"/>
<g opacity="0.5">
<path d="M188.485,29.684C188.513,31.185 188.092,32.66 187.276,33.921C186.46,35.181 185.286,36.168 183.904,36.756C182.523,37.344 180.997,37.505 179.523,37.219C178.049,36.933 176.694,36.213 175.633,35.151C174.571,34.09 173.851,32.735 173.565,31.261C173.279,29.787 173.44,28.261 174.028,26.88C174.616,25.498 175.603,24.324 176.863,23.508C178.124,22.691 179.599,22.271 181.1,22.299C183.059,22.299 184.937,23.077 186.322,24.462C187.707,25.847 188.485,27.725 188.485,29.684Z" transform="rotate(360 180.957 29.827)" fill="#FFFFFF"/>
</g>
<g opacity="0.2">
<path d="M166.495,2.027C173.996,9.933 179.015,19.863 180.932,30.591C182.85,41.318 181.581,52.373 177.282,62.387C172.984,72.401 165.845,80.935 156.748,86.935C147.65,92.935 136.994,96.137 126.097,96.145C121.208,96.158 116.34,95.526 111.617,94.263C117.559,100.4 124.836,105.086 132.882,107.956C140.929,110.827 149.528,111.804 158.013,110.813C166.499,109.822 174.641,106.89 181.81,102.242C188.978,97.595 194.979,91.359 199.348,84.017C203.716,76.675 206.333,68.426 206.997,59.909C207.661,51.392 206.354,42.836 203.176,34.906C199.999,26.976 195.037,19.885 188.675,14.183C182.314,8.481 174.724,4.321 166.495,2.027Z" transform="rotate(360 159.391 56.608)" fill="#000000"/>
</g>
<path d="M141.427,219.366C141.399,233.278 137.247,246.87 129.497,258.423C121.747,269.976 110.747,278.973 97.886,284.277C85.025,289.581 70.88,290.954 57.239,288.223C43.598,285.491 31.073,278.778 21.245,268.93C11.418,259.083 4.731,246.544 2.027,232.897C-0.677,219.25 0.725,205.109 6.056,192.258C11.386,179.408 20.406,168.426 31.975,160.7C43.545,152.974 57.144,148.851 71.056,148.851C89.733,148.889 107.632,156.335 120.825,169.555C134.018,182.775 141.427,200.69 141.427,219.366Z" transform="rotate(360 71.056 219.222)" fill="#FF9F36"/>
<g opacity="0.2">
<path d="M68.633,151.457C78.192,161.407 84.608,173.952 87.08,187.526C89.553,201.1 87.972,215.101 82.535,227.782C77.098,240.463 68.046,251.262 56.509,258.829C44.972,266.397 31.462,270.399 17.665,270.335C11.703,270.305 5.768,269.526 0,268.018C7.417,276.134 16.632,282.398 26.906,286.31C37.181,290.222 48.229,291.672 59.165,290.544C70.102,289.416 80.621,285.742 89.881,279.815C99.141,273.888 106.883,265.874 112.488,256.416C118.092,246.957 121.402,236.317 122.152,225.349C122.903,214.38 121.073,203.389 116.81,193.255C112.546,183.121 105.967,174.127 97.601,166.994C89.235,159.862 79.314,154.788 68.633,152.181L68.633,151.457Z" transform="rotate(360 61.158 221.186)" fill="#000000"/>
</g>
<path d="M761.592,78.77C736.858,67.401 711.054,58.525 684.56,52.272C627.51,77.177 561.338,70.806 497.483,50.969C456.852,60.012 417.806,75.093 381.646,95.711C510.514,118.444 647.058,130.752 761.592,78.77Z" transform="rotate(360 571.618 83.127)" fill="#FFB727"/>
<path d="M645.754,52.272C584.323,37.475 520.309,37.029 458.677,50.968C522.533,70.805 588.704,77.177 645.754,52.272Z" transform="rotate(360 552.216 54.677)" fill="#FFC215"/>
<path d="M763.473,149.228C788.663,141.12 813.123,130.9 836.595,118.676C815.009,103.249 792.031,89.87 767.961,78.712C653.427,130.983 516.885,118.676 387.87,95.943C360.977,111.487 335.874,129.938 313.011,150.965C457.651,209.124 619.285,208.5 763.473,149.228Z" transform="rotate(360 574.802 136.425)" fill="#FF9F36"/>
<path d="M912.322,201.093C904.068,190.378 895.236,180.243 885.97,170.396C846.794,209.539 795.992,234.94 741.172,242.795C580.014,286.233 399.164,289.564 279.273,173.727C259.24,195.268 241.526,218.854 226.422,244.098C436.232,338.939 760.72,384.26 912.322,201.093Z" transform="rotate(360 569.373 248.624)" fill="#F9832B"/>
<path d="M963.001,345.049C960.105,334.189 956.631,323.619 952.865,313.049C918.117,336.635 878.543,352.168 837.029,358.515C608.105,415.42 369.915,417.302 183.997,279.312C170.242,308.756 159.988,339.713 153.445,371.547C399.743,488.108 736.975,489.266 963.001,345.049Z" transform="rotate(360 558.224 367.816)" fill="#FF6A17"/>
<path d="M942.875,596.271C952.853,568.66 959.891,540.074 963.871,510.986C740.015,675.62 381.499,649.846 142.441,535.747C150.259,576.203 164.122,615.253 183.564,651.584C425.517,737.592 712.359,713.412 942.875,596.271Z" transform="rotate(360 553.156 606.997)" fill="#EA1111"/>
<path d="M233.229,689.665C247.822,710.759 264.3,730.484 282.46,748.597C433.193,769.882 583.637,736.579 722.785,782.914C752.243,794.086 783.701,799.016 815.165,797.393C846.647,775.407 874.955,749.194 899.291,719.493C700.341,784.507 443.329,702.407 233.229,689.665Z" transform="rotate(360 566.261 743.68)" fill="#CE0B0B"/>
<path d="M796.49,828.379C815.128,819.077 833.036,808.38 850.064,796.379C818.6,798.002 787.142,793.072 757.684,781.9C618.534,735.565 468.091,768.868 317.358,747.583C335.675,765.878 355.592,782.5 376.869,797.248C499.801,751.927 661.538,780.162 796.49,828.379Z" transform="rotate(360 583.711 787.981)" fill="#BF0C0C"/>
<path d="M516.884,866.172C538.095,869.602 559.543,871.345 581.029,871.384C593.916,871.384 606.658,871.384 619.255,869.502C585.228,852.85 549.608,846.334 516.884,866.172Z" transform="rotate(360 568.07 862.647)" fill="#751104"/>
<path d="M419.436,845.466C445.181,854.989 471.81,861.925 498.929,866.171C531.653,846.334 567.273,852.85 601.3,869.502C634.516,866.495 667.24,859.444 698.748,848.506C615.345,809.556 506.603,810.859 419.436,845.466Z" transform="rotate(360 559.092 844.45)" fill="#871108"/>
<path d="M370.931,798.263C399.44,817.768 430.28,833.626 462.731,845.466C549.609,810.57 658.641,809.557 742.043,848.507C758.653,842.912 774.859,836.187 790.551,828.38C655.601,780.163 493.863,751.928 370.931,798.263Z" transform="rotate(360 580.741 811.587)" fill="#A3130C"/>
<path d="M852.38,719.493C882.752,682.774 906.558,641.088 922.75,596.271C691.656,713.412 404.814,737.593 162.86,650.715C169.957,664.12 177.788,677.123 186.317,689.665C396.416,702.407 653.43,784.507 852.38,719.493Z" transform="rotate(360 542.806 670.264)" fill="#E01212"/>
<path d="M967.781,510.986C970.333,492.367 971.639,473.599 971.691,454.805C971.691,444.38 971.691,434.1 970.387,423.964C726.841,564.706 372.379,646.66 138.533,475.077C139.57,495.472 142.184,515.755 146.352,535.747C385.411,649.846 743.927,675.62 967.781,510.986Z" transform="rotate(360 555.112 525.928)" fill="#F41111"/>
<path d="M971.69,423.963C970.966,414.986 970.098,406.153 968.94,397.465C739.292,550.225 365.14,545.013 144.469,393.99C141.453,414.123 139.904,434.448 139.836,454.805C139.836,461.61 139.836,468.271 139.836,475.076C373.682,646.66 728.144,564.705 971.69,423.963Z" transform="rotate(360 555.763 482.866)" fill="#FF1212"/>
<path d="M967.056,397.466C964.568,379.779 960.94,362.27 956.196,345.05C730.17,489.267 392.938,488.109 146.641,371.548C145.048,378.932 143.745,386.027 142.586,393.991C363.256,545.013 737.41,550.226 967.056,397.466Z" transform="rotate(360 554.821 427.36)" fill="#FF4715"/>
<path d="M816.614,359.934C858.128,353.587 897.702,338.054 932.452,314.468C917.6,273.605 896.392,235.342 869.61,201.093C718.588,384.26 394.098,338.939 183.855,243.373C176.636,255.47 170.063,267.94 164.162,280.731C350.081,418.721 588.27,416.839 816.614,359.934Z" transform="rotate(360 548.307 298.738)" fill="#FC6F29"/>
<path d="M715.112,243.49C769.932,235.635 820.732,210.235 859.908,171.092C841.65,151.797 821.628,134.249 800.108,118.676C776.628,130.8 752.166,140.924 726.986,148.938C582.798,208.211 421.165,208.834 276.524,150.676C268.416,158.205 260.741,166.024 253.212,174.133C373.103,290.259 553.954,286.495 715.112,243.49Z" transform="rotate(360 556.56 194.896)" fill="#FF9A22"/>
<g opacity="0.2">
<path d="M655.066,55.022C666.2,92.974 671.856,132.322 671.862,171.873C671.862,226.579 661.086,280.748 640.152,331.29C619.216,381.832 588.532,427.756 549.848,466.438C471.724,544.562 365.766,588.452 255.282,588.452C215.73,588.458 176.381,582.802 138.432,571.656C158.705,641.096 196.711,704.06 248.71,754.35C300.708,804.64 364.906,840.522 434.984,858.466C505.062,876.41 578.604,875.796 648.374,856.686C718.142,837.574 781.732,800.624 832.882,749.472C884.034,698.322 920.984,634.732 940.096,564.964C959.206,495.194 959.82,421.652 941.876,351.574C923.932,281.496 888.05,217.298 837.76,165.3C787.47,113.302 724.506,75.296 655.066,55.022Z" transform="rotate(360 546.664 463.254)" fill="url(#pf_0_1_2104)"/>
</g>
<g opacity="0.7">
<path d="M784.966,141.9C797.419,158.407 784.966,189.393 756.007,211.113C727.048,232.832 693.889,237.031 681.292,220.525C668.695,204.018 681.292,172.887 710.251,151.167C739.211,129.448 772.369,125.394 784.966,141.9Z" transform="rotate(360 733.098 181.186)" fill="#FFFFFF"/>
</g>
<g opacity="0.5">
<path d="M96.973,192C96.973,193.153 96.743,194.295 96.298,195.358C95.852,196.422 95.199,197.386 94.377,198.195C93.555,199.003 92.58,199.64 91.509,200.068C90.438,200.496 89.293,200.707 88.14,200.688C86.387,200.687 84.674,200.166 83.218,199.188C81.763,198.211 80.631,196.823 79.967,195.201C79.303,193.578 79.137,191.795 79.489,190.078C79.842,188.361 80.698,186.787 81.948,185.558C83.197,184.329 84.785,183.499 86.507,183.175C88.23,182.851 90.011,183.046 91.622,183.737C93.233,184.428 94.602,185.582 95.555,187.054C96.508,188.525 97.001,190.247 96.973,192Z" transform="rotate(360 88.141 191.856)" fill="#FFFFFF"/>
</g>
<defs>
<linearGradient id="pf_0_1_2104" x1="784.615" y1="650.237" x2="80.326" y2="102.183" gradientUnits="userSpaceOnUse">
<stop stop-color="#000000"/>
<stop offset="0.14" stop-color="#030001"/>
<stop offset="0.27" stop-color="#0E0103"/>
<stop offset="0.39" stop-color="#200206"/>
<stop offset="0.51" stop-color="#3A040B"/>
<stop offset="0.62" stop-color="#5A0611"/>
<stop offset="0.73" stop-color="#820919"/>
<stop offset="0.84" stop-color="#B20C22"/>
<stop offset="0.95" stop-color="#E80F2D"/>
<stop offset="0.99" stop-color="#FF1131"/>
</linearGradient>
</defs>
</svg>
