<svg width="2114" height="2194" viewBox="0 0 2114 2194" fill="none" xmlns="http://www.w3.org/2000/svg" xmlns:xlink="http://www.w3.org/1999/xlink">
<path d="M1500.437,199.951C1500.437,222.944 1493.915,245.42 1481.697,264.537C1469.478,283.654 1452.112,298.554 1431.794,307.354C1411.476,316.152 1389.118,318.454 1367.549,313.968C1345.979,309.484 1326.166,298.412 1310.615,282.153C1295.064,265.895 1284.474,245.181 1280.184,222.631C1275.893,200.08 1278.095,176.706 1286.511,155.464C1294.927,134.222 1309.179,116.066 1327.465,103.292C1345.751,90.518 1367.249,83.7 1389.242,83.7C1418.732,83.7 1447.015,95.948 1467.868,117.749C1488.721,139.55 1500.437,169.119 1500.437,199.951Z" transform="rotate(138.524 1389.242 199.951)" fill="#EDB656"/>
<g opacity="0.2">
<path d="M1404.114,100.913C1419.178,117.307 1429.295,137.973 1433.202,160.336C1437.109,182.699 1434.634,205.77 1426.086,226.673C1417.539,247.575 1403.296,265.386 1385.132,277.884C1366.969,290.382 1345.69,297.016 1323.945,296.957C1314.465,296.908 1305.028,295.624 1295.852,293.137C1307.551,306.521 1322.087,316.851 1338.294,323.303C1354.502,329.753 1371.929,332.145 1389.18,330.285C1406.43,328.425 1423.024,322.365 1437.631,312.591C1452.237,302.817 1464.45,289.602 1473.29,274.003C1482.13,258.405 1487.351,240.858 1488.535,222.77C1489.719,204.681 1486.833,186.555 1480.108,169.843C1473.382,153.131 1463.005,138.299 1449.808,126.536C1436.611,114.773 1420.962,106.407 1404.114,102.107L1404.114,100.913Z" transform="rotate(138.525 1392.323 215.905)" fill="#000000"/>
</g>
<path d="M781.247,1935.861C781.247,1958.854 774.725,1981.33 762.507,2000.447C750.288,2019.564 732.922,2034.466 712.604,2043.264C692.286,2052.062 669.928,2054.364 648.358,2049.88C626.789,2045.394 606.976,2034.322 591.425,2018.063C575.874,2001.805 565.284,1981.091 560.993,1958.541C556.703,1935.99 558.905,1912.616 567.321,1891.374C575.737,1870.132 589.989,1851.976 608.275,1839.202C626.561,1826.428 648.059,1819.61 670.051,1819.61C684.662,1819.578 699.135,1822.564 712.639,1828.395C726.144,1834.226 738.414,1842.788 748.745,1853.589C759.077,1864.39 767.267,1877.218 772.843,1891.336C778.421,1905.455 781.277,1920.586 781.247,1935.861Z" transform="rotate(138.524 670.051 1935.861)" fill="#0CB0C1"/>
<g opacity="0.2">
<path d="M686.361,1838.057C701.331,1854.506 711.357,1875.184 715.196,1897.532C719.036,1919.879 716.522,1942.912 707.964,1963.78C699.406,1984.648 685.181,2002.432 667.051,2014.932C648.921,2027.431 627.682,2034.095 605.964,2034.1C596.56,2034.05 587.198,2032.767 578.1,2030.279C589.931,2043.325 604.5,2053.319 620.656,2059.473C636.813,2065.627 654.117,2067.771 671.202,2065.739C688.288,2063.705 704.688,2057.551 719.109,2047.759C733.53,2037.968 745.579,2024.807 754.304,2009.316C763.029,1993.824 768.192,1976.425 769.386,1958.491C770.58,1940.557 767.772,1922.578 761.184,1905.972C754.596,1889.366 744.408,1874.587 731.424,1862.801C718.439,1851.016 703.013,1842.545 686.361,1838.057Z" transform="rotate(138.525 673.877 1952.27)" fill="#000000"/>
</g>
<path d="M303.781,759.049C304.054,777.321 299.12,795.265 289.608,810.597C280.096,825.929 266.436,837.956 250.366,845.147C234.296,852.338 216.544,854.368 199.367,850.978C182.191,847.588 166.367,838.932 153.91,826.112C141.454,813.292 132.927,796.887 129.415,778.984C125.904,761.082 127.566,742.492 134.191,725.581C140.816,708.67 152.103,694.201 166.617,684.017C181.131,673.833 198.215,668.394 215.695,668.392C238.821,668.389 261.021,677.894 277.501,694.855C293.981,711.817 303.421,734.874 303.781,759.049Z" transform="rotate(138.524 215.706 760.484)" fill="#FFD685"/>
<g opacity="0.2">
<path d="M230.364,681.923C242.259,694.934 250.238,711.31 253.313,729.019C256.388,746.728 254.423,764.991 247.662,781.543C240.901,798.095 229.641,812.209 215.279,822.133C200.917,832.057 184.085,837.356 166.869,837.371C159.16,837.371 151.483,836.328 144.029,834.267C153.41,844.594 164.956,852.501 177.759,857.365C190.562,862.229 204.27,863.917 217.804,862.296C231.337,860.674 244.325,855.788 255.743,848.022C267.162,840.256 276.698,829.823 283.601,817.546C290.503,805.268 294.583,791.482 295.519,777.274C296.454,763.067 294.219,748.826 288.991,735.676C283.763,722.525 275.683,710.824 265.39,701.496C255.097,692.168 242.872,685.467 229.679,681.923L230.364,681.923Z" transform="rotate(138.525 219.878 772.408)" fill="#000000"/>
</g>
<path d="M1683.516,402.419C1683.562,420.643 1678.434,438.472 1668.782,453.648C1659.131,468.823 1645.39,480.664 1629.298,487.671C1613.206,494.678 1595.488,496.536 1578.386,493.01C1561.284,489.483 1545.567,480.731 1533.225,467.862C1520.883,454.992 1512.471,438.583 1509.053,420.713C1505.636,402.842 1507.367,384.313 1514.027,367.471C1520.687,350.63 1531.978,336.233 1546.468,326.103C1560.959,315.973 1577.998,310.566 1595.43,310.566C1618.752,310.566 1641.123,320.236 1657.636,337.455C1674.148,354.673 1683.456,378.036 1683.516,402.419Z" transform="rotate(138.524 1595.43 402.658)" fill="#0CB0C1"/>
<g opacity="0.2">
<path d="M1609.487,324.5C1621.319,337.536 1629.236,353.913 1632.261,371.604C1635.285,389.294 1633.283,407.524 1626.503,424.038C1619.723,440.553 1608.462,454.627 1594.112,464.521C1579.762,474.416 1562.953,479.696 1545.764,479.709C1538.063,479.809 1530.383,478.846 1522.924,476.844C1532.304,487.066 1543.817,494.884 1556.564,499.687C1569.311,504.49 1582.947,506.148 1596.409,504.532C1609.87,502.916 1622.792,498.07 1634.166,490.372C1645.54,482.673 1655.058,472.331 1661.979,460.152C1668.899,447.973 1673.033,434.287 1674.059,420.162C1675.085,406.037 1672.975,391.855 1667.894,378.724C1662.812,365.592 1654.897,353.865 1644.766,344.459C1634.634,335.053 1622.56,328.222 1609.487,324.5Z" transform="rotate(138.525 1598.618 414.816)" fill="#000000"/>
</g>
<path d="M1758.203,557.604C1765.877,565.682 1771.09,575.954 1773.187,587.125C1775.284,598.297 1774.17,609.868 1769.985,620.378C1765.801,630.888 1758.733,639.868 1749.674,646.185C1740.614,652.502 1729.969,655.873 1719.079,655.873C1708.19,655.873 1697.544,652.502 1688.485,646.185C1679.425,639.868 1672.358,630.888 1668.173,620.378C1663.989,609.868 1662.875,598.297 1664.971,587.125C1667.068,575.954 1672.282,565.682 1679.955,557.604C1685.08,552.208 1691.176,547.927 1697.89,545.005C1704.605,542.083 1711.806,540.578 1719.079,540.578C1726.352,540.578 1733.553,542.083 1740.268,545.005C1746.983,547.927 1753.078,552.208 1758.203,557.604Z" transform="rotate(138.524 1719.079 598.226)" fill="#FFD685"/>
<g opacity="0.2">
<path d="M1682.217,561.701C1696.368,561.849 1709.889,567.847 1719.825,578.385C1724.966,583.724 1729.047,590.073 1731.831,597.068C1734.615,604.063 1736.049,611.564 1736.049,619.141C1736.049,626.717 1734.615,634.218 1731.831,641.213C1729.047,648.208 1724.966,654.557 1719.825,659.896C1716.54,663.296 1712.865,666.258 1708.885,668.715C1716.322,668.908 1723.718,667.506 1730.618,664.596C1737.517,661.685 1743.773,657.328 1749.001,651.793C1758.479,641.909 1764.179,628.746 1765.031,614.777C1765.883,600.809 1761.828,586.995 1753.627,575.933C1745.426,564.87 1733.644,557.319 1720.495,554.698C1707.346,552.078 1693.734,554.568 1682.217,561.701Z" transform="rotate(138.517 1723.68 611.207)" fill="#000000"/>
</g>
<path d="M1145.412,238.411C1153.163,246.503 1158.444,256.818 1160.587,268.049C1162.73,279.28 1161.638,290.923 1157.449,301.506C1153.261,312.088 1146.164,321.133 1137.057,327.498C1127.95,333.862 1117.242,337.259 1106.287,337.259C1095.333,337.259 1084.625,333.862 1075.518,327.498C1066.411,321.133 1059.314,312.088 1055.126,301.506C1050.937,290.923 1049.845,279.28 1051.988,268.049C1054.131,256.818 1059.412,246.503 1067.163,238.411C1077.574,227.63 1091.634,221.583 1106.287,221.583C1120.94,221.583 1135.001,227.63 1145.412,238.411Z" transform="rotate(138.524 1106.287 279.421)" fill="#FFD685"/>
<g opacity="0.2">
<path d="M1070.214,243.665C1081.001,243.888 1091.486,247.428 1100.361,253.843C1109.236,260.258 1116.107,269.264 1120.118,279.737C1124.13,290.21 1125.102,301.686 1122.916,312.733C1120.729,323.78 1115.479,333.91 1107.822,341.857C1104.516,345.333 1100.756,348.302 1096.654,350.675C1105.143,350.882 1113.563,349.028 1121.252,345.258C1128.941,341.489 1135.689,335.906 1140.967,328.95C1146.244,321.993 1149.908,313.852 1151.669,305.165C1153.43,296.478 1153.241,287.483 1151.117,278.886C1148.993,270.288 1144.991,262.323 1139.427,255.615C1133.862,248.908 1126.886,243.64 1119.046,240.227C1111.206,236.814 1102.717,235.349 1094.244,235.945C1085.771,236.541 1077.546,239.184 1070.214,243.665Z" transform="rotate(138.517 1111.539 293.253)" fill="#000000"/>
</g>
<path d="M491.636,594.892C499.342,602.957 504.588,613.229 506.711,624.41C508.834,635.59 507.738,647.178 503.563,657.709C499.388,668.239 492.321,677.239 483.254,683.57C474.188,689.902 463.53,693.282 452.626,693.282C441.723,693.282 431.065,689.902 421.998,683.57C412.932,677.239 405.864,668.239 401.689,657.709C397.514,647.178 396.419,635.59 398.542,624.41C400.665,613.229 405.911,602.957 413.617,594.892C418.738,589.533 424.819,585.282 431.512,582.381C438.206,579.48 445.381,577.987 452.626,577.987C459.872,577.987 467.047,579.48 473.74,582.381C480.434,585.282 486.515,589.533 491.636,594.892Z" transform="rotate(138.524 452.626 635.634)" fill="#0CB0C1"/>
<g opacity="0.2">
<path d="M416.353,600.086C427.14,600.31 437.625,603.85 446.499,610.265C455.374,616.68 462.246,625.686 466.257,636.159C470.268,646.632 471.241,658.108 469.054,669.155C466.868,680.202 461.618,690.332 453.961,698.279C450.69,701.696 447.013,704.659 443.02,707.097C451.502,707.268 459.906,705.383 467.574,701.589C475.242,697.795 481.965,692.196 487.217,685.229C492.469,678.263 496.107,670.12 497.845,661.438C499.583,652.756 499.374,643.77 497.235,635.187C495.096,626.603 491.084,618.654 485.515,611.962C479.946,605.271 472.971,600.02 465.136,596.62C457.3,593.219 448.819,591.763 440.355,592.364C431.891,592.966 423.676,595.609 416.353,600.086Z" transform="rotate(138.517 457.681 649.67)" fill="#000000"/>
</g>
<path d="M278.028,1015.31C285.733,1023.375 290.979,1033.647 293.102,1044.828C295.226,1056.009 294.13,1067.597 289.955,1078.127C285.78,1088.658 278.713,1097.658 269.646,1103.99C260.579,1110.321 249.921,1113.701 239.018,1113.701C228.114,1113.701 217.456,1110.321 208.389,1103.99C199.322,1097.658 192.255,1088.658 188.08,1078.127C183.905,1067.597 182.809,1056.009 184.933,1044.828C187.056,1033.647 192.302,1023.375 200.007,1015.31C210.379,1004.545 224.402,998.504 239.018,998.504C253.633,998.504 267.656,1004.545 278.028,1015.31Z" transform="rotate(138.524 239.017 1056.102)" fill="#EDB656"/>
<g opacity="0.2">
<path d="M201.273,1018.68C212.06,1018.903 222.545,1022.444 231.42,1028.859C240.294,1035.274 247.166,1044.279 251.177,1054.752C255.188,1065.225 256.161,1076.701 253.974,1087.748C251.788,1098.796 246.538,1108.925 238.881,1116.872C235.654,1120.77 231.89,1124.143 227.712,1126.882C236.202,1127.089 244.622,1125.235 252.311,1121.465C260,1117.696 266.748,1112.113 272.026,1105.157C277.303,1098.2 280.967,1090.059 282.728,1081.372C284.489,1072.685 284.3,1063.69 282.176,1055.092C280.052,1046.495 276.05,1038.53 270.485,1031.822C264.921,1025.114 257.944,1019.847 250.105,1016.434C242.265,1013.021 233.775,1011.555 225.303,1012.152C216.83,1012.748 208.605,1015.391 201.273,1019.871L201.273,1018.68Z" transform="rotate(138.517 242.598 1069.46)" fill="#000000"/>
</g>
<path d="M355.796,1339.556C363.469,1347.634 368.683,1357.906 370.78,1369.078C372.877,1380.249 371.762,1391.82 367.578,1402.33C363.393,1412.841 356.326,1421.82 347.266,1428.137C338.207,1434.454 327.561,1437.825 316.672,1437.825C305.782,1437.825 295.137,1434.454 286.078,1428.137C277.018,1421.82 269.95,1412.841 265.766,1402.33C261.581,1391.82 260.467,1380.249 262.564,1369.078C264.661,1357.906 269.874,1347.634 277.548,1339.556C282.673,1334.161 288.768,1329.879 295.483,1326.957C302.198,1324.035 309.399,1322.53 316.672,1322.53C323.945,1322.53 331.146,1324.035 337.861,1326.957C344.575,1329.879 350.671,1334.161 355.796,1339.556Z" transform="rotate(138.524 316.672 1380.178)" fill="#0CB0C1"/>
<g opacity="0.2">
<path d="M280.161,1344.348C294.312,1344.496 307.833,1350.494 317.769,1361.032C322.91,1366.37 326.99,1372.72 329.774,1379.714C332.558,1386.709 333.992,1394.21 333.992,1401.786C333.992,1409.363 332.558,1416.864 329.774,1423.859C326.99,1430.853 322.91,1437.202 317.769,1442.541C314.498,1445.958 310.821,1448.922 306.828,1451.359C315.31,1451.531 323.714,1449.645 331.382,1445.851C339.05,1442.057 345.773,1436.458 351.025,1429.492C356.277,1422.525 359.915,1414.382 361.653,1405.7C363.391,1397.018 363.182,1388.032 361.043,1379.449C358.904,1370.865 354.892,1362.916 349.323,1356.225C343.754,1349.533 336.779,1344.282 328.943,1340.882C321.108,1337.481 312.627,1336.025 304.163,1336.626C295.699,1337.228 287.484,1339.871 280.161,1344.348Z" transform="rotate(138.517 321.489 1393.932)" fill="#000000"/>
</g>
<path d="M978.559,1920.397C986.265,1928.462 991.511,1938.734 993.634,1949.915C995.757,1961.095 994.662,1972.683 990.487,1983.214C986.312,1993.744 979.244,2002.744 970.178,2009.075C961.111,2015.407 950.453,2018.787 939.55,2018.787C928.646,2018.787 917.988,2015.407 908.922,2009.075C899.855,2002.744 892.788,1993.744 888.613,1983.214C884.438,1972.683 883.342,1961.095 885.465,1949.915C887.588,1938.734 892.834,1928.462 900.54,1920.397C905.661,1915.038 911.742,1910.786 918.436,1907.886C925.129,1904.985 932.304,1903.492 939.55,1903.492C946.795,1903.492 953.97,1904.985 960.664,1907.886C967.357,1910.786 973.438,1915.038 978.559,1920.397Z" transform="rotate(138.524 939.55 1961.139)" fill="#0CB0C1"/>
<g opacity="0.2">
<path d="M903.932,1925.341C914.718,1925.565 925.203,1929.105 934.078,1935.52C942.953,1941.935 949.825,1950.941 953.836,1961.414C957.847,1971.887 958.82,1983.363 956.633,1994.41C954.446,2005.457 949.197,2015.587 941.539,2023.534C938.268,2026.951 934.592,2029.914 930.599,2032.352C939.08,2032.523 947.485,2030.638 955.153,2026.844C962.821,2023.05 969.544,2017.451 974.796,2010.485C980.048,2003.518 983.685,1995.375 985.423,1986.693C987.161,1978.011 986.953,1969.025 984.814,1960.442C982.675,1951.858 978.663,1943.909 973.094,1937.218C967.525,1930.526 960.549,1925.275 952.714,1921.875C944.879,1918.474 936.397,1917.018 927.934,1917.619C919.47,1918.221 911.255,1920.864 903.932,1925.341Z" transform="rotate(138.517 945.26 1974.925)" fill="#000000"/>
</g>
<path d="M1962.209,1291.318C1969.915,1299.383 1975.161,1309.655 1977.284,1320.836C1979.407,1332.016 1978.312,1343.604 1974.137,1354.135C1969.962,1364.665 1962.894,1373.665 1953.828,1379.996C1944.761,1386.328 1934.103,1389.708 1923.2,1389.708C1912.296,1389.708 1901.638,1386.328 1892.571,1379.996C1883.505,1373.665 1876.438,1364.665 1872.262,1354.135C1868.087,1343.604 1866.992,1332.016 1869.115,1320.836C1871.238,1309.655 1876.484,1299.383 1884.19,1291.318C1889.311,1285.959 1895.392,1281.708 1902.085,1278.807C1908.779,1275.906 1915.954,1274.413 1923.2,1274.413C1930.445,1274.413 1937.62,1275.906 1944.314,1278.807C1951.007,1281.708 1957.088,1285.959 1962.209,1291.318Z" transform="rotate(138.524 1923.2 1332.06)" fill="#EDB656"/>
<path d="M1950.976,1317.455C1951.819,1316.649 1952.92,1316.201 1954.063,1316.201C1955.206,1316.201 1956.308,1316.649 1957.151,1317.455C1957.938,1318.376 1958.374,1319.568 1958.374,1320.803C1958.374,1322.038 1957.938,1323.23 1957.151,1324.15L1950.976,1317.455Z" transform="rotate(138.525 1954.675 1320.176)" fill="#D3B94F"/>
<g opacity="0.2">
<path d="M1887.929,1295.867C1898.716,1296.091 1909.201,1299.631 1918.076,1306.046C1926.951,1312.461 1933.822,1321.467 1937.833,1331.939C1941.845,1342.412 1942.817,1353.888 1940.631,1364.936C1938.444,1375.983 1933.194,1386.112 1925.537,1394.06C1922.231,1397.535 1918.471,1400.504 1914.369,1402.878C1922.858,1403.085 1931.278,1401.23 1938.967,1397.461C1946.656,1393.691 1953.404,1388.109 1958.682,1381.152C1963.959,1374.196 1967.623,1366.054 1969.384,1357.368C1971.145,1348.681 1970.956,1339.686 1968.832,1331.088C1966.708,1322.491 1962.706,1314.525 1957.141,1307.818C1951.577,1301.11 1944.601,1295.843 1936.761,1292.43C1928.921,1289.017 1920.432,1287.551 1911.959,1288.147C1903.486,1288.744 1895.261,1291.386 1887.929,1295.867Z" transform="rotate(138.517 1929.254 1345.456)" fill="#000000"/>
</g>
<path d="M1815.939,1511.734C1823.645,1519.799 1828.891,1530.071 1831.014,1541.252C1833.137,1552.433 1832.042,1564.022 1827.866,1574.552C1823.691,1585.083 1816.624,1594.083 1807.557,1600.414C1798.49,1606.746 1787.832,1610.126 1776.928,1610.126C1766.025,1610.126 1755.366,1606.746 1746.3,1600.414C1737.233,1594.083 1730.165,1585.083 1725.99,1574.552C1721.815,1564.022 1720.72,1552.433 1722.843,1541.252C1724.966,1530.071 1730.212,1519.799 1737.918,1511.734C1748.319,1501.026 1762.331,1495.024 1776.928,1495.024C1791.526,1495.024 1805.538,1501.026 1815.939,1511.734Z" transform="rotate(138.524 1776.928 1552.575)" fill="#FFD685"/>
<g opacity="0.2">
<path d="M1740.716,1516.791C1751.364,1517.206 1761.668,1520.837 1770.384,1527.244C1779.101,1533.651 1785.856,1542.561 1789.834,1552.896C1793.812,1563.232 1794.842,1574.551 1792.8,1585.485C1790.758,1596.42 1785.731,1606.502 1778.327,1614.513C1775.021,1617.989 1771.26,1620.958 1767.158,1623.332C1774.619,1623.603 1782.053,1622.262 1788.995,1619.391C1795.938,1616.52 1802.239,1612.182 1807.504,1606.648C1817.221,1596.82 1823.13,1583.59 1824.102,1569.491C1825.074,1555.391 1821.04,1541.412 1812.771,1530.228C1804.503,1519.045 1792.581,1511.442 1779.286,1508.875C1765.992,1506.307 1752.26,1508.956 1740.716,1516.314L1740.716,1516.791Z" transform="rotate(138.517 1782.48 1565.643)" fill="#000000"/>
</g>
<path d="M373.103,1065.841C694.358,1404.079 1222.98,1404.079 1600.832,1165.308C1615.136,1160.379 1630.082,1157.823 1645.134,1157.732C1649.466,1129.985 1652.254,1101.995 1653.484,1073.906C1252.438,1320.985 795.258,1360.087 410.911,1025.027C400.517,1010.781 387.014,999.388 371.548,991.815C356.082,984.242 339.11,980.712 322.073,981.526C319.754,1003.277 319.754,1023.072 319.754,1044.09C319.754,1049.466 319.754,1055.088 319.754,1060.464C342.949,1056.554 361.273,1052.155 373.103,1065.841Z" transform="rotate(138.15 986.619 1157.49)" fill="#D69630"/>
<path d="M145.142,1113.86C175.367,1204.406 222.82,1287.455 284.577,1357.894C614.576,1263.619 979.898,1195.614 1323.838,1282.769C1351.756,1240.026 1375.136,1194.168 1393.556,1146.022C987.798,1187.758 527.894,1291.852 145.142,1113.86Z" transform="rotate(138.021 769.349 1235.877)" fill="#FFD685"/>
<path d="M1550.889,1122.408C1172.819,1361.498 643.893,1361.498 322.453,1022.808C310.616,1009.104 292.281,1013.509 269.073,1017.425C270.648,1091.499 283.338,1164.844 306.671,1234.734C688.919,1412.154 1148.217,1308.148 1554.369,1266.792C1573.279,1217.904 1586.903,1166.926 1594.985,1114.822C1580.003,1114.938 1565.129,1117.497 1550.889,1122.408Z" transform="rotate(138.113 932.029 1174.182)" fill="#EDB656"/>
<path d="M190.54,1338.344C199.852,1349.194 209.395,1359.798 219.405,1369.908C525.044,1285.08 884.222,1227.377 1178.688,1334.399C1197.694,1312.014 1215.344,1288.376 1231.528,1263.627C887.016,1175.346 521.086,1243.653 190.54,1338.344Z" transform="rotate(137.887 711.035 1296.305)" fill="#EDB656"/>
<path d="M383.826,1428.419C405.198,1430.627 426.803,1432.099 448.641,1432.099C508.12,1432.386 567.359,1424.134 624.732,1407.57C586.532,1387.768 543.969,1379.251 501.557,1382.922C459.144,1386.593 418.462,1402.314 383.826,1428.419Z" transform="rotate(138.047 504.279 1407.098)" fill="#D69630"/>
<path d="M314.277,1426.13C344.801,1434.118 375.848,1439.688 407.159,1442.791C441.692,1416.559 482.311,1400.681 524.707,1396.842C567.101,1393.002 609.691,1401.345 647.955,1420.985C678.981,1411.938 709.329,1400.472 738.747,1386.683C670.479,1355.437 595.895,1342.68 521.767,1349.568C447.641,1356.457 376.318,1382.774 314.277,1426.13Z" transform="rotate(138.079 526.512 1395.271)" fill="#EDB656"/>
<path d="M789.742,1399.72C828.75,1382.118 866.074,1360.62 901.206,1335.52C688.728,1250.246 428.648,1286.512 218.958,1381.832C265.212,1406.857 314.076,1426.1 364.557,1439.171C426.682,1395.685 498.132,1369.294 572.396,1362.403C646.66,1355.512 721.378,1368.341 789.742,1399.72Z" transform="rotate(138.076 560.082 1363.336)" fill="#FFD685"/>
<path d="M152.435,1301.771C199.17,1349.111 252.213,1388.987 309.881,1420.132C518.879,1325.296 779.663,1288.538 992.143,1373.817C1034.647,1342.614 1073.607,1306.352 1108.253,1265.748C815.657,1160.13 457.341,1217.472 152.435,1301.771Z" transform="rotate(138.074 630.345 1314.297)" fill="#0CB0C1"/>
<path d="M529.027,1113.064C911.983,1445.44 1368.523,1406.538 1768.603,1160.72C1768.603,1150.994 1768.603,1141.024 1768.603,1131.056C1768.707,1042.211 1752.685,954.161 1721.399,871.622C1448.585,1291.774 948.313,1049.36 604.462,916.36C564.129,899.862 521.168,891.61 477.889,892.046C458.195,949.024 445.595,1008.438 440.403,1068.811C457.479,1068.114 474.461,1071.776 489.895,1079.482C505.33,1087.19 518.757,1098.712 529.027,1113.064Z" transform="rotate(138.28 1104.504 1112.675)" fill="#0CB0C1"/>
<path d="M1984.363,962.056C1972.995,948.119 1961.163,934.427 1949.331,921.468C1728.931,1117.073 1341.955,1060.591 1105.315,857.897C1097.681,852.694 1089.508,848.428 1080.955,845.183C1044.685,873.186 1011.185,904.969 980.963,940.051C1312.491,1057.901 1670.931,1226.121 1984.363,962.056Z" transform="rotate(138.137 1482.663 973.787)" fill="#D69630"/>
<path d="M1958.099,973.232C1945.089,952.866 1931.147,932.991 1916.277,914.097C1602.383,1179.835 1242.483,1010.283 911.395,892.013C898.151,907.227 885.605,923.176 873.523,939.616C1229.239,1024.024 1674.873,1262.035 1958.099,973.232Z" transform="rotate(138.037 1415.811 1002.044)" fill="#EDB656"/>
<path d="M1944.859,1005.4C1930.401,974.045 1913.797,943.844 1895.177,915.035C1612.179,1203.273 1166.903,965.728 811.471,881.485C785.684,917.039 763.142,955.085 744.145,995.115C1115.595,1086.949 1626.341,1307.841 1944.859,1005.4Z" transform="rotate(138.093 1344.502 1020.381)" fill="#FFD685"/>
<path d="M642.441,911.321C631.064,934.682 620.986,958.723 612.26,983.32C655.682,982.88 698.784,991.192 739.25,1007.809C1084.7,1141.031 1586.624,1385.189 1860.336,963.239C1854.998,949.525 1849.194,936.056 1843.158,922.831C1524.638,1224.049 1013.892,1003.156 642.441,911.321Z" transform="rotate(138.093 1236.299 1055.642)" fill="#EDB656"/>
<path d="M1842.771,876.321C1762.823,906.805 1670.131,921.681 1592.965,949.483C1435.619,1000.453 1332.731,920.706 1219.183,851.934C1183.002,870.44 1148.421,892.227 1115.831,917.048C1124.375,920.285 1132.538,924.54 1140.163,929.729C1376.529,1131.9 1763.055,1187.992 1983.199,993.136C1941.531,947.801 1894.305,908.517 1842.771,876.321Z" transform="rotate(138.206 1549.515 982.79)" fill="#0CB0C1"/>
<path d="M1828.301,864.309C1719.167,986.81 1515.529,917.964 1367.85,864.309C1347.88,872.149 1328.376,880.479 1309.335,890.279C1423.113,959.615 1526.209,1039.73 1683.873,988.28C1761.197,961.085 1854.077,946.14 1934.185,914.779C1900.325,894.787 1864.901,877.901 1828.301,864.309Z" transform="rotate(138.08 1621.76 934.48)" fill="#D69630"/>
<path d="M1826.59,892.55C1773.518,878.486 1719.005,871.351 1664.279,871.305C1626.266,871.32 1588.326,874.834 1550.894,881.806C1641.556,936.995 1760.506,992.428 1826.59,892.55Z" transform="rotate(138.171 1688.742 909.558)" fill="#FFD685"/>
<path d="M1822.187,854.234C1756.001,954.468 1636.405,898.837 1546.301,843.451C1506.324,850.741 1467.067,861.897 1429.027,876.781C1576.723,929.716 1780.385,999.316 1889.533,876.781C1867.703,867.713 1844.945,859.871 1822.187,854.234Z" transform="rotate(138.073 1659.28 894.224)" fill="#EDB656"/>
<path d="M1050.167,582.362C1050.167,596.798 1033.383,608.588 1012.689,608.588C991.996,608.588 975.212,596.798 975.212,582.362C975.212,567.925 991.996,556.376 1012.689,556.376C1033.383,556.376 1050.167,567.925 1050.167,582.362Z" transform="rotate(138.478 1012.689 582.482)" fill="#007272"/>
<path d="M1068.972,922.402C1068.972,936.837 1052.188,948.627 1031.496,948.627C1010.804,948.627 994.021,936.837 994.021,922.402C994.021,907.966 1010.804,896.177 1031.496,896.177C1052.188,896.177 1068.972,907.966 1068.972,922.402Z" transform="rotate(138.479 1031.496 922.402)" fill="#007272"/>
<path d="M1121.826,1310.696C1121.826,1324.892 1105.042,1336.681 1084.349,1336.681C1063.657,1336.681 1047.103,1324.892 1047.103,1310.696C1047.103,1296.501 1063.657,1284.471 1084.349,1284.471C1105.042,1284.471 1121.826,1296.26 1121.826,1310.696Z" transform="rotate(138.478 1084.464 1310.576)" fill="#007272"/>
<path d="M1290.942,1572.978C1290.942,1587.415 1274.157,1598.964 1253.464,1598.964C1232.771,1598.964 1215.987,1587.415 1215.987,1572.978C1215.987,1558.542 1232.771,1546.752 1253.464,1546.752C1274.157,1546.752 1290.942,1558.542 1290.942,1572.978Z" transform="rotate(138.478 1253.464 1572.858)" fill="#007272"/>
<path d="M1557.634,1005.625C1557.634,1020.061 1540.85,1031.61 1520.157,1031.61C1499.465,1031.61 1482.911,1020.061 1482.911,1005.625C1482.911,991.189 1499.465,979.4 1520.157,979.4C1540.85,979.4 1557.634,991.189 1557.634,1005.625Z" transform="rotate(138.478 1520.272 1005.505)" fill="#007272"/>
<path d="M1626.397,1203.94C1626.397,1209.233 1620.65,1213.323 1613.293,1213.323C1605.936,1213.323 1599.958,1209.233 1599.958,1203.94C1599.958,1198.648 1605.936,1194.798 1613.293,1194.798C1620.65,1194.798 1626.397,1198.888 1626.397,1203.94Z" transform="rotate(138.479 1613.178 1204.061)" fill="#007272"/>
<path d="M1718.62,1270.013C1718.62,1275.066 1712.872,1279.156 1705.515,1279.156C1698.158,1279.156 1692.18,1275.066 1692.18,1270.013C1692.18,1264.961 1698.158,1260.63 1705.515,1260.63C1712.872,1260.63 1718.62,1264.961 1718.62,1270.013Z" transform="rotate(138.479 1705.4 1269.893)" fill="#007272"/>
<path d="M1458.454,752.336C1458.454,757.389 1452.476,761.48 1445.118,761.48C1437.761,761.48 1431.782,757.389 1431.782,752.336C1431.782,747.283 1437.761,742.952 1445.118,742.952C1452.476,742.952 1458.454,747.043 1458.454,752.336Z" transform="rotate(138.477 1445.118 752.216)" fill="#007272"/>
<path d="M1502.452,808.174C1502.452,813.467 1496.473,817.558 1489.116,817.558C1481.758,817.558 1475.78,813.467 1475.78,808.174C1475.78,802.88 1481.758,799.03 1489.116,799.03C1496.473,799.03 1502.452,803.121 1502.452,808.174Z" transform="rotate(138.477 1489.116 808.294)" fill="#007272"/>
<path d="M1494.926,615.225C1494.926,620.278 1488.948,624.608 1481.821,624.608C1474.694,624.608 1468.487,620.278 1468.487,615.225C1468.487,610.173 1474.464,606.083 1481.821,606.083C1489.178,606.083 1494.926,610.173 1494.926,615.225Z" transform="rotate(138.479 1481.706 615.345)" fill="#007272"/>
<path d="M945.094,561.367C945.094,566.419 939.117,570.509 931.989,570.509C924.862,570.509 918.655,566.419 918.655,561.367C918.655,556.315 924.632,551.984 931.989,551.984C939.347,551.984 945.094,556.315 945.094,561.367Z" transform="rotate(138.479 931.874 561.247)" fill="#007272"/>
<path d="M1067.299,675.128C1067.299,680.181 1061.321,684.512 1053.963,684.512C1046.606,684.512 1040.627,680.181 1040.627,675.128C1040.627,670.075 1046.606,665.984 1053.963,665.984C1061.321,665.984 1067.299,670.075 1067.299,675.128Z" transform="rotate(138.477 1053.963 675.248)" fill="#007272"/>
<path d="M983.46,774.455C983.46,779.508 977.712,783.598 970.355,783.598C962.998,783.598 957.02,779.508 957.02,774.455C957.02,769.403 962.998,765.072 970.355,765.072C977.712,765.072 983.46,769.162 983.46,774.455Z" transform="rotate(138.479 970.24 774.335)" fill="#007272"/>
<path d="M924.071,731.105C924.071,736.158 918.092,740.489 910.735,740.489C903.377,740.489 897.399,736.158 897.399,731.105C897.399,726.052 903.377,721.961 910.735,721.961C918.092,721.961 924.071,726.052 924.071,731.105Z" transform="rotate(138.477 910.735 731.225)" fill="#007272"/>
<path d="M983.786,968.299C983.786,973.351 977.808,977.682 970.451,977.682C963.094,977.682 957.346,973.351 957.346,968.299C957.346,963.247 963.094,959.157 970.451,959.157C977.808,959.157 983.786,962.766 983.786,968.299Z" transform="rotate(138.479 970.566 968.419)" fill="#007272"/>
<path d="M1081.491,846.561C1081.491,851.854 1075.743,855.944 1068.386,855.944C1061.029,855.944 1055.052,851.854 1055.052,846.561C1055.052,841.268 1061.029,837.419 1068.386,837.419C1075.743,837.419 1081.491,841.509 1081.491,846.561Z" transform="rotate(138.479 1068.271 846.682)" fill="#007272"/>
<path d="M927.197,974.674C927.197,979.97 921.216,984.064 913.855,984.064C906.494,984.064 900.513,979.97 900.513,974.674C900.513,969.377 905.804,966.247 913.855,966.247C921.906,966.247 927.197,969.618 927.197,974.674Z" transform="rotate(138.469 913.855 975.155)" fill="#007272"/>
<path d="M1013.705,1130.487C1013.705,1135.54 1007.728,1139.63 1000.371,1139.63C993.013,1139.63 987.266,1135.54 987.266,1130.487C987.266,1125.435 993.013,1121.104 1000.371,1121.104C1007.728,1121.104 1013.705,1125.435 1013.705,1130.487Z" transform="rotate(138.479 1000.486 1130.367)" fill="#007272"/>
<path d="M960.801,1273.661C960.801,1278.715 954.822,1282.806 947.463,1282.806C940.104,1282.806 934.125,1278.715 934.125,1273.661C934.125,1268.607 940.104,1264.515 947.463,1264.515C954.822,1264.515 960.801,1268.607 960.801,1273.661Z" transform="rotate(138.475 947.463 1273.661)" fill="#007272"/>
<path d="M643.748,1150.671C643.748,1155.725 637.768,1159.816 630.41,1159.816C623.051,1159.816 617.072,1155.725 617.072,1150.671C617.072,1145.617 623.051,1141.526 630.41,1141.526C637.768,1141.526 643.748,1145.617 643.748,1150.671Z" transform="rotate(138.475 630.41 1150.671)" fill="#007272"/>
<path d="M489.051,922.28C489.051,927.573 483.073,931.663 475.716,931.663C468.359,931.663 462.611,927.573 462.611,922.28C462.611,916.987 468.589,913.138 475.716,913.138C482.843,913.138 489.051,918.19 489.051,922.28Z" transform="rotate(138.479 475.831 922.4)" fill="#007272"/>
<path d="M678.661,1305.593C678.661,1310.645 672.913,1314.735 665.556,1314.735C658.199,1314.735 652.221,1310.645 652.221,1305.593C652.221,1300.54 658.199,1296.21 665.556,1296.21C672.913,1296.21 678.661,1300.3 678.661,1305.593Z" transform="rotate(138.479 665.441 1305.473)" fill="#007272"/>
<path d="M681.215,1355.783C681.215,1360.835 675.237,1364.925 667.88,1364.925C660.523,1364.925 654.776,1360.835 654.776,1355.783C654.776,1350.731 660.523,1346.4 667.88,1346.4C675.237,1346.4 681.215,1350.49 681.215,1355.783Z" transform="rotate(138.479 667.995 1355.663)" fill="#007272"/>
<path d="M723.415,1446.187C723.415,1451.48 717.667,1455.57 710.31,1455.57C702.953,1455.57 696.975,1451.48 696.975,1446.187C696.975,1440.894 702.953,1437.045 710.31,1437.045C717.667,1437.045 723.415,1441.135 723.415,1446.187Z" transform="rotate(138.479 710.195 1446.307)" fill="#007272"/>
<path d="M762.905,1412.105C762.905,1417.158 756.927,1421.489 749.569,1421.489C742.211,1421.489 736.233,1417.158 736.233,1412.105C736.233,1407.052 742.211,1402.961 749.569,1402.961C756.927,1402.961 762.905,1407.052 762.905,1412.105Z" transform="rotate(138.477 749.569 1412.225)" fill="#007272"/>
<path d="M810.175,1558.979C810.175,1564.032 804.197,1568.123 796.839,1568.123C789.481,1568.123 783.503,1564.032 783.503,1558.979C783.503,1553.926 789.481,1549.595 796.839,1549.595C804.197,1549.595 810.175,1553.926 810.175,1558.979Z" transform="rotate(138.477 796.839 1558.859)" fill="#007272"/>
<path d="M760.733,1654.914C760.733,1659.966 754.755,1664.056 747.398,1664.056C740.041,1664.056 734.294,1659.966 734.294,1654.914C734.294,1649.862 740.271,1645.531 747.398,1645.531C754.526,1645.531 760.733,1649.862 760.733,1654.914Z" transform="rotate(138.479 747.513 1654.794)" fill="#007272"/>
<path d="M574.874,1061.86C574.874,1066.913 568.896,1071.003 561.769,1071.003C554.641,1071.003 548.434,1066.913 548.434,1061.86C548.434,1056.808 554.412,1052.477 561.769,1052.477C569.126,1052.477 574.874,1056.567 574.874,1061.86Z" transform="rotate(138.479 561.654 1061.74)" fill="#007272"/>
<path d="M600.142,1213.587C600.142,1218.88 594.164,1222.97 586.807,1222.97C579.45,1222.97 573.702,1218.88 573.702,1213.587C573.702,1208.294 579.45,1204.445 586.807,1204.445C594.164,1204.445 600.142,1208.535 600.142,1213.587Z" transform="rotate(138.479 586.922 1213.707)" fill="#007272"/>
<path d="M627.912,1204.532C627.912,1209.586 621.933,1213.678 614.574,1213.678C607.215,1213.678 601.236,1209.586 601.236,1204.532C601.236,1199.478 607.215,1195.387 614.574,1195.387C621.933,1195.387 627.912,1199.478 627.912,1204.532Z" transform="rotate(138.475 614.574 1204.532)" fill="#007272"/>
<path d="M1032.152,1256.016C1032.152,1261.068 1026.175,1265.158 1019.047,1265.158C1011.92,1265.158 1005.713,1261.068 1005.713,1256.016C1005.713,1250.964 1011.69,1246.633 1019.047,1246.633C1026.405,1246.633 1032.152,1250.964 1032.152,1256.016Z" transform="rotate(138.479 1018.932 1255.896)" fill="#007272"/>
<path d="M1180.09,1351.307C1180.09,1356.361 1174.111,1360.452 1166.752,1360.452C1159.393,1360.452 1153.414,1356.361 1153.414,1351.307C1153.414,1346.253 1159.393,1342.161 1166.752,1342.161C1174.111,1342.161 1180.09,1346.253 1180.09,1351.307Z" transform="rotate(138.475 1166.752 1351.307)" fill="#007272"/>
<path d="M1175.891,1395.432C1175.891,1400.486 1170.143,1404.577 1162.784,1404.577C1155.426,1404.577 1149.448,1400.486 1149.448,1395.432C1149.448,1390.379 1155.426,1386.288 1162.784,1386.288C1170.143,1386.288 1175.891,1391.101 1175.891,1395.432Z" transform="rotate(138.476 1162.67 1395.432)" fill="#007272"/>
<path d="M1491.428,1624.777C1491.428,1629.829 1485.45,1633.919 1478.093,1633.919C1470.736,1633.919 1464.988,1629.829 1464.988,1624.777C1464.988,1619.725 1470.736,1615.394 1478.093,1615.394C1485.45,1615.394 1491.428,1619.725 1491.428,1624.777Z" transform="rotate(138.479 1478.208 1624.657)" fill="#007272"/>
<path d="M1372.07,1640.492C1372.07,1645.545 1366.092,1649.876 1358.734,1649.876C1351.377,1649.876 1345.398,1645.545 1345.398,1640.492C1345.398,1635.439 1351.377,1631.349 1358.734,1631.349C1366.092,1631.349 1372.07,1634.477 1372.07,1640.492Z" transform="rotate(138.477 1358.734 1640.612)" fill="#007272"/>
<path d="M1202.05,1594.238C1202.05,1599.325 1192.814,1603.443 1181.73,1603.443C1170.646,1603.443 1161.409,1599.325 1161.409,1594.238C1161.409,1589.152 1170.415,1584.792 1181.73,1584.792C1193.045,1584.792 1202.05,1588.91 1202.05,1594.238Z" transform="rotate(138.366 1181.73 1594.117)" fill="#007272"/>
<path d="M971.283,663.858C971.283,673.482 960.247,681.181 946.682,681.181C933.117,681.181 922.081,673.482 922.081,663.858C922.081,654.234 933.117,646.775 946.682,646.775C960.247,646.775 971.283,654.474 971.283,663.858Z" transform="rotate(138.479 946.682 663.978)" fill="#007272"/>
<path d="M1061.866,747.764C1061.866,757.148 1050.829,764.848 1037.263,764.848C1023.697,764.848 1012.661,757.148 1012.661,747.764C1012.661,738.379 1023.697,730.68 1037.263,730.68C1050.829,730.68 1061.866,738.139 1061.866,747.764Z" transform="rotate(138.477 1037.263 747.764)" fill="#007272"/>
<path d="M917.108,843.484C917.108,852.868 906.071,860.568 892.505,860.568C878.939,860.568 867.902,852.868 867.902,843.484C867.902,834.1 878.939,826.4 892.505,826.4C906.071,826.4 917.108,833.859 917.108,843.484Z" transform="rotate(138.477 892.505 843.484)" fill="#007272"/>
<path d="M1041.792,1045.121C1041.792,1054.504 1030.756,1062.202 1017.192,1062.202C1003.628,1062.202 992.822,1054.504 992.822,1045.121C992.822,1035.739 1003.628,1027.799 1017.192,1027.799C1030.756,1027.799 1041.792,1035.498 1041.792,1045.121Z" transform="rotate(138.479 1017.307 1045.001)" fill="#007272"/>
<path d="M954.339,1165.878C954.339,1175.262 943.302,1182.962 929.736,1182.962C916.17,1182.962 905.363,1175.262 905.363,1165.878C905.363,1156.493 916.17,1149.033 929.736,1149.033C943.302,1149.033 954.339,1156.252 954.339,1165.878Z" transform="rotate(138.477 929.851 1165.998)" fill="#007272"/>
<path d="M1090.264,1186.186C1090.264,1195.57 1079.228,1203.269 1065.663,1203.269C1052.098,1203.269 1041.062,1195.57 1041.062,1186.186C1041.062,1176.803 1052.098,1168.864 1065.663,1168.864C1079.228,1168.864 1090.264,1176.563 1090.264,1186.186Z" transform="rotate(138.479 1065.663 1186.066)" fill="#007272"/>
<path d="M1234.822,1481.993C1234.822,1491.617 1223.786,1499.316 1210.221,1499.316C1196.657,1499.316 1185.621,1491.617 1185.621,1481.993C1185.621,1472.369 1196.657,1464.911 1210.221,1464.911C1223.786,1464.911 1234.822,1472.61 1234.822,1481.993Z" transform="rotate(138.479 1210.222 1482.114)" fill="#007272"/>
<path d="M1443.076,1618.52C1443.076,1627.905 1432.04,1635.605 1418.474,1635.605C1404.908,1635.605 1393.871,1627.905 1393.871,1618.52C1393.871,1609.136 1404.908,1601.436 1418.474,1601.436C1432.04,1601.436 1443.076,1609.136 1443.076,1618.52Z" transform="rotate(138.477 1418.474 1618.52)" fill="#007272"/>
<path d="M1314.235,1674.514C1314.235,1683.897 1303.199,1691.596 1289.634,1691.596C1276.069,1691.596 1265.033,1683.897 1265.033,1674.514C1265.033,1665.131 1276.069,1657.191 1289.634,1657.191C1303.199,1657.191 1314.235,1664.89 1314.235,1674.514Z" transform="rotate(138.479 1289.634 1674.394)" fill="#007272"/>
<path d="M1056.363,1385.205C1056.363,1394.828 1045.558,1402.527 1031.994,1402.527C1018.429,1402.527 1007.394,1394.828 1007.394,1385.205C1007.394,1375.582 1018.429,1368.124 1031.994,1368.124C1045.558,1368.124 1056.363,1375.823 1056.363,1385.205Z" transform="rotate(138.479 1031.879 1385.326)" fill="#007272"/>
<path d="M1709.044,1203.55C1709.044,1212.933 1698.008,1220.632 1684.443,1220.632C1670.879,1220.632 1659.843,1212.933 1659.843,1203.55C1659.843,1194.166 1670.879,1186.227 1684.443,1186.227C1698.008,1186.227 1709.044,1193.926 1709.044,1203.55Z" transform="rotate(138.479 1684.443 1203.429)" fill="#007272"/>
<path d="M1548.75,1130.23C1548.75,1139.611 1537.946,1147.308 1524.384,1147.308C1510.822,1147.308 1500.707,1139.611 1500.707,1130.23C1500.707,1120.849 1511.741,1113.152 1525.304,1113.152C1538.866,1113.152 1548.75,1120.849 1548.75,1130.23Z" transform="rotate(138.482 1524.729 1130.23)" fill="#007272"/>
<path d="M1639.979,1095.772C1639.979,1105.158 1628.941,1112.859 1615.373,1112.859C1601.806,1112.859 1590.308,1105.158 1590.308,1095.772C1590.308,1086.387 1601.346,1078.686 1614.913,1078.686C1628.481,1078.686 1639.979,1086.387 1639.979,1095.772Z" transform="rotate(138.475 1615.143 1095.772)" fill="#007272"/>
<path d="M1675.387,1291.615C1675.387,1300.999 1664.35,1308.699 1650.784,1308.699C1637.218,1308.699 1626.181,1300.999 1626.181,1291.615C1626.181,1282.23 1637.218,1274.53 1650.784,1274.53C1664.35,1274.53 1675.387,1282.23 1675.387,1291.615Z" transform="rotate(138.477 1650.784 1291.615)" fill="#007272"/>
<path d="M1521.124,690.909C1521.124,700.536 1510.085,707.998 1496.517,707.998C1482.948,707.998 1470.989,700.536 1470.989,690.909C1470.989,681.281 1482.028,673.82 1495.597,673.82C1509.165,673.82 1521.124,681.522 1521.124,690.909Z" transform="rotate(138.474 1496.057 690.909)" fill="#007272"/>
<path d="M1481.258,878.02C1481.258,887.403 1470.451,895.103 1456.886,895.103C1443.321,895.103 1432.285,887.403 1432.285,878.02C1432.285,868.636 1443.321,860.937 1456.886,860.937C1470.451,860.937 1481.258,868.636 1481.258,878.02Z" transform="rotate(138.478 1456.771 878.02)" fill="#007272"/>
<path d="M535.189,979.406C535.189,989.029 524.154,996.728 510.82,996.728C497.485,996.728 486.22,989.029 486.22,979.406C486.22,969.783 497.026,962.325 510.82,962.325C524.614,962.325 535.189,970.024 535.189,979.406Z" transform="rotate(138.479 510.705 979.527)" fill="#007272"/>
<path d="M586.463,1145.212C586.463,1154.595 575.427,1162.295 561.862,1162.295C548.297,1162.295 537.261,1154.595 537.261,1145.212C537.261,1135.829 548.297,1127.889 561.862,1127.889C575.427,1127.889 586.463,1135.588 586.463,1145.212Z" transform="rotate(138.479 561.862 1145.092)" fill="#007272"/>
<path d="M739.871,1359.019C739.871,1368.643 728.835,1376.342 715.27,1376.342C701.705,1376.342 690.669,1368.643 690.669,1359.019C690.669,1349.395 701.705,1341.936 715.27,1341.936C728.835,1341.936 739.871,1349.635 739.871,1359.019Z" transform="rotate(138.479 715.27 1359.139)" fill="#007272"/>
<path d="M763.843,1559.914C763.843,1569.297 752.807,1576.997 739.242,1576.997C725.677,1576.997 714.641,1569.297 714.641,1559.914C714.641,1550.531 725.677,1542.591 739.242,1542.591C752.807,1542.591 763.843,1549.328 763.843,1559.914Z" transform="rotate(138.479 739.242 1559.794)" fill="#007272"/>
<path d="M793.527,1488.049C793.527,1497.433 782.49,1505.132 768.925,1505.132C755.36,1505.132 744.554,1497.433 744.554,1488.049C744.554,1478.665 755.36,1470.966 768.925,1470.966C782.49,1470.966 793.527,1478.425 793.527,1488.049Z" transform="rotate(138.478 769.04 1488.049)" fill="#007272"/>
<path d="M805.85,1641.878C805.85,1648.615 798.032,1654.149 788.146,1654.149C778.259,1654.149 770.672,1648.615 770.672,1641.878C770.672,1635.141 778.489,1629.607 788.146,1629.607C797.802,1629.607 805.85,1635.141 805.85,1641.878Z" transform="rotate(138.478 788.261 1641.878)" fill="#007272"/>
<path d="M686.067,1248.075C686.067,1254.812 678.249,1260.345 668.593,1260.345C658.936,1260.345 650.889,1254.812 650.889,1248.075C650.889,1241.338 658.936,1235.804 668.593,1235.804C678.249,1235.804 686.067,1241.338 686.067,1248.075Z" transform="rotate(138.478 668.478 1248.075)" fill="#007272"/>
<path d="M486.163,989.339C486.163,996.077 478.345,1001.371 468.457,1001.371C458.57,1001.371 450.981,996.077 450.981,989.339C450.981,982.601 458.799,977.066 468.457,977.066C478.115,977.066 486.163,982.36 486.163,989.339Z" transform="rotate(138.476 468.572 989.218)" fill="#007272"/>
<path d="M488.493,1064.839C488.493,1071.576 480.676,1077.11 471.019,1077.11C461.362,1077.11 453.315,1071.576 453.315,1064.839C453.315,1058.102 461.362,1052.568 471.019,1052.568C480.676,1052.568 488.493,1058.102 488.493,1064.839Z" transform="rotate(138.478 470.904 1064.839)" fill="#007272"/>
<path d="M896.724,898.517C896.724,905.254 888.907,910.788 879.251,910.788C869.594,910.788 861.547,905.254 861.547,898.517C861.547,891.781 869.364,886.247 879.251,886.247C889.137,886.247 896.724,891.781 896.724,898.517Z" transform="rotate(138.478 879.136 898.517)" fill="#007272"/>
<path d="M962.405,874.606C962.405,881.343 954.588,886.877 944.701,886.877C934.815,886.877 927.227,881.343 927.227,874.606C927.227,867.869 935.045,862.335 944.701,862.335C954.358,862.335 962.405,867.869 962.405,874.606Z" transform="rotate(138.478 944.816 874.606)" fill="#007272"/>
<path d="M1016.411,507.811C1016.411,514.547 1008.594,520.081 998.939,520.081C989.283,520.081 981.466,514.547 981.466,507.811C981.466,501.075 989.283,495.541 998.939,495.541C1008.594,495.541 1016.411,501.075 1016.411,507.811Z" transform="rotate(138.479 998.938 507.811)" fill="#007272"/>
<path d="M1080.354,1085.531C1080.354,1092.268 1072.537,1097.801 1062.881,1097.801C1053.225,1097.801 1045.409,1092.268 1045.409,1085.531C1045.409,1078.795 1053.225,1073.262 1062.881,1073.262C1072.537,1073.262 1080.354,1078.795 1080.354,1085.531Z" transform="rotate(138.479 1062.881 1085.531)" fill="#007272"/>
<path d="M1144.953,1463.679C1144.953,1470.657 1137.136,1475.95 1127.479,1475.95C1117.823,1475.95 1109.776,1470.657 1109.776,1463.679C1109.776,1456.702 1117.823,1451.408 1127.479,1451.408C1137.136,1451.408 1144.953,1456.942 1144.953,1463.679Z" transform="rotate(138.478 1127.364 1463.679)" fill="#007272"/>
<path d="M1185.727,1516C1185.727,1522.737 1177.679,1528.27 1168.023,1528.27C1158.366,1528.27 1150.549,1522.737 1150.549,1516C1150.549,1509.263 1158.366,1503.729 1168.023,1503.729C1177.679,1503.729 1185.727,1509.263 1185.727,1516Z" transform="rotate(138.478 1168.138 1516)" fill="#007272"/>
<path d="M1366.771,1583.2C1366.771,1589.937 1358.953,1595.23 1349.296,1595.23C1339.639,1595.23 1331.822,1589.937 1331.822,1583.2C1331.822,1576.462 1339.639,1570.928 1349.296,1570.928C1358.953,1570.928 1366.771,1576.222 1366.771,1583.2Z" transform="rotate(138.477 1349.296 1583.079)" fill="#007272"/>
<path d="M1371.381,1691.851C1371.381,1698.588 1363.564,1704.121 1353.907,1704.121C1344.25,1704.121 1336.203,1698.106 1336.203,1691.851C1336.203,1685.595 1344.25,1679.58 1353.907,1679.58C1363.564,1679.58 1371.381,1684.633 1371.381,1691.851Z" transform="rotate(138.478 1353.792 1691.851)" fill="#007272"/>
<path d="M902.992,1049.383C902.992,1056.119 894.945,1061.653 885.288,1061.653C875.631,1061.653 867.814,1056.119 867.814,1049.383C867.814,1042.646 875.631,1037.112 885.288,1037.112C894.945,1037.112 902.992,1042.646 902.992,1049.383Z" transform="rotate(138.478 885.403 1049.383)" fill="#007272"/>
<path d="M1067.454,500.556C1067.454,509.94 1056.418,517.639 1042.853,517.639C1029.288,517.639 1018.252,509.94 1018.252,500.556C1018.252,491.173 1029.288,483.233 1042.853,483.233C1056.418,483.233 1067.454,490.932 1067.454,500.556Z" transform="rotate(138.479 1042.853 500.436)" fill="#007272"/>
<g opacity="0.2">
<path d="M1250.959,460.303C1284.061,578.976 1286.121,704.807 1256.923,824.603C1227.723,944.399 1168.341,1053.747 1085.003,1141.181C1001.665,1228.617 897.439,1290.917 783.255,1321.551C669.071,1352.183 549.133,1350.023 436.019,1315.293C467.998,1430.211 527.95,1534.413 609.972,1617.639C691.993,1700.865 793.259,1760.249 903.801,1789.945C1014.343,1819.641 1130.349,1818.625 1240.403,1786.997C1350.457,1755.369 1450.763,1694.221 1531.449,1609.569C1612.135,1524.917 1670.421,1419.681 1700.567,1304.219C1730.713,1188.757 1731.681,1067.049 1703.377,951.075C1675.073,835.101 1618.471,728.857 1539.143,642.804C1459.813,556.751 1360.495,493.854 1250.959,460.303Z" transform="rotate(138.617 1079.967 1135.897)" fill="url(#pf_0_1_927)"/>
</g>
<g opacity="0.7">
<path d="M1447.193,610.16C1466.903,637.718 1446.047,689.001 1401.358,724.946C1356.668,760.892 1303.04,767.602 1283.331,740.283C1263.621,712.964 1283.331,661.442 1329.166,625.736C1375.002,590.03 1427.942,581.882 1447.193,610.16Z" transform="rotate(138.516 1365.176 675.096)" fill="#FFFFFF"/>
</g>
<defs>
<linearGradient id="pf_0_1_927" x1="1236.827" y1="675.425" x2="781.103" y2="2035.102" gradientUnits="userSpaceOnUse">
<stop stop-color="#000000"/>
<stop offset="0.57" stop-color="#000000"/>
<stop offset="0.61" stop-color="#000000"/>
<stop offset="1" stop-color="#404040"/>
</linearGradient>
</defs>
</svg>
