<svg width="466" height="64" viewBox="0 0 466 64" fill="none" xmlns="http://www.w3.org/2000/svg" xmlns:xlink="http://www.w3.org/1999/xlink">
<path d="M12.285,64C10.072,64 8.024,63.447 6.143,62.34C4.261,61.233 2.767,59.739 1.66,57.857C0.553,55.976 0,53.928 0,51.715L0,16.519C0,14.25 0.553,12.202 1.66,10.376C2.767,8.495 4.261,7 6.143,5.894C8.024,4.787 10.072,4.233 12.285,4.233L47.398,4.233C49.667,4.233 51.715,4.787 53.541,5.894C55.422,7 56.917,8.495 58.023,10.376C59.185,12.202 59.767,14.25 59.767,16.519L59.767,22.163L46.734,22.163L46.734,17.183L12.866,17.183L12.866,51.051L46.734,51.051L46.734,42.086L33.785,42.086L33.785,29.136L59.767,29.136L59.767,51.715C59.767,53.928 59.185,55.976 58.023,57.857C56.917,59.739 55.422,61.233 53.541,62.34C51.715,63.447 49.667,64 47.398,64L12.285,64Z" fill="#FFFFFF"/>
<path d="M80.608,64C78.395,64 76.375,63.447 74.549,62.34C72.722,61.233 71.256,59.767 70.149,57.94C69.098,56.114 68.572,54.122 68.572,51.964L68.572,33.536L104.681,33.536L104.681,28.555L68.572,28.555L68.572,15.855L105.345,15.855C107.559,15.855 109.578,16.408 111.405,17.515C113.231,18.622 114.67,20.088 115.721,21.914C116.828,23.741 117.381,25.733 117.381,27.891L117.381,64L80.608,64ZM81.272,51.3L104.681,51.3L104.681,44.659L81.272,44.659L81.272,51.3Z" fill="#FFFFFF"/>
<path d="M136.056,64C133.898,64 131.905,63.447 130.079,62.34C128.253,61.233 126.786,59.767 125.68,57.94C124.573,56.114 124.019,54.122 124.019,51.964L124.019,0L136.803,0L136.803,51.3L146.515,51.3L146.515,64L136.056,64Z" fill="#FFFFFF"/>
<path d="M164.995,64C162.782,64 160.762,63.447 158.936,62.34C157.11,61.233 155.643,59.767 154.536,57.94C153.485,56.114 152.959,54.122 152.959,51.964L152.959,33.536L189.068,33.536L189.068,28.555L152.959,28.555L152.959,15.855L189.732,15.855C191.946,15.855 193.966,16.408 195.792,17.515C197.618,18.622 199.057,20.088 200.108,21.914C201.216,23.741 201.768,25.733 201.768,27.891L201.768,64L164.995,64ZM165.66,51.3L189.068,51.3L189.068,44.659L165.66,44.659L165.66,51.3Z" fill="#FFFFFF"/>
<path d="M219.63,64C217.472,64 215.48,63.447 213.654,62.34C211.828,61.233 210.362,59.767 209.254,57.94C208.148,56.114 207.594,54.122 207.594,51.964L207.594,27.891C207.594,25.733 208.148,23.741 209.254,21.914C210.362,20.088 211.828,18.622 213.654,17.515C215.48,16.408 217.472,15.855 219.63,15.855L256.32,15.855L256.32,28.555L220.294,28.555L220.294,51.3L256.404,51.3L256.404,64L219.63,64Z" fill="#FFFFFF"/>
<path d="M275.326,64C273.114,64 271.094,63.447 269.268,62.34C267.44,61.233 265.974,59.767 264.868,57.94C263.76,56.114 263.208,54.122 263.208,51.964L263.208,1.577L275.908,1.577L275.908,15.855L293.754,15.855L293.754,28.555L275.908,28.555L275.908,51.3L293.754,51.3L293.754,64L275.326,64Z" fill="#FFFFFF"/>
<path d="M300.576,64L300.576,15.855L313.276,15.855L313.276,64L300.576,64ZM300.576,12.866L300.576,0.083L313.276,0.083L313.276,12.866L300.576,12.866Z" fill="#FFFFFF"/>
<path d="M332.39,64C330.232,64 328.24,63.447 326.414,62.34C324.586,61.233 323.12,59.767 322.014,57.94C320.906,56.114 320.354,54.122 320.354,51.964L320.354,27.891C320.354,25.733 320.906,23.741 322.014,21.914C323.12,20.088 324.586,18.622 326.414,17.515C328.24,16.408 330.232,15.855 332.39,15.855L369.08,15.855L369.08,28.555L333.054,28.555L333.054,51.3L369.162,51.3L369.162,64L332.39,64Z" fill="#FFFFFF"/>
<path d="M378.32,64L378.32,51.3L391.02,51.3L391.02,64L378.32,64Z" fill="#FFFFFF"/>
<path d="M397.528,64L397.528,15.855L410.228,15.855L410.228,64L397.528,64ZM397.528,12.866L397.528,0.083L410.228,0.083L410.228,12.866L397.528,12.866Z" fill="#FFFFFF"/>
<path d="M428.45,64C426.292,64 424.3,63.447 422.474,62.34C420.648,61.233 419.18,59.767 418.074,57.94C416.968,56.114 416.414,54.122 416.414,51.964L416.414,27.891C416.414,25.733 416.968,23.741 418.074,21.914C419.18,20.088 420.648,18.622 422.474,17.515C424.3,16.408 426.292,15.855 428.45,15.855L453.186,15.855C455.4,15.855 457.42,16.408 459.246,17.515C461.072,18.622 462.512,20.088 463.562,21.914C464.67,23.741 465.224,25.733 465.224,27.891L465.224,51.964C465.224,54.122 464.67,56.114 463.562,57.94C462.512,59.767 461.072,61.233 459.246,62.34C457.42,63.447 455.4,64 453.186,64L428.45,64ZM429.114,51.3L452.522,51.3L452.522,28.555L429.114,28.555L429.114,51.3Z" fill="#FFFFFF"/>
</svg>
