<svg width="306" height="252" viewBox="0 0 306 252" fill="none" xmlns="http://www.w3.org/2000/svg" xmlns:xlink="http://www.w3.org/1999/xlink">
<path d="M188.364,5.415C191.091,6.958 197.408,27.176 197.408,33.966C197.408,35.51 194.251,38.133 189.943,40.602C182.765,44.461 159.222,60.203 143.143,71.623C120.891,87.673 105.53,115.144 101.51,115.144C71.937,115.144 18.677,167.771 5.039,210.52C-10.753,260.06 15.088,259.136 23.414,229.194C34.325,189.84 54.423,159.592 83.422,138.911C93.184,131.967 93.615,132.275 89.739,142.925C70.789,196.014 134.673,234.904 173.147,193.698C198.988,165.919 179.607,121.78 137.688,112.675C128.069,110.669 150.321,85.976 179.893,66.067C204.729,49.399 202.719,49.708 205.591,60.511C217.651,107.119 227.125,109.897 248.515,73.321C258.135,56.962 276.223,37.67 299.911,18.842C308.953,11.588 303.069,8.039 285.411,9.891C266.175,12.051 239.759,9.274 217.795,3.1C186.498,-5.388 184.344,3.1 188.364,5.415ZM137.831,125.947C166.257,139.837 167.548,186.445 139.985,198.636C122.327,206.508 104.956,172.092 113.426,146.01C120.317,125.176 126.347,120.237 137.831,125.947Z" clip-rule="evenodd" fill-rule="evenodd" transform="rotate(321.429 152.07 124.723)" fill="#FFFFFF"/>
</svg>
