<svg width="144" height="120" viewBox="0 0 144 120" fill="none" xmlns="http://www.w3.org/2000/svg" xmlns:xlink="http://www.w3.org/1999/xlink">
<path d="M88.873,2.998C90.157,3.725 93.131,13.243 93.131,16.441C93.131,17.167 91.644,18.402 89.616,19.565C86.237,21.381 75.152,28.793 67.582,34.17C57.106,41.727 49.873,54.661 47.981,54.661C34.057,54.661 8.981,79.438 2.56,99.565C-4.874,122.889 7.292,122.454 11.212,108.357C16.349,89.828 25.812,75.587 39.465,65.85C44.061,62.581 44.264,62.726 42.439,67.74C33.517,92.735 63.594,111.045 81.709,91.645C93.875,78.566 84.75,57.785 65.014,53.498C60.485,52.553 70.962,40.927 84.885,31.554C96.578,23.707 95.632,23.852 96.984,28.938C102.661,50.882 107.122,52.19 117.193,34.969C121.722,27.267 130.238,18.184 141.391,9.32C145.648,5.904 142.877,4.233 134.564,5.105C125.507,6.123 113.07,4.815 102.729,1.908C87.994,-2.088 86.98,1.908 88.873,2.998ZM65.081,59.746C78.465,66.286 79.072,88.23 66.095,93.97C57.782,97.676 49.603,81.472 53.591,69.193C56.835,59.383 59.674,57.058 65.081,59.746Z" clip-rule="evenodd" fill-rule="evenodd" transform="rotate(141.226 71.785 59.17)" fill="#FFFFFF"/>
</svg>
