<svg width="132" height="130" viewBox="0 0 132 130" fill="none" xmlns="http://www.w3.org/2000/svg" xmlns:xlink="http://www.w3.org/1999/xlink">
<path d="M79.8,19.467C94.4,24 106,35.6 110.533,50.2C111.8,54.4 115.6,57.333 119.933,57.333L120.2,57.333C126.867,57.333 131.667,50.933 129.733,44.6C123.267,23.4 106.533,6.667 85.333,0.2C79.067,-1.733 72.667,3.067 72.667,9.733L72.667,10C72.667,14.4 75.6,18.2 79.8,19.467L79.8,19.467ZM110.533,77.8C106,92.467 94.4,104 79.8,108.533C75.6,109.8 72.667,113.6 72.667,117.933L72.667,118.2C72.667,124.867 79.067,129.667 85.4,127.733C106.6,121.267 123.333,104.533 129.8,83.333C131.733,77 126.933,70.6 120.333,70.6L120,70.6C115.6,70.667 111.8,73.6 110.533,77.8L110.533,77.8ZM59.333,118.067C59.333,113.6 56.333,109.8 52.067,108.467C33.133,102.533 19.333,84.867 19.333,64C19.333,43.133 33.133,25.467 52.067,19.533C56.333,18.2 59.333,14.4 59.333,9.933L59.333,9.867C59.333,3.2 52.867,-1.733 46.467,0.267C19.2,8.6 -0.667,34 -0.667,64C-0.667,94 19.2,119.4 46.467,127.733C52.867,129.733 59.333,124.8 59.333,118.067L59.333,118.067Z" fill="#FFFFFF"/>
</svg>
